<svg xmlns="http://www.w3.org/2000/svg" viewBox="0 0 420 297" width="420mm" height="297mm" font-family="'Arial Narrow','Liberation Sans Narrow','Roboto Condensed',Arial,Helvetica,sans-serif">
<defs>
 <pattern id="p-fayans" patternUnits="userSpaceOnUse" width="3" height="3"><path d="M0 0H3M0 0V3" stroke="#c7ccd4" stroke-width="0.1"/></pattern>
 <pattern id="p-tas" patternUnits="userSpaceOnUse" width="6" height="6"><path d="M0 0H6M0 0V6" stroke="#d3d7de" stroke-width="0.1"/></pattern>
 <pattern id="p-parke" patternUnits="userSpaceOnUse" width="12" height="1.8"><path d="M0 0H12M0 0V1.8" stroke="#e6e1d6" stroke-width="0.08"/></pattern>
 <pattern id="p-dis-tas" patternUnits="userSpaceOnUse" width="6" height="3"><path d="M0 0H6M0 0V3" stroke="#c9cdd3" stroke-width="0.1"/></pattern>
 <pattern id="p-duvar" patternUnits="userSpaceOnUse" width="1.5" height="1.5" patternTransform="rotate(45)"><path d="M0 0V1.5" stroke="#3f444c" stroke-width="0.22"/></pattern>
 <pattern id="p-yalitim" patternUnits="userSpaceOnUse" width="2.0" height="2.0"><rect width="2" height="2" fill="#f4f1e8"/><path d="M0 2L1 0L2 2" fill="none" stroke="#6b7280" stroke-width="0.08"/></pattern>
 <pattern id="p-saft" patternUnits="userSpaceOnUse" width="1.6" height="1.6" patternTransform="rotate(45)"><path d="M0 0V1.6" stroke="#9ca3af" stroke-width="0.12"/></pattern>
 <pattern id="p-toprak" patternUnits="userSpaceOnUse" width="4" height="4" patternTransform="rotate(45)"><path d="M0 0V4M2 0V1.2" stroke="#8b7355" stroke-width="0.15"/></pattern>
 <pattern id="p-beton" patternUnits="userSpaceOnUse" width="2.4" height="2.4"><circle cx="0.6" cy="0.7" r="0.18" fill="#555"/><circle cx="1.7" cy="1.8" r="0.12" fill="#555"/><path d="M1.4 0.4l0.4 0.3l-0.5 0.1z" fill="#555"/></pattern>
 <pattern id="p-cim" patternUnits="userSpaceOnUse" width="4" height="4"><path d="M0.5 1.2l0.3-0.8l0.3 0.8M2.6 3.2l0.3-0.8l0.3 0.8" fill="none" stroke="#86a877" stroke-width="0.12"/></pattern>
 <pattern id="p-kiremit" patternUnits="userSpaceOnUse" width="2.5" height="2.5"><path d="M0 2.5H2.5" stroke="#9ca3af" stroke-width="0.1"/></pattern>
 <pattern id="p-izgara" patternUnits="userSpaceOnUse" width="1.2" height="1.2"><path d="M0 0H1.2M0 0V1.2" stroke="#6b7280" stroke-width="0.1"/></pattern>
 <pattern id="p-su" patternUnits="userSpaceOnUse" width="6" height="3"><path d="M0 1.5q1.5-0.8 3 0t3 0" fill="none" stroke="#93c5fd" stroke-width="0.15"/></pattern>
 <pattern id="p-sille" patternUnits="userSpaceOnUse" width="9" height="3.0"><rect width="9" height="3" fill="#efe6d4"/><path d="M0 3H9M0 0V1.5M4.5 1.5V3M0 1.5H9" stroke="#b9ab8e" stroke-width="0.12"/></pattern>
 <pattern id="p-siva" patternUnits="userSpaceOnUse" width="5" height="5"><rect width="5" height="5" fill="#fbfbf9"/></pattern>
 <pattern id="p-ahsap" patternUnits="userSpaceOnUse" width="1.2" height="5"><rect width="1.2" height="5" fill="#c89b6d"/><path d="M0 0V5" stroke="#8a643f" stroke-width="0.12"/></pattern>
 <pattern id="p-kiremit-g" patternUnits="userSpaceOnUse" width="3" height="2"><rect width="3" height="2" fill="#4b5058"/><path d="M0 2H3M1.5 0V2" stroke="#2f3338" stroke-width="0.12"/></pattern>
 <marker id="ok" viewBox="0 0 10 10" refX="9" refY="5" markerWidth="6" markerHeight="6" orient="auto-start-reverse"><path d="M0 0L10 5L0 10z" fill="#111"/></marker>
 <marker id="ok-k" viewBox="0 0 10 10" refX="9" refY="5" markerWidth="4" markerHeight="4" orient="auto-start-reverse"><path d="M0 0L10 5L0 10z" fill="#b45309"/></marker>
</defs>
<rect x="0.00" y="0.00" width="420.00" height="297.00" fill="#ffffff" stroke="none" stroke-width="0.18" />
<rect x="10.00" y="10.00" width="400.00" height="277.00" fill="none" stroke="#111" stroke-width="0.70" />
<rect x="34.00" y="148.00" width="31.10" height="6.00" fill="#111" stroke="none" stroke-width="0.18" />
<rect x="34.00" y="84.00" width="36.70" height="6.00" fill="#111" stroke="none" stroke-width="0.18" />
<rect x="140.50" y="84.00" width="12.00" height="6.00" fill="#111" stroke="none" stroke-width="0.18" />
<rect x="140.50" y="148.00" width="12.00" height="6.00" fill="#111" stroke="none" stroke-width="0.18" />
<path d="M140.50 90.72L141.22 90.00M140.50 92.85L143.35 90.00M140.50 94.97L143.50 91.97M140.50 97.09L143.50 94.09M140.50 99.21L143.50 96.21M140.50 101.33L143.50 98.33M140.50 103.45L143.50 100.45M140.50 105.57L143.50 102.57M140.50 107.69L143.50 104.69M140.50 109.82L143.50 106.82M140.50 111.94L143.50 108.94M140.50 114.06L143.50 111.06M140.50 116.18L143.50 113.18M140.50 118.30L143.50 115.30M140.50 120.42L143.50 117.42M140.50 122.54L143.50 119.54M140.50 124.67L143.50 121.67M140.50 126.79L143.50 123.79M140.50 128.91L143.50 125.91M140.50 131.03L143.50 128.03M140.50 133.15L143.50 130.15M140.50 135.27L143.50 132.27M140.50 137.39L143.50 134.39M140.50 139.51L143.50 136.51M140.50 141.64L143.50 138.64M140.50 143.76L143.50 140.76M140.50 145.88L143.50 142.88M140.50 148.00L143.50 145.00M142.62 148.00L143.50 147.12" fill="none" stroke="#3f444c" stroke-width="0.22"/>
<rect x="140.50" y="90.00" width="3.00" height="58.00" fill="none" stroke="#111" stroke-width="0.40" />
<polygon points="65.10,148.00 65.10,144.63 70.70,144.63 70.70,141.26 76.30,141.26 76.30,137.89 81.90,137.89 81.90,134.53 87.50,134.53 87.50,131.16 93.10,131.16 93.10,127.79 98.70,127.79 98.70,124.42 104.30,124.42 104.30,121.05 109.90,121.05 109.90,117.68 115.50,117.68 115.50,114.32 115.50,114.32 140.50,114.32 140.50,117.92 117.50,117.92 67.10,150.00 65.10,150.00" fill="#9ca3af" stroke="#111" stroke-width="0.50" stroke-linejoin="miter"/>
<polyline points="115.50,114.32 115.50,110.95 109.90,110.95 109.90,107.58 104.30,107.58 104.30,104.21 98.70,104.21 98.70,100.84 93.10,100.84 93.10,97.47 87.50,97.47 87.50,94.11 81.90,94.11 81.90,90.74 76.30,90.74 76.30,87.37 70.70,87.37 70.70,84.00 70.70,84.00" fill="none" stroke="#374151" stroke-width="0.30" stroke-linejoin="miter"/>
<line x1="115.50" y1="117.92" x2="70.70" y2="87.60" stroke="#374151" stroke-width="0.25" stroke-linecap="butt"/>
<rect x="64.50" y="144.63" width="6.20" height="0.60" fill="#e7e5e4" stroke="#111" stroke-width="0.10" />
<rect x="70.10" y="141.26" width="6.20" height="0.60" fill="#e7e5e4" stroke="#111" stroke-width="0.10" />
<rect x="75.70" y="137.89" width="6.20" height="0.60" fill="#e7e5e4" stroke="#111" stroke-width="0.10" />
<rect x="81.30" y="134.53" width="6.20" height="0.60" fill="#e7e5e4" stroke="#111" stroke-width="0.10" />
<rect x="86.90" y="131.16" width="6.20" height="0.60" fill="#e7e5e4" stroke="#111" stroke-width="0.10" />
<rect x="92.50" y="127.79" width="6.20" height="0.60" fill="#e7e5e4" stroke="#111" stroke-width="0.10" />
<rect x="98.10" y="124.42" width="6.20" height="0.60" fill="#e7e5e4" stroke="#111" stroke-width="0.10" />
<rect x="103.70" y="121.05" width="6.20" height="0.60" fill="#e7e5e4" stroke="#111" stroke-width="0.10" />
<rect x="109.30" y="117.68" width="6.20" height="0.60" fill="#e7e5e4" stroke="#111" stroke-width="0.10" />
<rect x="114.90" y="114.32" width="6.20" height="0.60" fill="#e7e5e4" stroke="#111" stroke-width="0.10" />
<line x1="65.10" y1="129.00" x2="115.50" y2="95.32" stroke="#0ea5e9" stroke-width="0.60" stroke-linecap="butt"/>
<line x1="65.10" y1="147.00" x2="115.50" y2="113.32" stroke="#0ea5e9" stroke-width="0.30" stroke-dasharray="1,0.6" stroke-linecap="butt"/>
<line x1="61.10" y1="129.00" x2="65.10" y2="129.00" stroke="#0ea5e9" stroke-width="0.60" stroke-linecap="butt"/>
<line x1="63.60" y1="160.00" x2="142.00" y2="160.00" stroke="#111" stroke-width="0.13" stroke-linecap="butt"/>
<line x1="65.10" y1="158.80" x2="65.10" y2="161.20" stroke="#111" stroke-width="0.13" stroke-linecap="butt"/>
<line x1="64.30" y1="160.80" x2="65.90" y2="159.20" stroke="#111" stroke-width="0.30" stroke-linecap="butt"/>
<line x1="70.70" y1="158.80" x2="70.70" y2="161.20" stroke="#111" stroke-width="0.13" stroke-linecap="butt"/>
<line x1="69.90" y1="160.80" x2="71.50" y2="159.20" stroke="#111" stroke-width="0.30" stroke-linecap="butt"/>
<line x1="76.30" y1="158.80" x2="76.30" y2="161.20" stroke="#111" stroke-width="0.13" stroke-linecap="butt"/>
<line x1="75.50" y1="160.80" x2="77.10" y2="159.20" stroke="#111" stroke-width="0.30" stroke-linecap="butt"/>
<line x1="81.90" y1="158.80" x2="81.90" y2="161.20" stroke="#111" stroke-width="0.13" stroke-linecap="butt"/>
<line x1="81.10" y1="160.80" x2="82.70" y2="159.20" stroke="#111" stroke-width="0.30" stroke-linecap="butt"/>
<line x1="87.50" y1="158.80" x2="87.50" y2="161.20" stroke="#111" stroke-width="0.13" stroke-linecap="butt"/>
<line x1="86.70" y1="160.80" x2="88.30" y2="159.20" stroke="#111" stroke-width="0.30" stroke-linecap="butt"/>
<line x1="93.10" y1="158.80" x2="93.10" y2="161.20" stroke="#111" stroke-width="0.13" stroke-linecap="butt"/>
<line x1="92.30" y1="160.80" x2="93.90" y2="159.20" stroke="#111" stroke-width="0.30" stroke-linecap="butt"/>
<line x1="98.70" y1="158.80" x2="98.70" y2="161.20" stroke="#111" stroke-width="0.13" stroke-linecap="butt"/>
<line x1="97.90" y1="160.80" x2="99.50" y2="159.20" stroke="#111" stroke-width="0.30" stroke-linecap="butt"/>
<line x1="104.30" y1="158.80" x2="104.30" y2="161.20" stroke="#111" stroke-width="0.13" stroke-linecap="butt"/>
<line x1="103.50" y1="160.80" x2="105.10" y2="159.20" stroke="#111" stroke-width="0.30" stroke-linecap="butt"/>
<line x1="109.90" y1="158.80" x2="109.90" y2="161.20" stroke="#111" stroke-width="0.13" stroke-linecap="butt"/>
<line x1="109.10" y1="160.80" x2="110.70" y2="159.20" stroke="#111" stroke-width="0.30" stroke-linecap="butt"/>
<line x1="115.50" y1="158.80" x2="115.50" y2="161.20" stroke="#111" stroke-width="0.13" stroke-linecap="butt"/>
<line x1="114.70" y1="160.80" x2="116.30" y2="159.20" stroke="#111" stroke-width="0.30" stroke-linecap="butt"/>
<line x1="140.50" y1="158.80" x2="140.50" y2="161.20" stroke="#111" stroke-width="0.13" stroke-linecap="butt"/>
<line x1="139.70" y1="160.80" x2="141.30" y2="159.20" stroke="#111" stroke-width="0.30" stroke-linecap="butt"/>
<text x="67.90" y="162.40" font-size="1.60" text-anchor="middle" font-weight="400" fill="#111">28</text>
<text x="73.50" y="162.40" font-size="1.60" text-anchor="middle" font-weight="400" fill="#111">28</text>
<text x="79.10" y="162.40" font-size="1.60" text-anchor="middle" font-weight="400" fill="#111">28</text>
<text x="84.70" y="162.40" font-size="1.60" text-anchor="middle" font-weight="400" fill="#111">28</text>
<text x="90.30" y="162.40" font-size="1.60" text-anchor="middle" font-weight="400" fill="#111">28</text>
<text x="95.90" y="162.40" font-size="1.60" text-anchor="middle" font-weight="400" fill="#111">28</text>
<text x="101.50" y="162.40" font-size="1.60" text-anchor="middle" font-weight="400" fill="#111">28</text>
<text x="107.10" y="162.40" font-size="1.60" text-anchor="middle" font-weight="400" fill="#111">28</text>
<text x="112.70" y="162.40" font-size="1.60" text-anchor="middle" font-weight="400" fill="#111">28</text>
<text x="128.00" y="162.40" font-size="1.60" text-anchor="middle" font-weight="400" fill="#111">125</text>
<line x1="26.00" y1="146.50" x2="26.00" y2="85.50" stroke="#111" stroke-width="0.13" stroke-linecap="butt"/>
<line x1="24.80" y1="148.00" x2="27.20" y2="148.00" stroke="#111" stroke-width="0.13" stroke-linecap="butt"/>
<line x1="25.20" y1="148.80" x2="26.80" y2="147.20" stroke="#111" stroke-width="0.30" stroke-linecap="butt"/>
<line x1="24.80" y1="114.32" x2="27.20" y2="114.32" stroke="#111" stroke-width="0.13" stroke-linecap="butt"/>
<line x1="25.20" y1="115.12" x2="26.80" y2="113.52" stroke="#111" stroke-width="0.30" stroke-linecap="butt"/>
<line x1="24.80" y1="84.00" x2="27.20" y2="84.00" stroke="#111" stroke-width="0.13" stroke-linecap="butt"/>
<line x1="25.20" y1="84.80" x2="26.80" y2="83.20" stroke="#111" stroke-width="0.30" stroke-linecap="butt"/>
<text x="25.20" y="131.16" font-size="1.80" text-anchor="middle" font-weight="400" fill="#111" transform="rotate(-90.0 25.20 131.16)">168</text>
<text x="25.20" y="99.16" font-size="1.80" text-anchor="middle" font-weight="400" fill="#111" transform="rotate(-90.0 25.20 99.16)">152</text>
<polygon points="154.90,146.10 157.10,146.10 156.00,148.00" fill="#fff" stroke="#111" stroke-width="0.20" stroke-linejoin="miter"/>
<polygon points="154.90,146.10 156.00,146.10 156.00,148.00" fill="#111" stroke="none" stroke-width="0.18" stroke-linejoin="miter"/>
<text x="157.80" y="147.60" font-size="2.00" text-anchor="start" font-weight="700" fill="#111">±0.00</text>
<polygon points="154.90,112.42 157.10,112.42 156.00,114.32" fill="#fff" stroke="#111" stroke-width="0.20" stroke-linejoin="miter"/>
<polygon points="154.90,112.42 156.00,112.42 156.00,114.32" fill="#111" stroke="none" stroke-width="0.18" stroke-linejoin="miter"/>
<text x="157.80" y="113.92" font-size="2.00" text-anchor="start" font-weight="700" fill="#111">+1.68</text>
<polygon points="154.90,82.10 157.10,82.10 156.00,84.00" fill="#fff" stroke="#111" stroke-width="0.20" stroke-linejoin="miter"/>
<polygon points="154.90,82.10 156.00,82.10 156.00,84.00" fill="#111" stroke="none" stroke-width="0.18" stroke-linejoin="miter"/>
<text x="157.80" y="83.60" font-size="2.00" text-anchor="start" font-weight="700" fill="#111">+3.20</text>
<text x="94.00" y="173.00" font-size="2.80" text-anchor="middle" font-weight="700" fill="#111">KESİT M–M (batı kol) · Ö: 1/50</text>
<text x="42.00" y="96.00" font-size="1.80" text-anchor="start" font-weight="400" fill="#b45309">baş yüksekliği ≥ 2,20</text>
<rect x="184.00" y="46.00" width="52.00" height="96.00" fill="#fafafa" stroke="#111" stroke-width="0.20" />
<path d="M234.50 47.64L236.14 46.00M234.50 49.76L237.50 46.76M234.50 51.88L237.50 48.88M234.50 54.00L237.50 51.00M234.50 56.12L237.50 53.12M234.50 58.24L237.50 55.24M234.50 60.36L237.50 57.36M234.50 62.48L237.50 59.48M234.50 64.61L237.50 61.61M234.50 66.73L237.50 63.73M234.50 68.85L237.50 65.85M234.50 70.97L237.50 67.97M234.50 73.09L237.50 70.09M234.50 75.21L237.50 72.21M234.50 77.33L237.50 74.33M234.50 79.46L237.50 76.46M234.50 81.58L237.50 78.58M234.50 83.70L237.50 80.70M234.50 85.82L237.50 82.82M234.50 87.94L237.50 84.94M234.50 90.06L237.50 87.06M234.50 92.18L237.50 89.18M234.50 94.30L237.50 91.30M234.50 96.43L237.50 93.43M234.50 98.55L237.50 95.55M234.50 100.67L237.50 97.67M234.50 102.79L237.50 99.79M234.50 104.91L237.50 101.91M234.50 107.03L237.50 104.03M234.50 109.15L237.50 106.15M234.50 111.28L237.50 108.28M234.50 113.40L237.50 110.40M234.50 115.52L237.50 112.52M234.50 117.64L237.50 114.64M234.50 119.76L237.50 116.76M234.50 121.88L237.50 118.88M234.50 124.00L237.50 121.00M234.50 126.12L237.50 123.12M234.50 128.25L237.50 125.25M234.50 130.37L237.50 127.37M234.50 132.49L237.50 129.49M234.50 134.61L237.50 131.61M234.50 136.73L237.50 133.73M234.50 138.85L237.50 135.85M234.50 140.97L237.50 137.97M235.60 142.00L237.50 140.10" fill="none" stroke="#3f444c" stroke-width="0.22"/>
<rect x="234.50" y="46.00" width="3.00" height="96.00" fill="none" stroke="#111" stroke-width="0.40" />
<rect x="184.00" y="140.50" width="52.00" height="3.00" fill="#111" stroke="none" stroke-width="0.18" />
<line x1="185.00" y1="65.10" x2="209.00" y2="65.10" stroke="#111" stroke-width="0.25" stroke-linecap="butt"/>
<line x1="185.00" y1="70.70" x2="209.00" y2="70.70" stroke="#111" stroke-width="0.25" stroke-linecap="butt"/>
<line x1="185.00" y1="76.30" x2="209.00" y2="76.30" stroke="#111" stroke-width="0.25" stroke-linecap="butt"/>
<line x1="185.00" y1="81.90" x2="209.00" y2="81.90" stroke="#111" stroke-width="0.25" stroke-linecap="butt"/>
<line x1="185.00" y1="87.50" x2="209.00" y2="87.50" stroke="#111" stroke-width="0.25" stroke-linecap="butt"/>
<line x1="185.00" y1="93.10" x2="209.00" y2="93.10" stroke="#111" stroke-width="0.25" stroke-linecap="butt"/>
<line x1="185.00" y1="98.70" x2="209.00" y2="98.70" stroke="#111" stroke-width="0.25" stroke-linecap="butt"/>
<line x1="185.00" y1="104.30" x2="209.00" y2="104.30" stroke="#111" stroke-width="0.25" stroke-linecap="butt"/>
<line x1="185.00" y1="109.90" x2="209.00" y2="109.90" stroke="#111" stroke-width="0.25" stroke-linecap="butt"/>
<line x1="185.00" y1="115.50" x2="209.00" y2="115.50" stroke="#111" stroke-width="0.25" stroke-linecap="butt"/>
<line x1="211.00" y1="115.50" x2="234.50" y2="115.50" stroke="#111" stroke-width="0.25" stroke-dasharray="1,0.6" stroke-linecap="butt"/>
<line x1="211.00" y1="109.90" x2="234.50" y2="109.90" stroke="#111" stroke-width="0.25" stroke-dasharray="1,0.6" stroke-linecap="butt"/>
<line x1="211.00" y1="104.30" x2="234.50" y2="104.30" stroke="#111" stroke-width="0.25" stroke-dasharray="1,0.6" stroke-linecap="butt"/>
<line x1="211.00" y1="98.70" x2="234.50" y2="98.70" stroke="#111" stroke-width="0.25" stroke-dasharray="1,0.6" stroke-linecap="butt"/>
<line x1="211.00" y1="93.10" x2="234.50" y2="93.10" stroke="#111" stroke-width="0.25" stroke-dasharray="1,0.6" stroke-linecap="butt"/>
<line x1="211.00" y1="87.50" x2="234.50" y2="87.50" stroke="#111" stroke-width="0.25" stroke-dasharray="1,0.6" stroke-linecap="butt"/>
<line x1="211.00" y1="81.90" x2="234.50" y2="81.90" stroke="#111" stroke-width="0.25" stroke-dasharray="1,0.6" stroke-linecap="butt"/>
<line x1="211.00" y1="76.30" x2="234.50" y2="76.30" stroke="#111" stroke-width="0.25" stroke-dasharray="1,0.6" stroke-linecap="butt"/>
<line x1="211.00" y1="70.70" x2="234.50" y2="70.70" stroke="#111" stroke-width="0.25" stroke-dasharray="1,0.6" stroke-linecap="butt"/>
<line x1="211.00" y1="65.10" x2="234.50" y2="65.10" stroke="#111" stroke-width="0.25" stroke-dasharray="1,0.6" stroke-linecap="butt"/>
<line x1="185.00" y1="65.10" x2="185.00" y2="115.50" stroke="#111" stroke-width="0.30" stroke-linecap="butt"/>
<line x1="209.00" y1="65.10" x2="209.00" y2="115.50" stroke="#111" stroke-width="0.30" stroke-linecap="butt"/>
<line x1="211.00" y1="70.70" x2="211.00" y2="115.50" stroke="#111" stroke-width="0.30" stroke-linecap="butt"/>
<line x1="234.50" y1="70.70" x2="234.50" y2="115.50" stroke="#111" stroke-width="0.30" stroke-linecap="butt"/>
<path d="M186.00 115.50V140.50M192.00 115.50V140.50M198.00 115.50V140.50M204.00 115.50V140.50M210.00 115.50V140.50M216.00 115.50V140.50M222.00 115.50V140.50M228.00 115.50V140.50M234.00 115.50V140.50M185.00 120.00H234.50M185.00 126.00H234.50M185.00 132.00H234.50M185.00 138.00H234.50" fill="none" stroke="#d3d7de" stroke-width="0.10"/>
<rect x="185.00" y="115.50" width="49.50" height="25.00" fill="none" stroke="#111" stroke-width="0.30" />
<line x1="184.40" y1="65.10" x2="184.40" y2="142.00" stroke="#0ea5e9" stroke-width="0.80" stroke-linecap="butt"/>
<line x1="197.00" y1="62.10" x2="197.00" y2="126.00" stroke="#111" stroke-width="0.3" marker-end="url(#ok)"/>
<line x1="222.75" y1="126.00" x2="222.75" y2="68.70" stroke="#111" stroke-width="0.3" marker-end="url(#ok)"/>
<text x="186.20" y="68.60" font-size="1.60" text-anchor="start" font-weight="400" fill="#111">1</text>
<text x="186.20" y="74.20" font-size="1.60" text-anchor="start" font-weight="400" fill="#111">2</text>
<text x="186.20" y="79.80" font-size="1.60" text-anchor="start" font-weight="400" fill="#111">3</text>
<text x="186.20" y="85.40" font-size="1.60" text-anchor="start" font-weight="400" fill="#111">4</text>
<text x="186.20" y="91.00" font-size="1.60" text-anchor="start" font-weight="400" fill="#111">5</text>
<text x="186.20" y="96.60" font-size="1.60" text-anchor="start" font-weight="400" fill="#111">6</text>
<text x="186.20" y="102.20" font-size="1.60" text-anchor="start" font-weight="400" fill="#111">7</text>
<text x="186.20" y="107.80" font-size="1.60" text-anchor="start" font-weight="400" fill="#111">8</text>
<text x="186.20" y="113.40" font-size="1.60" text-anchor="start" font-weight="400" fill="#111">9</text>
<text x="186.20" y="119.00" font-size="1.60" text-anchor="start" font-weight="400" fill="#111">10</text>
<text x="233.30" y="113.40" font-size="1.60" text-anchor="end" font-weight="400" fill="#111">11</text>
<text x="233.30" y="107.80" font-size="1.60" text-anchor="end" font-weight="400" fill="#111">12</text>
<text x="233.30" y="102.20" font-size="1.60" text-anchor="end" font-weight="400" fill="#111">13</text>
<text x="233.30" y="96.60" font-size="1.60" text-anchor="end" font-weight="400" fill="#111">14</text>
<text x="233.30" y="91.00" font-size="1.60" text-anchor="end" font-weight="400" fill="#111">15</text>
<text x="233.30" y="85.40" font-size="1.60" text-anchor="end" font-weight="400" fill="#111">16</text>
<text x="233.30" y="79.80" font-size="1.60" text-anchor="end" font-weight="400" fill="#111">17</text>
<text x="233.30" y="74.20" font-size="1.60" text-anchor="end" font-weight="400" fill="#111">18</text>
<text x="233.30" y="68.60" font-size="1.60" text-anchor="end" font-weight="400" fill="#111">19</text>
<line x1="182.50" y1="41.00" x2="237.50" y2="41.00" stroke="#111" stroke-width="0.13" stroke-linecap="butt"/>
<line x1="184.00" y1="39.80" x2="184.00" y2="42.20" stroke="#111" stroke-width="0.13" stroke-linecap="butt"/>
<line x1="183.20" y1="41.80" x2="184.80" y2="40.20" stroke="#111" stroke-width="0.30" stroke-linecap="butt"/>
<line x1="185.00" y1="39.80" x2="185.00" y2="42.20" stroke="#111" stroke-width="0.13" stroke-linecap="butt"/>
<line x1="184.20" y1="41.80" x2="185.80" y2="40.20" stroke="#111" stroke-width="0.30" stroke-linecap="butt"/>
<line x1="209.00" y1="39.80" x2="209.00" y2="42.20" stroke="#111" stroke-width="0.13" stroke-linecap="butt"/>
<line x1="208.20" y1="41.80" x2="209.80" y2="40.20" stroke="#111" stroke-width="0.30" stroke-linecap="butt"/>
<line x1="211.00" y1="39.80" x2="211.00" y2="42.20" stroke="#111" stroke-width="0.13" stroke-linecap="butt"/>
<line x1="210.20" y1="41.80" x2="211.80" y2="40.20" stroke="#111" stroke-width="0.30" stroke-linecap="butt"/>
<line x1="234.50" y1="39.80" x2="234.50" y2="42.20" stroke="#111" stroke-width="0.13" stroke-linecap="butt"/>
<line x1="233.70" y1="41.80" x2="235.30" y2="40.20" stroke="#111" stroke-width="0.30" stroke-linecap="butt"/>
<line x1="236.00" y1="39.80" x2="236.00" y2="42.20" stroke="#111" stroke-width="0.13" stroke-linecap="butt"/>
<line x1="235.20" y1="41.80" x2="236.80" y2="40.20" stroke="#111" stroke-width="0.30" stroke-linecap="butt"/>
<text x="184.50" y="40.20" font-size="1.28" text-anchor="middle" font-weight="400" fill="#111">5</text>
<text x="197.00" y="40.20" font-size="1.60" text-anchor="middle" font-weight="400" fill="#111">120</text>
<text x="210.00" y="40.20" font-size="1.28" text-anchor="middle" font-weight="400" fill="#111">10</text>
<text x="222.75" y="40.20" font-size="1.60" text-anchor="middle" font-weight="400" fill="#111">118</text>
<text x="235.25" y="40.20" font-size="1.28" text-anchor="middle" font-weight="400" fill="#111">7</text>
<line x1="244.00" y1="44.50" x2="244.00" y2="143.50" stroke="#111" stroke-width="0.13" stroke-linecap="butt"/>
<line x1="242.80" y1="46.00" x2="245.20" y2="46.00" stroke="#111" stroke-width="0.13" stroke-linecap="butt"/>
<line x1="243.20" y1="46.80" x2="244.80" y2="45.20" stroke="#111" stroke-width="0.30" stroke-linecap="butt"/>
<line x1="242.80" y1="65.10" x2="245.20" y2="65.10" stroke="#111" stroke-width="0.13" stroke-linecap="butt"/>
<line x1="243.20" y1="65.90" x2="244.80" y2="64.30" stroke="#111" stroke-width="0.30" stroke-linecap="butt"/>
<line x1="242.80" y1="115.50" x2="245.20" y2="115.50" stroke="#111" stroke-width="0.13" stroke-linecap="butt"/>
<line x1="243.20" y1="116.30" x2="244.80" y2="114.70" stroke="#111" stroke-width="0.30" stroke-linecap="butt"/>
<line x1="242.80" y1="140.50" x2="245.20" y2="140.50" stroke="#111" stroke-width="0.13" stroke-linecap="butt"/>
<line x1="243.20" y1="141.30" x2="244.80" y2="139.70" stroke="#111" stroke-width="0.30" stroke-linecap="butt"/>
<line x1="242.80" y1="142.00" x2="245.20" y2="142.00" stroke="#111" stroke-width="0.13" stroke-linecap="butt"/>
<line x1="243.20" y1="142.80" x2="244.80" y2="141.20" stroke="#111" stroke-width="0.30" stroke-linecap="butt"/>
<text x="246.40" y="55.55" font-size="1.60" text-anchor="middle" font-weight="400" fill="#111" transform="rotate(-90.0 246.40 55.55)">96</text>
<text x="246.40" y="90.30" font-size="1.60" text-anchor="middle" font-weight="400" fill="#111" transform="rotate(-90.0 246.40 90.30)">252</text>
<text x="246.40" y="128.00" font-size="1.60" text-anchor="middle" font-weight="400" fill="#111" transform="rotate(-90.0 246.40 128.00)">125</text>
<text x="246.40" y="141.25" font-size="1.28" text-anchor="middle" font-weight="400" fill="#111" transform="rotate(-90.0 246.40 141.25)">8</text>
<text x="210.00" y="151.00" font-size="2.80" text-anchor="middle" font-weight="700" fill="#111">PLAN (zemin kat) · Ö: 1/50</text>
<text x="34.00" y="180.00" font-size="2.60" text-anchor="start" font-weight="700" fill="#111">MERDİVEN HESABI (PAİY Md. 32 — konut içi merdiven)</text>
<rect x="33.00" y="182.40" width="150.00" height="5.00" fill="#f3f4f6" stroke="none" stroke-width="0.18" />
<text x="34.00" y="186.00" font-size="2.00" text-anchor="start" font-weight="700" fill="#111">Kat</text>
<text x="68.00" y="186.00" font-size="2.00" text-anchor="start" font-weight="700" fill="#111">Yükseklik</text>
<text x="90.00" y="186.00" font-size="2.00" text-anchor="start" font-weight="700" fill="#111">Rıht</text>
<text x="116.00" y="186.00" font-size="2.00" text-anchor="start" font-weight="700" fill="#111">Basamak</text>
<text x="136.00" y="186.00" font-size="2.00" text-anchor="start" font-weight="700" fill="#111">2r + b</text>
<text x="154.00" y="186.00" font-size="2.00" text-anchor="start" font-weight="700" fill="#111">Kol / sahanlık</text>
<text x="34.00" y="191.00" font-size="2.00" text-anchor="start" font-weight="400" fill="#111">Bodrum → Zemin</text>
<text x="68.00" y="191.00" font-size="2.00" text-anchor="start" font-weight="400" fill="#111">3,06 m</text>
<text x="90.00" y="191.00" font-size="2.00" text-anchor="start" font-weight="400" fill="#111">18 × 17,0 cm</text>
<text x="116.00" y="191.00" font-size="2.00" text-anchor="start" font-weight="400" fill="#111">28 cm</text>
<text x="136.00" y="191.00" font-size="2.00" text-anchor="start" font-weight="400" fill="#111">62,0</text>
<text x="154.00" y="191.00" font-size="2.00" text-anchor="start" font-weight="400" fill="#111">1,20 / 1,25 m</text>
<text x="34.00" y="196.00" font-size="2.00" text-anchor="start" font-weight="400" fill="#111">Zemin → 1. Kat</text>
<text x="68.00" y="196.00" font-size="2.00" text-anchor="start" font-weight="400" fill="#111">3,20 m</text>
<text x="90.00" y="196.00" font-size="2.00" text-anchor="start" font-weight="400" fill="#111">19 × 16,8 cm</text>
<text x="116.00" y="196.00" font-size="2.00" text-anchor="start" font-weight="400" fill="#111">28 cm</text>
<text x="136.00" y="196.00" font-size="2.00" text-anchor="start" font-weight="400" fill="#111">61,7</text>
<text x="154.00" y="196.00" font-size="2.00" text-anchor="start" font-weight="400" fill="#111">1,20 / 1,25 m</text>
<rect x="33.00" y="197.40" width="150.00" height="5.00" fill="#f3f4f6" stroke="none" stroke-width="0.18" />
<text x="34.00" y="201.00" font-size="2.00" text-anchor="start" font-weight="400" fill="#111">Sınır değer</text>
<text x="68.00" y="201.00" font-size="2.00" text-anchor="start" font-weight="400" fill="#111">—</text>
<text x="90.00" y="201.00" font-size="2.00" text-anchor="start" font-weight="400" fill="#111">≤ 17,5 cm</text>
<text x="116.00" y="201.00" font-size="2.00" text-anchor="start" font-weight="400" fill="#111">≥ 26 cm</text>
<text x="136.00" y="201.00" font-size="2.00" text-anchor="start" font-weight="400" fill="#111">60–64</text>
<text x="154.00" y="201.00" font-size="2.00" text-anchor="start" font-weight="400" fill="#111">≥ 1,00 m</text>
<text x="34.00" y="210.00" font-size="1.90" text-anchor="start" font-weight="400" fill="#1f2937">· Basamak ve sahanlık: 3 cm traverten, 2 cm rıht; basamak burnunda kaymaz kanal.</text>
<text x="34.00" y="212.80" font-size="1.90" text-anchor="start" font-weight="400" fill="#1f2937">· Korkuluk: 10+10 mm temperli lamine cam, zemine gömme alüminyum U profil, h = 100 cm (basamak burnundan),</text>
<text x="34.00" y="215.60" font-size="1.90" text-anchor="start" font-weight="400" fill="#1f2937">  paslanmaz küpeşte Ø42.</text>
<text x="34.00" y="218.40" font-size="1.90" text-anchor="start" font-weight="400" fill="#1f2937">· Duvar tarafında Ø40 paslanmaz küpeşte h = 90 cm; LED basamak aydınlatması (her 3 basamakta bir).</text>
<text x="34.00" y="221.20" font-size="1.90" text-anchor="start" font-weight="400" fill="#1f2937">· Kol altı: betonarme plak 18 cm, alttan alçı sıva + boya; sahanlık asansör perdesine oturur.</text>
<text x="24.00" y="279.00" font-size="3.80" text-anchor="start" font-weight="700" fill="#111" letter-spacing="0.30">MERDİVEN DETAYI · Ö: 1/50</text>
<text x="24.00" y="284.00" font-size="2.30" text-anchor="start" font-weight="400" fill="#6b7280">İki kollu (U) merdiven, betonarme, traverten kaplama, cam korkuluk</text>
<rect x="318.00" y="10.00" width="92.00" height="277.00" fill="#ffffff" stroke="#111" stroke-width="0.50" />
<text x="322.00" y="19.00" font-size="5.20" text-anchor="start" font-weight="700" fill="#111" letter-spacing="0.40">DURUNDAY VİLLA</text>
<text x="322.00" y="24.50" font-size="2.60" text-anchor="start" font-weight="400" fill="#6b7280">Konya · Meram · Durunday</text>
<text x="322.00" y="29.00" font-size="2.30" text-anchor="start" font-weight="400" fill="#6b7280">Bodrumlu dubleks müstakil konut · 300 m² oturum</text>
<line x1="318.00" y1="33.00" x2="410.00" y2="33.00" stroke="#111" stroke-width="0.30" stroke-linecap="butt"/>
<text x="322.00" y="38.50" font-size="2.80" text-anchor="start" font-weight="700" fill="#111" letter-spacing="0.30">MİMARİ ÖN PROJE (AVAN)</text>
<text x="322.00" y="42.80" font-size="2.10" text-anchor="start" font-weight="400" fill="#6b7280" font-style="italic">Ruhsat ve uygulamaya esas değildir</text>
<line x1="318.00" y1="46.00" x2="410.00" y2="46.00" stroke="#111" stroke-width="0.30" stroke-linecap="butt"/>
<text x="322.00" y="51.00" font-size="2.20" text-anchor="start" font-weight="700" fill="#111" letter-spacing="0.30">NOTLAR</text>
<text x="322.00" y="54.40" font-size="1.95" text-anchor="start" font-weight="400" fill="#1f2937">1. Merdiven kutusu tüm katlarda aynı yerdedir (x 10,00–12,60</text>
<text x="322.00" y="57.10" font-size="1.95" text-anchor="start" font-weight="400" fill="#1f2937">    · y 3,20–8,00).</text>
<text x="322.00" y="60.40" font-size="1.95" text-anchor="start" font-weight="400" fill="#1f2937">2. Bodrum→zemin 18 rıht (9+9), zemin→1. kat 19 rıht (10+9);</text>
<text x="322.00" y="63.10" font-size="1.95" text-anchor="start" font-weight="400" fill="#1f2937">    basamak 28 cm.</text>
<circle cx="398.00" cy="182.00" r="6.50" fill="none" stroke="#111" stroke-width="0.30"/>
<polygon points="398.00,174.00 400.20,184.50 398.00,183.20 395.80,184.50" fill="#111" stroke="#111" stroke-width="0.20" stroke-linejoin="miter"/>
<text x="398.00" y="172.70" font-size="3.00" text-anchor="middle" font-weight="700" fill="#111">K</text>
<line x1="318.00" y1="195.00" x2="410.00" y2="195.00" stroke="#111" stroke-width="0.40" stroke-linecap="butt"/>
<text x="322.00" y="200.00" font-size="2.00" text-anchor="start" font-weight="700" fill="#111" letter-spacing="0.30">REVİZYONLAR</text>
<text x="322.00" y="204.00" font-size="1.90" text-anchor="start" font-weight="700" fill="#111">R0</text>
<text x="328.00" y="204.00" font-size="1.90" text-anchor="start" font-weight="400" fill="#111">19.09.2026</text>
<text x="345.00" y="204.00" font-size="1.90" text-anchor="start" font-weight="400" fill="#111">İlk yayın</text>
<text x="322.00" y="207.70" font-size="1.90" text-anchor="start" font-weight="700" fill="#111">R1</text>
<text x="328.00" y="207.70" font-size="1.90" text-anchor="start" font-weight="400" fill="#111">21.09.2026</text>
<text x="345.00" y="207.70" font-size="1.90" text-anchor="start" font-weight="400" fill="#111">Plan kurgusu yeniden düzenlendi; kesit,</text>
<text x="345.00" y="210.20" font-size="1.90" text-anchor="start" font-weight="400" fill="#111">görünüş, detay ve doğrama listesi eklendi</text>
<line x1="318.00" y1="221.00" x2="410.00" y2="221.00" stroke="#111" stroke-width="0.30" stroke-linecap="butt"/>
<text x="322.00" y="226.00" font-size="1.90" text-anchor="start" font-weight="400" fill="#6b7280">İŞ SAHİBİ</text>
<text x="322.00" y="230.50" font-size="2.40" text-anchor="start" font-weight="400" fill="#111">—</text>
<text x="366.00" y="226.00" font-size="1.90" text-anchor="start" font-weight="400" fill="#6b7280">HAZIRLAYAN</text>
<text x="366.00" y="230.50" font-size="2.40" text-anchor="start" font-weight="400" fill="#111">E. Ceran</text>
<line x1="363.00" y1="221.00" x2="363.00" y2="235.00" stroke="#111" stroke-width="0.20" stroke-linecap="butt"/>
<line x1="318.00" y1="235.00" x2="410.00" y2="235.00" stroke="#111" stroke-width="0.30" stroke-linecap="butt"/>
<text x="322.00" y="240.00" font-size="1.90" text-anchor="start" font-weight="400" fill="#6b7280">MÜELLİF MİMAR</text>
<text x="322.00" y="245.00" font-size="2.00" text-anchor="start" font-weight="400" fill="#6b7280" font-style="italic">(ruhsat aşamasında atanacak)</text>
<text x="366.00" y="240.00" font-size="1.90" text-anchor="start" font-weight="400" fill="#6b7280">İMZA</text>
<line x1="363.00" y1="235.00" x2="363.00" y2="249.00" stroke="#111" stroke-width="0.20" stroke-linecap="butt"/>
<line x1="318.00" y1="249.00" x2="410.00" y2="249.00" stroke="#111" stroke-width="0.40" stroke-linecap="butt"/>
<text x="322.00" y="255.00" font-size="1.90" text-anchor="start" font-weight="400" fill="#6b7280">PAFTA ADI</text>
<text x="322.00" y="262.00" font-size="5.00" text-anchor="start" font-weight="700" fill="#111">MERDİVEN DETAYI</text>
<line x1="318.00" y1="273.00" x2="410.00" y2="273.00" stroke="#111" stroke-width="0.30" stroke-linecap="butt"/>
<text x="322.00" y="277.50" font-size="1.90" text-anchor="start" font-weight="400" fill="#6b7280">ÖLÇEK</text>
<text x="322.00" y="283.50" font-size="3.60" text-anchor="start" font-weight="700" fill="#111">1/50</text>
<text x="350.00" y="277.50" font-size="1.90" text-anchor="start" font-weight="400" fill="#6b7280">TARİH</text>
<text x="350.00" y="283.50" font-size="3.00" text-anchor="start" font-weight="400" fill="#111">21.09.2026</text>
<text x="380.00" y="277.50" font-size="1.90" text-anchor="start" font-weight="400" fill="#6b7280">PAFTA NO</text>
<text x="380.00" y="284.00" font-size="5.20" text-anchor="start" font-weight="700" fill="#111">A-11</text>
<line x1="347.00" y1="273.00" x2="347.00" y2="287.00" stroke="#111" stroke-width="0.20" stroke-linecap="butt"/>
<line x1="377.00" y1="273.00" x2="377.00" y2="287.00" stroke="#111" stroke-width="0.20" stroke-linecap="butt"/>
</svg>