  0
SECTION
  2
HEADER
  9
$ACADVER
  1
AC1032
  9
$ACADMAINTVER
 90
4
  9
$DWGCODEPAGE
  3
ANSI_1252
  9
$LASTSAVEDBY
  1
ezdxf
  9
$REQUIREDVERSIONS
160
0
  9
$INSBASE
 10
0.0
 20
0.0
 30
0.0
  9
$EXTMIN
 10
1e+20
 20
1e+20
 30
1e+20
  9
$EXTMAX
 10
-1e+20
 20
-1e+20
 30
-1e+20
  9
$LIMMIN
 10
0.0
 20
0.0
  9
$LIMMAX
 10
420.0
 20
297.0
  9
$ORTHOMODE
 70
0
  9
$REGENMODE
 70
1
  9
$FILLMODE
 70
1
  9
$QTEXTMODE
 70
0
  9
$MIRRTEXT
 70
1
  9
$LTSCALE
 40
0.25
  9
$ATTMODE
 70
1
  9
$TEXTSIZE
 40
2.5
  9
$TRACEWID
 40
1.0
  9
$TEXTSTYLE
  7
YAZI
  9
$CLAYER
  8
0
  9
$CELTYPE
  6
ByLayer
  9
$CECOLOR
 62
256
  9
$CELTSCALE
 40
1.0
  9
$DISPSILH
 70
0
  9
$DIMSCALE
 40
1.0
  9
$DIMASZ
 40
2.5
  9
$DIMEXO
 40
0.625
  9
$DIMDLI
 40
3.75
  9
$DIMRND
 40
0.0
  9
$DIMDLE
 40
0.0
  9
$DIMEXE
 40
1.25
  9
$DIMTP
 40
0.0
  9
$DIMTM
 40
0.0
  9
$DIMTXT
 40
2.5
  9
$DIMCEN
 40
2.5
  9
$DIMTSZ
 40
0.0
  9
$DIMTOL
 70
0
  9
$DIMLIM
 70
0
  9
$DIMTIH
 70
0
  9
$DIMTOH
 70
0
  9
$DIMSE1
 70
0
  9
$DIMSE2
 70
0
  9
$DIMTAD
 70
1
  9
$DIMZIN
 70
8
  9
$DIMBLK
  1

  9
$DIMASO
 70
1
  9
$DIMSHO
 70
1
  9
$DIMPOST
  1

  9
$DIMAPOST
  1

  9
$DIMALT
 70
0
  9
$DIMALTD
 70
3
  9
$DIMALTF
 40
0.03937007874
  9
$DIMLFAC
 40
1.0
  9
$DIMTOFL
 70
1
  9
$DIMTVP
 40
0.0
  9
$DIMTIX
 70
0
  9
$DIMSOXD
 70
0
  9
$DIMSAH
 70
0
  9
$DIMBLK1
  1

  9
$DIMBLK2
  1

  9
$DIMSTYLE
  2
ISO-25
  9
$DIMCLRD
 70
0
  9
$DIMCLRE
 70
0
  9
$DIMCLRT
 70
0
  9
$DIMTFAC
 40
1.0
  9
$DIMGAP
 40
0.625
  9
$DIMJUST
 70
0
  9
$DIMSD1
 70
0
  9
$DIMSD2
 70
0
  9
$DIMTOLJ
 70
0
  9
$DIMTZIN
 70
8
  9
$DIMALTZ
 70
0
  9
$DIMALTTZ
 70
0
  9
$DIMUPT
 70
0
  9
$DIMDEC
 70
2
  9
$DIMTDEC
 70
2
  9
$DIMALTU
 70
2
  9
$DIMALTTD
 70
3
  9
$DIMTXSTY
  7
Standard
  9
$DIMAUNIT
 70
0
  9
$DIMADEC
 70
0
  9
$DIMALTRND
 40
0.0
  9
$DIMAZIN
 70
0
  9
$DIMDSEP
 70
44
  9
$DIMATFIT
 70
3
  9
$DIMFRAC
 70
0
  9
$DIMLDRBLK
  1

  9
$DIMLUNIT
 70
2
  9
$DIMLWD
 70
-2
  9
$DIMLWE
 70
-2
  9
$DIMTMOVE
 70
0
  9
$DIMFXL
 40
1.0
  9
$DIMFXLON
 70
0
  9
$DIMJOGANG
 40
0.785398163397
  9
$DIMTFILL
 70
0
  9
$DIMTFILLCLR
 70
0
  9
$DIMARCSYM
 70
0
  9
$DIMLTYPE
  6

  9
$DIMLTEX1
  6

  9
$DIMLTEX2
  6

  9
$DIMTXTDIRECTION
 70
0
  9
$LUNITS
 70
2
  9
$LUPREC
 70
4
  9
$SKETCHINC
 40
1.0
  9
$FILLETRAD
 40
10.0
  9
$AUNITS
 70
0
  9
$AUPREC
 70
2
  9
$MENU
  1
.
  9
$ELEVATION
 40
0.0
  9
$PELEVATION
 40
0.0
  9
$THICKNESS
 40
0.0
  9
$LIMCHECK
 70
0
  9
$CHAMFERA
 40
0.0
  9
$CHAMFERB
 40
0.0
  9
$CHAMFERC
 40
0.0
  9
$CHAMFERD
 40
0.0
  9
$SKPOLY
 70
0
  9
$TDCREATE
 40
2461306.5229050927
  9
$TDUCREATE
 40
2458532.153996898
  9
$TDUPDATE
 40
2461306.5229050927
  9
$TDUUPDATE
 40
2458532.1544311
  9
$TDINDWG
 40
0.0
  9
$TDUSRTIMER
 40
0.0
  9
$USRTIMER
 70
1
  9
$ANGBASE
 50
0.0
  9
$ANGDIR
 70
0
  9
$PDMODE
 70
0
  9
$PDSIZE
 40
0.0
  9
$PLINEWID
 40
0.0
  9
$SPLFRAME
 70
0
  9
$SPLINETYPE
 70
6
  9
$SPLINESEGS
 70
8
  9
$HANDSEED
  5
185
  9
$SURFTAB1
 70
6
  9
$SURFTAB2
 70
6
  9
$SURFTYPE
 70
6
  9
$SURFU
 70
6
  9
$SURFV
 70
6
  9
$UCSBASE
  2

  9
$UCSNAME
  2

  9
$UCSORG
 10
0.0
 20
0.0
 30
0.0
  9
$UCSXDIR
 10
1.0
 20
0.0
 30
0.0
  9
$UCSYDIR
 10
0.0
 20
1.0
 30
0.0
  9
$UCSORTHOREF
  2

  9
$UCSORTHOVIEW
 70
0
  9
$UCSORGTOP
 10
0.0
 20
0.0
 30
0.0
  9
$UCSORGBOTTOM
 10
0.0
 20
0.0
 30
0.0
  9
$UCSORGLEFT
 10
0.0
 20
0.0
 30
0.0
  9
$UCSORGRIGHT
 10
0.0
 20
0.0
 30
0.0
  9
$UCSORGFRONT
 10
0.0
 20
0.0
 30
0.0
  9
$UCSORGBACK
 10
0.0
 20
0.0
 30
0.0
  9
$PUCSBASE
  2

  9
$PUCSNAME
  2

  9
$PUCSORG
 10
0.0
 20
0.0
 30
0.0
  9
$PUCSXDIR
 10
1.0
 20
0.0
 30
0.0
  9
$PUCSYDIR
 10
0.0
 20
1.0
 30
0.0
  9
$PUCSORTHOREF
  2

  9
$PUCSORTHOVIEW
 70
0
  9
$PUCSORGTOP
 10
0.0
 20
0.0
 30
0.0
  9
$PUCSORGBOTTOM
 10
0.0
 20
0.0
 30
0.0
  9
$PUCSORGLEFT
 10
0.0
 20
0.0
 30
0.0
  9
$PUCSORGRIGHT
 10
0.0
 20
0.0
 30
0.0
  9
$PUCSORGFRONT
 10
0.0
 20
0.0
 30
0.0
  9
$PUCSORGBACK
 10
0.0
 20
0.0
 30
0.0
  9
$USERI1
 70
0
  9
$USERI2
 70
0
  9
$USERI3
 70
0
  9
$USERI4
 70
0
  9
$USERI5
 70
0
  9
$USERR1
 40
0.0
  9
$USERR2
 40
0.0
  9
$USERR3
 40
0.0
  9
$USERR4
 40
0.0
  9
$USERR5
 40
0.0
  9
$WORLDVIEW
 70
1
  9
$SHADEDGE
 70
3
  9
$SHADEDIF
 70
70
  9
$TILEMODE
 70
1
  9
$MAXACTVP
 70
64
  9
$PINSBASE
 10
0.0
 20
0.0
 30
0.0
  9
$PLIMCHECK
 70
0
  9
$PEXTMIN
 10
1e+20
 20
1e+20
 30
1e+20
  9
$PEXTMAX
 10
-1e+20
 20
-1e+20
 30
-1e+20
  9
$PLIMMIN
 10
-0.0
 20
-0.0
  9
$PLIMMAX
 10
420.0
 20
297.0
  9
$UNITMODE
 70
0
  9
$VISRETAIN
 70
1
  9
$PLINEGEN
 70
0
  9
$PSLTSCALE
 70
1
  9
$TREEDEPTH
 70
3020
  9
$CMLSTYLE
  2
Standard
  9
$CMLJUST
 70
0
  9
$CMLSCALE
 40
20.0
  9
$PROXYGRAPHICS
 70
1
  9
$MEASUREMENT
 70
1
  9
$CELWEIGHT
370
-1
  9
$ENDCAPS
280
0
  9
$JOINSTYLE
280
0
  9
$LWDISPLAY
290
1
  9
$INSUNITS
 70
5
  9
$HYPERLINKBASE
  1

  9
$STYLESHEET
  1

  9
$XEDIT
290
1
  9
$CEPSNTYPE
380
0
  9
$PSTYLEMODE
290
1
  9
$FINGERPRINTGUID
  2
{E48A5BEE-084F-4D01-AF17-7DE41B4C59AC}
  9
$VERSIONGUID
  2
{CB701880-6085-48FC-A759-68AA40EBA591}
  9
$EXTNAMES
290
1
  9
$PSVPSCALE
 40
0.0
  9
$OLESTARTUP
290
0
  9
$SORTENTS
280
127
  9
$INDEXCTL
280
0
  9
$HIDETEXT
280
1
  9
$XCLIPFRAME
280
0
  9
$HALOGAP
280
0
  9
$OBSCOLOR
 70
257
  9
$OBSLTYPE
280
0
  9
$INTERSECTIONDISPLAY
280
0
  9
$INTERSECTIONCOLOR
 70
257
  9
$DIMASSOC
280
2
  9
$PROJECTNAME
  1

  9
$CAMERADISPLAY
290
0
  9
$LENSLENGTH
 40
50.0
  9
$CAMERAHEIGHT
 40
0.0
  9
$STEPSPERSEC
 40
24.0
  9
$STEPSIZE
 40
100.0
  9
$3DDWFPREC
 40
2.0
  9
$PSOLWIDTH
 40
0.005
  9
$PSOLHEIGHT
 40
0.08
  9
$LOFTANG1
 40
1.570796326795
  9
$LOFTANG2
 40
1.570796326795
  9
$LOFTMAG1
 40
0.0
  9
$LOFTMAG2
 40
0.0
  9
$LOFTPARAM
 70
7
  9
$LOFTNORMALS
280
1
  9
$LATITUDE
 40
37.795
  9
$LONGITUDE
 40
-122.394
  9
$NORTHDIRECTION
 40
0.0
  9
$TIMEZONE
 70
-8000
  9
$LIGHTGLYPHDISPLAY
280
1
  9
$TILEMODELIGHTSYNCH
280
1
  9
$CMATERIAL
347
20
  9
$SOLIDHIST
280
0
  9
$SHOWHIST
280
1
  9
$DWFFRAME
280
2
  9
$DGNFRAME
280
2
  9
$REALWORLDSCALE
290
1
  9
$INTERFERECOLOR
 62
256
  9
$CSHADOW
280
0
  9
$SHADOWPLANELOCATION
 40
0.0
  0
ENDSEC
  0
SECTION
  2
CLASSES
  0
CLASS
  1
ACDBDICTIONARYWDFLT
  2
AcDbDictionaryWithDefault
  3
ObjectDBX Classes
 90
0
 91
0
280
0
281
0
  0
CLASS
  1
SUN
  2
AcDbSun
  3
SCENEOE
 90
1153
 91
0
280
0
281
0
  0
CLASS
  1
VISUALSTYLE
  2
AcDbVisualStyle
  3
ObjectDBX Classes
 90
4095
 91
0
280
0
281
0
  0
CLASS
  1
MATERIAL
  2
AcDbMaterial
  3
ObjectDBX Classes
 90
1153
 91
0
280
0
281
0
  0
CLASS
  1
SCALE
  2
AcDbScale
  3
ObjectDBX Classes
 90
1153
 91
0
280
0
281
0
  0
CLASS
  1
TABLESTYLE
  2
AcDbTableStyle
  3
ObjectDBX Classes
 90
4095
 91
0
280
0
281
0
  0
CLASS
  1
MLEADERSTYLE
  2
AcDbMLeaderStyle
  3
ACDB_MLEADERSTYLE_CLASS
 90
4095
 91
0
280
0
281
0
  0
CLASS
  1
DICTIONARYVAR
  2
AcDbDictionaryVar
  3
ObjectDBX Classes
 90
0
 91
0
280
0
281
0
  0
CLASS
  1
CELLSTYLEMAP
  2
AcDbCellStyleMap
  3
ObjectDBX Classes
 90
1152
 91
0
280
0
281
0
  0
CLASS
  1
MENTALRAYRENDERSETTINGS
  2
AcDbMentalRayRenderSettings
  3
SCENEOE
 90
1024
 91
0
280
0
281
0
  0
CLASS
  1
ACDBDETAILVIEWSTYLE
  2
AcDbDetailViewStyle
  3
ObjectDBX Classes
 90
1025
 91
0
280
0
281
0
  0
CLASS
  1
ACDBSECTIONVIEWSTYLE
  2
AcDbSectionViewStyle
  3
ObjectDBX Classes
 90
1025
 91
0
280
0
281
0
  0
CLASS
  1
RASTERVARIABLES
  2
AcDbRasterVariables
  3
ISM
 90
0
 91
0
280
0
281
0
  0
CLASS
  1
LAYOUT
  2
AcDbLayout
  3
ObjectDBX Classes
 90
0
 91
0
280
0
281
0
  0
CLASS
  1
ACDBPLACEHOLDER
  2
AcDbPlaceHolder
  3
ObjectDBX Classes
 90
0
 91
0
280
0
281
0
  0
ENDSEC
  0
SECTION
  2
TABLES
  0
TABLE
  2
VPORT
  5
8
330
0
100
AcDbSymbolTable
 70
1
  0
VPORT
  5
23
330
8
100
AcDbSymbolTableRecord
100
AcDbViewportTableRecord
  2
*Active
 70
0
 10
0.0
 20
0.0
 11
1.0
 21
1.0
 12
0.0
 22
0.0
 13
0.0
 23
0.0
 14
0.5
 24
0.5
 15
0.5
 25
0.5
 16
0.0
 26
0.0
 36
1.0
 17
0.0
 27
0.0
 37
0.0
 40
1000.0
 41
1.34
 42
50.0
 43
0.0
 44
0.0
 50
0.0
 51
0.0
 71
0
 72
1000
 73
1
 74
3
 75
0
 76
0
 77
0
 78
0
281
0
 65
0
146
0.0
  0
ENDTAB
  0
TABLE
  2
LTYPE
  5
2
330
0
100
AcDbSymbolTable
 70
7
  0
LTYPE
  5
24
330
2
100
AcDbSymbolTableRecord
100
AcDbLinetypeTableRecord
  2
ByBlock
 70
0
  3

 72
65
 73
0
 40
0.0
  0
LTYPE
  5
25
330
2
100
AcDbSymbolTableRecord
100
AcDbLinetypeTableRecord
  2
ByLayer
 70
0
  3

 72
65
 73
0
 40
0.0
  0
LTYPE
  5
26
330
2
100
AcDbSymbolTableRecord
100
AcDbLinetypeTableRecord
  2
Continuous
 70
0
  3

 72
65
 73
0
 40
0.0
  0
LTYPE
  5
48
330
2
100
AcDbSymbolTableRecord
100
AcDbLinetypeTableRecord
  2
ACAD_ISO02W100
 70
0
  3
ISO kesik __ __ __
 72
65
 73
2
 40
15.0
 49
12.0
 74
0
 49
-3.0
 74
0
  0
LTYPE
  5
49
330
2
100
AcDbSymbolTableRecord
100
AcDbLinetypeTableRecord
  2
ACAD_ISO03W100
 70
0
  3
ISO kesik boşluk __    __
 72
65
 73
2
 40
30.0
 49
12.0
 74
0
 49
-18.0
 74
0
  0
LTYPE
  5
4A
330
2
100
AcDbSymbolTableRecord
100
AcDbLinetypeTableRecord
  2
ACAD_ISO04W100
 70
0
  3
ISO uzun kesik nokta ____ . ____
 72
65
 73
4
 40
30.0
 49
24.0
 74
0
 49
-3.0
 74
0
 49
0.0
 74
0
 49
-3.0
 74
0
  0
LTYPE
  5
4B
330
2
100
AcDbSymbolTableRecord
100
AcDbLinetypeTableRecord
  2
ACAD_ISO07W100
 70
0
  3
ISO nokta . . . .
 72
65
 73
2
 40
3.0
 49
0.0
 74
0
 49
-3.0
 74
0
  0
ENDTAB
  0
TABLE
  2
LAYER
  5
1
330
0
100
AcDbSymbolTable
 70
27
  0
LAYER
  5
27
330
1
100
AcDbSymbolTableRecord
100
AcDbLayerTableRecord
  2
0
 70
0
 62
7
  6
Continuous
370
-3
390
13
347
21
  0
LAYER
  5
28
330
1
100
AcDbSymbolTableRecord
100
AcDbLayerTableRecord
  2
Defpoints
 70
0
 62
7
  6
Continuous
290
0
370
-3
390
13
347
21
  0
LAYER
  5
50
330
1
100
AcDbSymbolTableRecord
100
AcDbLayerTableRecord
  2
M-YOLL-ASFALT
 70
0
 62
54
  6
Continuous
370
9
390
13
347
21
1001
AcAecLayerStandard
1000

1000
İmar yolu
  0
LAYER
  5
53
330
1
100
AcDbSymbolTableRecord
100
AcDbLayerTableRecord
  2
M-GOST-YAZI
 70
0
 62
2
  6
Continuous
370
9
390
13
347
21
1001
AcAecLayerStandard
1000

1000
Genel yazılar, başlıklar, malzeme notları
  0
LAYER
  5
56
330
1
100
AcDbSymbolTableRecord
100
AcDbLayerTableRecord
  2
M-CVRE-GENEL
 70
0
 62
45
  6
Continuous
370
9
390
13
347
21
1001
AcAecLayerStandard
1000

1000
Komşu parseller, çevre
  0
LAYER
  5
59
330
1
100
AcDbSymbolTableRecord
100
AcDbLayerTableRecord
  2
M-BITK-CIM-T
 70
0
 62
8
  6
Continuous
370
5
390
13
347
21
1001
AcAecLayerStandard
1000

1000
Çim alanlar — tarama
  0
LAYER
  5
5A
330
1
100
AcDbSymbolTableRecord
100
AcDbLayerTableRecord
  2
M-GOST-PARSELSINR
 70
0
 62
21
  6
ACAD_ISO03W100
370
18
390
13
347
21
1001
AcAecLayerStandard
1000

1000
Parsel sınırı / bahçe duvarı
  0
LAYER
  5
5C
330
1
100
AcDbSymbolTableRecord
100
AcDbLayerTableRecord
  2
M-GOST-YAPIYAKLAS
 70
0
 62
35
  6
ACAD_ISO02W100
370
15
390
13
347
21
1001
AcAecLayerStandard
1000

1000
Yapı yaklaşma sınırı (çekme mesafeleri)
  0
LAYER
  5
5F
330
1
100
AcDbSymbolTableRecord
100
AcDbLayerTableRecord
  2
M-YOLL-TAS-T
 70
0
 62
8
  6
Continuous
370
5
390
13
347
21
1001
AcAecLayerStandard
1000

1000
Araç yolu, bahçe yolları (granit küp taş) — tarama
  0
LAYER
  5
61
330
1
100
AcDbSymbolTableRecord
100
AcDbLayerTableRecord
  2
M-YOLL-TAS
 70
0
 62
54
  6
Continuous
370
9
390
13
347
21
1001
AcAecLayerStandard
1000

1000
Araç yolu, bahçe yolları (granit küp taş)
  0
LAYER
  5
6C
330
1
100
AcDbSymbolTableRecord
100
AcDbLayerTableRecord
  2
M-KALD-TAS-T
 70
0
 62
8
  6
Continuous
370
5
390
13
347
21
1001
AcAecLayerStandard
1000

1000
Dış zemin: teras, giriş sahanlığı, basamaklar — tarama
  0
LAYER
  5
6E
330
1
100
AcDbSymbolTableRecord
100
AcDbLayerTableRecord
  2
M-KALD-TAS
 70
0
 62
45
  6
Continuous
370
9
390
13
347
21
1001
AcAecLayerStandard
1000

1000
Dış zemin: teras, giriş sahanlığı, basamaklar
  0
LAYER
  5
70
330
1
100
AcDbSymbolTableRecord
100
AcDbLayerTableRecord
  2
M-GOST-IZDUSUM
 70
0
 62
80
  6
ACAD_ISO07W100
370
18
390
13
347
21
1001
AcAecLayerStandard
1000

1000
Üstte kalan / görünmeyen izdüşüm (saçak, pergola, üst kol)
  0
LAYER
  5
72
330
1
100
AcDbSymbolTableRecord
100
AcDbLayerTableRecord
  2
M-HAVU-BETONARME-T
 70
0
 62
8
  6
Continuous
370
5
390
13
347
21
1001
AcAecLayerStandard
1000

1000
Havuz — tarama
  0
LAYER
  5
74
330
1
100
AcDbSymbolTableRecord
100
AcDbLayerTableRecord
  2
M-HAVU-BETONARME
 70
0
 62
4
  6
Continuous
370
18
390
13
347
21
1001
AcAecLayerStandard
1000

1000
Havuz
  0
LAYER
  5
7B
330
1
100
AcDbSymbolTableRecord
100
AcDbLayerTableRecord
  2
M-ISIK-GALVANIZ-T
 70
0
 62
8
  6
Continuous
370
5
390
13
347
21
1001
AcAecLayerStandard
1000

1000
Bodrum ışıklıkları ve galvaniz ızgara — tarama
  0
LAYER
  5
7D
330
1
100
AcDbSymbolTableRecord
100
AcDbLayerTableRecord
  2
M-ISIK-GALVANIZ
 70
0
 62
150
  6
Continuous
370
9
390
13
347
21
1001
AcAecLayerStandard
1000

1000
Bodrum ışıklıkları ve galvaniz ızgara
  0
LAYER
  5
83
330
1
100
AcDbSymbolTableRecord
100
AcDbLayerTableRecord
  2
M-GOST-BINAOTURUM
 70
0
 62
7
  6
Continuous
370
30
390
13
347
21
1001
AcAecLayerStandard
1000

1000
Vaziyette bina oturumu ve çatı izi
  0
LAYER
  5
91
330
1
100
AcDbSymbolTableRecord
100
AcDbLayerTableRecord
  2
M-BITK-AGAC
 70
0
 62
70
  6
Continuous
370
9
390
13
347
21
1001
AcAecLayerStandard
1000

1000
Ağaçlar, selviler
  0
LAYER
  5
A3
330
1
100
AcDbSymbolTableRecord
100
AcDbLayerTableRecord
  2
M-TEFR-MIMARI
 70
0
 62
29
  6
Continuous
370
9
390
13
347
21
1001
AcAecLayerStandard
1000

1000
Mobilya / tefriş
  0
LAYER
  5
A7
330
1
100
AcDbSymbolTableRecord
100
AcDbLayerTableRecord
  2
M-GOST-PLANKOT
 70
0
 62
46
  6
Continuous
370
9
390
13
347
21
1001
AcAecLayerStandard
1000

1000
Plan kotları
  0
LAYER
  5
BA
330
1
100
AcDbSymbolTableRecord
100
AcDbLayerTableRecord
  2
M-GOST-DISOLCU
 70
0
 62
40
  6
Continuous
370
9
390
13
347
21
1001
AcAecLayerStandard
1000

1000
Dış ölçüler (ölçü nesneleri)
  0
LAYER
  5
13B
330
1
100
AcDbSymbolTableRecord
100
AcDbLayerTableRecord
  2
M-GOST-ANTETYAZI
 70
0
 62
177
  6
Continuous
370
9
390
13
347
21
1001
AcAecLayerStandard
1000

1000
Antet yazıları, notlar, pafta başlıkları (layout)
  0
LAYER
  5
13E
330
1
100
AcDbSymbolTableRecord
100
AcDbLayerTableRecord
  2
M-GOST-ANTET
 70
0
 62
176
  6
Continuous
370
25
390
13
347
21
1001
AcAecLayerStandard
1000

1000
Pafta çerçevesi ve antet (layout)
  0
LAYER
  5
149
330
1
100
AcDbSymbolTableRecord
100
AcDbLayerTableRecord
  2
M-GOST-LEJANT
 70
0
 62
173
  6
Continuous
370
9
390
13
347
21
1001
AcAecLayerStandard
1000

1000
Lejant sembolleri
  0
LAYER
  5
15B
330
1
100
AcDbSymbolTableRecord
100
AcDbLayerTableRecord
  2
M-GOST-KUZEYOKU
 70
0
 62
1
  6
Continuous
370
9
390
13
347
21
1001
AcAecLayerStandard
1000

1000
Kuzey oku
  0
LAYER
  5
180
330
1
100
AcDbSymbolTableRecord
100
AcDbLayerTableRecord
  2
M-GOST-VPORT
 70
0
 62
8
  6
Continuous
290
0
370
9
390
13
347
21
1001
AcAecLayerStandard
1000

1000
Viewport çerçeveleri — yazdırılmaz
  0
ENDTAB
  0
TABLE
  2
STYLE
  5
5
330
0
100
AcDbSymbolTable
 70
28
  0
STYLE
  5
29
330
5
100
AcDbSymbolTableRecord
100
AcDbTextStyleTableRecord
  2
Standard
 70
0
 40
0.0
 41
1.0
 50
0.0
 71
0
 42
2.5
  3
txt
  4

  0
STYLE
  5
2F
330
5
100
AcDbSymbolTableRecord
100
AcDbTextStyleTableRecord
  2
OpenSans-Light
 70
0
 40
0.0
 41
1.0
 50
0.0
 71
0
 42
2.5
  3
OpenSans-Light.ttf
  4

  0
STYLE
  5
30
330
5
100
AcDbSymbolTableRecord
100
AcDbTextStyleTableRecord
  2
OpenSans-Light-Italic
 70
0
 40
0.0
 41
1.0
 50
0.0
 71
0
 42
2.5
  3
OpenSans-LightItalic.ttf
  4

  0
STYLE
  5
31
330
5
100
AcDbSymbolTableRecord
100
AcDbTextStyleTableRecord
  2
OpenSans
 70
0
 40
0.0
 41
1.0
 50
0.0
 71
0
 42
2.5
  3
OpenSans-Regular.ttf
  4

  0
STYLE
  5
32
330
5
100
AcDbSymbolTableRecord
100
AcDbTextStyleTableRecord
  2
OpenSans-Italic
 70
0
 40
0.0
 41
1.0
 50
0.0
 71
0
 42
2.5
  3
OpenSans-Italic.ttf
  4

  0
STYLE
  5
33
330
5
100
AcDbSymbolTableRecord
100
AcDbTextStyleTableRecord
  2
OpenSans-SemiBold
 70
0
 40
0.0
 41
1.0
 50
0.0
 71
0
 42
2.5
  3
OpenSans-SemiBold.ttf
  4

  0
STYLE
  5
34
330
5
100
AcDbSymbolTableRecord
100
AcDbTextStyleTableRecord
  2
OpenSans-SemiBoldItalic
 70
0
 40
0.0
 41
1.0
 50
0.0
 71
0
 42
2.5
  3
OpenSans-SemiBoldItalic.ttf
  4

  0
STYLE
  5
35
330
5
100
AcDbSymbolTableRecord
100
AcDbTextStyleTableRecord
  2
OpenSans-Bold
 70
0
 40
0.0
 41
1.0
 50
0.0
 71
0
 42
2.5
  3
OpenSans-Bold.ttf
  4

  0
STYLE
  5
36
330
5
100
AcDbSymbolTableRecord
100
AcDbTextStyleTableRecord
  2
OpenSans-BoldItalic
 70
0
 40
0.0
 41
1.0
 50
0.0
 71
0
 42
2.5
  3
OpenSans-BoldItalic.ttf
  4

  0
STYLE
  5
37
330
5
100
AcDbSymbolTableRecord
100
AcDbTextStyleTableRecord
  2
OpenSans-ExtraBold
 70
0
 40
0.0
 41
1.0
 50
0.0
 71
0
 42
2.5
  3
OpenSans-ExtraBold.ttf
  4

  0
STYLE
  5
38
330
5
100
AcDbSymbolTableRecord
100
AcDbTextStyleTableRecord
  2
OpenSans-ExtraBoldItalic
 70
0
 40
0.0
 41
1.0
 50
0.0
 71
0
 42
2.5
  3
OpenSans-ExtraBoldItalic.ttf
  4

  0
STYLE
  5
39
330
5
100
AcDbSymbolTableRecord
100
AcDbTextStyleTableRecord
  2
OpenSansCondensed-Bold
 70
0
 40
0.0
 41
1.0
 50
0.0
 71
0
 42
2.5
  3
OpenSansCondensed-Bold.ttf
  4

  0
STYLE
  5
3A
330
5
100
AcDbSymbolTableRecord
100
AcDbTextStyleTableRecord
  2
OpenSansCondensed-Light
 70
0
 40
0.0
 41
1.0
 50
0.0
 71
0
 42
2.5
  3
OpenSansCondensed-Light.ttf
  4

  0
STYLE
  5
3B
330
5
100
AcDbSymbolTableRecord
100
AcDbTextStyleTableRecord
  2
OpenSansCondensed-Italic
 70
0
 40
0.0
 41
1.0
 50
0.0
 71
0
 42
2.5
  3
OpenSansCondensed-LightItalic.ttf
  4

  0
STYLE
  5
3C
330
5
100
AcDbSymbolTableRecord
100
AcDbTextStyleTableRecord
  2
LiberationSans
 70
0
 40
0.0
 41
1.0
 50
0.0
 71
0
 42
2.5
  3
LiberationSans-Regular.ttf
  4

  0
STYLE
  5
3D
330
5
100
AcDbSymbolTableRecord
100
AcDbTextStyleTableRecord
  2
LiberationSans-Bold
 70
0
 40
0.0
 41
1.0
 50
0.0
 71
0
 42
2.5
  3
LiberationSans-Bold.ttf
  4

  0
STYLE
  5
3E
330
5
100
AcDbSymbolTableRecord
100
AcDbTextStyleTableRecord
  2
LiberationSans-BoldItalic
 70
0
 40
0.0
 41
1.0
 50
0.0
 71
0
 42
2.5
  3
LiberationSans-BoldItalic.ttf
  4

  0
STYLE
  5
3F
330
5
100
AcDbSymbolTableRecord
100
AcDbTextStyleTableRecord
  2
LiberationSans-Italic
 70
0
 40
0.0
 41
1.0
 50
0.0
 71
0
 42
2.5
  3
LiberationSans-Italic.ttf
  4

  0
STYLE
  5
40
330
5
100
AcDbSymbolTableRecord
100
AcDbTextStyleTableRecord
  2
LiberationSerif
 70
0
 40
0.0
 41
1.0
 50
0.0
 71
0
 42
2.5
  3
LiberationSerif-Regular.ttf
  4

  0
STYLE
  5
41
330
5
100
AcDbSymbolTableRecord
100
AcDbTextStyleTableRecord
  2
LiberationSerif-Bold
 70
0
 40
0.0
 41
1.0
 50
0.0
 71
0
 42
2.5
  3
LiberationSerif-Bold.ttf
  4

  0
STYLE
  5
42
330
5
100
AcDbSymbolTableRecord
100
AcDbTextStyleTableRecord
  2
LiberationSerif-BoldItalic
 70
0
 40
0.0
 41
1.0
 50
0.0
 71
0
 42
2.5
  3
LiberationSerif-BoldItalic.ttf
  4

  0
STYLE
  5
43
330
5
100
AcDbSymbolTableRecord
100
AcDbTextStyleTableRecord
  2
LiberationSerif-Italic
 70
0
 40
0.0
 41
1.0
 50
0.0
 71
0
 42
2.5
  3
LiberationSerif-Italic.ttf
  4

  0
STYLE
  5
44
330
5
100
AcDbSymbolTableRecord
100
AcDbTextStyleTableRecord
  2
LiberationMono
 70
0
 40
0.0
 41
1.0
 50
0.0
 71
0
 42
2.5
  3
LiberationMono-Regular.ttf
  4

  0
STYLE
  5
45
330
5
100
AcDbSymbolTableRecord
100
AcDbTextStyleTableRecord
  2
LiberationMono-Bold
 70
0
 40
0.0
 41
1.0
 50
0.0
 71
0
 42
2.5
  3
LiberationMono-Bold.ttf
  4

  0
STYLE
  5
46
330
5
100
AcDbSymbolTableRecord
100
AcDbTextStyleTableRecord
  2
LiberationMono-BoldItalic
 70
0
 40
0.0
 41
1.0
 50
0.0
 71
0
 42
2.5
  3
LiberationMono-BoldItalic.ttf
  4

  0
STYLE
  5
47
330
5
100
AcDbSymbolTableRecord
100
AcDbTextStyleTableRecord
  2
LiberationMono-Italic
 70
0
 40
0.0
 41
1.0
 50
0.0
 71
0
 42
2.5
  3
LiberationMono-Italic.ttf
  4

  0
STYLE
  5
4C
330
5
100
AcDbSymbolTableRecord
100
AcDbTextStyleTableRecord
  2
YAZI
 70
0
 40
0.0
 41
1.0
 50
0.0
 71
0
 42
2.5
  3
arialn.ttf
  4

  0
STYLE
  5
4D
330
5
100
AcDbSymbolTableRecord
100
AcDbTextStyleTableRecord
  2
YAZI-KALIN
 70
0
 40
0.0
 41
1.0
 50
0.0
 71
0
 42
2.5
  3
arialnb.ttf
  4

  0
ENDTAB
  0
TABLE
  2
VIEW
  5
7
330
0
100
AcDbSymbolTable
 70
0
  0
ENDTAB
  0
TABLE
  2
UCS
  5
6
330
0
100
AcDbSymbolTable
 70
0
  0
ENDTAB
  0
TABLE
  2
APPID
  5
3
330
0
100
AcDbSymbolTable
 70
4
  0
APPID
  5
2A
330
3
100
AcDbSymbolTableRecord
100
AcDbRegAppTableRecord
  2
ACAD
 70
0
  0
APPID
  5
51
330
3
100
AcDbSymbolTableRecord
100
AcDbRegAppTableRecord
  2
AcAecLayerStandard
 70
0
  0
APPID
  5
182
330
3
100
AcDbSymbolTableRecord
100
AcDbRegAppTableRecord
  2
HATCHBACKGROUNDCOLOR
 70
0
  0
APPID
  5
183
330
3
100
AcDbSymbolTableRecord
100
AcDbRegAppTableRecord
  2
EZDXF
 70
0
  0
ENDTAB
  0
TABLE
  2
DIMSTYLE
  5
4
330
0
100
AcDbSymbolTable
 70
3
100
AcDbDimStyleTable
  0
DIMSTYLE
105
2B
330
4
100
AcDbSymbolTableRecord
100
AcDbDimStyleTableRecord
  2
Standard
 70
0
 40
1.0
 41
2.5
 42
0.625
 43
3.75
 44
1.25
 45
0.0
 46
0.0
 47
0.0
 48
0.0
 49
2.5
140
2.5
141
2.5
142
0.0
143
0.03937007874
144
1.0
145
0.0
146
1.0
147
0.625
148
0.0
 69
0
 70
0
 71
0
 72
0
 73
0
 74
0
 75
0
 76
0
 77
1
 78
8
 79
3
170
0
171
3
172
1
173
0
174
0
175
0
176
0
177
0
178
0
179
2
271
2
272
2
273
2
274
3
275
0
276
0
277
2
278
44
279
0
280
0
281
0
282
0
283
0
284
8
285
0
286
0
288
0
289
3
290
0
371
-2
372
-2
  0
DIMSTYLE
105
4E
330
4
100
AcDbSymbolTableRecord
100
AcDbDimStyleTableRecord
  2
MIMARI
 70
0
 40
1.0
 41
2.5
 42
0.0
 43
3.75
 44
1.2
 45
0.0
 46
0.0
 47
0.0
 48
0.0
 49
2.5
140
1.296
141
2.5
142
0.8
143
0.03937007874
144
1.0
145
0.0
146
1.0
147
0.5
148
0.0
 69
0
 70
0
 71
0
 72
0
 73
0
 74
0
 75
0
 76
0
 77
1
 78
8
 79
3
170
0
171
3
172
1
173
0
174
0
175
0
176
256
177
256
178
256
179
2
271
0
272
2
273
2
274
3
275
0
276
0
277
2
278
44
279
0
280
0
281
0
282
0
283
0
284
8
285
0
286
0
288
0
289
3
290
0
340
4C
371
-2
372
-2
  0
DIMSTYLE
105
BB
330
4
100
AcDbSymbolTableRecord
100
AcDbDimStyleTableRecord
  2
MIMARI-1-200
 70
0
 40
20.0
 41
2.5
 42
0.0
 43
3.75
 44
1.2
 45
0.0
 46
0.0
 47
0.0
 48
0.0
 49
2.5
140
1.296
141
2.5
142
0.8
143
0.03937007874
144
1.0
145
0.0
146
1.0
147
0.5
148
0.0
 69
0
 70
0
 71
0
 72
0
 73
0
 74
0
 75
0
 76
0
 77
1
 78
8
 79
3
170
0
171
3
172
1
173
0
174
0
175
0
176
256
177
256
178
256
179
2
271
0
272
2
273
2
274
3
275
0
276
0
277
2
278
44
279
0
280
0
281
0
282
0
283
0
284
8
285
0
286
0
288
0
289
3
290
0
340
4C
371
-2
372
-2
  0
ENDTAB
  0
TABLE
  2
BLOCK_RECORD
  5
9
330
0
100
AcDbSymbolTable
 70
11
  0
BLOCK_RECORD
  5
17
330
9
100
AcDbSymbolTableRecord
100
AcDbBlockTableRecord
  2
*Model_Space
340
1A
 70
0
280
1
281
0
  0
BLOCK_RECORD
  5
1B
330
9
100
AcDbSymbolTableRecord
100
AcDbBlockTableRecord
  2
*Paper_Space
340
1E
 70
0
280
1
281
0
  0
BLOCK_RECORD
  5
BD
330
9
100
AcDbSymbolTableRecord
100
AcDbBlockTableRecord
  2
*D1
340
0
 70
0
280
1
281
0
  0
BLOCK_RECORD
  5
C2
330
9
100
AcDbSymbolTableRecord
100
AcDbBlockTableRecord
  2
_OBLIQUE
340
0
 70
0
280
1
281
0
  0
BLOCK_RECORD
  5
D0
330
9
100
AcDbSymbolTableRecord
100
AcDbBlockTableRecord
  2
*D2
340
0
 70
0
280
1
281
0
  0
BLOCK_RECORD
  5
DF
330
9
100
AcDbSymbolTableRecord
100
AcDbBlockTableRecord
  2
*D3
340
0
 70
0
280
1
281
0
  0
BLOCK_RECORD
  5
EE
330
9
100
AcDbSymbolTableRecord
100
AcDbBlockTableRecord
  2
*D4
340
0
 70
0
280
1
281
0
  0
BLOCK_RECORD
  5
FD
330
9
100
AcDbSymbolTableRecord
100
AcDbBlockTableRecord
  2
*D5
340
0
 70
0
280
1
281
0
  0
BLOCK_RECORD
  5
10C
330
9
100
AcDbSymbolTableRecord
100
AcDbBlockTableRecord
  2
*D6
340
0
 70
0
280
1
281
0
  0
BLOCK_RECORD
  5
11B
330
9
100
AcDbSymbolTableRecord
100
AcDbBlockTableRecord
  2
*D7
340
0
 70
0
280
1
281
0
  0
BLOCK_RECORD
  5
12A
330
9
100
AcDbSymbolTableRecord
100
AcDbBlockTableRecord
  2
*D8
340
0
 70
0
280
1
281
0
  0
ENDTAB
  0
ENDSEC
  0
SECTION
  2
BLOCKS
  0
BLOCK
  5
18
330
17
100
AcDbEntity
  8
0
100
AcDbBlockBegin
  2
*Model_Space
 70
0
 10
0.0
 20
0.0
 30
0.0
  3
*Model_Space
  1

  0
ENDBLK
  5
19
330
17
100
AcDbEntity
  8
0
100
AcDbBlockEnd
  0
BLOCK
  5
1C
330
1B
100
AcDbEntity
  8
0
100
AcDbBlockBegin
  2
*Paper_Space
 70
0
 10
0.0
 20
0.0
 30
0.0
  3
*Paper_Space
  1

  0
ENDBLK
  5
1D
330
1B
100
AcDbEntity
  8
0
100
AcDbBlockEnd
  0
BLOCK
  5
BE
330
BD
100
AcDbEntity
  8
0
100
AcDbBlockBegin
  2
*D1
 70
1
 10
0.0
 20
0.0
 30
0.0
  3
*D1
  1

  0
LINE
  5
C0
330
BD
100
AcDbEntity
  8
0
100
AcDbLine
 10
0.0
 20
-4010.0
 30
0.0
 11
1.4695761589768238e-15
 21
-3986.0
 31
0.0
  0
LINE
  5
C1
330
BD
100
AcDbEntity
  8
0
100
AcDbLine
 10
300.0
 20
-4010.0
 30
0.0
 11
300.0
 21
-3986.0
 31
0.0
  0
INSERT
  5
C6
330
BD
100
AcDbEntity
  8
M-GOST-DISOLCU
100
AcDbBlockReference
  2
_OBLIQUE
 10
0.0
 20
-4010.0
 30
0.0
 41
32.0
 42
32.0
  0
INSERT
  5
C8
330
BD
100
AcDbEntity
  8
M-GOST-DISOLCU
100
AcDbBlockReference
  2
_OBLIQUE
 10
300.0
 20
-4010.0
 30
0.0
 41
32.0
 42
32.0
  0
LINE
  5
CA
330
BD
100
AcDbEntity
  8
0
100
AcDbLine
 10
0.0
 20
-4010.0
 30
0.0
 11
300.0
 21
-4010.0
 31
0.0
  0
MTEXT
  5
CB
330
BD
100
AcDbEntity
  8
M-GOST-DISOLCU
100
AcDbMText
 10
150.0
 20
-3987.04
 30
0.0
 40
25.92
 71
5
  1
300
  7
YAZI
  0
POINT
  5
CC
330
BD
100
AcDbEntity
  8
Defpoints
100
AcDbPoint
 10
0.0
 20
-4010.0
 30
0.0
  0
POINT
  5
CD
330
BD
100
AcDbEntity
  8
Defpoints
100
AcDbPoint
 10
0.0
 20
-4010.0
 30
0.0
  0
POINT
  5
CE
330
BD
100
AcDbEntity
  8
Defpoints
100
AcDbPoint
 10
300.0
 20
-4010.0
 30
0.0
  0
ENDBLK
  5
BF
330
BD
100
AcDbEntity
  8
0
100
AcDbBlockEnd
  0
BLOCK
  5
C3
330
C2
100
AcDbEntity
  8
0
100
AcDbBlockBegin
  2
_OBLIQUE
 70
0
 10
0.0
 20
0.0
 30
0.0
  3
_OBLIQUE
  1

  0
LINE
  5
C5
330
C2
100
AcDbEntity
  8
0
  6
BYBLOCK
 62
0
100
AcDbLine
 10
-0.5
 20
-0.5000000000000001
 30
0.0
 11
0.5000000000000001
 21
0.5
 31
0.0
  0
ENDBLK
  5
C4
330
C2
100
AcDbEntity
  8
0
100
AcDbBlockEnd
  0
BLOCK
  5
D1
330
D0
100
AcDbEntity
  8
0
100
AcDbBlockBegin
  2
*D2
 70
1
 10
0.0
 20
0.0
 30
0.0
  3
*D2
  1

  0
LINE
  5
D3
330
D0
100
AcDbEntity
  8
0
100
AcDbLine
 10
300.0
 20
-4010.0
 30
0.0
 11
300.0
 21
-3986.0
 31
0.0
  0
LINE
  5
D4
330
D0
100
AcDbEntity
  8
0
100
AcDbLine
 10
2300.0
 20
-4010.0
 30
0.0
 11
2300.0
 21
-3986.0
 31
0.0
  0
INSERT
  5
D5
330
D0
100
AcDbEntity
  8
M-GOST-DISOLCU
100
AcDbBlockReference
  2
_OBLIQUE
 10
300.0
 20
-4010.0
 30
0.0
 41
32.0
 42
32.0
  0
INSERT
  5
D7
330
D0
100
AcDbEntity
  8
M-GOST-DISOLCU
100
AcDbBlockReference
  2
_OBLIQUE
 10
2300.0
 20
-4010.0
 30
0.0
 41
32.0
 42
32.0
  0
LINE
  5
D9
330
D0
100
AcDbEntity
  8
0
100
AcDbLine
 10
300.0
 20
-4010.0
 30
0.0
 11
2300.0
 21
-4010.0
 31
0.0
  0
MTEXT
  5
DA
330
D0
100
AcDbEntity
  8
M-GOST-DISOLCU
100
AcDbMText
 10
1300.0
 20
-3987.04
 30
0.0
 40
25.92
 71
5
  1
2000
  7
YAZI
  0
POINT
  5
DB
330
D0
100
AcDbEntity
  8
Defpoints
100
AcDbPoint
 10
300.0
 20
-4010.0
 30
0.0
  0
POINT
  5
DC
330
D0
100
AcDbEntity
  8
Defpoints
100
AcDbPoint
 10
300.0
 20
-4010.0
 30
0.0
  0
POINT
  5
DD
330
D0
100
AcDbEntity
  8
Defpoints
100
AcDbPoint
 10
2300.0
 20
-4010.0
 30
0.0
  0
ENDBLK
  5
D2
330
D0
100
AcDbEntity
  8
0
100
AcDbBlockEnd
  0
BLOCK
  5
E0
330
DF
100
AcDbEntity
  8
0
100
AcDbBlockBegin
  2
*D3
 70
1
 10
0.0
 20
0.0
 30
0.0
  3
*D3
  1

  0
LINE
  5
E2
330
DF
100
AcDbEntity
  8
0
100
AcDbLine
 10
2300.0
 20
-4010.0
 30
0.0
 11
2300.0
 21
-3986.0
 31
0.0
  0
LINE
  5
E3
330
DF
100
AcDbEntity
  8
0
100
AcDbLine
 10
2600.0
 20
-4010.0
 30
0.0
 11
2600.0
 21
-3986.0
 31
0.0
  0
INSERT
  5
E4
330
DF
100
AcDbEntity
  8
M-GOST-DISOLCU
100
AcDbBlockReference
  2
_OBLIQUE
 10
2300.0
 20
-4010.0
 30
0.0
 41
32.0
 42
32.0
  0
INSERT
  5
E6
330
DF
100
AcDbEntity
  8
M-GOST-DISOLCU
100
AcDbBlockReference
  2
_OBLIQUE
 10
2600.0
 20
-4010.0
 30
0.0
 41
32.0
 42
32.0
  0
LINE
  5
E8
330
DF
100
AcDbEntity
  8
0
100
AcDbLine
 10
2300.0
 20
-4010.0
 30
0.0
 11
2600.0
 21
-4010.0
 31
0.0
  0
MTEXT
  5
E9
330
DF
100
AcDbEntity
  8
M-GOST-DISOLCU
100
AcDbMText
 10
2450.0
 20
-3987.04
 30
0.0
 40
25.92
 71
5
  1
300
  7
YAZI
  0
POINT
  5
EA
330
DF
100
AcDbEntity
  8
Defpoints
100
AcDbPoint
 10
2300.0
 20
-4010.0
 30
0.0
  0
POINT
  5
EB
330
DF
100
AcDbEntity
  8
Defpoints
100
AcDbPoint
 10
2300.0
 20
-4010.0
 30
0.0
  0
POINT
  5
EC
330
DF
100
AcDbEntity
  8
Defpoints
100
AcDbPoint
 10
2600.0
 20
-4010.0
 30
0.0
  0
ENDBLK
  5
E1
330
DF
100
AcDbEntity
  8
0
100
AcDbBlockEnd
  0
BLOCK
  5
EF
330
EE
100
AcDbEntity
  8
0
100
AcDbBlockBegin
  2
*D4
 70
1
 10
0.0
 20
0.0
 30
0.0
  3
*D4
  1

  0
LINE
  5
F1
330
EE
100
AcDbEntity
  8
0
100
AcDbLine
 10
0.0
 20
-4130.0
 30
0.0
 11
1.4695761589768238e-15
 21
-4106.0
 31
0.0
  0
LINE
  5
F2
330
EE
100
AcDbEntity
  8
0
100
AcDbLine
 10
2600.0
 20
-4130.0
 30
0.0
 11
2600.0
 21
-4106.0
 31
0.0
  0
INSERT
  5
F3
330
EE
100
AcDbEntity
  8
M-GOST-DISOLCU
100
AcDbBlockReference
  2
_OBLIQUE
 10
0.0
 20
-4130.0
 30
0.0
 41
32.0
 42
32.0
  0
INSERT
  5
F5
330
EE
100
AcDbEntity
  8
M-GOST-DISOLCU
100
AcDbBlockReference
  2
_OBLIQUE
 10
2600.0
 20
-4130.0
 30
0.0
 41
32.0
 42
32.0
  0
LINE
  5
F7
330
EE
100
AcDbEntity
  8
0
100
AcDbLine
 10
0.0
 20
-4130.0
 30
0.0
 11
2600.0
 21
-4130.0
 31
0.0
  0
MTEXT
  5
F8
330
EE
100
AcDbEntity
  8
M-GOST-DISOLCU
100
AcDbMText
 10
1300.0
 20
-4107.04
 30
0.0
 40
25.92
 71
5
  1
2600
  7
YAZI
  0
POINT
  5
F9
330
EE
100
AcDbEntity
  8
Defpoints
100
AcDbPoint
 10
0.0
 20
-4130.0
 30
0.0
  0
POINT
  5
FA
330
EE
100
AcDbEntity
  8
Defpoints
100
AcDbPoint
 10
0.0
 20
-4130.0
 30
0.0
  0
POINT
  5
FB
330
EE
100
AcDbEntity
  8
Defpoints
100
AcDbPoint
 10
2600.0
 20
-4130.0
 30
0.0
  0
ENDBLK
  5
F0
330
EE
100
AcDbEntity
  8
0
100
AcDbBlockEnd
  0
BLOCK
  5
FE
330
FD
100
AcDbEntity
  8
0
100
AcDbBlockBegin
  2
*D5
 70
1
 10
0.0
 20
0.0
 30
0.0
  3
*D5
  1

  0
LINE
  5
100
330
FD
100
AcDbEntity
  8
0
100
AcDbLine
 10
-720.0
 20
0.0
 30
0.0
 11
-744.0
 21
2.9391523179536475e-15
 31
0.0
  0
LINE
  5
101
330
FD
100
AcDbEntity
  8
0
100
AcDbLine
 10
-720.0
 20
-500.0
 30
0.0
 11
-744.0
 21
-500.0
 31
0.0
  0
INSERT
  5
102
330
FD
100
AcDbEntity
  8
M-GOST-DISOLCU
100
AcDbBlockReference
  2
_OBLIQUE
 10
-720.0
 20
0.0
 30
0.0
 41
32.0
 42
32.0
 50
90.0
  0
INSERT
  5
104
330
FD
100
AcDbEntity
  8
M-GOST-DISOLCU
100
AcDbBlockReference
  2
_OBLIQUE
 10
-720.0
 20
-500.0
 30
0.0
 41
32.0
 42
32.0
 50
90.0
  0
LINE
  5
106
330
FD
100
AcDbEntity
  8
0
100
AcDbLine
 10
-720.0
 20
0.0
 30
0.0
 11
-720.0
 21
-500.0
 31
0.0
  0
MTEXT
  5
107
330
FD
100
AcDbEntity
  8
M-GOST-DISOLCU
100
AcDbMText
 10
-697.04
 20
-250.0
 30
0.0
 40
25.92
 71
5
  1
500
  7
YAZI
 50
90.0
  0
POINT
  5
108
330
FD
100
AcDbEntity
  8
Defpoints
100
AcDbPoint
 10
-720.0
 20
0.0
 30
0.0
  0
POINT
  5
109
330
FD
100
AcDbEntity
  8
Defpoints
100
AcDbPoint
 10
-720.0
 20
0.0
 30
0.0
  0
POINT
  5
10A
330
FD
100
AcDbEntity
  8
Defpoints
100
AcDbPoint
 10
-720.0
 20
-500.0
 30
0.0
  0
ENDBLK
  5
FF
330
FD
100
AcDbEntity
  8
0
100
AcDbBlockEnd
  0
BLOCK
  5
10D
330
10C
100
AcDbEntity
  8
0
100
AcDbBlockBegin
  2
*D6
 70
1
 10
0.0
 20
0.0
 30
0.0
  3
*D6
  1

  0
LINE
  5
10F
330
10C
100
AcDbEntity
  8
0
100
AcDbLine
 10
-720.0
 20
-500.0
 30
0.0
 11
-744.0
 21
-500.0
 31
0.0
  0
LINE
  5
110
330
10C
100
AcDbEntity
  8
0
100
AcDbLine
 10
-720.0
 20
-2000.0
 30
0.0
 11
-744.0
 21
-2000.0
 31
0.0
  0
INSERT
  5
111
330
10C
100
AcDbEntity
  8
M-GOST-DISOLCU
100
AcDbBlockReference
  2
_OBLIQUE
 10
-720.0
 20
-500.0
 30
0.0
 41
32.0
 42
32.0
 50
90.0
  0
INSERT
  5
113
330
10C
100
AcDbEntity
  8
M-GOST-DISOLCU
100
AcDbBlockReference
  2
_OBLIQUE
 10
-720.0
 20
-2000.0
 30
0.0
 41
32.0
 42
32.0
 50
90.0
  0
LINE
  5
115
330
10C
100
AcDbEntity
  8
0
100
AcDbLine
 10
-720.0
 20
-500.0
 30
0.0
 11
-720.0
 21
-2000.0
 31
0.0
  0
MTEXT
  5
116
330
10C
100
AcDbEntity
  8
M-GOST-DISOLCU
100
AcDbMText
 10
-697.04
 20
-1250.0
 30
0.0
 40
25.92
 71
5
  1
1500
  7
YAZI
 50
90.0
  0
POINT
  5
117
330
10C
100
AcDbEntity
  8
Defpoints
100
AcDbPoint
 10
-720.0
 20
-500.0
 30
0.0
  0
POINT
  5
118
330
10C
100
AcDbEntity
  8
Defpoints
100
AcDbPoint
 10
-720.0
 20
-500.0
 30
0.0
  0
POINT
  5
119
330
10C
100
AcDbEntity
  8
Defpoints
100
AcDbPoint
 10
-720.0
 20
-2000.0
 30
0.0
  0
ENDBLK
  5
10E
330
10C
100
AcDbEntity
  8
0
100
AcDbBlockEnd
  0
BLOCK
  5
11C
330
11B
100
AcDbEntity
  8
0
100
AcDbBlockBegin
  2
*D7
 70
1
 10
0.0
 20
0.0
 30
0.0
  3
*D7
  1

  0
LINE
  5
11E
330
11B
100
AcDbEntity
  8
0
100
AcDbLine
 10
-720.0
 20
-2000.0
 30
0.0
 11
-744.0
 21
-2000.0
 31
0.0
  0
LINE
  5
11F
330
11B
100
AcDbEntity
  8
0
100
AcDbLine
 10
-720.0
 20
-3850.0
 30
0.0
 11
-744.0
 21
-3850.0
 31
0.0
  0
INSERT
  5
120
330
11B
100
AcDbEntity
  8
M-GOST-DISOLCU
100
AcDbBlockReference
  2
_OBLIQUE
 10
-720.0
 20
-2000.0
 30
0.0
 41
32.0
 42
32.0
 50
90.0
  0
INSERT
  5
122
330
11B
100
AcDbEntity
  8
M-GOST-DISOLCU
100
AcDbBlockReference
  2
_OBLIQUE
 10
-720.0
 20
-3850.0
 30
0.0
 41
32.0
 42
32.0
 50
90.0
  0
LINE
  5
124
330
11B
100
AcDbEntity
  8
0
100
AcDbLine
 10
-720.0
 20
-2000.0
 30
0.0
 11
-720.0
 21
-3850.0
 31
0.0
  0
MTEXT
  5
125
330
11B
100
AcDbEntity
  8
M-GOST-DISOLCU
100
AcDbMText
 10
-697.04
 20
-2925.0
 30
0.0
 40
25.92
 71
5
  1
1850
  7
YAZI
 50
90.0
  0
POINT
  5
126
330
11B
100
AcDbEntity
  8
Defpoints
100
AcDbPoint
 10
-720.0
 20
-2000.0
 30
0.0
  0
POINT
  5
127
330
11B
100
AcDbEntity
  8
Defpoints
100
AcDbPoint
 10
-720.0
 20
-2000.0
 30
0.0
  0
POINT
  5
128
330
11B
100
AcDbEntity
  8
Defpoints
100
AcDbPoint
 10
-720.0
 20
-3850.0
 30
0.0
  0
ENDBLK
  5
11D
330
11B
100
AcDbEntity
  8
0
100
AcDbBlockEnd
  0
BLOCK
  5
12B
330
12A
100
AcDbEntity
  8
0
100
AcDbBlockBegin
  2
*D8
 70
1
 10
0.0
 20
0.0
 30
0.0
  3
*D8
  1

  0
LINE
  5
12D
330
12A
100
AcDbEntity
  8
0
100
AcDbLine
 10
-840.0
 20
0.0
 30
0.0
 11
-864.0
 21
2.9391523179536475e-15
 31
0.0
  0
LINE
  5
12E
330
12A
100
AcDbEntity
  8
0
100
AcDbLine
 10
-840.0
 20
-3850.0
 30
0.0
 11
-864.0
 21
-3850.0
 31
0.0
  0
INSERT
  5
12F
330
12A
100
AcDbEntity
  8
M-GOST-DISOLCU
100
AcDbBlockReference
  2
_OBLIQUE
 10
-840.0
 20
0.0
 30
0.0
 41
32.0
 42
32.0
 50
90.0
  0
INSERT
  5
131
330
12A
100
AcDbEntity
  8
M-GOST-DISOLCU
100
AcDbBlockReference
  2
_OBLIQUE
 10
-840.0
 20
-3850.0
 30
0.0
 41
32.0
 42
32.0
 50
90.0
  0
LINE
  5
133
330
12A
100
AcDbEntity
  8
0
100
AcDbLine
 10
-840.0
 20
0.0
 30
0.0
 11
-840.0
 21
-3850.0
 31
0.0
  0
MTEXT
  5
134
330
12A
100
AcDbEntity
  8
M-GOST-DISOLCU
100
AcDbMText
 10
-817.04
 20
-1925.0
 30
0.0
 40
25.92
 71
5
  1
3850
  7
YAZI
 50
90.0
  0
POINT
  5
135
330
12A
100
AcDbEntity
  8
Defpoints
100
AcDbPoint
 10
-840.0
 20
0.0
 30
0.0
  0
POINT
  5
136
330
12A
100
AcDbEntity
  8
Defpoints
100
AcDbPoint
 10
-840.0
 20
0.0
 30
0.0
  0
POINT
  5
137
330
12A
100
AcDbEntity
  8
Defpoints
100
AcDbPoint
 10
-840.0
 20
-3850.0
 30
0.0
  0
ENDBLK
  5
12C
330
12A
100
AcDbEntity
  8
0
100
AcDbBlockEnd
  0
ENDSEC
  0
SECTION
  2
ENTITIES
  0
LWPOLYLINE
  5
52
330
17
100
AcDbEntity
  8
M-YOLL-ASFALT
100
AcDbPolyline
 90
4
 70
1
 10
-600.0
 20
200.0
 10
3200.0
 20
200.0
 10
3200.0
 20
0.0
 10
-600.0
 20
0.0
  0
TEXT
  5
54
330
17
100
AcDbEntity
  8
M-GOST-YAZI
100
AcDbText
 10
1300.0
 20
620.0
 30
0.0
 40
34.56
  1
İMAR YOLU (10,00 m)
  7
YAZI-KALIN
 72
1
 11
1300.0
 21
620.0
 31
0.0
100
AcDbText
  0
TEXT
  5
55
330
17
100
AcDbEntity
  8
M-GOST-YAZI
100
AcDbText
 10
1300.0
 20
70.0
 30
0.0
 40
23.04
  1
tretuvar
  7
YAZI
 72
1
 11
1300.0
 21
70.0
 31
0.0
100
AcDbText
  0
TEXT
  5
57
330
17
100
AcDbEntity
  8
M-GOST-YAZI
100
AcDbText
 10
-300.0
 20
-1925.0
 30
0.0
 40
25.92
  1
KOMŞU PARSEL
 50
90.0
  7
YAZI
 72
1
 11
-300.0
 21
-1925.0
 31
0.0
100
AcDbText
  0
TEXT
  5
58
330
17
100
AcDbEntity
  8
M-GOST-YAZI
100
AcDbText
 10
2900.0
 20
-1925.0
 30
0.0
 40
25.92
  1
KOMŞU PARSEL
 50
90.0
  7
YAZI
 72
1
 11
2900.0
 21
-1925.0
 31
0.0
100
AcDbText
  0
LWPOLYLINE
  5
5B
330
17
100
AcDbEntity
  8
M-GOST-PARSELSINR
100
AcDbPolyline
 90
4
 70
1
 10
0.0
 20
0.0
 10
2600.0
 20
0.0
 10
2600.0
 20
-3850.0
 10
0.0
 20
-3850.0
  0
LWPOLYLINE
  5
5D
330
17
100
AcDbEntity
  8
M-GOST-YAPIYAKLAS
100
AcDbPolyline
 90
4
 70
1
 10
300.0
 20
-500.0
 10
2300.0
 20
-500.0
 10
2300.0
 20
-3550.0
 10
300.0
 20
-3550.0
  0
TEXT
  5
5E
330
17
100
AcDbEntity
  8
M-GOST-YAPIYAKLAS
100
AcDbText
 10
2270.0
 20
-3510.0
 30
0.0
 40
21.6
  1
yapı yaklaşma sınırı
  7
YAZI
 72
2
 11
2270.0
 21
-3510.0
 31
0.0
100
AcDbText
  0
HATCH
  5
60
330
17
100
AcDbEntity
  8
M-YOLL-TAS-T
 62
7
100
AcDbHatch
 10
0.0
 20
0.0
 30
0.0
210
0.0
220
0.0
230
1.0
  2
NET
 70
0
 71
0
 91
1
 92
3
 72
0
 73
1
 93
4
 10
1700.0
 20
0.0
 10
2300.0
 20
0.0
 10
2300.0
 20
-500.0
 10
1700.0
 20
-500.0
 97
0
 75
1
 76
1
 52
0.0
 41
32.0
 77
0
 78
2
 53
0.0
 43
0.0
 44
0.0
 45
0.0
 46
101.6
 79
0
 53
90.0
 43
0.0
 44
0.0
 45
-101.6
 46
0.0
 79
0
 98
0
  0
LWPOLYLINE
  5
62
330
17
100
AcDbEntity
  8
M-YOLL-TAS
100
AcDbPolyline
 90
4
 70
1
 10
1700.0
 20
0.0
 10
2300.0
 20
0.0
 10
2300.0
 20
-500.0
 10
1700.0
 20
-500.0
  0
HATCH
  5
63
330
17
100
AcDbEntity
  8
M-YOLL-TAS-T
 62
7
100
AcDbHatch
 10
0.0
 20
0.0
 30
0.0
210
0.0
220
0.0
230
1.0
  2
NET
 70
0
 71
0
 91
1
 92
3
 72
0
 73
1
 93
4
 10
1125.0
 20
0.0
 10
1295.0
 20
0.0
 10
1295.0
 20
-255.99999999999994
 10
1125.0
 20
-255.99999999999994
 97
0
 75
1
 76
1
 52
0.0
 41
32.0
 77
0
 78
2
 53
0.0
 43
0.0
 44
0.0
 45
0.0
 46
101.6
 79
0
 53
90.0
 43
0.0
 44
0.0
 45
-101.6
 46
0.0
 79
0
 98
0
  0
LWPOLYLINE
  5
64
330
17
100
AcDbEntity
  8
M-YOLL-TAS
100
AcDbPolyline
 90
4
 70
1
 10
1125.0
 20
0.0
 10
1295.0
 20
0.0
 10
1295.0
 20
-255.99999999999994
 10
1125.0
 20
-255.99999999999994
  0
LINE
  5
65
330
17
100
AcDbEntity
  8
M-YOLL-TAS
100
AcDbLine
 10
1700.0
 20
0.0
 30
0.0
 11
2300.0
 21
0.0
 31
0.0
  0
TEXT
  5
66
330
17
100
AcDbEntity
  8
M-GOST-YAZI
100
AcDbText
 10
2000.0
 20
260.0
 30
0.0
 40
21.6
  1
sürme bahçe kapısı 6,00 m
  7
YAZI
 72
1
 11
2000.0
 21
260.0
 31
0.0
100
AcDbText
  0
LINE
  5
67
330
17
100
AcDbEntity
  8
M-YOLL-TAS
100
AcDbLine
 10
1125.0
 20
0.0
 30
0.0
 11
1295.0
 21
0.0
 31
0.0
  0
TEXT
  5
68
330
17
100
AcDbEntity
  8
M-GOST-YAZI
100
AcDbText
 10
1210.0
 20
260.0
 30
0.0
 40
21.6
  1
yaya kapısı
  7
YAZI
 72
1
 11
1210.0
 21
260.0
 31
0.0
100
AcDbText
  0
TEXT
  5
69
330
17
100
AcDbEntity
  8
M-GOST-YAZI
100
AcDbText
 10
2000.0
 20
-260.0
 30
0.0
 40
24.48
  1
ARAÇ YOLU
  7
YAZI-KALIN
 72
1
 11
2000.0
 21
-260.0
 31
0.0
100
AcDbText
  0
HATCH
  5
6A
330
17
100
AcDbEntity
  8
M-YOLL-TAS-T
 62
7
100
AcDbHatch
 10
0.0
 20
0.0
 30
0.0
210
0.0
220
0.0
230
1.0
  2
NET
 70
0
 71
0
 91
1
 92
3
 72
0
 73
1
 93
4
 10
2320.0
 20
-450.0
 10
2440.0
 20
-450.0
 10
2440.0
 20
-1280.0
 10
2320.0
 20
-1280.0
 97
0
 75
1
 76
1
 52
0.0
 41
32.0
 77
0
 78
2
 53
0.0
 43
0.0
 44
0.0
 45
0.0
 46
101.6
 79
0
 53
90.0
 43
0.0
 44
0.0
 45
-101.6
 46
0.0
 79
0
 98
0
  0
LWPOLYLINE
  5
6B
330
17
100
AcDbEntity
  8
M-YOLL-TAS
100
AcDbPolyline
 90
4
 70
1
 10
2320.0
 20
-450.0
 10
2440.0
 20
-450.0
 10
2440.0
 20
-1280.0
 10
2320.0
 20
-1280.0
  0
HATCH
  5
6D
330
17
100
AcDbEntity
  8
M-KALD-TAS-T
 62
7
100
AcDbHatch
 10
0.0
 20
0.0
 30
0.0
210
0.0
220
0.0
230
1.0
  2
NET
 70
0
 71
0
 91
1
 92
3
 72
0
 73
1
 93
4
 10
300.0
 20
-2000.0
 10
2300.0
 20
-2000.0
 10
2300.0
 20
-2400.0
 10
300.0
 20
-2400.0
 97
0
 75
1
 76
1
 52
0.0
 41
32.0
 77
0
 78
2
 53
0.0
 43
0.0
 44
0.0
 45
0.0
 46
101.6
 79
0
 53
90.0
 43
0.0
 44
0.0
 45
-101.6
 46
0.0
 79
0
 98
0
  0
LWPOLYLINE
  5
6F
330
17
100
AcDbEntity
  8
M-KALD-TAS
100
AcDbPolyline
 90
4
 70
1
 10
300.0
 20
-2000.0
 10
2300.0
 20
-2000.0
 10
2300.0
 20
-2400.0
 10
300.0
 20
-2400.0
  0
LWPOLYLINE
  5
71
330
17
100
AcDbEntity
  8
M-GOST-IZDUSUM
100
AcDbPolyline
 90
4
 70
1
 10
1560.0
 20
-2000.0
 10
2300.0
 20
-2000.0
 10
2300.0
 20
-2400.0
 10
1560.0
 20
-2400.0
  0
HATCH
  5
73
330
17
100
AcDbEntity
  8
M-HAVU-BETONARME-T
 62
7
100
AcDbHatch
 10
0.0
 20
0.0
 30
0.0
210
0.0
220
0.0
230
1.0
  2
NET
 70
0
 71
0
 91
1
 92
3
 72
0
 73
1
 93
4
 10
780.0
 20
-2680.0
 10
2020.0
 20
-2680.0
 10
2020.0
 20
-3320.0
 10
780.0
 20
-3320.0
 97
0
 75
1
 76
1
 52
0.0
 41
32.0
 77
0
 78
2
 53
0.0
 43
0.0
 44
0.0
 45
0.0
 46
101.6
 79
0
 53
90.0
 43
0.0
 44
0.0
 45
-101.6
 46
0.0
 79
0
 98
0
  0
LWPOLYLINE
  5
75
330
17
100
AcDbEntity
  8
M-HAVU-BETONARME
100
AcDbPolyline
 90
4
 70
1
 10
780.0
 20
-2680.0
 10
2020.0
 20
-2680.0
 10
2020.0
 20
-3320.0
 10
780.0
 20
-3320.0
  0
LWPOLYLINE
  5
76
330
17
100
AcDbEntity
  8
M-HAVU-BETONARME
100
AcDbPolyline
 90
4
 70
1
 10
900.0
 20
-2800.0
 10
1900.0
 20
-2800.0
 10
1900.0
 20
-3200.0
 10
900.0
 20
-3200.0
  0
HATCH
  5
77
330
17
100
AcDbEntity
  8
M-HAVU-BETONARME-T
 62
7
100
AcDbHatch
 10
0.0
 20
0.0
 30
0.0
210
0.0
220
0.0
230
1.0
  2
AR-SAND
 70
0
 71
0
 91
1
 92
3
 72
0
 73
1
 93
4
 10
900.0
 20
-2800.0
 10
1900.0
 20
-2800.0
 10
1900.0
 20
-3200.0
 10
900.0
 20
-3200.0
 97
0
 75
1
 76
1
 52
0.0
 41
1.0
 77
0
 78
4
 53
37.5
 43
0.0
 44
0.0
 45
-1.600031296
 46
48.9413237329
 79
6
 49
0.0
 49
-38.608
 49
0.0
 49
-43.18
 49
0.0
 49
-41.275
 53
7.5
 43
0.0
 44
0.0
 45
44.9523283138
 46
71.6825100568
 79
6
 49
0.0
 49
-20.828
 49
0.0
 49
-34.798
 49
0.0
 49
-13.335
 53
-32.5
 43
-31.242
 44
0.0
 45
79.0992370241
 46
0.1437184679
 79
6
 49
0.0
 49
-12.7
 49
0.0
 49
-45.72
 49
0.0
 49
-59.69
 53
-42.5
 43
-31.242
 44
0.0
 45
76.3556452472
 46
22.2929323257
 79
6
 49
0.0
 49
-6.35
 49
0.0
 49
-29.972
 49
0.0
 49
-34.29
 98
0
  0
TEXT
  5
78
330
17
100
AcDbEntity
  8
M-GOST-YAZI
100
AcDbText
 10
1400.0
 20
-3016.0
 30
0.0
 40
25.92
  1
HAVUZ 10,00 × 4,00 m · h=1,40
  7
YAZI-KALIN
 72
1
 11
1400.0
 21
-3016.0
 31
0.0
100
AcDbText
  0
HATCH
  5
79
330
17
100
AcDbEntity
  8
M-YOLL-TAS-T
 62
7
100
AcDbHatch
 10
0.0
 20
0.0
 30
0.0
210
0.0
220
0.0
230
1.0
  2
NET
 70
0
 71
0
 91
1
 92
3
 72
0
 73
1
 93
4
 10
1340.0
 20
-2400.0
 10
1460.0
 20
-2400.0
 10
1460.0
 20
-2680.0
 10
1340.0
 20
-2680.0
 97
0
 75
1
 76
1
 52
0.0
 41
32.0
 77
0
 78
2
 53
0.0
 43
0.0
 44
0.0
 45
0.0
 46
101.6
 79
0
 53
90.0
 43
0.0
 44
0.0
 45
-101.6
 46
0.0
 79
0
 98
0
  0
LWPOLYLINE
  5
7A
330
17
100
AcDbEntity
  8
M-YOLL-TAS
100
AcDbPolyline
 90
4
 70
1
 10
1340.0
 20
-2400.0
 10
1460.0
 20
-2400.0
 10
1460.0
 20
-2680.0
 10
1340.0
 20
-2680.0
  0
HATCH
  5
7C
330
17
100
AcDbEntity
  8
M-ISIK-GALVANIZ-T
 62
7
100
AcDbHatch
 10
0.0
 20
0.0
 30
0.0
210
0.0
220
0.0
230
1.0
  2
NET
 70
0
 71
0
 91
1
 92
3
 72
0
 73
1
 93
4
 10
160.0
 20
-1060.0
 10
300.0
 20
-1060.0
 10
300.0
 20
-1460.0
 10
160.0
 20
-1460.0
 97
0
 75
1
 76
1
 52
0.0
 41
6.0
 77
0
 78
2
 53
0.0
 43
0.0
 44
0.0
 45
0.0
 46
19.05
 79
0
 53
90.0
 43
0.0
 44
0.0
 45
-19.05
 46
0.0
 79
0
 98
0
  0
LWPOLYLINE
  5
7E
330
17
100
AcDbEntity
  8
M-ISIK-GALVANIZ
100
AcDbPolyline
 90
4
 70
1
 10
160.0
 20
-1060.0
 10
300.0
 20
-1060.0
 10
300.0
 20
-1460.0
 10
160.0
 20
-1460.0
  0
HATCH
  5
7F
330
17
100
AcDbEntity
  8
M-ISIK-GALVANIZ-T
 62
7
100
AcDbHatch
 10
0.0
 20
0.0
 30
0.0
210
0.0
220
0.0
230
1.0
  2
NET
 70
0
 71
0
 91
1
 92
3
 72
0
 73
1
 93
4
 10
160.0
 20
-1560.0
 10
300.0
 20
-1560.0
 10
300.0
 20
-1960.0
 10
160.0
 20
-1960.0
 97
0
 75
1
 76
1
 52
0.0
 41
6.0
 77
0
 78
2
 53
0.0
 43
0.0
 44
0.0
 45
0.0
 46
19.05
 79
0
 53
90.0
 43
0.0
 44
0.0
 45
-19.05
 46
0.0
 79
0
 98
0
  0
LWPOLYLINE
  5
80
330
17
100
AcDbEntity
  8
M-ISIK-GALVANIZ
100
AcDbPolyline
 90
4
 70
1
 10
160.0
 20
-1560.0
 10
300.0
 20
-1560.0
 10
300.0
 20
-1960.0
 10
160.0
 20
-1960.0
  0
HATCH
  5
81
330
17
100
AcDbEntity
  8
M-ISIK-GALVANIZ-T
 62
7
100
AcDbHatch
 10
0.0
 20
0.0
 30
0.0
210
0.0
220
0.0
230
1.0
  2
NET
 70
0
 71
0
 91
1
 92
3
 72
0
 73
1
 93
4
 10
2300.0
 20
-1540.0
 10
2440.0
 20
-1540.0
 10
2440.0
 20
-1960.0
 10
2300.0
 20
-1960.0
 97
0
 75
1
 76
1
 52
0.0
 41
6.0
 77
0
 78
2
 53
0.0
 43
0.0
 44
0.0
 45
0.0
 46
19.05
 79
0
 53
90.0
 43
0.0
 44
0.0
 45
-19.05
 46
0.0
 79
0
 98
0
  0
LWPOLYLINE
  5
82
330
17
100
AcDbEntity
  8
M-ISIK-GALVANIZ
100
AcDbPolyline
 90
4
 70
1
 10
2300.0
 20
-1540.0
 10
2440.0
 20
-1540.0
 10
2440.0
 20
-1960.0
 10
2300.0
 20
-1960.0
  0
LWPOLYLINE
  5
84
330
17
100
AcDbEntity
  8
M-GOST-IZDUSUM
100
AcDbPolyline
 90
4
 70
1
 10
220.0
 20
-420.0
 10
2380.0
 20
-420.0
 10
2380.0
 20
-2080.0
 10
220.0
 20
-2080.0
  0
LWPOLYLINE
  5
85
330
17
100
AcDbEntity
  8
M-GOST-BINAOTURUM
100
AcDbPolyline
 90
4
 70
1
 10
300.0
 20
-500.0
 10
2300.0
 20
-500.0
 10
2300.0
 20
-2000.0
 10
300.0
 20
-2000.0
  0
LINE
  5
86
330
17
100
AcDbEntity
  8
M-GOST-BINAOTURUM
100
AcDbLine
 10
220.0
 20
-420.0
 30
0.0
 11
1050.0
 21
-1250.0
 31
0.0
  0
LINE
  5
87
330
17
100
AcDbEntity
  8
M-GOST-BINAOTURUM
100
AcDbLine
 10
2380.0
 20
-420.0
 30
0.0
 11
1550.0
 21
-1250.0
 31
0.0
  0
LINE
  5
88
330
17
100
AcDbEntity
  8
M-GOST-BINAOTURUM
100
AcDbLine
 10
220.0
 20
-2080.0
 30
0.0
 11
1050.0
 21
-1250.0
 31
0.0
  0
LINE
  5
89
330
17
100
AcDbEntity
  8
M-GOST-BINAOTURUM
100
AcDbLine
 10
2380.0
 20
-2080.0
 30
0.0
 11
1550.0
 21
-1250.0
 31
0.0
  0
LINE
  5
8A
330
17
100
AcDbEntity
  8
M-GOST-BINAOTURUM
100
AcDbLine
 10
1050.0
 20
-1250.0
 30
0.0
 11
1550.0
 21
-1250.0
 31
0.0
  0
LWPOLYLINE
  5
8B
330
17
100
AcDbEntity
  8
M-GOST-BINAOTURUM
100
AcDbPolyline
 90
4
 70
1
 10
240.0
 20
-1460.0
 10
300.0
 20
-1460.0
 10
300.0
 20
-1560.0
 10
240.0
 20
-1560.0
  0
TEXT
  5
8C
330
17
100
AcDbEntity
  8
M-GOST-BINAOTURUM
100
AcDbText
 10
1300.0
 20
-960.0
 30
0.0
 40
46.08
  1
VİLLA
  7
YAZI-KALIN
 72
1
 11
1300.0
 21
-960.0
 31
0.0
100
AcDbText
  0
TEXT
  5
8D
330
17
100
AcDbEntity
  8
M-GOST-BINAOTURUM
100
AcDbText
 10
1300.0
 20
-1040.0
 30
0.0
 40
25.92
  1
Bodrum + Zemin + 1. Kat · kırma çatı
  7
YAZI
 72
1
 11
1300.0
 21
-1040.0
 31
0.0
100
AcDbText
  0
TEXT
  5
8E
330
17
100
AcDbEntity
  8
M-GOST-BINAOTURUM
100
AcDbText
 10
1300.0
 20
-1100.0
 30
0.0
 40
25.92
  1
%%p0.00 = tabii zemin +0.30 · Hmax 6,50 m
  7
YAZI
 72
1
 11
1300.0
 21
-1100.0
 31
0.0
100
AcDbText
  0
TEXT
  5
8F
330
17
100
AcDbEntity
  8
M-GOST-BINAOTURUM
100
AcDbText
 10
1300.0
 20
-1160.0
 30
0.0
 40
25.92
  1
oturum 20,00 × 15,00 = 300,00 m²
  7
YAZI
 72
1
 11
1300.0
 21
-1160.0
 31
0.0
100
AcDbText
  0
LINE
  5
90
330
17
100
AcDbEntity
  8
M-GOST-YAZI
100
AcDbLine
 10
1210.0
 20
120.0
 30
0.0
 11
1210.0
 21
-470.0
 31
0.0
  0
CIRCLE
  5
92
330
17
100
AcDbEntity
  8
M-BITK-AGAC
100
AcDbCircle
 10
160.0
 20
-260.0
 30
0.0
 40
140.0
  0
CIRCLE
  5
93
330
17
100
AcDbEntity
  8
M-BITK-AGAC
100
AcDbCircle
 10
600.0
 20
-260.0
 30
0.0
 40
150.0
  0
CIRCLE
  5
94
330
17
100
AcDbEntity
  8
M-BITK-AGAC
100
AcDbCircle
 10
460.0
 20
-3440.0
 30
0.0
 40
260.0
  0
CIRCLE
  5
95
330
17
100
AcDbEntity
  8
M-BITK-AGAC
100
AcDbCircle
 10
2140.0
 20
-3460.0
 30
0.0
 40
260.0
  0
CIRCLE
  5
96
330
17
100
AcDbEntity
  8
M-BITK-AGAC
100
AcDbCircle
 10
360.0
 20
-2900.0
 30
0.0
 40
160.0
  0
CIRCLE
  5
97
330
17
100
AcDbEntity
  8
M-BITK-AGAC
100
AcDbCircle
 10
2240.0
 20
-2900.0
 30
0.0
 40
160.0
  0
CIRCLE
  5
98
330
17
100
AcDbEntity
  8
M-BITK-AGAC
100
AcDbCircle
 10
70.0
 20
-2050.0
 30
0.0
 40
55.0
  0
CIRCLE
  5
99
330
17
100
AcDbEntity
  8
M-BITK-AGAC
100
AcDbCircle
 10
2530.0
 20
-2050.0
 30
0.0
 40
55.0
  0
CIRCLE
  5
9A
330
17
100
AcDbEntity
  8
M-BITK-AGAC
100
AcDbCircle
 10
70.0
 20
-2210.0
 30
0.0
 40
55.0
  0
CIRCLE
  5
9B
330
17
100
AcDbEntity
  8
M-BITK-AGAC
100
AcDbCircle
 10
2530.0
 20
-2210.0
 30
0.0
 40
55.0
  0
CIRCLE
  5
9C
330
17
100
AcDbEntity
  8
M-BITK-AGAC
100
AcDbCircle
 10
70.0
 20
-2370.0
 30
0.0
 40
55.0
  0
CIRCLE
  5
9D
330
17
100
AcDbEntity
  8
M-BITK-AGAC
100
AcDbCircle
 10
2530.0
 20
-2370.0
 30
0.0
 40
55.0
  0
CIRCLE
  5
9E
330
17
100
AcDbEntity
  8
M-BITK-AGAC
100
AcDbCircle
 10
70.0
 20
-2530.0
 30
0.0
 40
55.0
  0
CIRCLE
  5
9F
330
17
100
AcDbEntity
  8
M-BITK-AGAC
100
AcDbCircle
 10
2530.0
 20
-2530.0
 30
0.0
 40
55.0
  0
CIRCLE
  5
A0
330
17
100
AcDbEntity
  8
M-BITK-AGAC
100
AcDbCircle
 10
70.0
 20
-2690.0
 30
0.0
 40
55.0
  0
CIRCLE
  5
A1
330
17
100
AcDbEntity
  8
M-BITK-AGAC
100
AcDbCircle
 10
2530.0
 20
-2690.0
 30
0.0
 40
55.0
  0
LWPOLYLINE
  5
A2
330
17
100
AcDbEntity
  8
M-BITK-AGAC
100
AcDbPolyline
 90
4
 70
1
 10
50.0
 20
-60.0
 10
1040.0
 20
-60.0
 10
1040.0
 20
-120.0
 10
50.0
 20
-120.0
  0
LWPOLYLINE
  5
A4
330
17
100
AcDbEntity
  8
M-TEFR-MIMARI
100
AcDbPolyline
 90
4
 70
1
 10
1050.0
 20
-3220.0
 10
1120.0
 20
-3220.0
 10
1120.0
 20
-3410.0
 10
1050.0
 20
-3410.0
  0
LWPOLYLINE
  5
A5
330
17
100
AcDbEntity
  8
M-TEFR-MIMARI
100
AcDbPolyline
 90
4
 70
1
 10
1180.0
 20
-3220.0
 10
1250.0
 20
-3220.0
 10
1250.0
 20
-3410.0
 10
1180.0
 20
-3410.0
  0
LWPOLYLINE
  5
A6
330
17
100
AcDbEntity
  8
M-TEFR-MIMARI
100
AcDbPolyline
 90
4
 70
1
 10
1310.0
 20
-3220.0
 10
1380.0
 20
-3220.0
 10
1380.0
 20
-3410.0
 10
1310.0
 20
-3410.0
  0
LWPOLYLINE
  5
A8
330
17
100
AcDbEntity
  8
M-GOST-PLANKOT
100
AcDbPolyline
 90
3
 70
1
 10
1188.0
 20
-221.9999999999999
 10
1232.0
 20
-221.9999999999999
 10
1210.0
 20
-260.0
  0
HATCH
  5
A9
330
17
100
AcDbEntity
  8
M-GOST-PLANKOT
100
AcDbHatch
 10
0.0
 20
0.0
 30
0.0
210
0.0
220
0.0
230
1.0
  2
SOLID
 70
1
 71
0
 91
1
 92
3
 72
0
 73
1
 93
3
 10
1188.0
 20
-221.9999999999999
 10
1210.0
 20
-221.9999999999999
 10
1210.0
 20
-260.0
 97
0
 75
1
 76
1
 98
0
  0
TEXT
  5
AA
330
17
100
AcDbEntity
  8
M-GOST-PLANKOT
100
AcDbText
 10
1246.0000000000002
 20
-251.9999999999999
 30
0.0
 40
25.92
  1
-0.30
  7
YAZI-KALIN
 11
1246.0000000000002
 21
-251.9999999999999
 31
0.0
100
AcDbText
  0
LWPOLYLINE
  5
AB
330
17
100
AcDbEntity
  8
M-GOST-PLANKOT
100
AcDbPolyline
 90
3
 70
1
 10
1978.0
 20
-61.999999999999886
 10
2022.0
 20
-61.999999999999886
 10
2000.0
 20
-100.0
  0
HATCH
  5
AC
330
17
100
AcDbEntity
  8
M-GOST-PLANKOT
100
AcDbHatch
 10
0.0
 20
0.0
 30
0.0
210
0.0
220
0.0
230
1.0
  2
SOLID
 70
1
 71
0
 91
1
 92
3
 72
0
 73
1
 93
3
 10
1978.0
 20
-61.999999999999886
 10
2000.0
 20
-61.999999999999886
 10
2000.0
 20
-100.0
 97
0
 75
1
 76
1
 98
0
  0
TEXT
  5
AD
330
17
100
AcDbEntity
  8
M-GOST-PLANKOT
100
AcDbText
 10
2036.0000000000002
 20
-91.99999999999989
 30
0.0
 40
25.92
  1
-0.20
  7
YAZI-KALIN
 11
2036.0000000000002
 21
-91.99999999999989
 31
0.0
100
AcDbText
  0
LWPOLYLINE
  5
AE
330
17
100
AcDbEntity
  8
M-GOST-PLANKOT
100
AcDbPolyline
 90
3
 70
1
 10
1188.0
 20
-661.9999999999999
 10
1232.0
 20
-661.9999999999999
 10
1210.0
 20
-700.0
  0
HATCH
  5
AF
330
17
100
AcDbEntity
  8
M-GOST-PLANKOT
100
AcDbHatch
 10
0.0
 20
0.0
 30
0.0
210
0.0
220
0.0
230
1.0
  2
SOLID
 70
1
 71
0
 91
1
 92
3
 72
0
 73
1
 93
3
 10
1188.0
 20
-661.9999999999999
 10
1210.0
 20
-661.9999999999999
 10
1210.0
 20
-700.0
 97
0
 75
1
 76
1
 98
0
  0
TEXT
  5
B0
330
17
100
AcDbEntity
  8
M-GOST-PLANKOT
100
AcDbText
 10
1246.0000000000002
 20
-691.9999999999999
 30
0.0
 40
25.92
  1
%%p0.00
  7
YAZI-KALIN
 11
1246.0000000000002
 21
-691.9999999999999
 31
0.0
100
AcDbText
  0
LWPOLYLINE
  5
B1
330
17
100
AcDbEntity
  8
M-GOST-PLANKOT
100
AcDbPolyline
 90
3
 70
1
 10
678.0000000000001
 20
-2162.0
 10
721.9999999999999
 20
-2162.0
 10
700.0
 20
-2200.0
  0
HATCH
  5
B2
330
17
100
AcDbEntity
  8
M-GOST-PLANKOT
100
AcDbHatch
 10
0.0
 20
0.0
 30
0.0
210
0.0
220
0.0
230
1.0
  2
SOLID
 70
1
 71
0
 91
1
 92
3
 72
0
 73
1
 93
3
 10
678.0000000000001
 20
-2162.0
 10
700.0
 20
-2162.0
 10
700.0
 20
-2200.0
 97
0
 75
1
 76
1
 98
0
  0
TEXT
  5
B3
330
17
100
AcDbEntity
  8
M-GOST-PLANKOT
100
AcDbText
 10
736.0000000000002
 20
-2192.0
 30
0.0
 40
25.92
  1
-0.02
  7
YAZI-KALIN
 11
736.0000000000002
 21
-2192.0
 31
0.0
100
AcDbText
  0
LWPOLYLINE
  5
B4
330
17
100
AcDbEntity
  8
M-GOST-PLANKOT
100
AcDbPolyline
 90
3
 70
1
 10
578.0000000000001
 20
-2562.0
 10
621.9999999999999
 20
-2562.0
 10
600.0
 20
-2600.0
  0
HATCH
  5
B5
330
17
100
AcDbEntity
  8
M-GOST-PLANKOT
100
AcDbHatch
 10
0.0
 20
0.0
 30
0.0
210
0.0
220
0.0
230
1.0
  2
SOLID
 70
1
 71
0
 91
1
 92
3
 72
0
 73
1
 93
3
 10
578.0000000000001
 20
-2562.0
 10
600.0
 20
-2562.0
 10
600.0
 20
-2600.0
 97
0
 75
1
 76
1
 98
0
  0
TEXT
  5
B6
330
17
100
AcDbEntity
  8
M-GOST-PLANKOT
100
AcDbText
 10
636.0
 20
-2592.0
 30
0.0
 40
25.92
  1
-0.30
  7
YAZI-KALIN
 11
636.0
 21
-2592.0
 31
0.0
100
AcDbText
  0
LWPOLYLINE
  5
B7
330
17
100
AcDbEntity
  8
M-GOST-PLANKOT
100
AcDbPolyline
 90
3
 70
1
 10
178.0000000000001
 20
338.0
 10
221.9999999999999
 20
338.0
 10
200.0
 20
300.0
  0
HATCH
  5
B8
330
17
100
AcDbEntity
  8
M-GOST-PLANKOT
100
AcDbHatch
 10
0.0
 20
0.0
 30
0.0
210
0.0
220
0.0
230
1.0
  2
SOLID
 70
1
 71
0
 91
1
 92
3
 72
0
 73
1
 93
3
 10
178.0000000000001
 20
338.0
 10
200.0
 20
338.0
 10
200.0
 20
300.0
 97
0
 75
1
 76
1
 98
0
  0
TEXT
  5
B9
330
17
100
AcDbEntity
  8
M-GOST-PLANKOT
100
AcDbText
 10
235.99999999999994
 20
308.0
 30
0.0
 40
25.92
  1
-0.45
  7
YAZI-KALIN
 11
235.99999999999994
 21
308.0
 31
0.0
100
AcDbText
  0
DIMENSION
  5
BC
330
17
100
AcDbEntity
  8
M-GOST-DISOLCU
100
AcDbDimension
280
0
  2
*D1
  3
MIMARI-1-200
 10
0.0
 20
-4010.0
 30
0.0
 11
150.0
 21
-3987.04
 31
0.0
 70
32
 71
5
  1
<>
100
AcDbAlignedDimension
 13
0.0
 23
-4010.0
 33
0.0
 14
300.0
 24
-4010.0
 34
0.0
 50
0.0
100
AcDbRotatedDimension
  0
DIMENSION
  5
CF
330
17
100
AcDbEntity
  8
M-GOST-DISOLCU
100
AcDbDimension
280
0
  2
*D2
  3
MIMARI-1-200
 10
300.0
 20
-4010.0
 30
0.0
 11
1300.0
 21
-3987.04
 31
0.0
 70
32
 71
5
  1
<>
100
AcDbAlignedDimension
 13
300.0
 23
-4010.0
 33
0.0
 14
2300.0
 24
-4010.0
 34
0.0
 50
0.0
100
AcDbRotatedDimension
  0
DIMENSION
  5
DE
330
17
100
AcDbEntity
  8
M-GOST-DISOLCU
100
AcDbDimension
280
0
  2
*D3
  3
MIMARI-1-200
 10
2300.0
 20
-4010.0
 30
0.0
 11
2450.0
 21
-3987.04
 31
0.0
 70
32
 71
5
  1
<>
100
AcDbAlignedDimension
 13
2300.0
 23
-4010.0
 33
0.0
 14
2600.0
 24
-4010.0
 34
0.0
 50
0.0
100
AcDbRotatedDimension
  0
DIMENSION
  5
ED
330
17
100
AcDbEntity
  8
M-GOST-DISOLCU
100
AcDbDimension
280
0
  2
*D4
  3
MIMARI-1-200
 10
0.0
 20
-4130.0
 30
0.0
 11
1300.0
 21
-4107.04
 31
0.0
 70
32
 71
5
  1
<>
100
AcDbAlignedDimension
 13
0.0
 23
-4130.0
 33
0.0
 14
2600.0
 24
-4130.0
 34
0.0
 50
0.0
100
AcDbRotatedDimension
  0
DIMENSION
  5
FC
330
17
100
AcDbEntity
  8
M-GOST-DISOLCU
100
AcDbDimension
280
0
  2
*D5
  3
MIMARI-1-200
 10
-720.0
 20
0.0
 30
0.0
 11
-697.04
 21
-250.0
 31
0.0
 70
32
 71
5
  1
<>
100
AcDbAlignedDimension
 13
-720.0
 23
0.0
 33
0.0
 14
-720.0
 24
-500.0
 34
0.0
 50
90.0
100
AcDbRotatedDimension
  0
DIMENSION
  5
10B
330
17
100
AcDbEntity
  8
M-GOST-DISOLCU
100
AcDbDimension
280
0
  2
*D6
  3
MIMARI-1-200
 10
-720.0
 20
-500.0
 30
0.0
 11
-697.04
 21
-1250.0
 31
0.0
 70
32
 71
5
  1
<>
100
AcDbAlignedDimension
 13
-720.0
 23
-500.0
 33
0.0
 14
-720.0
 24
-2000.0
 34
0.0
 50
90.0
100
AcDbRotatedDimension
  0
DIMENSION
  5
11A
330
17
100
AcDbEntity
  8
M-GOST-DISOLCU
100
AcDbDimension
280
0
  2
*D7
  3
MIMARI-1-200
 10
-720.0
 20
-2000.0
 30
0.0
 11
-697.04
 21
-2925.0
 31
0.0
 70
32
 71
5
  1
<>
100
AcDbAlignedDimension
 13
-720.0
 23
-2000.0
 33
0.0
 14
-720.0
 24
-3850.0
 34
0.0
 50
90.0
100
AcDbRotatedDimension
  0
DIMENSION
  5
129
330
17
100
AcDbEntity
  8
M-GOST-DISOLCU
100
AcDbDimension
280
0
  2
*D8
  3
MIMARI-1-200
 10
-840.0
 20
0.0
 30
0.0
 11
-817.04
 21
-1925.0
 31
0.0
 70
32
 71
5
  1
<>
100
AcDbAlignedDimension
 13
-840.0
 23
0.0
 33
0.0
 14
-840.0
 24
-3850.0
 34
0.0
 50
90.0
100
AcDbRotatedDimension
  0
TEXT
  5
138
330
17
100
AcDbEntity
  8
M-GOST-DISOLCU
100
AcDbText
 10
140.0
 20
-264.00000000000006
 30
0.0
 40
21.6
  1
ön bahçe 5,00
  7
YAZI
 11
140.0
 21
-264.00000000000006
 31
0.0
100
AcDbText
  0
TEXT
  5
139
330
17
100
AcDbEntity
  8
M-GOST-DISOLCU
100
AcDbText
 10
140.0
 20
-2140.0
 30
0.0
 40
21.6
  1
yan 3,00
  7
YAZI
 11
140.0
 21
-2140.0
 31
0.0
100
AcDbText
  0
TEXT
  5
13A
330
17
100
AcDbEntity
  8
M-GOST-DISOLCU
100
AcDbText
 10
1300.0
 20
-3710.0
 30
0.0
 40
21.6
  1
arka bahçe 18,50
  7
YAZI
 72
1
 11
1300.0
 21
-3710.0
 31
0.0
100
AcDbText
  0
VIEWPORT
  5
4F
330
1B
100
AcDbEntity
 67
1
  8
VIEWPORTS
100
AcDbViewport
 10
210.0
 20
148.5
 30
0.0
 40
462.00000000000006
 41
326.70000000000005
 68
1
 69
1
 12
210.0
 22
148.5
 13
0.0
 23
0.0
 14
10.0
 24
10.0
 15
10.0
 25
10.0
 16
0.0
 26
0.0
 36
1.0
 17
0.0
 27
0.0
 37
0.0
 42
50.0
 43
0.0
 44
0.0
 45
326.70000000000005
 50
0.0
 51
0.0
 72
100
 90
557088
  1

281
0
 71
0
 74
0
110
0.0
120
0.0
130
0.0
111
1.0
121
0.0
131
0.0
112
0.0
122
1.0
132
0.0
 79
0
146
0.0
282
0
  0
TEXT
  5
13C
330
1B
100
AcDbEntity
 67
1
  8
M-GOST-ANTETYAZI
100
AcDbText
 10
24.0
 20
18.0
 30
0.0
 40
2.7359999999999998
  1
VAZİYET PLANI · Ö: 1/200
  7
YAZI-KALIN
 11
24.0
 21
18.0
 31
0.0
100
AcDbText
  0
TEXT
  5
13D
330
1B
100
AcDbEntity
 67
1
  8
M-GOST-ANTETYAZI
100
AcDbText
 10
24.0
 20
13.0
 30
0.0
 40
1.656
  1
Parsel 26,00 × 38,50 = 1.001 m² · ön bahçe 5,00 · yan bahçeler 3,00 · arka bahçe 18,50
  7
YAZI
 11
24.0
 21
13.0
 31
0.0
100
AcDbText
  0
LWPOLYLINE
  5
13F
330
1B
100
AcDbEntity
 67
1
  8
M-GOST-ANTET
100
AcDbPolyline
 90
4
 70
1
 10
10.0
 20
287.0
 10
410.0
 20
287.0
 10
410.0
 20
10.0
 10
10.0
 20
10.0
  0
LWPOLYLINE
  5
140
330
1B
100
AcDbEntity
 67
1
  8
M-GOST-ANTET
100
AcDbPolyline
 90
4
 70
1
 10
318.0
 20
287.0
 10
410.0
 20
287.0
 10
410.0
 20
10.0
 10
318.0
 20
10.0
  0
TEXT
  5
141
330
1B
100
AcDbEntity
 67
1
  8
M-GOST-ANTETYAZI
100
AcDbText
 10
322.0
 20
278.0
 30
0.0
 40
3.7439999999999998
  1
DURUNDAY VİLLA
  7
YAZI-KALIN
 11
322.0
 21
278.0
 31
0.0
100
AcDbText
  0
TEXT
  5
142
330
1B
100
AcDbEntity
 67
1
  8
M-GOST-ANTETYAZI
100
AcDbText
 10
322.0
 20
272.5
 30
0.0
 40
1.8719999999999999
  1
Konya · Meram · Durunday
  7
YAZI
 11
322.0
 21
272.5
 31
0.0
100
AcDbText
  0
TEXT
  5
143
330
1B
100
AcDbEntity
 67
1
  8
M-GOST-ANTETYAZI
100
AcDbText
 10
322.0
 20
268.0
 30
0.0
 40
1.656
  1
Bodrumlu dubleks müstakil konut · 300 m² oturum
  7
YAZI
 11
322.0
 21
268.0
 31
0.0
100
AcDbText
  0
LINE
  5
144
330
1B
100
AcDbEntity
 67
1
  8
M-GOST-ANTET
100
AcDbLine
 10
318.0
 20
264.0
 30
0.0
 11
410.0
 21
264.0
 31
0.0
  0
TEXT
  5
145
330
1B
100
AcDbEntity
 67
1
  8
M-GOST-ANTETYAZI
100
AcDbText
 10
322.0
 20
258.5
 30
0.0
 40
2.016
  1
MİMARİ ÖN PROJE (AVAN)
  7
YAZI-KALIN
 11
322.0
 21
258.5
 31
0.0
100
AcDbText
  0
TEXT
  5
146
330
1B
100
AcDbEntity
 67
1
  8
M-GOST-ANTETYAZI
100
AcDbText
 10
322.0
 20
254.2
 30
0.0
 40
1.512
  1
Ruhsat ve uygulamaya esas değildir
  7
YAZI
 11
322.0
 21
254.2
 31
0.0
100
AcDbText
  0
LINE
  5
147
330
1B
100
AcDbEntity
 67
1
  8
M-GOST-ANTET
100
AcDbLine
 10
318.0
 20
251.0
 30
0.0
 11
410.0
 21
251.0
 31
0.0
  0
TEXT
  5
148
330
1B
100
AcDbEntity
 67
1
  8
M-GOST-ANTETYAZI
100
AcDbText
 10
322.0
 20
246.0
 30
0.0
 40
1.584
  1
LEJANT
  7
YAZI-KALIN
 11
322.0
 21
246.0
 31
0.0
100
AcDbText
  0
LWPOLYLINE
  5
14A
330
1B
100
AcDbEntity
 67
1
  8
M-GOST-LEJANT
100
AcDbPolyline
 90
4
 70
1
 10
322.0
 20
245.0
 10
331.0
 20
245.0
 10
331.0
 20
242.4
 10
322.0
 20
242.4
  0
TEXT
  5
14B
330
1B
100
AcDbEntity
 67
1
  8
M-GOST-ANTETYAZI
100
AcDbText
 10
333.0
 20
242.8
 30
0.0
 40
1.44
  1
Havuz
  7
YAZI
 11
333.0
 21
242.8
 31
0.0
100
AcDbText
  0
HATCH
  5
14C
330
1B
100
AcDbEntity
 67
1
  8
M-GOST-LEJANT
 62
7
100
AcDbHatch
 10
0.0
 20
0.0
 30
0.0
210
0.0
220
0.0
230
1.0
  2
NET
 70
0
 71
0
 91
1
 92
3
 72
0
 73
1
 93
4
 10
322.0
 20
241.4
 10
331.0
 20
241.4
 10
331.0
 20
238.8
 10
322.0
 20
238.8
 97
0
 75
1
 76
1
 52
0.0
 41
1.6
 77
0
 78
2
 53
0.0
 43
0.0
 44
0.0
 45
0.0
 46
5.08
 79
0
 53
90.0
 43
0.0
 44
0.0
 45
-5.08
 46
0.0
 79
0
 98
0
  0
LWPOLYLINE
  5
14D
330
1B
100
AcDbEntity
 67
1
  8
M-GOST-LEJANT
100
AcDbPolyline
 90
4
 70
1
 10
322.0
 20
241.4
 10
331.0
 20
241.4
 10
331.0
 20
238.8
 10
322.0
 20
238.8
  0
TEXT
  5
14E
330
1B
100
AcDbEntity
 67
1
  8
M-GOST-ANTETYAZI
100
AcDbText
 10
333.0
 20
239.2
 30
0.0
 40
1.44
  1
Sert zemin / taş döşeme
  7
YAZI
 11
333.0
 21
239.2
 31
0.0
100
AcDbText
  0
CIRCLE
  5
14F
330
1B
100
AcDbEntity
 67
1
  8
M-GOST-LEJANT
100
AcDbCircle
 10
326.5
 20
236.5
 30
0.0
 40
1.6
  0
TEXT
  5
150
330
1B
100
AcDbEntity
 67
1
  8
M-GOST-ANTETYAZI
100
AcDbText
 10
326.5
 20
235.8
 30
0.0
 40
1.296
  1
1
  7
YAZI
 72
1
 11
326.5
 21
235.8
 31
0.0
100
AcDbText
  0
TEXT
  5
151
330
1B
100
AcDbEntity
 67
1
  8
M-GOST-ANTETYAZI
100
AcDbText
 10
333.0
 20
235.6
 30
0.0
 40
1.44
  1
Ağaç (mevcut/dikilecek)
  7
YAZI
 11
333.0
 21
235.6
 31
0.0
100
AcDbText
  0
TEXT
  5
152
330
1B
100
AcDbEntity
 67
1
  8
M-GOST-ANTETYAZI
100
AcDbText
 10
322.0
 20
230.5
 30
0.0
 40
1.584
  1
NOTLAR
  7
YAZI-KALIN
 11
322.0
 21
230.5
 31
0.0
100
AcDbText
  0
TEXT
  5
153
330
1B
100
AcDbEntity
 67
1
  8
M-GOST-ANTETYAZI
100
AcDbText
 10
322.0
 20
227.1
 30
0.0
 40
1.404
  1
1. Araç girişi doğuda, garaja doğrudan (rampa yok); önünde 2
  7
YAZI
 11
322.0
 21
227.1
 31
0.0
100
AcDbText
  0
TEXT
  5
154
330
1B
100
AcDbEntity
 67
1
  8
M-GOST-ANTETYAZI
100
AcDbText
 10
322.0
 20
224.39999999999998
 30
0.0
 40
1.404
  1
    araçlık açık park yeri.
  7
YAZI
 11
322.0
 21
224.39999999999998
 31
0.0
100
AcDbText
  0
TEXT
  5
155
330
1B
100
AcDbEntity
 67
1
  8
M-GOST-ANTETYAZI
100
AcDbText
 10
322.0
 20
221.1
 30
0.0
 40
1.404
  1
2. Yaya girişi ayrı kapıdan, giriş saçağına yürüyüş yolu ile.
  7
YAZI
 11
322.0
 21
221.1
 31
0.0
100
AcDbText
  0
TEXT
  5
156
330
1B
100
AcDbEntity
 67
1
  8
M-GOST-ANTETYAZI
100
AcDbText
 10
322.0
 20
217.8
 30
0.0
 40
1.404
  1
3. Servis yolu doğu yan bahçeden arka mutfak kapısına ulaşır.
  7
YAZI
 11
322.0
 21
217.8
 31
0.0
100
AcDbText
  0
TEXT
  5
157
330
1B
100
AcDbEntity
 67
1
  8
M-GOST-ANTETYAZI
100
AcDbText
 10
322.0
 20
214.5
 30
0.0
 40
1.404
  1
4. Bahçe duvarı: yol cephesinde 50 cm taş + 100 cm antrasit
  7
YAZI
 11
322.0
 21
214.5
 31
0.0
100
AcDbText
  0
TEXT
  5
158
330
1B
100
AcDbEntity
 67
1
  8
M-GOST-ANTETYAZI
100
AcDbText
 10
322.0
 20
211.8
 30
0.0
 40
1.404
  1
    metal çit; yan ve arka sınırlarda 180 cm.
  7
YAZI
 11
322.0
 21
211.8
 31
0.0
100
AcDbText
  0
TEXT
  5
159
330
1B
100
AcDbEntity
 67
1
  8
M-GOST-ANTETYAZI
100
AcDbText
 10
322.0
 20
208.5
 30
0.0
 40
1.404
  1
5. Havuz arka bahçede; makine dairesi bodrumda (B-16).
  7
YAZI
 11
322.0
 21
208.5
 31
0.0
100
AcDbText
  0
TEXT
  5
15A
330
1B
100
AcDbEntity
 67
1
  8
M-GOST-ANTETYAZI
100
AcDbText
 10
322.0
 20
205.2
 30
0.0
 40
1.404
  1
6. Selvi dizileri yan komşulara görsel perde oluşturur.
  7
YAZI
 11
322.0
 21
205.2
 31
0.0
100
AcDbText
  0
CIRCLE
  5
15C
330
1B
100
AcDbEntity
 67
1
  8
M-GOST-KUZEYOKU
100
AcDbCircle
 10
398.0
 20
115.0
 30
0.0
 40
6.5
  0
HATCH
  5
15D
330
1B
100
AcDbEntity
 67
1
  8
M-GOST-KUZEYOKU
100
AcDbHatch
 10
0.0
 20
0.0
 30
0.0
210
0.0
220
0.0
230
1.0
  2
SOLID
 70
1
 71
0
 91
1
 92
3
 72
0
 73
1
 93
4
 10
398.0
 20
123.0
 10
400.2
 20
112.5
 10
398.0
 20
113.80000000000001
 10
395.8
 20
112.5
 97
0
 75
1
 76
1
 98
0
  0
LWPOLYLINE
  5
15E
330
1B
100
AcDbEntity
 67
1
  8
M-GOST-KUZEYOKU
100
AcDbPolyline
 90
4
 70
1
 10
398.0
 20
123.0
 10
400.2
 20
112.5
 10
398.0
 20
113.80000000000001
 10
395.8
 20
112.5
  0
TEXT
  5
15F
330
1B
100
AcDbEntity
 67
1
  8
M-GOST-ANTETYAZI
100
AcDbText
 10
398.0
 20
124.30000000000001
 30
0.0
 40
2.16
  1
K
  7
YAZI-KALIN
 72
1
 11
398.0
 21
124.30000000000001
 31
0.0
100
AcDbText
  0
LINE
  5
160
330
1B
100
AcDbEntity
 67
1
  8
M-GOST-ANTET
100
AcDbLine
 10
318.0
 20
102.0
 30
0.0
 11
410.0
 21
102.0
 31
0.0
  0
TEXT
  5
161
330
1B
100
AcDbEntity
 67
1
  8
M-GOST-ANTETYAZI
100
AcDbText
 10
322.0
 20
97.0
 30
0.0
 40
1.44
  1
REVİZYONLAR
  7
YAZI-KALIN
 11
322.0
 21
97.0
 31
0.0
100
AcDbText
  0
TEXT
  5
162
330
1B
100
AcDbEntity
 67
1
  8
M-GOST-ANTETYAZI
100
AcDbText
 10
322.0
 20
93.0
 30
0.0
 40
1.3679999999999999
  1
R0
  7
YAZI-KALIN
 11
322.0
 21
93.0
 31
0.0
100
AcDbText
  0
TEXT
  5
163
330
1B
100
AcDbEntity
 67
1
  8
M-GOST-ANTETYAZI
100
AcDbText
 10
328.0
 20
93.0
 30
0.0
 40
1.3679999999999999
  1
19.09.2026
  7
YAZI
 11
328.0
 21
93.0
 31
0.0
100
AcDbText
  0
TEXT
  5
164
330
1B
100
AcDbEntity
 67
1
  8
M-GOST-ANTETYAZI
100
AcDbText
 10
345.0
 20
93.0
 30
0.0
 40
1.3679999999999999
  1
İlk yayın
  7
YAZI
 11
345.0
 21
93.0
 31
0.0
100
AcDbText
  0
TEXT
  5
165
330
1B
100
AcDbEntity
 67
1
  8
M-GOST-ANTETYAZI
100
AcDbText
 10
322.0
 20
89.30000000000001
 30
0.0
 40
1.3679999999999999
  1
R1
  7
YAZI-KALIN
 11
322.0
 21
89.30000000000001
 31
0.0
100
AcDbText
  0
TEXT
  5
166
330
1B
100
AcDbEntity
 67
1
  8
M-GOST-ANTETYAZI
100
AcDbText
 10
328.0
 20
89.30000000000001
 30
0.0
 40
1.3679999999999999
  1
21.09.2026
  7
YAZI
 11
328.0
 21
89.30000000000001
 31
0.0
100
AcDbText
  0
TEXT
  5
167
330
1B
100
AcDbEntity
 67
1
  8
M-GOST-ANTETYAZI
100
AcDbText
 10
345.0
 20
89.30000000000001
 30
0.0
 40
1.3679999999999999
  1
Plan kurgusu yeniden düzenlendi; kesit,
  7
YAZI
 11
345.0
 21
89.30000000000001
 31
0.0
100
AcDbText
  0
TEXT
  5
168
330
1B
100
AcDbEntity
 67
1
  8
M-GOST-ANTETYAZI
100
AcDbText
 10
345.0
 20
86.80000000000001
 30
0.0
 40
1.3679999999999999
  1
görünüş, detay ve doğrama listesi eklendi
  7
YAZI
 11
345.0
 21
86.80000000000001
 31
0.0
100
AcDbText
  0
LINE
  5
169
330
1B
100
AcDbEntity
 67
1
  8
M-GOST-ANTET
100
AcDbLine
 10
318.0
 20
76.0
 30
0.0
 11
410.0
 21
76.0
 31
0.0
  0
TEXT
  5
16A
330
1B
100
AcDbEntity
 67
1
  8
M-GOST-ANTETYAZI
100
AcDbText
 10
322.0
 20
71.0
 30
0.0
 40
1.3679999999999999
  1
İŞ SAHİBİ
  7
YAZI
 11
322.0
 21
71.0
 31
0.0
100
AcDbText
  0
TEXT
  5
16B
330
1B
100
AcDbEntity
 67
1
  8
M-GOST-ANTETYAZI
100
AcDbText
 10
322.0
 20
66.5
 30
0.0
 40
1.728
  1
—
  7
YAZI
 11
322.0
 21
66.5
 31
0.0
100
AcDbText
  0
TEXT
  5
16C
330
1B
100
AcDbEntity
 67
1
  8
M-GOST-ANTETYAZI
100
AcDbText
 10
366.0
 20
71.0
 30
0.0
 40
1.3679999999999999
  1
HAZIRLAYAN
  7
YAZI
 11
366.0
 21
71.0
 31
0.0
100
AcDbText
  0
TEXT
  5
16D
330
1B
100
AcDbEntity
 67
1
  8
M-GOST-ANTETYAZI
100
AcDbText
 10
366.0
 20
66.5
 30
0.0
 40
1.728
  1
E. Ceran
  7
YAZI
 11
366.0
 21
66.5
 31
0.0
100
AcDbText
  0
LINE
  5
16E
330
1B
100
AcDbEntity
 67
1
  8
M-GOST-ANTET
100
AcDbLine
 10
363.0
 20
76.0
 30
0.0
 11
363.0
 21
62.0
 31
0.0
  0
LINE
  5
16F
330
1B
100
AcDbEntity
 67
1
  8
M-GOST-ANTET
100
AcDbLine
 10
318.0
 20
62.0
 30
0.0
 11
410.0
 21
62.0
 31
0.0
  0
TEXT
  5
170
330
1B
100
AcDbEntity
 67
1
  8
M-GOST-ANTETYAZI
100
AcDbText
 10
322.0
 20
57.0
 30
0.0
 40
1.3679999999999999
  1
MÜELLİF MİMAR
  7
YAZI
 11
322.0
 21
57.0
 31
0.0
100
AcDbText
  0
TEXT
  5
171
330
1B
100
AcDbEntity
 67
1
  8
M-GOST-ANTETYAZI
100
AcDbText
 10
322.0
 20
52.0
 30
0.0
 40
1.44
  1
(ruhsat aşamasında atanacak)
  7
YAZI
 11
322.0
 21
52.0
 31
0.0
100
AcDbText
  0
TEXT
  5
172
330
1B
100
AcDbEntity
 67
1
  8
M-GOST-ANTETYAZI
100
AcDbText
 10
366.0
 20
57.0
 30
0.0
 40
1.3679999999999999
  1
İMZA
  7
YAZI
 11
366.0
 21
57.0
 31
0.0
100
AcDbText
  0
LINE
  5
173
330
1B
100
AcDbEntity
 67
1
  8
M-GOST-ANTET
100
AcDbLine
 10
363.0
 20
62.0
 30
0.0
 11
363.0
 21
48.0
 31
0.0
  0
LINE
  5
174
330
1B
100
AcDbEntity
 67
1
  8
M-GOST-ANTET
100
AcDbLine
 10
318.0
 20
48.0
 30
0.0
 11
410.0
 21
48.0
 31
0.0
  0
TEXT
  5
175
330
1B
100
AcDbEntity
 67
1
  8
M-GOST-ANTETYAZI
100
AcDbText
 10
322.0
 20
42.0
 30
0.0
 40
1.3679999999999999
  1
PAFTA ADI
  7
YAZI
 11
322.0
 21
42.0
 31
0.0
100
AcDbText
  0
TEXT
  5
176
330
1B
100
AcDbEntity
 67
1
  8
M-GOST-ANTETYAZI
100
AcDbText
 10
322.0
 20
35.0
 30
0.0
 40
3.5999999999999996
  1
VAZİYET PLANI
  7
YAZI-KALIN
 11
322.0
 21
35.0
 31
0.0
100
AcDbText
  0
LINE
  5
177
330
1B
100
AcDbEntity
 67
1
  8
M-GOST-ANTET
100
AcDbLine
 10
318.0
 20
24.0
 30
0.0
 11
410.0
 21
24.0
 31
0.0
  0
TEXT
  5
178
330
1B
100
AcDbEntity
 67
1
  8
M-GOST-ANTETYAZI
100
AcDbText
 10
322.0
 20
19.5
 30
0.0
 40
1.3679999999999999
  1
ÖLÇEK
  7
YAZI
 11
322.0
 21
19.5
 31
0.0
100
AcDbText
  0
TEXT
  5
179
330
1B
100
AcDbEntity
 67
1
  8
M-GOST-ANTETYAZI
100
AcDbText
 10
322.0
 20
13.5
 30
0.0
 40
2.592
  1
1/200
  7
YAZI-KALIN
 11
322.0
 21
13.5
 31
0.0
100
AcDbText
  0
TEXT
  5
17A
330
1B
100
AcDbEntity
 67
1
  8
M-GOST-ANTETYAZI
100
AcDbText
 10
350.0
 20
19.5
 30
0.0
 40
1.3679999999999999
  1
TARİH
  7
YAZI
 11
350.0
 21
19.5
 31
0.0
100
AcDbText
  0
TEXT
  5
17B
330
1B
100
AcDbEntity
 67
1
  8
M-GOST-ANTETYAZI
100
AcDbText
 10
350.0
 20
13.5
 30
0.0
 40
2.16
  1
21.09.2026
  7
YAZI
 11
350.0
 21
13.5
 31
0.0
100
AcDbText
  0
TEXT
  5
17C
330
1B
100
AcDbEntity
 67
1
  8
M-GOST-ANTETYAZI
100
AcDbText
 10
380.0
 20
19.5
 30
0.0
 40
1.3679999999999999
  1
PAFTA NO
  7
YAZI
 11
380.0
 21
19.5
 31
0.0
100
AcDbText
  0
TEXT
  5
17D
330
1B
100
AcDbEntity
 67
1
  8
M-GOST-ANTETYAZI
100
AcDbText
 10
380.0
 20
13.0
 30
0.0
 40
3.7439999999999998
  1
A-01
  7
YAZI-KALIN
 11
380.0
 21
13.0
 31
0.0
100
AcDbText
  0
LINE
  5
17E
330
1B
100
AcDbEntity
 67
1
  8
M-GOST-ANTET
100
AcDbLine
 10
347.0
 20
24.0
 30
0.0
 11
347.0
 21
10.0
 31
0.0
  0
LINE
  5
17F
330
1B
100
AcDbEntity
 67
1
  8
M-GOST-ANTET
100
AcDbLine
 10
377.0
 20
24.0
 30
0.0
 11
377.0
 21
10.0
 31
0.0
  0
VIEWPORT
  5
181
330
1B
100
AcDbEntity
 67
1
  8
M-GOST-VPORT
100
AcDbViewport
 10
155.0
 20
154.25
 30
0.0
 40
208.0
 41
257.5
 68
2
 69
3
 12
1180.0
 22
-1615.0
 13
0.0
 23
0.0
 14
10.0
 24
10.0
 15
10.0
 25
10.0
 16
0.0
 26
0.0
 36
1.0
 17
0.0
 27
0.0
 37
0.0
 42
50.0
 43
0.0
 44
0.0
 45
5150.0
 50
0.0
 51
0.0
 72
100
 90
0
  1

281
0
 71
0
 74
0
110
0.0
120
0.0
130
0.0
111
1.0
121
0.0
131
0.0
112
0.0
122
1.0
132
0.0
 79
0
146
0.0
282
0
  0
ENDSEC
  0
SECTION
  2
OBJECTS
  0
DICTIONARY
  5
A
330
0
100
AcDbDictionary
280
0
281
1
  3
ACAD_COLOR
350
B
  3
ACAD_GROUP
350
C
  3
ACAD_LAYOUT
350
D
  3
ACAD_MATERIAL
350
E
  3
ACAD_MLEADERSTYLE
350
F
  3
ACAD_MLINESTYLE
350
10
  3
ACAD_PLOTSETTINGS
350
11
  3
ACAD_PLOTSTYLENAME
350
12
  3
ACAD_SCALELIST
350
14
  3
ACAD_TABLESTYLE
350
15
  3
ACAD_VISUALSTYLE
350
16
  3
EZDXF_META
350
2D
  0
DICTIONARY
  5
B
330
A
100
AcDbDictionary
280
0
281
1
  0
DICTIONARY
  5
C
330
A
100
AcDbDictionary
280
0
281
1
  0
DICTIONARY
  5
D
330
A
100
AcDbDictionary
280
0
281
1
  3
Model
350
1A
  3
A-01 VAZIYET PLANI
350
1E
  0
DICTIONARY
  5
E
330
A
100
AcDbDictionary
280
0
281
1
  3
ByBlock
350
1F
  3
ByLayer
350
20
  3
Global
350
21
  0
DICTIONARY
  5
F
330
A
100
AcDbDictionary
280
0
281
1
  3
Standard
350
2C
  0
DICTIONARY
  5
10
330
A
100
AcDbDictionary
280
0
281
1
  3
Standard
350
22
  0
DICTIONARY
  5
11
330
A
100
AcDbDictionary
280
0
281
1
  0
ACDBDICTIONARYWDFLT
  5
12
330
A
100
AcDbDictionary
280
0
281
1
  3
Normal
350
13
100
AcDbDictionaryWithDefault
340
13
  0
ACDBPLACEHOLDER
  5
13
330
12
  0
DICTIONARY
  5
14
330
A
100
AcDbDictionary
280
0
281
1
  0
DICTIONARY
  5
15
330
A
100
AcDbDictionary
280
0
281
1
  0
DICTIONARY
  5
16
330
A
100
AcDbDictionary
280
0
281
1
  0
LAYOUT
  5
1A
330
D
100
AcDbPlotSettings
  1

  2
Adobe PDF
  4
A3
  6

 40
7.5
 41
20.0
 42
7.5
 43
20.0
 44
420.0
 45
297.0
 46
0.0
 47
0.0
 48
0.0
 49
0.0
140
0.0
141
0.0
142
1.0
143
1.0
 70
1024
 72
1
 73
0
 74
5
  7

 75
16
 76
0
 77
2
 78
300
147
1.0
148
0.0
149
0.0
100
AcDbLayout
  1
Model
 70
1
 71
0
 10
0.0
 20
0.0
 11
420.0
 21
297.0
 12
0.0
 22
0.0
 32
0.0
 14
1e+20
 24
1e+20
 34
1e+20
 15
-1e+20
 25
-1e+20
 35
-1e+20
146
0.0
 13
0.0
 23
0.0
 33
0.0
 16
1.0
 26
0.0
 36
0.0
 17
0.0
 27
1.0
 37
0.0
 76
1
330
17
  0
LAYOUT
  5
1E
330
D
100
AcDbPlotSettings
  1

  2
DWG to PDF.pc3
  4
ezdxf_(420.00_x_297.00_MM)
  6

 40
0.0
 41
0.0
 42
0.0
 43
0.0
 44
420.0
 45
297.0
 46
0.0
 47
0.0
 48
0.0
 49
0.0
140
0.0
141
0.0
142
1.0
143
1.0
 70
672
 72
1
 73
0
 74
5
  7

 75
16
 76
0
 77
2
 78
300
147
1.0
148
0.0
149
0.0
100
AcDbLayout
  1
A-01 VAZIYET PLANI
 70
1
 71
1
 10
-0.0
 20
-0.0
 11
420.0
 21
297.0
 12
0.0
 22
0.0
 32
0.0
 14
1e+20
 24
1e+20
 34
1e+20
 15
-1e+20
 25
-1e+20
 35
-1e+20
146
0.0
 13
0.0
 23
0.0
 33
0.0
 16
1.0
 26
0.0
 36
0.0
 17
0.0
 27
1.0
 37
0.0
 76
1
330
1B
331
4F
  0
MATERIAL
  5
1F
102
{ACAD_REACTORS
330
E
102
}
330
E
100
AcDbMaterial
  1
ByBlock
  2

 70
0
 40
1.0
 71
1
 41
1.0
 91
-1023410177
 42
1.0
 72
1
  3

 73
1
 74
1
 75
1
 44
0.5
 73
0
 45
1.0
 46
1.0
 77
1
  4

 78
1
 79
1
170
1
 48
1.0
171
1
  6

172
1
173
1
174
1
140
1.0
141
1.0
175
1
  7

176
1
177
1
178
1
143
1.0
179
1
  8

270
1
271
1
272
1
145
1.0
146
1.0
273
1
  9

274
1
275
1
276
1
 42
1.0
 72
1
  3

 73
1
 74
1
 75
1
 94
63
  0
MATERIAL
  5
20
102
{ACAD_REACTORS
330
E
102
}
330
E
100
AcDbMaterial
  1
ByLayer
  2

 70
0
 40
1.0
 71
1
 41
1.0
 91
-1023410177
 42
1.0
 72
1
  3

 73
1
 74
1
 75
1
 44
0.5
 73
0
 45
1.0
 46
1.0
 77
1
  4

 78
1
 79
1
170
1
 48
1.0
171
1
  6

172
1
173
1
174
1
140
1.0
141
1.0
175
1
  7

176
1
177
1
178
1
143
1.0
179
1
  8

270
1
271
1
272
1
145
1.0
146
1.0
273
1
  9

274
1
275
1
276
1
 42
1.0
 72
1
  3

 73
1
 74
1
 75
1
 94
63
  0
MATERIAL
  5
21
102
{ACAD_REACTORS
330
E
102
}
330
E
100
AcDbMaterial
  1
Global
  2

 70
0
 40
1.0
 71
1
 41
1.0
 91
-1023410177
 42
1.0
 72
1
  3

 73
1
 74
1
 75
1
 44
0.5
 73
0
 45
1.0
 46
1.0
 77
1
  4

 78
1
 79
1
170
1
 48
1.0
171
1
  6

172
1
173
1
174
1
140
1.0
141
1.0
175
1
  7

176
1
177
1
178
1
143
1.0
179
1
  8

270
1
271
1
272
1
145
1.0
146
1.0
273
1
  9

274
1
275
1
276
1
 42
1.0
 72
1
  3

 73
1
 74
1
 75
1
 94
63
  0
MLINESTYLE
  5
22
102
{ACAD_REACTORS
330
10
102
}
330
10
100
AcDbMlineStyle
  2
Standard
 70
0
  3

 62
256
 51
90.0
 52
90.0
 71
2
 49
0.5
 62
256
  6
BYLAYER
 49
-0.5
 62
256
  6
BYLAYER
  0
MLEADERSTYLE
  5
2C
102
{ACAD_REACTORS
330
F
102
}
330
F
100
AcDbMLeaderStyle
179
2
170
2
171
1
172
0
 90
2
 40
0.0
 41
0.0
173
1
 91
-1056964608
 92
-2
290
1
 42
2.0
291
1
 43
8.0
  3
Standard
 44
4.0
300

342
29
174
1
175
1
176
0
178
1
 93
-1056964608
 45
4.0
292
0
297
0
 46
4.0
 94
-1056964608
 47
1.0
 49
1.0
140
1.0
294
1
141
0.0
177
0
142
1.0
295
0
296
0
143
3.75
271
0
272
9
273
9
  0
DICTIONARY
  5
2D
330
A
100
AcDbDictionary
281
1
  3
CREATED_BY_EZDXF
350
2E
  3
WRITTEN_BY_EZDXF
350
184
  0
DICTIONARYVAR
  5
2E
330
2D
100
DictionaryVariables
280
0
  1
1.1.4 @ 2026-09-22T09:32:59.031411+00:00
  0
DICTIONARYVAR
  5
184
330
2D
100
DictionaryVariables
280
0
  1
1.1.4 @ 2026-09-22T09:32:59.055584+00:00
  0
ENDSEC
  0
EOF
