  0
SECTION
  2
HEADER
  9
$ACADVER
  1
AC1032
  9
$ACADMAINTVER
 90
4
  9
$DWGCODEPAGE
  3
ANSI_1252
  9
$LASTSAVEDBY
  1
ezdxf
  9
$REQUIREDVERSIONS
160
0
  9
$INSBASE
 10
0.0
 20
0.0
 30
0.0
  9
$EXTMIN
 10
1e+20
 20
1e+20
 30
1e+20
  9
$EXTMAX
 10
-1e+20
 20
-1e+20
 30
-1e+20
  9
$LIMMIN
 10
0.0
 20
0.0
  9
$LIMMAX
 10
420.0
 20
297.0
  9
$ORTHOMODE
 70
0
  9
$REGENMODE
 70
1
  9
$FILLMODE
 70
1
  9
$QTEXTMODE
 70
0
  9
$MIRRTEXT
 70
1
  9
$LTSCALE
 40
0.25
  9
$ATTMODE
 70
1
  9
$TEXTSIZE
 40
2.5
  9
$TRACEWID
 40
1.0
  9
$TEXTSTYLE
  7
YAZI
  9
$CLAYER
  8
0
  9
$CELTYPE
  6
ByLayer
  9
$CECOLOR
 62
256
  9
$CELTSCALE
 40
1.0
  9
$DISPSILH
 70
0
  9
$DIMSCALE
 40
1.0
  9
$DIMASZ
 40
2.5
  9
$DIMEXO
 40
0.625
  9
$DIMDLI
 40
3.75
  9
$DIMRND
 40
0.0
  9
$DIMDLE
 40
0.0
  9
$DIMEXE
 40
1.25
  9
$DIMTP
 40
0.0
  9
$DIMTM
 40
0.0
  9
$DIMTXT
 40
2.5
  9
$DIMCEN
 40
2.5
  9
$DIMTSZ
 40
0.0
  9
$DIMTOL
 70
0
  9
$DIMLIM
 70
0
  9
$DIMTIH
 70
0
  9
$DIMTOH
 70
0
  9
$DIMSE1
 70
0
  9
$DIMSE2
 70
0
  9
$DIMTAD
 70
1
  9
$DIMZIN
 70
8
  9
$DIMBLK
  1

  9
$DIMASO
 70
1
  9
$DIMSHO
 70
1
  9
$DIMPOST
  1

  9
$DIMAPOST
  1

  9
$DIMALT
 70
0
  9
$DIMALTD
 70
3
  9
$DIMALTF
 40
0.03937007874
  9
$DIMLFAC
 40
1.0
  9
$DIMTOFL
 70
1
  9
$DIMTVP
 40
0.0
  9
$DIMTIX
 70
0
  9
$DIMSOXD
 70
0
  9
$DIMSAH
 70
0
  9
$DIMBLK1
  1

  9
$DIMBLK2
  1

  9
$DIMSTYLE
  2
ISO-25
  9
$DIMCLRD
 70
0
  9
$DIMCLRE
 70
0
  9
$DIMCLRT
 70
0
  9
$DIMTFAC
 40
1.0
  9
$DIMGAP
 40
0.625
  9
$DIMJUST
 70
0
  9
$DIMSD1
 70
0
  9
$DIMSD2
 70
0
  9
$DIMTOLJ
 70
0
  9
$DIMTZIN
 70
8
  9
$DIMALTZ
 70
0
  9
$DIMALTTZ
 70
0
  9
$DIMUPT
 70
0
  9
$DIMDEC
 70
2
  9
$DIMTDEC
 70
2
  9
$DIMALTU
 70
2
  9
$DIMALTTD
 70
3
  9
$DIMTXSTY
  7
Standard
  9
$DIMAUNIT
 70
0
  9
$DIMADEC
 70
0
  9
$DIMALTRND
 40
0.0
  9
$DIMAZIN
 70
0
  9
$DIMDSEP
 70
44
  9
$DIMATFIT
 70
3
  9
$DIMFRAC
 70
0
  9
$DIMLDRBLK
  1

  9
$DIMLUNIT
 70
2
  9
$DIMLWD
 70
-2
  9
$DIMLWE
 70
-2
  9
$DIMTMOVE
 70
0
  9
$DIMFXL
 40
1.0
  9
$DIMFXLON
 70
0
  9
$DIMJOGANG
 40
0.785398163397
  9
$DIMTFILL
 70
0
  9
$DIMTFILLCLR
 70
0
  9
$DIMARCSYM
 70
0
  9
$DIMLTYPE
  6

  9
$DIMLTEX1
  6

  9
$DIMLTEX2
  6

  9
$DIMTXTDIRECTION
 70
0
  9
$LUNITS
 70
2
  9
$LUPREC
 70
4
  9
$SKETCHINC
 40
1.0
  9
$FILLETRAD
 40
10.0
  9
$AUNITS
 70
0
  9
$AUPREC
 70
2
  9
$MENU
  1
.
  9
$ELEVATION
 40
0.0
  9
$PELEVATION
 40
0.0
  9
$THICKNESS
 40
0.0
  9
$LIMCHECK
 70
0
  9
$CHAMFERA
 40
0.0
  9
$CHAMFERB
 40
0.0
  9
$CHAMFERC
 40
0.0
  9
$CHAMFERD
 40
0.0
  9
$SKPOLY
 70
0
  9
$TDCREATE
 40
2461306.5229166667
  9
$TDUCREATE
 40
2458532.153996898
  9
$TDUPDATE
 40
2461306.5229282407
  9
$TDUUPDATE
 40
2458532.1544311
  9
$TDINDWG
 40
0.0
  9
$TDUSRTIMER
 40
0.0
  9
$USRTIMER
 70
1
  9
$ANGBASE
 50
0.0
  9
$ANGDIR
 70
0
  9
$PDMODE
 70
0
  9
$PDSIZE
 40
0.0
  9
$PLINEWID
 40
0.0
  9
$SPLFRAME
 70
0
  9
$SPLINETYPE
 70
6
  9
$SPLINESEGS
 70
8
  9
$HANDSEED
  5
24C
  9
$SURFTAB1
 70
6
  9
$SURFTAB2
 70
6
  9
$SURFTYPE
 70
6
  9
$SURFU
 70
6
  9
$SURFV
 70
6
  9
$UCSBASE
  2

  9
$UCSNAME
  2

  9
$UCSORG
 10
0.0
 20
0.0
 30
0.0
  9
$UCSXDIR
 10
1.0
 20
0.0
 30
0.0
  9
$UCSYDIR
 10
0.0
 20
1.0
 30
0.0
  9
$UCSORTHOREF
  2

  9
$UCSORTHOVIEW
 70
0
  9
$UCSORGTOP
 10
0.0
 20
0.0
 30
0.0
  9
$UCSORGBOTTOM
 10
0.0
 20
0.0
 30
0.0
  9
$UCSORGLEFT
 10
0.0
 20
0.0
 30
0.0
  9
$UCSORGRIGHT
 10
0.0
 20
0.0
 30
0.0
  9
$UCSORGFRONT
 10
0.0
 20
0.0
 30
0.0
  9
$UCSORGBACK
 10
0.0
 20
0.0
 30
0.0
  9
$PUCSBASE
  2

  9
$PUCSNAME
  2

  9
$PUCSORG
 10
0.0
 20
0.0
 30
0.0
  9
$PUCSXDIR
 10
1.0
 20
0.0
 30
0.0
  9
$PUCSYDIR
 10
0.0
 20
1.0
 30
0.0
  9
$PUCSORTHOREF
  2

  9
$PUCSORTHOVIEW
 70
0
  9
$PUCSORGTOP
 10
0.0
 20
0.0
 30
0.0
  9
$PUCSORGBOTTOM
 10
0.0
 20
0.0
 30
0.0
  9
$PUCSORGLEFT
 10
0.0
 20
0.0
 30
0.0
  9
$PUCSORGRIGHT
 10
0.0
 20
0.0
 30
0.0
  9
$PUCSORGFRONT
 10
0.0
 20
0.0
 30
0.0
  9
$PUCSORGBACK
 10
0.0
 20
0.0
 30
0.0
  9
$USERI1
 70
0
  9
$USERI2
 70
0
  9
$USERI3
 70
0
  9
$USERI4
 70
0
  9
$USERI5
 70
0
  9
$USERR1
 40
0.0
  9
$USERR2
 40
0.0
  9
$USERR3
 40
0.0
  9
$USERR4
 40
0.0
  9
$USERR5
 40
0.0
  9
$WORLDVIEW
 70
1
  9
$SHADEDGE
 70
3
  9
$SHADEDIF
 70
70
  9
$TILEMODE
 70
1
  9
$MAXACTVP
 70
64
  9
$PINSBASE
 10
0.0
 20
0.0
 30
0.0
  9
$PLIMCHECK
 70
0
  9
$PEXTMIN
 10
1e+20
 20
1e+20
 30
1e+20
  9
$PEXTMAX
 10
-1e+20
 20
-1e+20
 30
-1e+20
  9
$PLIMMIN
 10
-0.0
 20
-0.0
  9
$PLIMMAX
 10
420.0
 20
297.0
  9
$UNITMODE
 70
0
  9
$VISRETAIN
 70
1
  9
$PLINEGEN
 70
0
  9
$PSLTSCALE
 70
1
  9
$TREEDEPTH
 70
3020
  9
$CMLSTYLE
  2
Standard
  9
$CMLJUST
 70
0
  9
$CMLSCALE
 40
20.0
  9
$PROXYGRAPHICS
 70
1
  9
$MEASUREMENT
 70
1
  9
$CELWEIGHT
370
-1
  9
$ENDCAPS
280
0
  9
$JOINSTYLE
280
0
  9
$LWDISPLAY
290
1
  9
$INSUNITS
 70
5
  9
$HYPERLINKBASE
  1

  9
$STYLESHEET
  1

  9
$XEDIT
290
1
  9
$CEPSNTYPE
380
0
  9
$PSTYLEMODE
290
1
  9
$FINGERPRINTGUID
  2
{A04DC2AD-09B2-4664-9933-4F3EC9A6ECC4}
  9
$VERSIONGUID
  2
{2044438D-627D-4ADE-9445-36A04EAAD7C9}
  9
$EXTNAMES
290
1
  9
$PSVPSCALE
 40
0.0
  9
$OLESTARTUP
290
0
  9
$SORTENTS
280
127
  9
$INDEXCTL
280
0
  9
$HIDETEXT
280
1
  9
$XCLIPFRAME
280
0
  9
$HALOGAP
280
0
  9
$OBSCOLOR
 70
257
  9
$OBSLTYPE
280
0
  9
$INTERSECTIONDISPLAY
280
0
  9
$INTERSECTIONCOLOR
 70
257
  9
$DIMASSOC
280
2
  9
$PROJECTNAME
  1

  9
$CAMERADISPLAY
290
0
  9
$LENSLENGTH
 40
50.0
  9
$CAMERAHEIGHT
 40
0.0
  9
$STEPSPERSEC
 40
24.0
  9
$STEPSIZE
 40
100.0
  9
$3DDWFPREC
 40
2.0
  9
$PSOLWIDTH
 40
0.005
  9
$PSOLHEIGHT
 40
0.08
  9
$LOFTANG1
 40
1.570796326795
  9
$LOFTANG2
 40
1.570796326795
  9
$LOFTMAG1
 40
0.0
  9
$LOFTMAG2
 40
0.0
  9
$LOFTPARAM
 70
7
  9
$LOFTNORMALS
280
1
  9
$LATITUDE
 40
37.795
  9
$LONGITUDE
 40
-122.394
  9
$NORTHDIRECTION
 40
0.0
  9
$TIMEZONE
 70
-8000
  9
$LIGHTGLYPHDISPLAY
280
1
  9
$TILEMODELIGHTSYNCH
280
1
  9
$CMATERIAL
347
20
  9
$SOLIDHIST
280
0
  9
$SHOWHIST
280
1
  9
$DWFFRAME
280
2
  9
$DGNFRAME
280
2
  9
$REALWORLDSCALE
290
1
  9
$INTERFERECOLOR
 62
256
  9
$CSHADOW
280
0
  9
$SHADOWPLANELOCATION
 40
0.0
  0
ENDSEC
  0
SECTION
  2
CLASSES
  0
CLASS
  1
ACDBDICTIONARYWDFLT
  2
AcDbDictionaryWithDefault
  3
ObjectDBX Classes
 90
0
 91
0
280
0
281
0
  0
CLASS
  1
SUN
  2
AcDbSun
  3
SCENEOE
 90
1153
 91
0
280
0
281
0
  0
CLASS
  1
VISUALSTYLE
  2
AcDbVisualStyle
  3
ObjectDBX Classes
 90
4095
 91
0
280
0
281
0
  0
CLASS
  1
MATERIAL
  2
AcDbMaterial
  3
ObjectDBX Classes
 90
1153
 91
0
280
0
281
0
  0
CLASS
  1
SCALE
  2
AcDbScale
  3
ObjectDBX Classes
 90
1153
 91
0
280
0
281
0
  0
CLASS
  1
TABLESTYLE
  2
AcDbTableStyle
  3
ObjectDBX Classes
 90
4095
 91
0
280
0
281
0
  0
CLASS
  1
MLEADERSTYLE
  2
AcDbMLeaderStyle
  3
ACDB_MLEADERSTYLE_CLASS
 90
4095
 91
0
280
0
281
0
  0
CLASS
  1
DICTIONARYVAR
  2
AcDbDictionaryVar
  3
ObjectDBX Classes
 90
0
 91
0
280
0
281
0
  0
CLASS
  1
CELLSTYLEMAP
  2
AcDbCellStyleMap
  3
ObjectDBX Classes
 90
1152
 91
0
280
0
281
0
  0
CLASS
  1
MENTALRAYRENDERSETTINGS
  2
AcDbMentalRayRenderSettings
  3
SCENEOE
 90
1024
 91
0
280
0
281
0
  0
CLASS
  1
ACDBDETAILVIEWSTYLE
  2
AcDbDetailViewStyle
  3
ObjectDBX Classes
 90
1025
 91
0
280
0
281
0
  0
CLASS
  1
ACDBSECTIONVIEWSTYLE
  2
AcDbSectionViewStyle
  3
ObjectDBX Classes
 90
1025
 91
0
280
0
281
0
  0
CLASS
  1
RASTERVARIABLES
  2
AcDbRasterVariables
  3
ISM
 90
0
 91
0
280
0
281
0
  0
CLASS
  1
LAYOUT
  2
AcDbLayout
  3
ObjectDBX Classes
 90
0
 91
0
280
0
281
0
  0
CLASS
  1
ACDBPLACEHOLDER
  2
AcDbPlaceHolder
  3
ObjectDBX Classes
 90
0
 91
0
280
0
281
0
  0
ENDSEC
  0
SECTION
  2
TABLES
  0
TABLE
  2
VPORT
  5
8
330
0
100
AcDbSymbolTable
 70
1
  0
VPORT
  5
23
330
8
100
AcDbSymbolTableRecord
100
AcDbViewportTableRecord
  2
*Active
 70
0
 10
0.0
 20
0.0
 11
1.0
 21
1.0
 12
0.0
 22
0.0
 13
0.0
 23
0.0
 14
0.5
 24
0.5
 15
0.5
 25
0.5
 16
0.0
 26
0.0
 36
1.0
 17
0.0
 27
0.0
 37
0.0
 40
1000.0
 41
1.34
 42
50.0
 43
0.0
 44
0.0
 50
0.0
 51
0.0
 71
0
 72
1000
 73
1
 74
3
 75
0
 76
0
 77
0
 78
0
281
0
 65
0
146
0.0
  0
ENDTAB
  0
TABLE
  2
LTYPE
  5
2
330
0
100
AcDbSymbolTable
 70
7
  0
LTYPE
  5
24
330
2
100
AcDbSymbolTableRecord
100
AcDbLinetypeTableRecord
  2
ByBlock
 70
0
  3

 72
65
 73
0
 40
0.0
  0
LTYPE
  5
25
330
2
100
AcDbSymbolTableRecord
100
AcDbLinetypeTableRecord
  2
ByLayer
 70
0
  3

 72
65
 73
0
 40
0.0
  0
LTYPE
  5
26
330
2
100
AcDbSymbolTableRecord
100
AcDbLinetypeTableRecord
  2
Continuous
 70
0
  3

 72
65
 73
0
 40
0.0
  0
LTYPE
  5
48
330
2
100
AcDbSymbolTableRecord
100
AcDbLinetypeTableRecord
  2
ACAD_ISO02W100
 70
0
  3
ISO kesik __ __ __
 72
65
 73
2
 40
15.0
 49
12.0
 74
0
 49
-3.0
 74
0
  0
LTYPE
  5
49
330
2
100
AcDbSymbolTableRecord
100
AcDbLinetypeTableRecord
  2
ACAD_ISO03W100
 70
0
  3
ISO kesik boşluk __    __
 72
65
 73
2
 40
30.0
 49
12.0
 74
0
 49
-18.0
 74
0
  0
LTYPE
  5
4A
330
2
100
AcDbSymbolTableRecord
100
AcDbLinetypeTableRecord
  2
ACAD_ISO04W100
 70
0
  3
ISO uzun kesik nokta ____ . ____
 72
65
 73
4
 40
30.0
 49
24.0
 74
0
 49
-3.0
 74
0
 49
0.0
 74
0
 49
-3.0
 74
0
  0
LTYPE
  5
4B
330
2
100
AcDbSymbolTableRecord
100
AcDbLinetypeTableRecord
  2
ACAD_ISO07W100
 70
0
  3
ISO nokta . . . .
 72
65
 73
2
 40
3.0
 49
0.0
 74
0
 49
-3.0
 74
0
  0
ENDTAB
  0
TABLE
  2
LAYER
  5
1
330
0
100
AcDbSymbolTable
 70
17
  0
LAYER
  5
27
330
1
100
AcDbSymbolTableRecord
100
AcDbLayerTableRecord
  2
0
 70
0
 62
7
  6
Continuous
370
-3
390
13
347
21
  0
LAYER
  5
28
330
1
100
AcDbSymbolTableRecord
100
AcDbLayerTableRecord
  2
Defpoints
 70
0
 62
7
  6
Continuous
290
0
370
-3
390
13
347
21
  0
LAYER
  5
50
330
1
100
AcDbSymbolTableRecord
100
AcDbLayerTableRecord
  2
M-TASI-BETONARME-T
 70
0
 62
250
  6
Continuous
370
5
390
13
347
21
1001
AcAecLayerStandard
1000

1000
Betonarme kolon, perde, kiriş, döşeme, temel (kesilen) — tarama
  0
LAYER
  5
57
330
1
100
AcDbSymbolTableRecord
100
AcDbLayerTableRecord
  2
M-TASI-BETONARME
 70
0
 62
5
  6
Continuous
370
35
390
13
347
21
1001
AcAecLayerStandard
1000

1000
Betonarme kolon, perde, kiriş, döşeme, temel (kesilen)
  0
LAYER
  5
59
330
1
100
AcDbSymbolTableRecord
100
AcDbLayerTableRecord
  2
M-MERD-BETONARME-T
 70
0
 62
8
  6
Continuous
370
5
390
13
347
21
1001
AcAecLayerStandard
1000

1000
Merdiven kolları, basamaklar, sahanlık — tarama
  0
LAYER
  5
5A
330
1
100
AcDbSymbolTableRecord
100
AcDbLayerTableRecord
  2
M-MERD-BETONARME
 70
0
 62
6
  6
Continuous
370
18
390
13
347
21
1001
AcAecLayerStandard
1000

1000
Merdiven kolları, basamaklar, sahanlık
  0
LAYER
  5
5C
330
1
100
AcDbSymbolTableRecord
100
AcDbLayerTableRecord
  2
M-MERD-BETONARME-2
 70
0
 62
6
  6
Continuous
370
9
390
13
347
21
1001
AcAecLayerStandard
1000

1000
Merdiven kolları, basamaklar, sahanlık — görünüşte görünen (derinlik 2)
  0
LAYER
  5
69
330
1
100
AcDbSymbolTableRecord
100
AcDbLayerTableRecord
  2
M-KORK-CAM
 70
0
 62
100
  6
Continuous
370
9
390
13
347
21
1001
AcAecLayerStandard
1000

1000
Cam korkuluk ve küpeşte
  0
LAYER
  5
6D
330
1
100
AcDbSymbolTableRecord
100
AcDbLayerTableRecord
  2
M-GOST-DISOLCU
 70
0
 62
40
  6
Continuous
370
9
390
13
347
21
1001
AcAecLayerStandard
1000

1000
Dış ölçüler (ölçü nesneleri)
  0
LAYER
  5
127
330
1
100
AcDbSymbolTableRecord
100
AcDbLayerTableRecord
  2
M-GOST-KESITKOT
 70
0
 62
46
  6
Continuous
370
9
390
13
347
21
1001
AcAecLayerStandard
1000

1000
Kesit ve görünüş kotları
  0
LAYER
  5
14F
330
1
100
AcDbSymbolTableRecord
100
AcDbLayerTableRecord
  2
M-ZMNK-DOGALTAS-T
 70
0
 62
8
  6
Continuous
370
5
390
13
347
21
1001
AcAecLayerStandard
1000

1000
Zemin kaplama: traverten / doğal taş — tarama
  0
LAYER
  5
155
330
1
100
AcDbSymbolTableRecord
100
AcDbLayerTableRecord
  2
M-GOST-MERDIVEPOZ
 70
0
 62
145
  6
Continuous
370
9
390
13
347
21
1001
AcAecLayerStandard
1000

1000
Merdiven çıkış oku, basamak numaraları
  0
LAYER
  5
1F1
330
1
100
AcDbSymbolTableRecord
100
AcDbLayerTableRecord
  2
M-GOST-TABLO
 70
0
 62
1
  6
Continuous
370
9
390
13
347
21
1001
AcAecLayerStandard
1000

1000
Doğrama listesi, pafta listesi, alan tabloları
  0
LAYER
  5
210
330
1
100
AcDbSymbolTableRecord
100
AcDbLayerTableRecord
  2
M-GOST-ANTETYAZI
 70
0
 62
177
  6
Continuous
370
9
390
13
347
21
1001
AcAecLayerStandard
1000

1000
Antet yazıları, notlar, pafta başlıkları (layout)
  0
LAYER
  5
213
330
1
100
AcDbSymbolTableRecord
100
AcDbLayerTableRecord
  2
M-GOST-ANTET
 70
0
 62
176
  6
Continuous
370
25
390
13
347
21
1001
AcAecLayerStandard
1000

1000
Pafta çerçevesi ve antet (layout)
  0
LAYER
  5
222
330
1
100
AcDbSymbolTableRecord
100
AcDbLayerTableRecord
  2
M-GOST-KUZEYOKU
 70
0
 62
1
  6
Continuous
370
9
390
13
347
21
1001
AcAecLayerStandard
1000

1000
Kuzey oku
  0
LAYER
  5
247
330
1
100
AcDbSymbolTableRecord
100
AcDbLayerTableRecord
  2
M-GOST-VPORT
 70
0
 62
8
  6
Continuous
290
0
370
9
390
13
347
21
1001
AcAecLayerStandard
1000

1000
Viewport çerçeveleri — yazdırılmaz
  0
ENDTAB
  0
TABLE
  2
STYLE
  5
5
330
0
100
AcDbSymbolTable
 70
28
  0
STYLE
  5
29
330
5
100
AcDbSymbolTableRecord
100
AcDbTextStyleTableRecord
  2
Standard
 70
0
 40
0.0
 41
1.0
 50
0.0
 71
0
 42
2.5
  3
txt
  4

  0
STYLE
  5
2F
330
5
100
AcDbSymbolTableRecord
100
AcDbTextStyleTableRecord
  2
OpenSans-Light
 70
0
 40
0.0
 41
1.0
 50
0.0
 71
0
 42
2.5
  3
OpenSans-Light.ttf
  4

  0
STYLE
  5
30
330
5
100
AcDbSymbolTableRecord
100
AcDbTextStyleTableRecord
  2
OpenSans-Light-Italic
 70
0
 40
0.0
 41
1.0
 50
0.0
 71
0
 42
2.5
  3
OpenSans-LightItalic.ttf
  4

  0
STYLE
  5
31
330
5
100
AcDbSymbolTableRecord
100
AcDbTextStyleTableRecord
  2
OpenSans
 70
0
 40
0.0
 41
1.0
 50
0.0
 71
0
 42
2.5
  3
OpenSans-Regular.ttf
  4

  0
STYLE
  5
32
330
5
100
AcDbSymbolTableRecord
100
AcDbTextStyleTableRecord
  2
OpenSans-Italic
 70
0
 40
0.0
 41
1.0
 50
0.0
 71
0
 42
2.5
  3
OpenSans-Italic.ttf
  4

  0
STYLE
  5
33
330
5
100
AcDbSymbolTableRecord
100
AcDbTextStyleTableRecord
  2
OpenSans-SemiBold
 70
0
 40
0.0
 41
1.0
 50
0.0
 71
0
 42
2.5
  3
OpenSans-SemiBold.ttf
  4

  0
STYLE
  5
34
330
5
100
AcDbSymbolTableRecord
100
AcDbTextStyleTableRecord
  2
OpenSans-SemiBoldItalic
 70
0
 40
0.0
 41
1.0
 50
0.0
 71
0
 42
2.5
  3
OpenSans-SemiBoldItalic.ttf
  4

  0
STYLE
  5
35
330
5
100
AcDbSymbolTableRecord
100
AcDbTextStyleTableRecord
  2
OpenSans-Bold
 70
0
 40
0.0
 41
1.0
 50
0.0
 71
0
 42
2.5
  3
OpenSans-Bold.ttf
  4

  0
STYLE
  5
36
330
5
100
AcDbSymbolTableRecord
100
AcDbTextStyleTableRecord
  2
OpenSans-BoldItalic
 70
0
 40
0.0
 41
1.0
 50
0.0
 71
0
 42
2.5
  3
OpenSans-BoldItalic.ttf
  4

  0
STYLE
  5
37
330
5
100
AcDbSymbolTableRecord
100
AcDbTextStyleTableRecord
  2
OpenSans-ExtraBold
 70
0
 40
0.0
 41
1.0
 50
0.0
 71
0
 42
2.5
  3
OpenSans-ExtraBold.ttf
  4

  0
STYLE
  5
38
330
5
100
AcDbSymbolTableRecord
100
AcDbTextStyleTableRecord
  2
OpenSans-ExtraBoldItalic
 70
0
 40
0.0
 41
1.0
 50
0.0
 71
0
 42
2.5
  3
OpenSans-ExtraBoldItalic.ttf
  4

  0
STYLE
  5
39
330
5
100
AcDbSymbolTableRecord
100
AcDbTextStyleTableRecord
  2
OpenSansCondensed-Bold
 70
0
 40
0.0
 41
1.0
 50
0.0
 71
0
 42
2.5
  3
OpenSansCondensed-Bold.ttf
  4

  0
STYLE
  5
3A
330
5
100
AcDbSymbolTableRecord
100
AcDbTextStyleTableRecord
  2
OpenSansCondensed-Light
 70
0
 40
0.0
 41
1.0
 50
0.0
 71
0
 42
2.5
  3
OpenSansCondensed-Light.ttf
  4

  0
STYLE
  5
3B
330
5
100
AcDbSymbolTableRecord
100
AcDbTextStyleTableRecord
  2
OpenSansCondensed-Italic
 70
0
 40
0.0
 41
1.0
 50
0.0
 71
0
 42
2.5
  3
OpenSansCondensed-LightItalic.ttf
  4

  0
STYLE
  5
3C
330
5
100
AcDbSymbolTableRecord
100
AcDbTextStyleTableRecord
  2
LiberationSans
 70
0
 40
0.0
 41
1.0
 50
0.0
 71
0
 42
2.5
  3
LiberationSans-Regular.ttf
  4

  0
STYLE
  5
3D
330
5
100
AcDbSymbolTableRecord
100
AcDbTextStyleTableRecord
  2
LiberationSans-Bold
 70
0
 40
0.0
 41
1.0
 50
0.0
 71
0
 42
2.5
  3
LiberationSans-Bold.ttf
  4

  0
STYLE
  5
3E
330
5
100
AcDbSymbolTableRecord
100
AcDbTextStyleTableRecord
  2
LiberationSans-BoldItalic
 70
0
 40
0.0
 41
1.0
 50
0.0
 71
0
 42
2.5
  3
LiberationSans-BoldItalic.ttf
  4

  0
STYLE
  5
3F
330
5
100
AcDbSymbolTableRecord
100
AcDbTextStyleTableRecord
  2
LiberationSans-Italic
 70
0
 40
0.0
 41
1.0
 50
0.0
 71
0
 42
2.5
  3
LiberationSans-Italic.ttf
  4

  0
STYLE
  5
40
330
5
100
AcDbSymbolTableRecord
100
AcDbTextStyleTableRecord
  2
LiberationSerif
 70
0
 40
0.0
 41
1.0
 50
0.0
 71
0
 42
2.5
  3
LiberationSerif-Regular.ttf
  4

  0
STYLE
  5
41
330
5
100
AcDbSymbolTableRecord
100
AcDbTextStyleTableRecord
  2
LiberationSerif-Bold
 70
0
 40
0.0
 41
1.0
 50
0.0
 71
0
 42
2.5
  3
LiberationSerif-Bold.ttf
  4

  0
STYLE
  5
42
330
5
100
AcDbSymbolTableRecord
100
AcDbTextStyleTableRecord
  2
LiberationSerif-BoldItalic
 70
0
 40
0.0
 41
1.0
 50
0.0
 71
0
 42
2.5
  3
LiberationSerif-BoldItalic.ttf
  4

  0
STYLE
  5
43
330
5
100
AcDbSymbolTableRecord
100
AcDbTextStyleTableRecord
  2
LiberationSerif-Italic
 70
0
 40
0.0
 41
1.0
 50
0.0
 71
0
 42
2.5
  3
LiberationSerif-Italic.ttf
  4

  0
STYLE
  5
44
330
5
100
AcDbSymbolTableRecord
100
AcDbTextStyleTableRecord
  2
LiberationMono
 70
0
 40
0.0
 41
1.0
 50
0.0
 71
0
 42
2.5
  3
LiberationMono-Regular.ttf
  4

  0
STYLE
  5
45
330
5
100
AcDbSymbolTableRecord
100
AcDbTextStyleTableRecord
  2
LiberationMono-Bold
 70
0
 40
0.0
 41
1.0
 50
0.0
 71
0
 42
2.5
  3
LiberationMono-Bold.ttf
  4

  0
STYLE
  5
46
330
5
100
AcDbSymbolTableRecord
100
AcDbTextStyleTableRecord
  2
LiberationMono-BoldItalic
 70
0
 40
0.0
 41
1.0
 50
0.0
 71
0
 42
2.5
  3
LiberationMono-BoldItalic.ttf
  4

  0
STYLE
  5
47
330
5
100
AcDbSymbolTableRecord
100
AcDbTextStyleTableRecord
  2
LiberationMono-Italic
 70
0
 40
0.0
 41
1.0
 50
0.0
 71
0
 42
2.5
  3
LiberationMono-Italic.ttf
  4

  0
STYLE
  5
4C
330
5
100
AcDbSymbolTableRecord
100
AcDbTextStyleTableRecord
  2
YAZI
 70
0
 40
0.0
 41
1.0
 50
0.0
 71
0
 42
2.5
  3
arialn.ttf
  4

  0
STYLE
  5
4D
330
5
100
AcDbSymbolTableRecord
100
AcDbTextStyleTableRecord
  2
YAZI-KALIN
 70
0
 40
0.0
 41
1.0
 50
0.0
 71
0
 42
2.5
  3
arialnb.ttf
  4

  0
ENDTAB
  0
TABLE
  2
VIEW
  5
7
330
0
100
AcDbSymbolTable
 70
0
  0
ENDTAB
  0
TABLE
  2
UCS
  5
6
330
0
100
AcDbSymbolTable
 70
0
  0
ENDTAB
  0
TABLE
  2
APPID
  5
3
330
0
100
AcDbSymbolTable
 70
4
  0
APPID
  5
2A
330
3
100
AcDbSymbolTableRecord
100
AcDbRegAppTableRecord
  2
ACAD
 70
0
  0
APPID
  5
51
330
3
100
AcDbSymbolTableRecord
100
AcDbRegAppTableRecord
  2
AcAecLayerStandard
 70
0
  0
APPID
  5
249
330
3
100
AcDbSymbolTableRecord
100
AcDbRegAppTableRecord
  2
HATCHBACKGROUNDCOLOR
 70
0
  0
APPID
  5
24A
330
3
100
AcDbSymbolTableRecord
100
AcDbRegAppTableRecord
  2
EZDXF
 70
0
  0
ENDTAB
  0
TABLE
  2
DIMSTYLE
  5
4
330
0
100
AcDbSymbolTable
 70
3
100
AcDbDimStyleTable
  0
DIMSTYLE
105
2B
330
4
100
AcDbSymbolTableRecord
100
AcDbDimStyleTableRecord
  2
Standard
 70
0
 40
1.0
 41
2.5
 42
0.625
 43
3.75
 44
1.25
 45
0.0
 46
0.0
 47
0.0
 48
0.0
 49
2.5
140
2.5
141
2.5
142
0.0
143
0.03937007874
144
1.0
145
0.0
146
1.0
147
0.625
148
0.0
 69
0
 70
0
 71
0
 72
0
 73
0
 74
0
 75
0
 76
0
 77
1
 78
8
 79
3
170
0
171
3
172
1
173
0
174
0
175
0
176
0
177
0
178
0
179
2
271
2
272
2
273
2
274
3
275
0
276
0
277
2
278
44
279
0
280
0
281
0
282
0
283
0
284
8
285
0
286
0
288
0
289
3
290
0
371
-2
372
-2
  0
DIMSTYLE
105
4E
330
4
100
AcDbSymbolTableRecord
100
AcDbDimStyleTableRecord
  2
MIMARI
 70
0
 40
1.0
 41
2.5
 42
0.0
 43
3.75
 44
1.2
 45
0.0
 46
0.0
 47
0.0
 48
0.0
 49
2.5
140
1.296
141
2.5
142
0.8
143
0.03937007874
144
1.0
145
0.0
146
1.0
147
0.5
148
0.0
 69
0
 70
0
 71
0
 72
0
 73
0
 74
0
 75
0
 76
0
 77
1
 78
8
 79
3
170
0
171
3
172
1
173
0
174
0
175
0
176
256
177
256
178
256
179
2
271
0
272
2
273
2
274
3
275
0
276
0
277
2
278
44
279
0
280
0
281
0
282
0
283
0
284
8
285
0
286
0
288
0
289
3
290
0
340
4C
371
-2
372
-2
  0
DIMSTYLE
105
6E
330
4
100
AcDbSymbolTableRecord
100
AcDbDimStyleTableRecord
  2
MIMARI-1-50
 70
0
 40
5.0
 41
2.5
 42
0.0
 43
3.75
 44
1.2
 45
0.0
 46
0.0
 47
0.0
 48
0.0
 49
2.5
140
1.296
141
2.5
142
0.8
143
0.03937007874
144
1.0
145
0.0
146
1.0
147
0.5
148
0.0
 69
0
 70
0
 71
0
 72
0
 73
0
 74
0
 75
0
 76
0
 77
1
 78
8
 79
3
170
0
171
3
172
1
173
0
174
0
175
0
176
256
177
256
178
256
179
2
271
0
272
2
273
2
274
3
275
0
276
0
277
2
278
44
279
0
280
0
281
0
282
0
283
0
284
8
285
0
286
0
288
0
289
3
290
0
340
4C
371
-2
372
-2
  0
ENDTAB
  0
TABLE
  2
BLOCK_RECORD
  5
9
330
0
100
AcDbSymbolTable
 70
24
  0
BLOCK_RECORD
  5
17
330
9
100
AcDbSymbolTableRecord
100
AcDbBlockTableRecord
  2
*Model_Space
340
1A
 70
0
280
1
281
0
  0
BLOCK_RECORD
  5
1B
330
9
100
AcDbSymbolTableRecord
100
AcDbBlockTableRecord
  2
*Paper_Space
340
1E
 70
0
280
1
281
0
  0
BLOCK_RECORD
  5
70
330
9
100
AcDbSymbolTableRecord
100
AcDbBlockTableRecord
  2
*D1
340
0
 70
0
280
1
281
0
  0
BLOCK_RECORD
  5
75
330
9
100
AcDbSymbolTableRecord
100
AcDbBlockTableRecord
  2
_OBLIQUE
340
0
 70
0
280
1
281
0
  0
BLOCK_RECORD
  5
83
330
9
100
AcDbSymbolTableRecord
100
AcDbBlockTableRecord
  2
*D2
340
0
 70
0
280
1
281
0
  0
BLOCK_RECORD
  5
92
330
9
100
AcDbSymbolTableRecord
100
AcDbBlockTableRecord
  2
*D3
340
0
 70
0
280
1
281
0
  0
BLOCK_RECORD
  5
A1
330
9
100
AcDbSymbolTableRecord
100
AcDbBlockTableRecord
  2
*D4
340
0
 70
0
280
1
281
0
  0
BLOCK_RECORD
  5
B0
330
9
100
AcDbSymbolTableRecord
100
AcDbBlockTableRecord
  2
*D5
340
0
 70
0
280
1
281
0
  0
BLOCK_RECORD
  5
BF
330
9
100
AcDbSymbolTableRecord
100
AcDbBlockTableRecord
  2
*D6
340
0
 70
0
280
1
281
0
  0
BLOCK_RECORD
  5
CE
330
9
100
AcDbSymbolTableRecord
100
AcDbBlockTableRecord
  2
*D7
340
0
 70
0
280
1
281
0
  0
BLOCK_RECORD
  5
DD
330
9
100
AcDbSymbolTableRecord
100
AcDbBlockTableRecord
  2
*D8
340
0
 70
0
280
1
281
0
  0
BLOCK_RECORD
  5
EC
330
9
100
AcDbSymbolTableRecord
100
AcDbBlockTableRecord
  2
*D9
340
0
 70
0
280
1
281
0
  0
BLOCK_RECORD
  5
FB
330
9
100
AcDbSymbolTableRecord
100
AcDbBlockTableRecord
  2
*D10
340
0
 70
0
280
1
281
0
  0
BLOCK_RECORD
  5
10A
330
9
100
AcDbSymbolTableRecord
100
AcDbBlockTableRecord
  2
*D11
340
0
 70
0
280
1
281
0
  0
BLOCK_RECORD
  5
119
330
9
100
AcDbSymbolTableRecord
100
AcDbBlockTableRecord
  2
*D12
340
0
 70
0
280
1
281
0
  0
BLOCK_RECORD
  5
16A
330
9
100
AcDbSymbolTableRecord
100
AcDbBlockTableRecord
  2
*D13
340
0
 70
0
280
1
281
0
  0
BLOCK_RECORD
  5
179
330
9
100
AcDbSymbolTableRecord
100
AcDbBlockTableRecord
  2
*D14
340
0
 70
0
280
1
281
0
  0
BLOCK_RECORD
  5
188
330
9
100
AcDbSymbolTableRecord
100
AcDbBlockTableRecord
  2
*D15
340
0
 70
0
280
1
281
0
  0
BLOCK_RECORD
  5
197
330
9
100
AcDbSymbolTableRecord
100
AcDbBlockTableRecord
  2
*D16
340
0
 70
0
280
1
281
0
  0
BLOCK_RECORD
  5
1A6
330
9
100
AcDbSymbolTableRecord
100
AcDbBlockTableRecord
  2
*D17
340
0
 70
0
280
1
281
0
  0
BLOCK_RECORD
  5
1B5
330
9
100
AcDbSymbolTableRecord
100
AcDbBlockTableRecord
  2
*D18
340
0
 70
0
280
1
281
0
  0
BLOCK_RECORD
  5
1C4
330
9
100
AcDbSymbolTableRecord
100
AcDbBlockTableRecord
  2
*D19
340
0
 70
0
280
1
281
0
  0
BLOCK_RECORD
  5
1D3
330
9
100
AcDbSymbolTableRecord
100
AcDbBlockTableRecord
  2
*D20
340
0
 70
0
280
1
281
0
  0
BLOCK_RECORD
  5
1E2
330
9
100
AcDbSymbolTableRecord
100
AcDbBlockTableRecord
  2
*D21
340
0
 70
0
280
1
281
0
  0
ENDTAB
  0
ENDSEC
  0
SECTION
  2
BLOCKS
  0
BLOCK
  5
18
330
17
100
AcDbEntity
  8
0
100
AcDbBlockBegin
  2
*Model_Space
 70
0
 10
0.0
 20
0.0
 30
0.0
  3
*Model_Space
  1

  0
ENDBLK
  5
19
330
17
100
AcDbEntity
  8
0
100
AcDbBlockEnd
  0
BLOCK
  5
1C
330
1B
100
AcDbEntity
  8
0
100
AcDbBlockBegin
  2
*Paper_Space
 70
0
 10
0.0
 20
0.0
 30
0.0
  3
*Paper_Space
  1

  0
ENDBLK
  5
1D
330
1B
100
AcDbEntity
  8
0
100
AcDbBlockEnd
  0
BLOCK
  5
71
330
70
100
AcDbEntity
  8
0
100
AcDbBlockBegin
  2
*D1
 70
1
 10
0.0
 20
0.0
 30
0.0
  3
*D1
  1

  0
LINE
  5
73
330
70
100
AcDbEntity
  8
0
100
AcDbLine
 10
155.49999999999997
 20
-650.0
 30
0.0
 11
155.49999999999997
 21
-644.0
 31
0.0
  0
LINE
  5
74
330
70
100
AcDbEntity
  8
0
100
AcDbLine
 10
183.49999999999994
 20
-650.0
 30
0.0
 11
183.49999999999994
 21
-644.0
 31
0.0
  0
INSERT
  5
79
330
70
100
AcDbEntity
  8
M-GOST-DISOLCU
100
AcDbBlockReference
  2
_OBLIQUE
 10
155.49999999999997
 20
-650.0
 30
0.0
 41
8.0
 42
8.0
  0
INSERT
  5
7B
330
70
100
AcDbEntity
  8
M-GOST-DISOLCU
100
AcDbBlockReference
  2
_OBLIQUE
 10
183.49999999999994
 20
-650.0
 30
0.0
 41
8.0
 42
8.0
  0
LINE
  5
7D
330
70
100
AcDbEntity
  8
0
100
AcDbLine
 10
155.49999999999997
 20
-650.0
 30
0.0
 11
183.49999999999994
 21
-650.0
 31
0.0
  0
MTEXT
  5
7E
330
70
100
AcDbEntity
  8
M-GOST-DISOLCU
100
AcDbMText
 10
169.49999999999994
 20
-644.26
 30
0.0
 40
6.48
 71
5
  1
28
  7
YAZI
  0
POINT
  5
7F
330
70
100
AcDbEntity
  8
Defpoints
100
AcDbPoint
 10
155.49999999999997
 20
-650.0
 30
0.0
  0
POINT
  5
80
330
70
100
AcDbEntity
  8
Defpoints
100
AcDbPoint
 10
155.49999999999997
 20
-650.0
 30
0.0
  0
POINT
  5
81
330
70
100
AcDbEntity
  8
Defpoints
100
AcDbPoint
 10
183.49999999999994
 20
-650.0
 30
0.0
  0
ENDBLK
  5
72
330
70
100
AcDbEntity
  8
0
100
AcDbBlockEnd
  0
BLOCK
  5
76
330
75
100
AcDbEntity
  8
0
100
AcDbBlockBegin
  2
_OBLIQUE
 70
0
 10
0.0
 20
0.0
 30
0.0
  3
_OBLIQUE
  1

  0
LINE
  5
78
330
75
100
AcDbEntity
  8
0
  6
BYBLOCK
 62
0
100
AcDbLine
 10
-0.5
 20
-0.5000000000000001
 30
0.0
 11
0.5000000000000001
 21
0.5
 31
0.0
  0
ENDBLK
  5
77
330
75
100
AcDbEntity
  8
0
100
AcDbBlockEnd
  0
BLOCK
  5
84
330
83
100
AcDbEntity
  8
0
100
AcDbBlockBegin
  2
*D2
 70
1
 10
0.0
 20
0.0
 30
0.0
  3
*D2
  1

  0
LINE
  5
86
330
83
100
AcDbEntity
  8
0
100
AcDbLine
 10
183.49999999999994
 20
-650.0
 30
0.0
 11
183.49999999999994
 21
-644.0
 31
0.0
  0
LINE
  5
87
330
83
100
AcDbEntity
  8
0
100
AcDbLine
 10
211.5
 20
-650.0
 30
0.0
 11
211.5
 21
-644.0
 31
0.0
  0
INSERT
  5
88
330
83
100
AcDbEntity
  8
M-GOST-DISOLCU
100
AcDbBlockReference
  2
_OBLIQUE
 10
183.49999999999994
 20
-650.0
 30
0.0
 41
8.0
 42
8.0
  0
INSERT
  5
8A
330
83
100
AcDbEntity
  8
M-GOST-DISOLCU
100
AcDbBlockReference
  2
_OBLIQUE
 10
211.5
 20
-650.0
 30
0.0
 41
8.0
 42
8.0
  0
LINE
  5
8C
330
83
100
AcDbEntity
  8
0
100
AcDbLine
 10
183.49999999999994
 20
-650.0
 30
0.0
 11
211.5
 21
-650.0
 31
0.0
  0
MTEXT
  5
8D
330
83
100
AcDbEntity
  8
M-GOST-DISOLCU
100
AcDbMText
 10
197.49999999999997
 20
-644.26
 30
0.0
 40
6.48
 71
5
  1
28
  7
YAZI
  0
POINT
  5
8E
330
83
100
AcDbEntity
  8
Defpoints
100
AcDbPoint
 10
183.49999999999994
 20
-650.0
 30
0.0
  0
POINT
  5
8F
330
83
100
AcDbEntity
  8
Defpoints
100
AcDbPoint
 10
183.49999999999994
 20
-650.0
 30
0.0
  0
POINT
  5
90
330
83
100
AcDbEntity
  8
Defpoints
100
AcDbPoint
 10
211.5
 20
-650.0
 30
0.0
  0
ENDBLK
  5
85
330
83
100
AcDbEntity
  8
0
100
AcDbBlockEnd
  0
BLOCK
  5
93
330
92
100
AcDbEntity
  8
0
100
AcDbBlockBegin
  2
*D3
 70
1
 10
0.0
 20
0.0
 30
0.0
  3
*D3
  1

  0
LINE
  5
95
330
92
100
AcDbEntity
  8
0
100
AcDbLine
 10
211.5
 20
-650.0
 30
0.0
 11
211.5
 21
-644.0
 31
0.0
  0
LINE
  5
96
330
92
100
AcDbEntity
  8
0
100
AcDbLine
 10
239.50000000000003
 20
-650.0
 30
0.0
 11
239.50000000000003
 21
-644.0
 31
0.0
  0
INSERT
  5
97
330
92
100
AcDbEntity
  8
M-GOST-DISOLCU
100
AcDbBlockReference
  2
_OBLIQUE
 10
211.5
 20
-650.0
 30
0.0
 41
8.0
 42
8.0
  0
INSERT
  5
99
330
92
100
AcDbEntity
  8
M-GOST-DISOLCU
100
AcDbBlockReference
  2
_OBLIQUE
 10
239.50000000000003
 20
-650.0
 30
0.0
 41
8.0
 42
8.0
  0
LINE
  5
9B
330
92
100
AcDbEntity
  8
0
100
AcDbLine
 10
211.5
 20
-650.0
 30
0.0
 11
239.50000000000003
 21
-650.0
 31
0.0
  0
MTEXT
  5
9C
330
92
100
AcDbEntity
  8
M-GOST-DISOLCU
100
AcDbMText
 10
225.5
 20
-644.26
 30
0.0
 40
6.48
 71
5
  1
28
  7
YAZI
  0
POINT
  5
9D
330
92
100
AcDbEntity
  8
Defpoints
100
AcDbPoint
 10
211.5
 20
-650.0
 30
0.0
  0
POINT
  5
9E
330
92
100
AcDbEntity
  8
Defpoints
100
AcDbPoint
 10
211.5
 20
-650.0
 30
0.0
  0
POINT
  5
9F
330
92
100
AcDbEntity
  8
Defpoints
100
AcDbPoint
 10
239.50000000000003
 20
-650.0
 30
0.0
  0
ENDBLK
  5
94
330
92
100
AcDbEntity
  8
0
100
AcDbBlockEnd
  0
BLOCK
  5
A2
330
A1
100
AcDbEntity
  8
0
100
AcDbBlockBegin
  2
*D4
 70
1
 10
0.0
 20
0.0
 30
0.0
  3
*D4
  1

  0
LINE
  5
A4
330
A1
100
AcDbEntity
  8
0
100
AcDbLine
 10
239.50000000000003
 20
-650.0
 30
0.0
 11
239.50000000000003
 21
-644.0
 31
0.0
  0
LINE
  5
A5
330
A1
100
AcDbEntity
  8
0
100
AcDbLine
 10
267.5
 20
-650.0
 30
0.0
 11
267.5
 21
-644.0
 31
0.0
  0
INSERT
  5
A6
330
A1
100
AcDbEntity
  8
M-GOST-DISOLCU
100
AcDbBlockReference
  2
_OBLIQUE
 10
239.50000000000003
 20
-650.0
 30
0.0
 41
8.0
 42
8.0
  0
INSERT
  5
A8
330
A1
100
AcDbEntity
  8
M-GOST-DISOLCU
100
AcDbBlockReference
  2
_OBLIQUE
 10
267.5
 20
-650.0
 30
0.0
 41
8.0
 42
8.0
  0
LINE
  5
AA
330
A1
100
AcDbEntity
  8
0
100
AcDbLine
 10
239.50000000000003
 20
-650.0
 30
0.0
 11
267.5
 21
-650.0
 31
0.0
  0
MTEXT
  5
AB
330
A1
100
AcDbEntity
  8
M-GOST-DISOLCU
100
AcDbMText
 10
253.5
 20
-644.26
 30
0.0
 40
6.48
 71
5
  1
28
  7
YAZI
  0
POINT
  5
AC
330
A1
100
AcDbEntity
  8
Defpoints
100
AcDbPoint
 10
239.50000000000003
 20
-650.0
 30
0.0
  0
POINT
  5
AD
330
A1
100
AcDbEntity
  8
Defpoints
100
AcDbPoint
 10
239.50000000000003
 20
-650.0
 30
0.0
  0
POINT
  5
AE
330
A1
100
AcDbEntity
  8
Defpoints
100
AcDbPoint
 10
267.5
 20
-650.0
 30
0.0
  0
ENDBLK
  5
A3
330
A1
100
AcDbEntity
  8
0
100
AcDbBlockEnd
  0
BLOCK
  5
B1
330
B0
100
AcDbEntity
  8
0
100
AcDbBlockBegin
  2
*D5
 70
1
 10
0.0
 20
0.0
 30
0.0
  3
*D5
  1

  0
LINE
  5
B3
330
B0
100
AcDbEntity
  8
0
100
AcDbLine
 10
267.5
 20
-650.0
 30
0.0
 11
267.5
 21
-644.0
 31
0.0
  0
LINE
  5
B4
330
B0
100
AcDbEntity
  8
0
100
AcDbLine
 10
295.5
 20
-650.0
 30
0.0
 11
295.5
 21
-644.0
 31
0.0
  0
INSERT
  5
B5
330
B0
100
AcDbEntity
  8
M-GOST-DISOLCU
100
AcDbBlockReference
  2
_OBLIQUE
 10
267.5
 20
-650.0
 30
0.0
 41
8.0
 42
8.0
  0
INSERT
  5
B7
330
B0
100
AcDbEntity
  8
M-GOST-DISOLCU
100
AcDbBlockReference
  2
_OBLIQUE
 10
295.5
 20
-650.0
 30
0.0
 41
8.0
 42
8.0
  0
LINE
  5
B9
330
B0
100
AcDbEntity
  8
0
100
AcDbLine
 10
267.5
 20
-650.0
 30
0.0
 11
295.5
 21
-650.0
 31
0.0
  0
MTEXT
  5
BA
330
B0
100
AcDbEntity
  8
M-GOST-DISOLCU
100
AcDbMText
 10
281.5
 20
-644.26
 30
0.0
 40
6.48
 71
5
  1
28
  7
YAZI
  0
POINT
  5
BB
330
B0
100
AcDbEntity
  8
Defpoints
100
AcDbPoint
 10
267.5
 20
-650.0
 30
0.0
  0
POINT
  5
BC
330
B0
100
AcDbEntity
  8
Defpoints
100
AcDbPoint
 10
267.5
 20
-650.0
 30
0.0
  0
POINT
  5
BD
330
B0
100
AcDbEntity
  8
Defpoints
100
AcDbPoint
 10
295.5
 20
-650.0
 30
0.0
  0
ENDBLK
  5
B2
330
B0
100
AcDbEntity
  8
0
100
AcDbBlockEnd
  0
BLOCK
  5
C0
330
BF
100
AcDbEntity
  8
0
100
AcDbBlockBegin
  2
*D6
 70
1
 10
0.0
 20
0.0
 30
0.0
  3
*D6
  1

  0
LINE
  5
C2
330
BF
100
AcDbEntity
  8
0
100
AcDbLine
 10
295.5
 20
-650.0
 30
0.0
 11
295.5
 21
-644.0
 31
0.0
  0
LINE
  5
C3
330
BF
100
AcDbEntity
  8
0
100
AcDbLine
 10
323.5
 20
-650.0
 30
0.0
 11
323.5
 21
-644.0
 31
0.0
  0
INSERT
  5
C4
330
BF
100
AcDbEntity
  8
M-GOST-DISOLCU
100
AcDbBlockReference
  2
_OBLIQUE
 10
295.5
 20
-650.0
 30
0.0
 41
8.0
 42
8.0
  0
INSERT
  5
C6
330
BF
100
AcDbEntity
  8
M-GOST-DISOLCU
100
AcDbBlockReference
  2
_OBLIQUE
 10
323.5
 20
-650.0
 30
0.0
 41
8.0
 42
8.0
  0
LINE
  5
C8
330
BF
100
AcDbEntity
  8
0
100
AcDbLine
 10
295.5
 20
-650.0
 30
0.0
 11
323.5
 21
-650.0
 31
0.0
  0
MTEXT
  5
C9
330
BF
100
AcDbEntity
  8
M-GOST-DISOLCU
100
AcDbMText
 10
309.5
 20
-644.26
 30
0.0
 40
6.48
 71
5
  1
28
  7
YAZI
  0
POINT
  5
CA
330
BF
100
AcDbEntity
  8
Defpoints
100
AcDbPoint
 10
295.5
 20
-650.0
 30
0.0
  0
POINT
  5
CB
330
BF
100
AcDbEntity
  8
Defpoints
100
AcDbPoint
 10
295.5
 20
-650.0
 30
0.0
  0
POINT
  5
CC
330
BF
100
AcDbEntity
  8
Defpoints
100
AcDbPoint
 10
323.5
 20
-650.0
 30
0.0
  0
ENDBLK
  5
C1
330
BF
100
AcDbEntity
  8
0
100
AcDbBlockEnd
  0
BLOCK
  5
CF
330
CE
100
AcDbEntity
  8
0
100
AcDbBlockBegin
  2
*D7
 70
1
 10
0.0
 20
0.0
 30
0.0
  3
*D7
  1

  0
LINE
  5
D1
330
CE
100
AcDbEntity
  8
0
100
AcDbLine
 10
323.5
 20
-650.0
 30
0.0
 11
323.5
 21
-644.0
 31
0.0
  0
LINE
  5
D2
330
CE
100
AcDbEntity
  8
0
100
AcDbLine
 10
351.5
 20
-650.0
 30
0.0
 11
351.5
 21
-644.0
 31
0.0
  0
INSERT
  5
D3
330
CE
100
AcDbEntity
  8
M-GOST-DISOLCU
100
AcDbBlockReference
  2
_OBLIQUE
 10
323.5
 20
-650.0
 30
0.0
 41
8.0
 42
8.0
  0
INSERT
  5
D5
330
CE
100
AcDbEntity
  8
M-GOST-DISOLCU
100
AcDbBlockReference
  2
_OBLIQUE
 10
351.5
 20
-650.0
 30
0.0
 41
8.0
 42
8.0
  0
LINE
  5
D7
330
CE
100
AcDbEntity
  8
0
100
AcDbLine
 10
323.5
 20
-650.0
 30
0.0
 11
351.5
 21
-650.0
 31
0.0
  0
MTEXT
  5
D8
330
CE
100
AcDbEntity
  8
M-GOST-DISOLCU
100
AcDbMText
 10
337.5
 20
-644.26
 30
0.0
 40
6.48
 71
5
  1
28
  7
YAZI
  0
POINT
  5
D9
330
CE
100
AcDbEntity
  8
Defpoints
100
AcDbPoint
 10
323.5
 20
-650.0
 30
0.0
  0
POINT
  5
DA
330
CE
100
AcDbEntity
  8
Defpoints
100
AcDbPoint
 10
323.5
 20
-650.0
 30
0.0
  0
POINT
  5
DB
330
CE
100
AcDbEntity
  8
Defpoints
100
AcDbPoint
 10
351.5
 20
-650.0
 30
0.0
  0
ENDBLK
  5
D0
330
CE
100
AcDbEntity
  8
0
100
AcDbBlockEnd
  0
BLOCK
  5
DE
330
DD
100
AcDbEntity
  8
0
100
AcDbBlockBegin
  2
*D8
 70
1
 10
0.0
 20
0.0
 30
0.0
  3
*D8
  1

  0
LINE
  5
E0
330
DD
100
AcDbEntity
  8
0
100
AcDbLine
 10
351.5
 20
-650.0
 30
0.0
 11
351.5
 21
-644.0
 31
0.0
  0
LINE
  5
E1
330
DD
100
AcDbEntity
  8
0
100
AcDbLine
 10
379.49999999999994
 20
-650.0
 30
0.0
 11
379.49999999999994
 21
-644.0
 31
0.0
  0
INSERT
  5
E2
330
DD
100
AcDbEntity
  8
M-GOST-DISOLCU
100
AcDbBlockReference
  2
_OBLIQUE
 10
351.5
 20
-650.0
 30
0.0
 41
8.0
 42
8.0
  0
INSERT
  5
E4
330
DD
100
AcDbEntity
  8
M-GOST-DISOLCU
100
AcDbBlockReference
  2
_OBLIQUE
 10
379.49999999999994
 20
-650.0
 30
0.0
 41
8.0
 42
8.0
  0
LINE
  5
E6
330
DD
100
AcDbEntity
  8
0
100
AcDbLine
 10
351.5
 20
-650.0
 30
0.0
 11
379.49999999999994
 21
-650.0
 31
0.0
  0
MTEXT
  5
E7
330
DD
100
AcDbEntity
  8
M-GOST-DISOLCU
100
AcDbMText
 10
365.5
 20
-644.26
 30
0.0
 40
6.48
 71
5
  1
28
  7
YAZI
  0
POINT
  5
E8
330
DD
100
AcDbEntity
  8
Defpoints
100
AcDbPoint
 10
351.5
 20
-650.0
 30
0.0
  0
POINT
  5
E9
330
DD
100
AcDbEntity
  8
Defpoints
100
AcDbPoint
 10
351.5
 20
-650.0
 30
0.0
  0
POINT
  5
EA
330
DD
100
AcDbEntity
  8
Defpoints
100
AcDbPoint
 10
379.49999999999994
 20
-650.0
 30
0.0
  0
ENDBLK
  5
DF
330
DD
100
AcDbEntity
  8
0
100
AcDbBlockEnd
  0
BLOCK
  5
ED
330
EC
100
AcDbEntity
  8
0
100
AcDbBlockBegin
  2
*D9
 70
1
 10
0.0
 20
0.0
 30
0.0
  3
*D9
  1

  0
LINE
  5
EF
330
EC
100
AcDbEntity
  8
0
100
AcDbLine
 10
379.49999999999994
 20
-650.0
 30
0.0
 11
379.49999999999994
 21
-644.0
 31
0.0
  0
LINE
  5
F0
330
EC
100
AcDbEntity
  8
0
100
AcDbLine
 10
407.49999999999994
 20
-650.0
 30
0.0
 11
407.49999999999994
 21
-644.0
 31
0.0
  0
INSERT
  5
F1
330
EC
100
AcDbEntity
  8
M-GOST-DISOLCU
100
AcDbBlockReference
  2
_OBLIQUE
 10
379.49999999999994
 20
-650.0
 30
0.0
 41
8.0
 42
8.0
  0
INSERT
  5
F3
330
EC
100
AcDbEntity
  8
M-GOST-DISOLCU
100
AcDbBlockReference
  2
_OBLIQUE
 10
407.49999999999994
 20
-650.0
 30
0.0
 41
8.0
 42
8.0
  0
LINE
  5
F5
330
EC
100
AcDbEntity
  8
0
100
AcDbLine
 10
379.49999999999994
 20
-650.0
 30
0.0
 11
407.49999999999994
 21
-650.0
 31
0.0
  0
MTEXT
  5
F6
330
EC
100
AcDbEntity
  8
M-GOST-DISOLCU
100
AcDbMText
 10
393.49999999999994
 20
-644.26
 30
0.0
 40
6.48
 71
5
  1
28
  7
YAZI
  0
POINT
  5
F7
330
EC
100
AcDbEntity
  8
Defpoints
100
AcDbPoint
 10
379.49999999999994
 20
-650.0
 30
0.0
  0
POINT
  5
F8
330
EC
100
AcDbEntity
  8
Defpoints
100
AcDbPoint
 10
379.49999999999994
 20
-650.0
 30
0.0
  0
POINT
  5
F9
330
EC
100
AcDbEntity
  8
Defpoints
100
AcDbPoint
 10
407.49999999999994
 20
-650.0
 30
0.0
  0
ENDBLK
  5
EE
330
EC
100
AcDbEntity
  8
0
100
AcDbBlockEnd
  0
BLOCK
  5
FC
330
FB
100
AcDbEntity
  8
0
100
AcDbBlockBegin
  2
*D10
 70
1
 10
0.0
 20
0.0
 30
0.0
  3
*D10
  1

  0
LINE
  5
FE
330
FB
100
AcDbEntity
  8
0
100
AcDbLine
 10
407.49999999999994
 20
-650.0
 30
0.0
 11
407.49999999999994
 21
-644.0
 31
0.0
  0
LINE
  5
FF
330
FB
100
AcDbEntity
  8
0
100
AcDbLine
 10
532.5
 20
-650.0
 30
0.0
 11
532.5
 21
-644.0
 31
0.0
  0
INSERT
  5
100
330
FB
100
AcDbEntity
  8
M-GOST-DISOLCU
100
AcDbBlockReference
  2
_OBLIQUE
 10
407.49999999999994
 20
-650.0
 30
0.0
 41
8.0
 42
8.0
  0
INSERT
  5
102
330
FB
100
AcDbEntity
  8
M-GOST-DISOLCU
100
AcDbBlockReference
  2
_OBLIQUE
 10
532.5
 20
-650.0
 30
0.0
 41
8.0
 42
8.0
  0
LINE
  5
104
330
FB
100
AcDbEntity
  8
0
100
AcDbLine
 10
407.49999999999994
 20
-650.0
 30
0.0
 11
532.5
 21
-650.0
 31
0.0
  0
MTEXT
  5
105
330
FB
100
AcDbEntity
  8
M-GOST-DISOLCU
100
AcDbMText
 10
470.0
 20
-644.26
 30
0.0
 40
6.48
 71
5
  1
125
  7
YAZI
  0
POINT
  5
106
330
FB
100
AcDbEntity
  8
Defpoints
100
AcDbPoint
 10
407.49999999999994
 20
-650.0
 30
0.0
  0
POINT
  5
107
330
FB
100
AcDbEntity
  8
Defpoints
100
AcDbPoint
 10
407.49999999999994
 20
-650.0
 30
0.0
  0
POINT
  5
108
330
FB
100
AcDbEntity
  8
Defpoints
100
AcDbPoint
 10
532.5
 20
-650.0
 30
0.0
  0
ENDBLK
  5
FD
330
FB
100
AcDbEntity
  8
0
100
AcDbBlockEnd
  0
BLOCK
  5
10B
330
10A
100
AcDbEntity
  8
0
100
AcDbBlockBegin
  2
*D11
 70
1
 10
0.0
 20
0.0
 30
0.0
  3
*D11
  1

  0
LINE
  5
10D
330
10A
100
AcDbEntity
  8
0
100
AcDbLine
 10
-40.0
 20
-590.0
 30
0.0
 11
-46.0
 21
-590.0
 31
0.0
  0
LINE
  5
10E
330
10A
100
AcDbEntity
  8
0
100
AcDbLine
 10
-40.0
 20
-421.58000000000004
 30
0.0
 11
-46.0
 21
-421.58000000000004
 31
0.0
  0
INSERT
  5
10F
330
10A
100
AcDbEntity
  8
M-GOST-DISOLCU
100
AcDbBlockReference
  2
_OBLIQUE
 10
-40.0
 20
-590.0
 30
0.0
 41
8.0
 42
8.0
 50
90.0
  0
INSERT
  5
111
330
10A
100
AcDbEntity
  8
M-GOST-DISOLCU
100
AcDbBlockReference
  2
_OBLIQUE
 10
-40.0
 20
-421.58000000000004
 30
0.0
 41
8.0
 42
8.0
 50
90.0
  0
LINE
  5
113
330
10A
100
AcDbEntity
  8
0
100
AcDbLine
 10
-40.0
 20
-590.0
 30
0.0
 11
-40.0
 21
-421.58000000000004
 31
0.0
  0
MTEXT
  5
114
330
10A
100
AcDbEntity
  8
M-GOST-DISOLCU
100
AcDbMText
 10
-45.74
 20
-505.79
 30
0.0
 40
6.48
 71
5
  1
168
  7
YAZI
 50
90.0
  0
POINT
  5
115
330
10A
100
AcDbEntity
  8
Defpoints
100
AcDbPoint
 10
-40.0
 20
-590.0
 30
0.0
  0
POINT
  5
116
330
10A
100
AcDbEntity
  8
Defpoints
100
AcDbPoint
 10
-40.0
 20
-590.0
 30
0.0
  0
POINT
  5
117
330
10A
100
AcDbEntity
  8
Defpoints
100
AcDbPoint
 10
-40.0
 20
-421.58000000000004
 30
0.0
  0
ENDBLK
  5
10C
330
10A
100
AcDbEntity
  8
0
100
AcDbBlockEnd
  0
BLOCK
  5
11A
330
119
100
AcDbEntity
  8
0
100
AcDbBlockBegin
  2
*D12
 70
1
 10
0.0
 20
0.0
 30
0.0
  3
*D12
  1

  0
LINE
  5
11C
330
119
100
AcDbEntity
  8
0
100
AcDbLine
 10
-40.0
 20
-421.58000000000004
 30
0.0
 11
-46.0
 21
-421.58000000000004
 31
0.0
  0
LINE
  5
11D
330
119
100
AcDbEntity
  8
0
100
AcDbLine
 10
-40.0
 20
-270.0
 30
0.0
 11
-46.0
 21
-270.0
 31
0.0
  0
INSERT
  5
11E
330
119
100
AcDbEntity
  8
M-GOST-DISOLCU
100
AcDbBlockReference
  2
_OBLIQUE
 10
-40.0
 20
-421.58000000000004
 30
0.0
 41
8.0
 42
8.0
 50
90.0
  0
INSERT
  5
120
330
119
100
AcDbEntity
  8
M-GOST-DISOLCU
100
AcDbBlockReference
  2
_OBLIQUE
 10
-40.0
 20
-270.0
 30
0.0
 41
8.0
 42
8.0
 50
90.0
  0
LINE
  5
122
330
119
100
AcDbEntity
  8
0
100
AcDbLine
 10
-40.0
 20
-421.58000000000004
 30
0.0
 11
-40.0
 21
-270.0
 31
0.0
  0
MTEXT
  5
123
330
119
100
AcDbEntity
  8
M-GOST-DISOLCU
100
AcDbMText
 10
-45.74
 20
-345.79
 30
0.0
 40
6.48
 71
5
  1
152
  7
YAZI
 50
90.0
  0
POINT
  5
124
330
119
100
AcDbEntity
  8
Defpoints
100
AcDbPoint
 10
-40.0
 20
-421.58000000000004
 30
0.0
  0
POINT
  5
125
330
119
100
AcDbEntity
  8
Defpoints
100
AcDbPoint
 10
-40.0
 20
-421.58000000000004
 30
0.0
  0
POINT
  5
126
330
119
100
AcDbEntity
  8
Defpoints
100
AcDbPoint
 10
-40.0
 20
-270.0
 30
0.0
  0
ENDBLK
  5
11B
330
119
100
AcDbEntity
  8
0
100
AcDbBlockEnd
  0
BLOCK
  5
16B
330
16A
100
AcDbEntity
  8
0
100
AcDbBlockBegin
  2
*D13
 70
1
 10
0.0
 20
0.0
 30
0.0
  3
*D13
  1

  0
LINE
  5
16D
330
16A
100
AcDbEntity
  8
0
100
AcDbLine
 10
750.0
 20
-55.0
 30
0.0
 11
750.0
 21
-49.0
 31
0.0
  0
LINE
  5
16E
330
16A
100
AcDbEntity
  8
0
100
AcDbLine
 10
755.0
 20
-55.0
 30
0.0
 11
755.0
 21
-49.0
 31
0.0
  0
INSERT
  5
16F
330
16A
100
AcDbEntity
  8
M-GOST-DISOLCU
100
AcDbBlockReference
  2
_OBLIQUE
 10
750.0
 20
-55.0
 30
0.0
 41
8.0
 42
8.0
  0
INSERT
  5
171
330
16A
100
AcDbEntity
  8
M-GOST-DISOLCU
100
AcDbBlockReference
  2
_OBLIQUE
 10
755.0
 20
-55.0
 30
0.0
 41
8.0
 42
8.0
  0
LINE
  5
173
330
16A
100
AcDbEntity
  8
0
100
AcDbLine
 10
750.0
 20
-55.0
 30
0.0
 11
755.0
 21
-55.0
 31
0.0
  0
MTEXT
  5
174
330
16A
100
AcDbEntity
  8
M-GOST-DISOLCU
100
AcDbMText
 10
752.5
 20
-43.26
 30
0.0
 40
6.48
 71
5
  1
5
  7
YAZI
  0
POINT
  5
175
330
16A
100
AcDbEntity
  8
Defpoints
100
AcDbPoint
 10
750.0
 20
-55.0
 30
0.0
  0
POINT
  5
176
330
16A
100
AcDbEntity
  8
Defpoints
100
AcDbPoint
 10
750.0
 20
-55.0
 30
0.0
  0
POINT
  5
177
330
16A
100
AcDbEntity
  8
Defpoints
100
AcDbPoint
 10
755.0
 20
-55.0
 30
0.0
  0
ENDBLK
  5
16C
330
16A
100
AcDbEntity
  8
0
100
AcDbBlockEnd
  0
BLOCK
  5
17A
330
179
100
AcDbEntity
  8
0
100
AcDbBlockBegin
  2
*D14
 70
1
 10
0.0
 20
0.0
 30
0.0
  3
*D14
  1

  0
LINE
  5
17C
330
179
100
AcDbEntity
  8
0
100
AcDbLine
 10
755.0
 20
-55.0
 30
0.0
 11
755.0
 21
-49.0
 31
0.0
  0
LINE
  5
17D
330
179
100
AcDbEntity
  8
0
100
AcDbLine
 10
875.0
 20
-55.0
 30
0.0
 11
875.0
 21
-49.0
 31
0.0
  0
INSERT
  5
17E
330
179
100
AcDbEntity
  8
M-GOST-DISOLCU
100
AcDbBlockReference
  2
_OBLIQUE
 10
755.0
 20
-55.0
 30
0.0
 41
8.0
 42
8.0
  0
INSERT
  5
180
330
179
100
AcDbEntity
  8
M-GOST-DISOLCU
100
AcDbBlockReference
  2
_OBLIQUE
 10
875.0
 20
-55.0
 30
0.0
 41
8.0
 42
8.0
  0
LINE
  5
182
330
179
100
AcDbEntity
  8
0
100
AcDbLine
 10
755.0
 20
-55.0
 30
0.0
 11
875.0
 21
-55.0
 31
0.0
  0
MTEXT
  5
183
330
179
100
AcDbEntity
  8
M-GOST-DISOLCU
100
AcDbMText
 10
815.0
 20
-49.26
 30
0.0
 40
6.48
 71
5
  1
120
  7
YAZI
  0
POINT
  5
184
330
179
100
AcDbEntity
  8
Defpoints
100
AcDbPoint
 10
755.0
 20
-55.0
 30
0.0
  0
POINT
  5
185
330
179
100
AcDbEntity
  8
Defpoints
100
AcDbPoint
 10
755.0
 20
-55.0
 30
0.0
  0
POINT
  5
186
330
179
100
AcDbEntity
  8
Defpoints
100
AcDbPoint
 10
875.0
 20
-55.0
 30
0.0
  0
ENDBLK
  5
17B
330
179
100
AcDbEntity
  8
0
100
AcDbBlockEnd
  0
BLOCK
  5
189
330
188
100
AcDbEntity
  8
0
100
AcDbBlockBegin
  2
*D15
 70
1
 10
0.0
 20
0.0
 30
0.0
  3
*D15
  1

  0
LINE
  5
18B
330
188
100
AcDbEntity
  8
0
100
AcDbLine
 10
875.0
 20
-55.0
 30
0.0
 11
875.0
 21
-49.0
 31
0.0
  0
LINE
  5
18C
330
188
100
AcDbEntity
  8
0
100
AcDbLine
 10
885.0
 20
-55.0
 30
0.0
 11
885.0
 21
-49.0
 31
0.0
  0
INSERT
  5
18D
330
188
100
AcDbEntity
  8
M-GOST-DISOLCU
100
AcDbBlockReference
  2
_OBLIQUE
 10
875.0
 20
-55.0
 30
0.0
 41
8.0
 42
8.0
  0
INSERT
  5
18F
330
188
100
AcDbEntity
  8
M-GOST-DISOLCU
100
AcDbBlockReference
  2
_OBLIQUE
 10
885.0
 20
-55.0
 30
0.0
 41
8.0
 42
8.0
  0
LINE
  5
191
330
188
100
AcDbEntity
  8
0
100
AcDbLine
 10
875.0
 20
-55.0
 30
0.0
 11
885.0
 21
-55.0
 31
0.0
  0
MTEXT
  5
192
330
188
100
AcDbEntity
  8
M-GOST-DISOLCU
100
AcDbMText
 10
880.0
 20
-43.26
 30
0.0
 40
6.48
 71
5
  1
10
  7
YAZI
  0
POINT
  5
193
330
188
100
AcDbEntity
  8
Defpoints
100
AcDbPoint
 10
875.0
 20
-55.0
 30
0.0
  0
POINT
  5
194
330
188
100
AcDbEntity
  8
Defpoints
100
AcDbPoint
 10
875.0
 20
-55.0
 30
0.0
  0
POINT
  5
195
330
188
100
AcDbEntity
  8
Defpoints
100
AcDbPoint
 10
885.0
 20
-55.0
 30
0.0
  0
ENDBLK
  5
18A
330
188
100
AcDbEntity
  8
0
100
AcDbBlockEnd
  0
BLOCK
  5
198
330
197
100
AcDbEntity
  8
0
100
AcDbBlockBegin
  2
*D16
 70
1
 10
0.0
 20
0.0
 30
0.0
  3
*D16
  1

  0
LINE
  5
19A
330
197
100
AcDbEntity
  8
0
100
AcDbLine
 10
885.0
 20
-55.0
 30
0.0
 11
885.0
 21
-49.0
 31
0.0
  0
LINE
  5
19B
330
197
100
AcDbEntity
  8
0
100
AcDbLine
 10
1002.5
 20
-55.0
 30
0.0
 11
1002.5
 21
-49.0
 31
0.0
  0
INSERT
  5
19C
330
197
100
AcDbEntity
  8
M-GOST-DISOLCU
100
AcDbBlockReference
  2
_OBLIQUE
 10
885.0
 20
-55.0
 30
0.0
 41
8.0
 42
8.0
  0
INSERT
  5
19E
330
197
100
AcDbEntity
  8
M-GOST-DISOLCU
100
AcDbBlockReference
  2
_OBLIQUE
 10
1002.5
 20
-55.0
 30
0.0
 41
8.0
 42
8.0
  0
LINE
  5
1A0
330
197
100
AcDbEntity
  8
0
100
AcDbLine
 10
885.0
 20
-55.0
 30
0.0
 11
1002.5
 21
-55.0
 31
0.0
  0
MTEXT
  5
1A1
330
197
100
AcDbEntity
  8
M-GOST-DISOLCU
100
AcDbMText
 10
943.75
 20
-49.26
 30
0.0
 40
6.48
 71
5
  1
118
  7
YAZI
  0
POINT
  5
1A2
330
197
100
AcDbEntity
  8
Defpoints
100
AcDbPoint
 10
885.0
 20
-55.0
 30
0.0
  0
POINT
  5
1A3
330
197
100
AcDbEntity
  8
Defpoints
100
AcDbPoint
 10
885.0
 20
-55.0
 30
0.0
  0
POINT
  5
1A4
330
197
100
AcDbEntity
  8
Defpoints
100
AcDbPoint
 10
1002.5
 20
-55.0
 30
0.0
  0
ENDBLK
  5
199
330
197
100
AcDbEntity
  8
0
100
AcDbBlockEnd
  0
BLOCK
  5
1A7
330
1A6
100
AcDbEntity
  8
0
100
AcDbBlockBegin
  2
*D17
 70
1
 10
0.0
 20
0.0
 30
0.0
  3
*D17
  1

  0
LINE
  5
1A9
330
1A6
100
AcDbEntity
  8
0
100
AcDbLine
 10
1002.5
 20
-55.0
 30
0.0
 11
1002.5
 21
-49.0
 31
0.0
  0
LINE
  5
1AA
330
1A6
100
AcDbEntity
  8
0
100
AcDbLine
 10
1010.0
 20
-55.0
 30
0.0
 11
1010.0
 21
-49.0
 31
0.0
  0
INSERT
  5
1AB
330
1A6
100
AcDbEntity
  8
M-GOST-DISOLCU
100
AcDbBlockReference
  2
_OBLIQUE
 10
1002.5
 20
-55.0
 30
0.0
 41
8.0
 42
8.0
  0
INSERT
  5
1AD
330
1A6
100
AcDbEntity
  8
M-GOST-DISOLCU
100
AcDbBlockReference
  2
_OBLIQUE
 10
1010.0
 20
-55.0
 30
0.0
 41
8.0
 42
8.0
  0
LINE
  5
1AF
330
1A6
100
AcDbEntity
  8
0
100
AcDbLine
 10
1002.5
 20
-55.0
 30
0.0
 11
1010.0
 21
-55.0
 31
0.0
  0
MTEXT
  5
1B0
330
1A6
100
AcDbEntity
  8
M-GOST-DISOLCU
100
AcDbMText
 10
1006.25
 20
-49.26
 30
0.0
 40
6.48
 71
5
  1
8
  7
YAZI
  0
POINT
  5
1B1
330
1A6
100
AcDbEntity
  8
Defpoints
100
AcDbPoint
 10
1002.5
 20
-55.0
 30
0.0
  0
POINT
  5
1B2
330
1A6
100
AcDbEntity
  8
Defpoints
100
AcDbPoint
 10
1002.5
 20
-55.0
 30
0.0
  0
POINT
  5
1B3
330
1A6
100
AcDbEntity
  8
Defpoints
100
AcDbPoint
 10
1010.0
 20
-55.0
 30
0.0
  0
ENDBLK
  5
1A8
330
1A6
100
AcDbEntity
  8
0
100
AcDbBlockEnd
  0
BLOCK
  5
1B6
330
1B5
100
AcDbEntity
  8
0
100
AcDbBlockBegin
  2
*D18
 70
1
 10
0.0
 20
0.0
 30
0.0
  3
*D18
  1

  0
LINE
  5
1B8
330
1B5
100
AcDbEntity
  8
0
100
AcDbLine
 10
1050.0
 20
-80.0
 30
0.0
 11
1044.0
 21
-80.0
 31
0.0
  0
LINE
  5
1B9
330
1B5
100
AcDbEntity
  8
0
100
AcDbLine
 10
1050.0
 20
-175.49999999999997
 30
0.0
 11
1044.0
 21
-175.49999999999997
 31
0.0
  0
INSERT
  5
1BA
330
1B5
100
AcDbEntity
  8
M-GOST-DISOLCU
100
AcDbBlockReference
  2
_OBLIQUE
 10
1050.0
 20
-80.0
 30
0.0
 41
8.0
 42
8.0
 50
90.0
  0
INSERT
  5
1BC
330
1B5
100
AcDbEntity
  8
M-GOST-DISOLCU
100
AcDbBlockReference
  2
_OBLIQUE
 10
1050.0
 20
-175.49999999999997
 30
0.0
 41
8.0
 42
8.0
 50
90.0
  0
LINE
  5
1BE
330
1B5
100
AcDbEntity
  8
0
100
AcDbLine
 10
1050.0
 20
-80.0
 30
0.0
 11
1050.0
 21
-175.49999999999997
 31
0.0
  0
MTEXT
  5
1BF
330
1B5
100
AcDbEntity
  8
M-GOST-DISOLCU
100
AcDbMText
 10
1055.74
 20
-127.74999999999999
 30
0.0
 40
6.48
 71
5
  1
95
  7
YAZI
 50
90.0
  0
POINT
  5
1C0
330
1B5
100
AcDbEntity
  8
Defpoints
100
AcDbPoint
 10
1050.0
 20
-80.0
 30
0.0
  0
POINT
  5
1C1
330
1B5
100
AcDbEntity
  8
Defpoints
100
AcDbPoint
 10
1050.0
 20
-80.0
 30
0.0
  0
POINT
  5
1C2
330
1B5
100
AcDbEntity
  8
Defpoints
100
AcDbPoint
 10
1050.0
 20
-175.49999999999997
 30
0.0
  0
ENDBLK
  5
1B7
330
1B5
100
AcDbEntity
  8
0
100
AcDbBlockEnd
  0
BLOCK
  5
1C5
330
1C4
100
AcDbEntity
  8
0
100
AcDbBlockBegin
  2
*D19
 70
1
 10
0.0
 20
0.0
 30
0.0
  3
*D19
  1

  0
LINE
  5
1C7
330
1C4
100
AcDbEntity
  8
0
100
AcDbLine
 10
1050.0
 20
-175.49999999999997
 30
0.0
 11
1044.0
 21
-175.49999999999997
 31
0.0
  0
LINE
  5
1C8
330
1C4
100
AcDbEntity
  8
0
100
AcDbLine
 10
1050.0
 20
-427.49999999999994
 30
0.0
 11
1044.0
 21
-427.49999999999994
 31
0.0
  0
INSERT
  5
1C9
330
1C4
100
AcDbEntity
  8
M-GOST-DISOLCU
100
AcDbBlockReference
  2
_OBLIQUE
 10
1050.0
 20
-175.49999999999997
 30
0.0
 41
8.0
 42
8.0
 50
90.0
  0
INSERT
  5
1CB
330
1C4
100
AcDbEntity
  8
M-GOST-DISOLCU
100
AcDbBlockReference
  2
_OBLIQUE
 10
1050.0
 20
-427.49999999999994
 30
0.0
 41
8.0
 42
8.0
 50
90.0
  0
LINE
  5
1CD
330
1C4
100
AcDbEntity
  8
0
100
AcDbLine
 10
1050.0
 20
-175.49999999999997
 30
0.0
 11
1050.0
 21
-427.49999999999994
 31
0.0
  0
MTEXT
  5
1CE
330
1C4
100
AcDbEntity
  8
M-GOST-DISOLCU
100
AcDbMText
 10
1055.74
 20
-301.49999999999994
 30
0.0
 40
6.48
 71
5
  1
252
  7
YAZI
 50
90.0
  0
POINT
  5
1CF
330
1C4
100
AcDbEntity
  8
Defpoints
100
AcDbPoint
 10
1050.0
 20
-175.49999999999997
 30
0.0
  0
POINT
  5
1D0
330
1C4
100
AcDbEntity
  8
Defpoints
100
AcDbPoint
 10
1050.0
 20
-175.49999999999997
 30
0.0
  0
POINT
  5
1D1
330
1C4
100
AcDbEntity
  8
Defpoints
100
AcDbPoint
 10
1050.0
 20
-427.49999999999994
 30
0.0
  0
ENDBLK
  5
1C6
330
1C4
100
AcDbEntity
  8
0
100
AcDbBlockEnd
  0
BLOCK
  5
1D4
330
1D3
100
AcDbEntity
  8
0
100
AcDbBlockBegin
  2
*D20
 70
1
 10
0.0
 20
0.0
 30
0.0
  3
*D20
  1

  0
LINE
  5
1D6
330
1D3
100
AcDbEntity
  8
0
100
AcDbLine
 10
1050.0
 20
-427.49999999999994
 30
0.0
 11
1044.0
 21
-427.49999999999994
 31
0.0
  0
LINE
  5
1D7
330
1D3
100
AcDbEntity
  8
0
100
AcDbLine
 10
1050.0
 20
-552.5
 30
0.0
 11
1044.0
 21
-552.5
 31
0.0
  0
INSERT
  5
1D8
330
1D3
100
AcDbEntity
  8
M-GOST-DISOLCU
100
AcDbBlockReference
  2
_OBLIQUE
 10
1050.0
 20
-427.49999999999994
 30
0.0
 41
8.0
 42
8.0
 50
90.0
  0
INSERT
  5
1DA
330
1D3
100
AcDbEntity
  8
M-GOST-DISOLCU
100
AcDbBlockReference
  2
_OBLIQUE
 10
1050.0
 20
-552.5
 30
0.0
 41
8.0
 42
8.0
 50
90.0
  0
LINE
  5
1DC
330
1D3
100
AcDbEntity
  8
0
100
AcDbLine
 10
1050.0
 20
-427.49999999999994
 30
0.0
 11
1050.0
 21
-552.5
 31
0.0
  0
MTEXT
  5
1DD
330
1D3
100
AcDbEntity
  8
M-GOST-DISOLCU
100
AcDbMText
 10
1055.74
 20
-490.0
 30
0.0
 40
6.48
 71
5
  1
125
  7
YAZI
 50
90.0
  0
POINT
  5
1DE
330
1D3
100
AcDbEntity
  8
Defpoints
100
AcDbPoint
 10
1050.0
 20
-427.49999999999994
 30
0.0
  0
POINT
  5
1DF
330
1D3
100
AcDbEntity
  8
Defpoints
100
AcDbPoint
 10
1050.0
 20
-427.49999999999994
 30
0.0
  0
POINT
  5
1E0
330
1D3
100
AcDbEntity
  8
Defpoints
100
AcDbPoint
 10
1050.0
 20
-552.5
 30
0.0
  0
ENDBLK
  5
1D5
330
1D3
100
AcDbEntity
  8
0
100
AcDbBlockEnd
  0
BLOCK
  5
1E3
330
1E2
100
AcDbEntity
  8
0
100
AcDbBlockBegin
  2
*D21
 70
1
 10
0.0
 20
0.0
 30
0.0
  3
*D21
  1

  0
LINE
  5
1E5
330
1E2
100
AcDbEntity
  8
0
100
AcDbLine
 10
1050.0
 20
-552.5
 30
0.0
 11
1044.0
 21
-552.5
 31
0.0
  0
LINE
  5
1E6
330
1E2
100
AcDbEntity
  8
0
100
AcDbLine
 10
1050.0
 20
-560.0
 30
0.0
 11
1044.0
 21
-560.0
 31
0.0
  0
INSERT
  5
1E7
330
1E2
100
AcDbEntity
  8
M-GOST-DISOLCU
100
AcDbBlockReference
  2
_OBLIQUE
 10
1050.0
 20
-552.5
 30
0.0
 41
8.0
 42
8.0
 50
90.0
  0
INSERT
  5
1E9
330
1E2
100
AcDbEntity
  8
M-GOST-DISOLCU
100
AcDbBlockReference
  2
_OBLIQUE
 10
1050.0
 20
-560.0
 30
0.0
 41
8.0
 42
8.0
 50
90.0
  0
LINE
  5
1EB
330
1E2
100
AcDbEntity
  8
0
100
AcDbLine
 10
1050.0
 20
-552.5
 30
0.0
 11
1050.0
 21
-560.0
 31
0.0
  0
MTEXT
  5
1EC
330
1E2
100
AcDbEntity
  8
M-GOST-DISOLCU
100
AcDbMText
 10
1055.74
 20
-556.25
 30
0.0
 40
6.48
 71
5
  1
8
  7
YAZI
 50
90.0
  0
POINT
  5
1ED
330
1E2
100
AcDbEntity
  8
Defpoints
100
AcDbPoint
 10
1050.0
 20
-552.5
 30
0.0
  0
POINT
  5
1EE
330
1E2
100
AcDbEntity
  8
Defpoints
100
AcDbPoint
 10
1050.0
 20
-552.5
 30
0.0
  0
POINT
  5
1EF
330
1E2
100
AcDbEntity
  8
Defpoints
100
AcDbPoint
 10
1050.0
 20
-560.0
 30
0.0
  0
ENDBLK
  5
1E4
330
1E2
100
AcDbEntity
  8
0
100
AcDbBlockEnd
  0
ENDSEC
  0
SECTION
  2
ENTITIES
  0
HATCH
  5
52
330
17
100
AcDbEntity
  8
M-TASI-BETONARME-T
100
AcDbHatch
 10
0.0
 20
0.0
 30
0.0
210
0.0
220
0.0
230
1.0
  2
SOLID
 70
1
 71
0
 91
1
 92
3
 72
0
 73
1
 93
4
 10
0.0
 20
-590.0
 10
155.49999999999997
 20
-590.0
 10
155.49999999999997
 20
-620.0
 10
0.0
 20
-620.0
 97
0
 75
1
 76
1
 98
0
  0
HATCH
  5
53
330
17
100
AcDbEntity
  8
M-TASI-BETONARME-T
100
AcDbHatch
 10
0.0
 20
0.0
 30
0.0
210
0.0
220
0.0
230
1.0
  2
SOLID
 70
1
 71
0
 91
1
 92
3
 72
0
 73
1
 93
4
 10
0.0
 20
-270.0
 10
183.49999999999994
 20
-270.0
 10
183.49999999999994
 20
-300.0
 10
0.0
 20
-300.0
 97
0
 75
1
 76
1
 98
0
  0
HATCH
  5
54
330
17
100
AcDbEntity
  8
M-TASI-BETONARME-T
100
AcDbHatch
 10
0.0
 20
0.0
 30
0.0
210
0.0
220
0.0
230
1.0
  2
SOLID
 70
1
 71
0
 91
1
 92
3
 72
0
 73
1
 93
4
 10
532.5
 20
-270.0
 10
592.5
 20
-270.0
 10
592.5
 20
-300.0
 10
532.5
 20
-300.0
 97
0
 75
1
 76
1
 98
0
  0
HATCH
  5
55
330
17
100
AcDbEntity
  8
M-TASI-BETONARME-T
100
AcDbHatch
 10
0.0
 20
0.0
 30
0.0
210
0.0
220
0.0
230
1.0
  2
SOLID
 70
1
 71
0
 91
1
 92
3
 72
0
 73
1
 93
4
 10
532.5
 20
-590.0
 10
592.5
 20
-590.0
 10
592.5
 20
-620.0
 10
532.5
 20
-620.0
 97
0
 75
1
 76
1
 98
0
  0
HATCH
  5
56
330
17
100
AcDbEntity
  8
M-TASI-BETONARME-T
 62
7
100
AcDbHatch
 10
0.0
 20
0.0
 30
0.0
210
0.0
220
0.0
230
1.0
  2
ANSI31
 70
0
 71
0
 91
1
 92
3
 72
0
 73
1
 93
4
 10
532.5
 20
-300.0
 10
547.5
 20
-300.0
 10
547.5
 20
-590.0
 10
532.5
 20
-590.0
 97
0
 75
1
 76
1
 52
0.0
 41
3.0
 77
0
 78
1
 53
45.0
 43
0.0
 44
0.0
 45
-6.7351920909
 46
6.7351920909
 79
0
 98
0
  0
LWPOLYLINE
  5
58
330
17
100
AcDbEntity
  8
M-TASI-BETONARME
100
AcDbPolyline
 90
4
 70
1
 10
532.5
 20
-300.0
 10
547.5
 20
-300.0
 10
547.5
 20
-590.0
 10
532.5
 20
-590.0
  0
LWPOLYLINE
  5
5B
330
17
100
AcDbEntity
  8
M-MERD-BETONARME
100
AcDbPolyline
 90
26
 70
1
 10
155.49999999999997
 20
-590.0
 10
155.49999999999997
 20
-573.1578947368421
 10
183.49999999999994
 20
-573.1578947368421
 10
183.49999999999994
 20
-556.3157894736843
 10
211.5
 20
-556.3157894736843
 10
211.5
 20
-539.4736842105262
 10
239.50000000000003
 20
-539.4736842105262
 10
239.4999999999999
 20
-522.6315789473686
 10
267.49999999999994
 20
-522.6315789473686
 10
267.49999999999994
 20
-505.7894736842105
 10
295.5
 20
-505.7894736842105
 10
295.5
 20
-488.9473684210526
 10
323.5
 20
-488.9473684210526
 10
323.4999999999999
 20
-472.10526315789474
 10
351.4999999999999
 20
-472.10526315789474
 10
351.4999999999999
 20
-455.2631578947369
 10
379.49999999999994
 20
-455.2631578947369
 10
379.49999999999994
 20
-438.4210526315789
 10
407.49999999999994
 20
-438.4210526315789
 10
407.49999999999994
 20
-421.5789473684211
 10
407.49999999999994
 20
-421.5789473684211
 10
532.5
 20
-421.5789473684211
 10
532.5
 20
-439.57894736842104
 10
417.4999999999999
 20
-439.57894736842104
 10
165.4999999999999
 20
-600.0
 10
155.49999999999997
 20
-600.0
  0
LWPOLYLINE
  5
5D
330
17
100
AcDbEntity
  8
M-MERD-BETONARME-2
100
AcDbPolyline
 90
19
 70
0
 10
407.49999999999994
 20
-421.5789473684211
 10
407.49999999999994
 20
-404.7368421052631
 10
379.49999999999994
 20
-404.7368421052631
 10
379.49999999999994
 20
-387.89473684210526
 10
351.4999999999999
 20
-387.89473684210526
 10
351.5
 20
-371.0526315789474
 10
323.5
 20
-371.0526315789474
 10
323.5
 20
-354.2105263157895
 10
295.5
 20
-354.2105263157895
 10
295.5
 20
-337.36842105263156
 10
267.49999999999994
 20
-337.36842105263156
 10
267.49999999999994
 20
-320.5263157894737
 10
239.4999999999999
 20
-320.5263157894737
 10
239.4999999999999
 20
-303.6842105263157
 10
211.49999999999991
 20
-303.6842105263157
 10
211.5
 20
-286.8421052631579
 10
183.49999999999994
 20
-286.8421052631579
 10
183.49999999999994
 20
-270.0
 10
183.49999999999994
 20
-270.0
  0
LINE
  5
5E
330
17
100
AcDbEntity
  8
M-MERD-BETONARME-2
100
AcDbLine
 10
407.49999999999994
 20
-439.57894736842104
 30
0.0
 11
183.49999999999994
 21
-288.0
 31
0.0
  0
LWPOLYLINE
  5
5F
330
17
100
AcDbEntity
  8
M-MERD-BETONARME
100
AcDbPolyline
 90
4
 70
1
 10
152.49999999999986
 20
-573.1578947368421
 10
183.4999999999999
 20
-573.1578947368421
 10
183.4999999999999
 20
-576.1578947368421
 10
152.49999999999986
 20
-576.1578947368421
  0
LWPOLYLINE
  5
60
330
17
100
AcDbEntity
  8
M-MERD-BETONARME
100
AcDbPolyline
 90
4
 70
1
 10
180.49999999999997
 20
-556.3157894736843
 10
211.5
 20
-556.3157894736843
 10
211.5
 20
-559.3157894736842
 10
180.49999999999997
 20
-559.3157894736842
  0
LWPOLYLINE
  5
61
330
17
100
AcDbEntity
  8
M-MERD-BETONARME
100
AcDbPolyline
 90
4
 70
1
 10
208.49999999999994
 20
-539.4736842105262
 10
239.49999999999994
 20
-539.4736842105262
 10
239.49999999999994
 20
-542.4736842105262
 10
208.49999999999994
 20
-542.4736842105262
  0
LWPOLYLINE
  5
62
330
17
100
AcDbEntity
  8
M-MERD-BETONARME
100
AcDbPolyline
 90
4
 70
1
 10
236.49999999999991
 20
-522.6315789473686
 10
267.49999999999994
 20
-522.6315789473686
 10
267.49999999999994
 20
-525.6315789473684
 10
236.49999999999991
 20
-525.6315789473684
  0
LWPOLYLINE
  5
63
330
17
100
AcDbEntity
  8
M-MERD-BETONARME
100
AcDbPolyline
 90
4
 70
1
 10
264.4999999999999
 20
-505.7894736842105
 10
295.4999999999999
 20
-505.7894736842105
 10
295.4999999999999
 20
-508.7894736842105
 10
264.4999999999999
 20
-508.7894736842105
  0
LWPOLYLINE
  5
64
330
17
100
AcDbEntity
  8
M-MERD-BETONARME
100
AcDbPolyline
 90
4
 70
1
 10
292.49999999999994
 20
-488.9473684210526
 10
323.49999999999994
 20
-488.9473684210526
 10
323.49999999999994
 20
-491.9473684210526
 10
292.49999999999994
 20
-491.9473684210526
  0
LWPOLYLINE
  5
65
330
17
100
AcDbEntity
  8
M-MERD-BETONARME
100
AcDbPolyline
 90
4
 70
1
 10
320.4999999999999
 20
-472.10526315789474
 10
351.4999999999999
 20
-472.10526315789474
 10
351.4999999999999
 20
-475.1052631578947
 10
320.4999999999999
 20
-475.1052631578947
  0
LWPOLYLINE
  5
66
330
17
100
AcDbEntity
  8
M-MERD-BETONARME
100
AcDbPolyline
 90
4
 70
1
 10
348.4999999999999
 20
-455.2631578947369
 10
379.4999999999999
 20
-455.2631578947369
 10
379.4999999999999
 20
-458.2631578947368
 10
348.4999999999999
 20
-458.2631578947368
  0
LWPOLYLINE
  5
67
330
17
100
AcDbEntity
  8
M-MERD-BETONARME
100
AcDbPolyline
 90
4
 70
1
 10
376.4999999999999
 20
-438.4210526315789
 10
407.49999999999994
 20
-438.4210526315789
 10
407.49999999999994
 20
-441.42105263157885
 10
376.4999999999999
 20
-441.42105263157885
  0
LWPOLYLINE
  5
68
330
17
100
AcDbEntity
  8
M-MERD-BETONARME
100
AcDbPolyline
 90
4
 70
1
 10
404.5
 20
-421.5789473684211
 10
435.50000000000006
 20
-421.5789473684211
 10
435.50000000000006
 20
-424.57894736842104
 10
404.5
 20
-424.57894736842104
  0
LINE
  5
6A
330
17
100
AcDbEntity
  8
M-KORK-CAM
100
AcDbLine
 10
155.49999999999997
 20
-495.0
 30
0.0
 11
407.49999999999994
 21
-326.57894736842104
 31
0.0
  0
LINE
  5
6B
330
17
100
AcDbEntity
  8
M-KORK-CAM
  6
ACAD_ISO02W100
100
AcDbLine
 10
155.49999999999997
 20
-585.0
 30
0.0
 11
407.49999999999994
 21
-416.5789473684211
 31
0.0
  0
LINE
  5
6C
330
17
100
AcDbEntity
  8
M-KORK-CAM
100
AcDbLine
 10
135.49999999999997
 20
-495.0
 30
0.0
 11
155.49999999999997
 21
-495.0
 31
0.0
  0
DIMENSION
  5
6F
330
17
100
AcDbEntity
  8
M-GOST-DISOLCU
100
AcDbDimension
280
0
  2
*D1
  3
MIMARI-1-50
 10
155.49999999999997
 20
-650.0
 30
0.0
 11
169.49999999999994
 21
-644.26
 31
0.0
 70
32
 71
5
  1
<>
100
AcDbAlignedDimension
 13
155.49999999999997
 23
-650.0
 33
0.0
 14
183.49999999999994
 24
-650.0
 34
0.0
 50
0.0
100
AcDbRotatedDimension
  0
DIMENSION
  5
82
330
17
100
AcDbEntity
  8
M-GOST-DISOLCU
100
AcDbDimension
280
0
  2
*D2
  3
MIMARI-1-50
 10
183.49999999999994
 20
-650.0
 30
0.0
 11
197.49999999999997
 21
-644.26
 31
0.0
 70
32
 71
5
  1
<>
100
AcDbAlignedDimension
 13
183.49999999999994
 23
-650.0
 33
0.0
 14
211.5
 24
-650.0
 34
0.0
 50
0.0
100
AcDbRotatedDimension
  0
DIMENSION
  5
91
330
17
100
AcDbEntity
  8
M-GOST-DISOLCU
100
AcDbDimension
280
0
  2
*D3
  3
MIMARI-1-50
 10
211.5
 20
-650.0
 30
0.0
 11
225.5
 21
-644.26
 31
0.0
 70
32
 71
5
  1
<>
100
AcDbAlignedDimension
 13
211.5
 23
-650.0
 33
0.0
 14
239.50000000000003
 24
-650.0
 34
0.0
 50
0.0
100
AcDbRotatedDimension
  0
DIMENSION
  5
A0
330
17
100
AcDbEntity
  8
M-GOST-DISOLCU
100
AcDbDimension
280
0
  2
*D4
  3
MIMARI-1-50
 10
239.50000000000003
 20
-650.0
 30
0.0
 11
253.5
 21
-644.26
 31
0.0
 70
32
 71
5
  1
<>
100
AcDbAlignedDimension
 13
239.50000000000003
 23
-650.0
 33
0.0
 14
267.5
 24
-650.0
 34
0.0
 50
0.0
100
AcDbRotatedDimension
  0
DIMENSION
  5
AF
330
17
100
AcDbEntity
  8
M-GOST-DISOLCU
100
AcDbDimension
280
0
  2
*D5
  3
MIMARI-1-50
 10
267.5
 20
-650.0
 30
0.0
 11
281.5
 21
-644.26
 31
0.0
 70
32
 71
5
  1
<>
100
AcDbAlignedDimension
 13
267.5
 23
-650.0
 33
0.0
 14
295.5
 24
-650.0
 34
0.0
 50
0.0
100
AcDbRotatedDimension
  0
DIMENSION
  5
BE
330
17
100
AcDbEntity
  8
M-GOST-DISOLCU
100
AcDbDimension
280
0
  2
*D6
  3
MIMARI-1-50
 10
295.5
 20
-650.0
 30
0.0
 11
309.5
 21
-644.26
 31
0.0
 70
32
 71
5
  1
<>
100
AcDbAlignedDimension
 13
295.5
 23
-650.0
 33
0.0
 14
323.5
 24
-650.0
 34
0.0
 50
0.0
100
AcDbRotatedDimension
  0
DIMENSION
  5
CD
330
17
100
AcDbEntity
  8
M-GOST-DISOLCU
100
AcDbDimension
280
0
  2
*D7
  3
MIMARI-1-50
 10
323.5
 20
-650.0
 30
0.0
 11
337.5
 21
-644.26
 31
0.0
 70
32
 71
5
  1
<>
100
AcDbAlignedDimension
 13
323.5
 23
-650.0
 33
0.0
 14
351.5
 24
-650.0
 34
0.0
 50
0.0
100
AcDbRotatedDimension
  0
DIMENSION
  5
DC
330
17
100
AcDbEntity
  8
M-GOST-DISOLCU
100
AcDbDimension
280
0
  2
*D8
  3
MIMARI-1-50
 10
351.5
 20
-650.0
 30
0.0
 11
365.5
 21
-644.26
 31
0.0
 70
32
 71
5
  1
<>
100
AcDbAlignedDimension
 13
351.5
 23
-650.0
 33
0.0
 14
379.49999999999994
 24
-650.0
 34
0.0
 50
0.0
100
AcDbRotatedDimension
  0
DIMENSION
  5
EB
330
17
100
AcDbEntity
  8
M-GOST-DISOLCU
100
AcDbDimension
280
0
  2
*D9
  3
MIMARI-1-50
 10
379.49999999999994
 20
-650.0
 30
0.0
 11
393.49999999999994
 21
-644.26
 31
0.0
 70
32
 71
5
  1
<>
100
AcDbAlignedDimension
 13
379.49999999999994
 23
-650.0
 33
0.0
 14
407.49999999999994
 24
-650.0
 34
0.0
 50
0.0
100
AcDbRotatedDimension
  0
DIMENSION
  5
FA
330
17
100
AcDbEntity
  8
M-GOST-DISOLCU
100
AcDbDimension
280
0
  2
*D10
  3
MIMARI-1-50
 10
407.49999999999994
 20
-650.0
 30
0.0
 11
470.0
 21
-644.26
 31
0.0
 70
32
 71
5
  1
<>
100
AcDbAlignedDimension
 13
407.49999999999994
 23
-650.0
 33
0.0
 14
532.5
 24
-650.0
 34
0.0
 50
0.0
100
AcDbRotatedDimension
  0
DIMENSION
  5
109
330
17
100
AcDbEntity
  8
M-GOST-DISOLCU
100
AcDbDimension
280
0
  2
*D11
  3
MIMARI-1-50
 10
-40.0
 20
-590.0
 30
0.0
 11
-45.74
 21
-505.79
 31
0.0
 70
32
 71
5
  1
<>
100
AcDbAlignedDimension
 13
-40.0
 23
-590.0
 33
0.0
 14
-40.0
 24
-421.58000000000004
 34
0.0
 50
90.0
100
AcDbRotatedDimension
  0
DIMENSION
  5
118
330
17
100
AcDbEntity
  8
M-GOST-DISOLCU
100
AcDbDimension
280
0
  2
*D12
  3
MIMARI-1-50
 10
-40.0
 20
-421.58000000000004
 30
0.0
 11
-45.74
 21
-345.79
 31
0.0
 70
32
 71
5
  1
<>
100
AcDbAlignedDimension
 13
-40.0
 23
-421.58000000000004
 33
0.0
 14
-40.0
 24
-270.0
 34
0.0
 50
90.0
100
AcDbRotatedDimension
  0
LWPOLYLINE
  5
128
330
17
100
AcDbEntity
  8
M-GOST-KESITKOT
100
AcDbPolyline
 90
3
 70
1
 10
604.5
 20
-580.5
 10
615.5
 20
-580.5
 10
610.0
 20
-590.0
  0
HATCH
  5
129
330
17
100
AcDbEntity
  8
M-GOST-KESITKOT
100
AcDbHatch
 10
0.0
 20
0.0
 30
0.0
210
0.0
220
0.0
230
1.0
  2
SOLID
 70
1
 71
0
 91
1
 92
3
 72
0
 73
1
 93
3
 10
604.5
 20
-580.5
 10
610.0
 20
-580.5
 10
610.0
 20
-590.0
 97
0
 75
1
 76
1
 98
0
  0
TEXT
  5
12A
330
17
100
AcDbEntity
  8
M-GOST-KESITKOT
100
AcDbText
 10
619.0
 20
-588.0
 30
0.0
 40
7.199999999999999
  1
%%p0.00
  7
YAZI-KALIN
 11
619.0
 21
-588.0
 31
0.0
100
AcDbText
  0
LWPOLYLINE
  5
12B
330
17
100
AcDbEntity
  8
M-GOST-KESITKOT
100
AcDbPolyline
 90
3
 70
1
 10
604.5
 20
-412.07894736842104
 10
615.5
 20
-412.07894736842104
 10
610.0
 20
-421.5789473684211
  0
HATCH
  5
12C
330
17
100
AcDbEntity
  8
M-GOST-KESITKOT
100
AcDbHatch
 10
0.0
 20
0.0
 30
0.0
210
0.0
220
0.0
230
1.0
  2
SOLID
 70
1
 71
0
 91
1
 92
3
 72
0
 73
1
 93
3
 10
604.5
 20
-412.07894736842104
 10
610.0
 20
-412.07894736842104
 10
610.0
 20
-421.5789473684211
 97
0
 75
1
 76
1
 98
0
  0
TEXT
  5
12D
330
17
100
AcDbEntity
  8
M-GOST-KESITKOT
100
AcDbText
 10
619.0
 20
-419.57894736842104
 30
0.0
 40
7.199999999999999
  1
+1.68
  7
YAZI-KALIN
 11
619.0
 21
-419.57894736842104
 31
0.0
100
AcDbText
  0
LWPOLYLINE
  5
12E
330
17
100
AcDbEntity
  8
M-GOST-KESITKOT
100
AcDbPolyline
 90
3
 70
1
 10
604.5
 20
-260.5
 10
615.5
 20
-260.5
 10
610.0
 20
-270.0
  0
HATCH
  5
12F
330
17
100
AcDbEntity
  8
M-GOST-KESITKOT
100
AcDbHatch
 10
0.0
 20
0.0
 30
0.0
210
0.0
220
0.0
230
1.0
  2
SOLID
 70
1
 71
0
 91
1
 92
3
 72
0
 73
1
 93
3
 10
604.5
 20
-260.5
 10
610.0
 20
-260.5
 10
610.0
 20
-270.0
 97
0
 75
1
 76
1
 98
0
  0
TEXT
  5
130
330
17
100
AcDbEntity
  8
M-GOST-KESITKOT
100
AcDbText
 10
619.0
 20
-268.0
 30
0.0
 40
7.199999999999999
  1
+3.20
  7
YAZI-KALIN
 11
619.0
 21
-268.0
 31
0.0
100
AcDbText
  0
TEXT
  5
131
330
17
100
AcDbEntity
  8
M-GOST-DISOLCU
100
AcDbText
 10
300.0
 20
-715.0
 30
0.0
 40
10.08
  1
KESİT M–M (batı kol) · Ö: 1/50
  7
YAZI-KALIN
 72
1
 11
300.0
 21
-715.0
 31
0.0
100
AcDbText
  0
TEXT
  5
132
330
17
100
AcDbEntity
  8
M-GOST-DISOLCU
100
AcDbText
 10
40.0
 20
-330.0
 30
0.0
 40
6.48
  1
baş yüksekliği ≥ 2,20
  7
YAZI
 11
40.0
 21
-330.0
 31
0.0
100
AcDbText
  0
LWPOLYLINE
  5
133
330
17
100
AcDbEntity
  8
M-MERD-BETONARME
100
AcDbPolyline
 90
4
 70
1
 10
750.0
 20
-80.0
 10
1010.0
 20
-80.0
 10
1010.0
 20
-560.0
 10
750.0
 20
-560.0
  0
HATCH
  5
134
330
17
100
AcDbEntity
  8
M-MERD-BETONARME-T
 62
7
100
AcDbHatch
 10
0.0
 20
0.0
 30
0.0
210
0.0
220
0.0
230
1.0
  2
ANSI31
 70
0
 71
0
 91
1
 92
3
 72
0
 73
1
 93
4
 10
1002.5
 20
-80.0
 10
1017.5
 20
-80.0
 10
1017.5
 20
-560.0
 10
1002.5
 20
-560.0
 97
0
 75
1
 76
1
 52
0.0
 41
3.0
 77
0
 78
1
 53
45.0
 43
0.0
 44
0.0
 45
-6.7351920909
 46
6.7351920909
 79
0
 98
0
  0
LWPOLYLINE
  5
135
330
17
100
AcDbEntity
  8
M-MERD-BETONARME
100
AcDbPolyline
 90
4
 70
1
 10
1002.5
 20
-80.0
 10
1017.5
 20
-80.0
 10
1017.5
 20
-560.0
 10
1002.5
 20
-560.0
  0
HATCH
  5
136
330
17
100
AcDbEntity
  8
M-MERD-BETONARME-T
100
AcDbHatch
 10
0.0
 20
0.0
 30
0.0
210
0.0
220
0.0
230
1.0
  2
SOLID
 70
1
 71
0
 91
1
 92
3
 72
0
 73
1
 93
4
 10
750.0
 20
-552.5
 10
1010.0
 20
-552.5
 10
1010.0
 20
-567.5
 10
750.0
 20
-567.5
 97
0
 75
1
 76
1
 98
0
  0
LINE
  5
137
330
17
100
AcDbEntity
  8
M-MERD-BETONARME
100
AcDbLine
 10
755.0
 20
-175.4999999999999
 30
0.0
 11
875.0
 21
-175.4999999999999
 31
0.0
  0
LINE
  5
138
330
17
100
AcDbEntity
  8
M-MERD-BETONARME
100
AcDbLine
 10
755.0
 20
-203.49999999999994
 30
0.0
 11
875.0
 21
-203.49999999999994
 31
0.0
  0
LINE
  5
139
330
17
100
AcDbEntity
  8
M-MERD-BETONARME
100
AcDbLine
 10
755.0
 20
-231.49999999999991
 30
0.0
 11
875.0
 21
-231.49999999999991
 31
0.0
  0
LINE
  5
13A
330
17
100
AcDbEntity
  8
M-MERD-BETONARME
100
AcDbLine
 10
755.0
 20
-259.4999999999999
 30
0.0
 11
875.0
 21
-259.4999999999999
 31
0.0
  0
LINE
  5
13B
330
17
100
AcDbEntity
  8
M-MERD-BETONARME
100
AcDbLine
 10
755.0
 20
-287.49999999999994
 30
0.0
 11
875.0
 21
-287.49999999999994
 31
0.0
  0
LINE
  5
13C
330
17
100
AcDbEntity
  8
M-MERD-BETONARME
100
AcDbLine
 10
755.0
 20
-315.5
 30
0.0
 11
875.0
 21
-315.5
 31
0.0
  0
LINE
  5
13D
330
17
100
AcDbEntity
  8
M-MERD-BETONARME
100
AcDbLine
 10
755.0
 20
-343.4999999999999
 30
0.0
 11
875.0
 21
-343.4999999999999
 31
0.0
  0
LINE
  5
13E
330
17
100
AcDbEntity
  8
M-MERD-BETONARME
100
AcDbLine
 10
755.0
 20
-371.4999999999999
 30
0.0
 11
875.0
 21
-371.4999999999999
 31
0.0
  0
LINE
  5
13F
330
17
100
AcDbEntity
  8
M-MERD-BETONARME
100
AcDbLine
 10
755.0
 20
-399.49999999999994
 30
0.0
 11
875.0
 21
-399.49999999999994
 31
0.0
  0
LINE
  5
140
330
17
100
AcDbEntity
  8
M-MERD-BETONARME
100
AcDbLine
 10
755.0
 20
-427.49999999999994
 30
0.0
 11
875.0
 21
-427.49999999999994
 31
0.0
  0
LINE
  5
141
330
17
100
AcDbEntity
  8
M-MERD-BETONARME
  6
ACAD_ISO02W100
100
AcDbLine
 10
885.0
 20
-427.49999999999994
 30
0.0
 11
1002.5
 21
-427.49999999999994
 31
0.0
  0
LINE
  5
142
330
17
100
AcDbEntity
  8
M-MERD-BETONARME
  6
ACAD_ISO02W100
100
AcDbLine
 10
885.0
 20
-399.49999999999994
 30
0.0
 11
1002.5
 21
-399.49999999999994
 31
0.0
  0
LINE
  5
143
330
17
100
AcDbEntity
  8
M-MERD-BETONARME
  6
ACAD_ISO02W100
100
AcDbLine
 10
885.0
 20
-371.5
 30
0.0
 11
1002.5
 21
-371.5
 31
0.0
  0
LINE
  5
144
330
17
100
AcDbEntity
  8
M-MERD-BETONARME
  6
ACAD_ISO02W100
100
AcDbLine
 10
885.0
 20
-343.49999999999994
 30
0.0
 11
1002.5
 21
-343.49999999999994
 31
0.0
  0
LINE
  5
145
330
17
100
AcDbEntity
  8
M-MERD-BETONARME
  6
ACAD_ISO02W100
100
AcDbLine
 10
885.0
 20
-315.5
 30
0.0
 11
1002.5
 21
-315.5
 31
0.0
  0
LINE
  5
146
330
17
100
AcDbEntity
  8
M-MERD-BETONARME
  6
ACAD_ISO02W100
100
AcDbLine
 10
885.0
 20
-287.49999999999994
 30
0.0
 11
1002.5
 21
-287.49999999999994
 31
0.0
  0
LINE
  5
147
330
17
100
AcDbEntity
  8
M-MERD-BETONARME
  6
ACAD_ISO02W100
100
AcDbLine
 10
885.0
 20
-259.4999999999999
 30
0.0
 11
1002.5
 21
-259.4999999999999
 31
0.0
  0
LINE
  5
148
330
17
100
AcDbEntity
  8
M-MERD-BETONARME
  6
ACAD_ISO02W100
100
AcDbLine
 10
885.0
 20
-231.49999999999991
 30
0.0
 11
1002.5
 21
-231.49999999999991
 31
0.0
  0
LINE
  5
149
330
17
100
AcDbEntity
  8
M-MERD-BETONARME
  6
ACAD_ISO02W100
100
AcDbLine
 10
885.0
 20
-203.49999999999994
 30
0.0
 11
1002.5
 21
-203.49999999999994
 31
0.0
  0
LINE
  5
14A
330
17
100
AcDbEntity
  8
M-MERD-BETONARME
  6
ACAD_ISO02W100
100
AcDbLine
 10
885.0
 20
-175.4999999999999
 30
0.0
 11
1002.5
 21
-175.4999999999999
 31
0.0
  0
LINE
  5
14B
330
17
100
AcDbEntity
  8
M-MERD-BETONARME
100
AcDbLine
 10
755.0
 20
-175.49999999999997
 30
0.0
 11
755.0
 21
-427.49999999999994
 31
0.0
  0
LINE
  5
14C
330
17
100
AcDbEntity
  8
M-MERD-BETONARME
100
AcDbLine
 10
875.0
 20
-175.49999999999997
 30
0.0
 11
875.0
 21
-427.49999999999994
 31
0.0
  0
LINE
  5
14D
330
17
100
AcDbEntity
  8
M-MERD-BETONARME
100
AcDbLine
 10
885.0
 20
-203.49999999999994
 30
0.0
 11
885.0
 21
-427.49999999999994
 31
0.0
  0
LINE
  5
14E
330
17
100
AcDbEntity
  8
M-MERD-BETONARME
100
AcDbLine
 10
1002.5
 20
-203.49999999999994
 30
0.0
 11
1002.5
 21
-427.49999999999994
 31
0.0
  0
HATCH
  5
150
330
17
100
AcDbEntity
  8
M-ZMNK-DOGALTAS-T
 62
7
100
AcDbHatch
 10
0.0
 20
0.0
 30
0.0
210
0.0
220
0.0
230
1.0
  2
NET
 70
0
 71
0
 91
1
 92
3
 72
0
 73
1
 93
4
 10
755.0
 20
-427.49999999999994
 10
1002.5
 20
-427.49999999999994
 10
1002.5
 20
-552.5
 10
755.0
 20
-552.5
 97
0
 75
1
 76
1
 52
0.0
 41
8.0
 77
0
 78
2
 53
0.0
 43
0.0
 44
0.0
 45
0.0
 46
25.4
 79
0
 53
90.0
 43
0.0
 44
0.0
 45
-25.4
 46
0.0
 79
0
 98
0
  0
LWPOLYLINE
  5
151
330
17
100
AcDbEntity
  8
M-MERD-BETONARME
100
AcDbPolyline
 90
4
 70
1
 10
755.0
 20
-427.49999999999994
 10
1002.5
 20
-427.49999999999994
 10
1002.5
 20
-552.5
 10
755.0
 20
-552.5
  0
LINE
  5
152
330
17
100
AcDbEntity
  8
M-MERD-BETONARME
100
AcDbLine
 10
751.9999999999999
 20
-175.4999999999999
 30
0.0
 11
751.9999999999999
 21
-560.0
 31
0.0
  0
LINE
  5
153
330
17
100
AcDbEntity
  8
M-MERD-BETONARME
100
AcDbLine
 10
815.0
 20
-160.5
 30
0.0
 11
815.0
 21
-480.0
 31
0.0
  0
LINE
  5
154
330
17
100
AcDbEntity
  8
M-MERD-BETONARME
100
AcDbLine
 10
943.75
 20
-480.0
 30
0.0
 11
943.75
 21
-193.5
 31
0.0
  0
TEXT
  5
156
330
17
100
AcDbEntity
  8
M-GOST-MERDIVEPOZ
100
AcDbText
 10
761.0
 20
-192.9999999999999
 30
0.0
 40
5.76
  1
1
  7
YAZI
 11
761.0
 21
-192.9999999999999
 31
0.0
100
AcDbText
  0
TEXT
  5
157
330
17
100
AcDbEntity
  8
M-GOST-MERDIVEPOZ
100
AcDbText
 10
761.0
 20
-220.9999999999999
 30
0.0
 40
5.76
  1
2
  7
YAZI
 11
761.0
 21
-220.9999999999999
 31
0.0
100
AcDbText
  0
TEXT
  5
158
330
17
100
AcDbEntity
  8
M-GOST-MERDIVEPOZ
100
AcDbText
 10
761.0
 20
-249.0
 30
0.0
 40
5.76
  1
3
  7
YAZI
 11
761.0
 21
-249.0
 31
0.0
100
AcDbText
  0
TEXT
  5
159
330
17
100
AcDbEntity
  8
M-GOST-MERDIVEPOZ
100
AcDbText
 10
761.0
 20
-276.9999999999999
 30
0.0
 40
5.76
  1
4
  7
YAZI
 11
761.0
 21
-276.9999999999999
 31
0.0
100
AcDbText
  0
TEXT
  5
15A
330
17
100
AcDbEntity
  8
M-GOST-MERDIVEPOZ
100
AcDbText
 10
761.0
 20
-304.99999999999994
 30
0.0
 40
5.76
  1
5
  7
YAZI
 11
761.0
 21
-304.99999999999994
 31
0.0
100
AcDbText
  0
TEXT
  5
15B
330
17
100
AcDbEntity
  8
M-GOST-MERDIVEPOZ
100
AcDbText
 10
761.0
 20
-332.9999999999999
 30
0.0
 40
5.76
  1
6
  7
YAZI
 11
761.0
 21
-332.9999999999999
 31
0.0
100
AcDbText
  0
TEXT
  5
15C
330
17
100
AcDbEntity
  8
M-GOST-MERDIVEPOZ
100
AcDbText
 10
761.0
 20
-360.9999999999999
 30
0.0
 40
5.76
  1
7
  7
YAZI
 11
761.0
 21
-360.9999999999999
 31
0.0
100
AcDbText
  0
TEXT
  5
15D
330
17
100
AcDbEntity
  8
M-GOST-MERDIVEPOZ
100
AcDbText
 10
761.0
 20
-388.9999999999999
 30
0.0
 40
5.76
  1
8
  7
YAZI
 11
761.0
 21
-388.9999999999999
 31
0.0
100
AcDbText
  0
TEXT
  5
15E
330
17
100
AcDbEntity
  8
M-GOST-MERDIVEPOZ
100
AcDbText
 10
761.0
 20
-416.9999999999999
 30
0.0
 40
5.76
  1
9
  7
YAZI
 11
761.0
 21
-416.9999999999999
 31
0.0
100
AcDbText
  0
TEXT
  5
15F
330
17
100
AcDbEntity
  8
M-GOST-MERDIVEPOZ
100
AcDbText
 10
761.0
 20
-445.0
 30
0.0
 40
5.76
  1
10
  7
YAZI
 11
761.0
 21
-445.0
 31
0.0
100
AcDbText
  0
TEXT
  5
160
330
17
100
AcDbEntity
  8
M-GOST-MERDIVEPOZ
100
AcDbText
 10
996.5
 20
-417.0
 30
0.0
 40
5.76
  1
11
  7
YAZI
 72
2
 11
996.5
 21
-417.0
 31
0.0
100
AcDbText
  0
TEXT
  5
161
330
17
100
AcDbEntity
  8
M-GOST-MERDIVEPOZ
100
AcDbText
 10
996.5
 20
-389.0
 30
0.0
 40
5.76
  1
12
  7
YAZI
 72
2
 11
996.5
 21
-389.0
 31
0.0
100
AcDbText
  0
TEXT
  5
162
330
17
100
AcDbEntity
  8
M-GOST-MERDIVEPOZ
100
AcDbText
 10
996.5
 20
-361.0
 30
0.0
 40
5.76
  1
13
  7
YAZI
 72
2
 11
996.5
 21
-361.0
 31
0.0
100
AcDbText
  0
TEXT
  5
163
330
17
100
AcDbEntity
  8
M-GOST-MERDIVEPOZ
100
AcDbText
 10
996.5
 20
-333.00000000000006
 30
0.0
 40
5.76
  1
14
  7
YAZI
 72
2
 11
996.5
 21
-333.00000000000006
 31
0.0
100
AcDbText
  0
TEXT
  5
164
330
17
100
AcDbEntity
  8
M-GOST-MERDIVEPOZ
100
AcDbText
 10
996.5
 20
-305.0
 30
0.0
 40
5.76
  1
15
  7
YAZI
 72
2
 11
996.5
 21
-305.0
 31
0.0
100
AcDbText
  0
TEXT
  5
165
330
17
100
AcDbEntity
  8
M-GOST-MERDIVEPOZ
100
AcDbText
 10
996.5
 20
-276.99999999999994
 30
0.0
 40
5.76
  1
16
  7
YAZI
 72
2
 11
996.5
 21
-276.99999999999994
 31
0.0
100
AcDbText
  0
TEXT
  5
166
330
17
100
AcDbEntity
  8
M-GOST-MERDIVEPOZ
100
AcDbText
 10
996.5
 20
-249.0
 30
0.0
 40
5.76
  1
17
  7
YAZI
 72
2
 11
996.5
 21
-249.0
 31
0.0
100
AcDbText
  0
TEXT
  5
167
330
17
100
AcDbEntity
  8
M-GOST-MERDIVEPOZ
100
AcDbText
 10
996.5
 20
-221.0
 30
0.0
 40
5.76
  1
18
  7
YAZI
 72
2
 11
996.5
 21
-221.0
 31
0.0
100
AcDbText
  0
TEXT
  5
168
330
17
100
AcDbEntity
  8
M-GOST-MERDIVEPOZ
100
AcDbText
 10
996.5
 20
-192.99999999999997
 30
0.0
 40
5.76
  1
19
  7
YAZI
 72
2
 11
996.5
 21
-192.99999999999997
 31
0.0
100
AcDbText
  0
DIMENSION
  5
169
330
17
100
AcDbEntity
  8
M-GOST-DISOLCU
100
AcDbDimension
280
0
  2
*D13
  3
MIMARI-1-50
 10
750.0
 20
-55.0
 30
0.0
 11
752.5
 21
-43.26
 31
0.0
 70
32
 71
5
  1
<>
100
AcDbAlignedDimension
 13
750.0
 23
-55.0
 33
0.0
 14
755.0
 24
-55.0
 34
0.0
 50
0.0
100
AcDbRotatedDimension
  0
DIMENSION
  5
178
330
17
100
AcDbEntity
  8
M-GOST-DISOLCU
100
AcDbDimension
280
0
  2
*D14
  3
MIMARI-1-50
 10
755.0
 20
-55.0
 30
0.0
 11
815.0
 21
-49.26
 31
0.0
 70
32
 71
5
  1
<>
100
AcDbAlignedDimension
 13
755.0
 23
-55.0
 33
0.0
 14
875.0
 24
-55.0
 34
0.0
 50
0.0
100
AcDbRotatedDimension
  0
DIMENSION
  5
187
330
17
100
AcDbEntity
  8
M-GOST-DISOLCU
100
AcDbDimension
280
0
  2
*D15
  3
MIMARI-1-50
 10
875.0
 20
-55.0
 30
0.0
 11
880.0
 21
-43.26
 31
0.0
 70
32
 71
5
  1
<>
100
AcDbAlignedDimension
 13
875.0
 23
-55.0
 33
0.0
 14
885.0
 24
-55.0
 34
0.0
 50
0.0
100
AcDbRotatedDimension
  0
DIMENSION
  5
196
330
17
100
AcDbEntity
  8
M-GOST-DISOLCU
100
AcDbDimension
280
0
  2
*D16
  3
MIMARI-1-50
 10
885.0
 20
-55.0
 30
0.0
 11
943.75
 21
-49.26
 31
0.0
 70
32
 71
5
  1
<>
100
AcDbAlignedDimension
 13
885.0
 23
-55.0
 33
0.0
 14
1002.5
 24
-55.0
 34
0.0
 50
0.0
100
AcDbRotatedDimension
  0
DIMENSION
  5
1A5
330
17
100
AcDbEntity
  8
M-GOST-DISOLCU
100
AcDbDimension
280
0
  2
*D17
  3
MIMARI-1-50
 10
1002.5
 20
-55.0
 30
0.0
 11
1006.25
 21
-49.26
 31
0.0
 70
32
 71
5
  1
<>
100
AcDbAlignedDimension
 13
1002.5
 23
-55.0
 33
0.0
 14
1010.0
 24
-55.0
 34
0.0
 50
0.0
100
AcDbRotatedDimension
  0
DIMENSION
  5
1B4
330
17
100
AcDbEntity
  8
M-GOST-DISOLCU
100
AcDbDimension
280
0
  2
*D18
  3
MIMARI-1-50
 10
1050.0
 20
-80.0
 30
0.0
 11
1055.74
 21
-127.74999999999999
 31
0.0
 70
32
 71
5
  1
<>
100
AcDbAlignedDimension
 13
1050.0
 23
-80.0
 33
0.0
 14
1050.0
 24
-175.49999999999997
 34
0.0
 50
90.0
100
AcDbRotatedDimension
  0
DIMENSION
  5
1C3
330
17
100
AcDbEntity
  8
M-GOST-DISOLCU
100
AcDbDimension
280
0
  2
*D19
  3
MIMARI-1-50
 10
1050.0
 20
-175.49999999999997
 30
0.0
 11
1055.74
 21
-301.49999999999994
 31
0.0
 70
32
 71
5
  1
<>
100
AcDbAlignedDimension
 13
1050.0
 23
-175.49999999999997
 33
0.0
 14
1050.0
 24
-427.49999999999994
 34
0.0
 50
90.0
100
AcDbRotatedDimension
  0
DIMENSION
  5
1D2
330
17
100
AcDbEntity
  8
M-GOST-DISOLCU
100
AcDbDimension
280
0
  2
*D20
  3
MIMARI-1-50
 10
1050.0
 20
-427.49999999999994
 30
0.0
 11
1055.74
 21
-490.0
 31
0.0
 70
32
 71
5
  1
<>
100
AcDbAlignedDimension
 13
1050.0
 23
-427.49999999999994
 33
0.0
 14
1050.0
 24
-552.5
 34
0.0
 50
90.0
100
AcDbRotatedDimension
  0
DIMENSION
  5
1E1
330
17
100
AcDbEntity
  8
M-GOST-DISOLCU
100
AcDbDimension
280
0
  2
*D21
  3
MIMARI-1-50
 10
1050.0
 20
-552.5
 30
0.0
 11
1055.74
 21
-556.25
 31
0.0
 70
32
 71
5
  1
<>
100
AcDbAlignedDimension
 13
1050.0
 23
-552.5
 33
0.0
 14
1050.0
 24
-560.0
 34
0.0
 50
90.0
100
AcDbRotatedDimension
  0
TEXT
  5
1F0
330
17
100
AcDbEntity
  8
M-GOST-MERDIVEPOZ
100
AcDbText
 10
880.0
 20
-605.0
 30
0.0
 40
10.08
  1
PLAN (zemin kat) · Ö: 1/50
  7
YAZI-KALIN
 72
1
 11
880.0
 21
-605.0
 31
0.0
100
AcDbText
  0
TEXT
  5
1F2
330
17
100
AcDbEntity
  8
M-GOST-TABLO
100
AcDbText
 10
0.0
 20
-750.0
 30
0.0
 40
9.36
  1
MERDİVEN HESABI (PAİY Md. 32 — konut içi merdiven)
  7
YAZI-KALIN
 11
0.0
 21
-750.0
 31
0.0
100
AcDbText
  0
TEXT
  5
1F3
330
17
100
AcDbEntity
  8
M-GOST-TABLO
100
AcDbText
 10
0.0
 20
-780.0
 30
0.0
 40
7.199999999999999
  1
Kat
  7
YAZI-KALIN
 11
0.0
 21
-780.0
 31
0.0
100
AcDbText
  0
TEXT
  5
1F4
330
17
100
AcDbEntity
  8
M-GOST-TABLO
100
AcDbText
 10
170.0
 20
-780.0
 30
0.0
 40
7.199999999999999
  1
Yükseklik
  7
YAZI-KALIN
 11
170.0
 21
-780.0
 31
0.0
100
AcDbText
  0
TEXT
  5
1F5
330
17
100
AcDbEntity
  8
M-GOST-TABLO
100
AcDbText
 10
280.0
 20
-780.0
 30
0.0
 40
7.199999999999999
  1
Rıht
  7
YAZI-KALIN
 11
280.0
 21
-780.0
 31
0.0
100
AcDbText
  0
TEXT
  5
1F6
330
17
100
AcDbEntity
  8
M-GOST-TABLO
100
AcDbText
 10
410.0
 20
-780.0
 30
0.0
 40
7.199999999999999
  1
Basamak
  7
YAZI-KALIN
 11
410.0
 21
-780.0
 31
0.0
100
AcDbText
  0
TEXT
  5
1F7
330
17
100
AcDbEntity
  8
M-GOST-TABLO
100
AcDbText
 10
510.0
 20
-780.0
 30
0.0
 40
7.199999999999999
  1
2r + b
  7
YAZI-KALIN
 11
510.0
 21
-780.0
 31
0.0
100
AcDbText
  0
TEXT
  5
1F8
330
17
100
AcDbEntity
  8
M-GOST-TABLO
100
AcDbText
 10
600.0
 20
-780.0
 30
0.0
 40
7.199999999999999
  1
Kol / sahanlık
  7
YAZI-KALIN
 11
600.0
 21
-780.0
 31
0.0
100
AcDbText
  0
TEXT
  5
1F9
330
17
100
AcDbEntity
  8
M-GOST-TABLO
100
AcDbText
 10
0.0
 20
-805.0
 30
0.0
 40
7.199999999999999
  1
Bodrum → Zemin
  7
YAZI
 11
0.0
 21
-805.0
 31
0.0
100
AcDbText
  0
TEXT
  5
1FA
330
17
100
AcDbEntity
  8
M-GOST-TABLO
100
AcDbText
 10
170.0
 20
-805.0
 30
0.0
 40
7.199999999999999
  1
3,06 m
  7
YAZI
 11
170.0
 21
-805.0
 31
0.0
100
AcDbText
  0
TEXT
  5
1FB
330
17
100
AcDbEntity
  8
M-GOST-TABLO
100
AcDbText
 10
280.0
 20
-805.0
 30
0.0
 40
7.199999999999999
  1
18 × 17,0 cm
  7
YAZI
 11
280.0
 21
-805.0
 31
0.0
100
AcDbText
  0
TEXT
  5
1FC
330
17
100
AcDbEntity
  8
M-GOST-TABLO
100
AcDbText
 10
410.0
 20
-805.0
 30
0.0
 40
7.199999999999999
  1
28 cm
  7
YAZI
 11
410.0
 21
-805.0
 31
0.0
100
AcDbText
  0
TEXT
  5
1FD
330
17
100
AcDbEntity
  8
M-GOST-TABLO
100
AcDbText
 10
510.0
 20
-805.0
 30
0.0
 40
7.199999999999999
  1
62,0
  7
YAZI
 11
510.0
 21
-805.0
 31
0.0
100
AcDbText
  0
TEXT
  5
1FE
330
17
100
AcDbEntity
  8
M-GOST-TABLO
100
AcDbText
 10
600.0
 20
-805.0
 30
0.0
 40
7.199999999999999
  1
1,20 / 1,25 m
  7
YAZI
 11
600.0
 21
-805.0
 31
0.0
100
AcDbText
  0
TEXT
  5
1FF
330
17
100
AcDbEntity
  8
M-GOST-TABLO
100
AcDbText
 10
0.0
 20
-830.0
 30
0.0
 40
7.199999999999999
  1
Zemin → 1. Kat
  7
YAZI
 11
0.0
 21
-830.0
 31
0.0
100
AcDbText
  0
TEXT
  5
200
330
17
100
AcDbEntity
  8
M-GOST-TABLO
100
AcDbText
 10
170.0
 20
-830.0
 30
0.0
 40
7.199999999999999
  1
3,20 m
  7
YAZI
 11
170.0
 21
-830.0
 31
0.0
100
AcDbText
  0
TEXT
  5
201
330
17
100
AcDbEntity
  8
M-GOST-TABLO
100
AcDbText
 10
280.0
 20
-830.0
 30
0.0
 40
7.199999999999999
  1
19 × 16,8 cm
  7
YAZI
 11
280.0
 21
-830.0
 31
0.0
100
AcDbText
  0
TEXT
  5
202
330
17
100
AcDbEntity
  8
M-GOST-TABLO
100
AcDbText
 10
410.0
 20
-830.0
 30
0.0
 40
7.199999999999999
  1
28 cm
  7
YAZI
 11
410.0
 21
-830.0
 31
0.0
100
AcDbText
  0
TEXT
  5
203
330
17
100
AcDbEntity
  8
M-GOST-TABLO
100
AcDbText
 10
510.0
 20
-830.0
 30
0.0
 40
7.199999999999999
  1
61,7
  7
YAZI
 11
510.0
 21
-830.0
 31
0.0
100
AcDbText
  0
TEXT
  5
204
330
17
100
AcDbEntity
  8
M-GOST-TABLO
100
AcDbText
 10
600.0
 20
-830.0
 30
0.0
 40
7.199999999999999
  1
1,20 / 1,25 m
  7
YAZI
 11
600.0
 21
-830.0
 31
0.0
100
AcDbText
  0
TEXT
  5
205
330
17
100
AcDbEntity
  8
M-GOST-TABLO
100
AcDbText
 10
0.0
 20
-855.0
 30
0.0
 40
7.199999999999999
  1
Sınır değer
  7
YAZI
 11
0.0
 21
-855.0
 31
0.0
100
AcDbText
  0
TEXT
  5
206
330
17
100
AcDbEntity
  8
M-GOST-TABLO
100
AcDbText
 10
170.0
 20
-855.0
 30
0.0
 40
7.199999999999999
  1
—
  7
YAZI
 11
170.0
 21
-855.0
 31
0.0
100
AcDbText
  0
TEXT
  5
207
330
17
100
AcDbEntity
  8
M-GOST-TABLO
100
AcDbText
 10
280.0
 20
-855.0
 30
0.0
 40
7.199999999999999
  1
≤ 17,5 cm
  7
YAZI
 11
280.0
 21
-855.0
 31
0.0
100
AcDbText
  0
TEXT
  5
208
330
17
100
AcDbEntity
  8
M-GOST-TABLO
100
AcDbText
 10
410.0
 20
-855.0
 30
0.0
 40
7.199999999999999
  1
≥ 26 cm
  7
YAZI
 11
410.0
 21
-855.0
 31
0.0
100
AcDbText
  0
TEXT
  5
209
330
17
100
AcDbEntity
  8
M-GOST-TABLO
100
AcDbText
 10
510.0
 20
-855.0
 30
0.0
 40
7.199999999999999
  1
60–64
  7
YAZI
 11
510.0
 21
-855.0
 31
0.0
100
AcDbText
  0
TEXT
  5
20A
330
17
100
AcDbEntity
  8
M-GOST-TABLO
100
AcDbText
 10
600.0
 20
-855.0
 30
0.0
 40
7.199999999999999
  1
≥ 1,00 m
  7
YAZI
 11
600.0
 21
-855.0
 31
0.0
100
AcDbText
  0
TEXT
  5
20B
330
17
100
AcDbEntity
  8
M-GOST-TABLO
100
AcDbText
 10
0.0
 20
-900.0
 30
0.0
 40
6.84
  1
· Basamak ve sahanlık: 3 cm traverten, 2 cm rıht; basamak burnunda kaymaz kanal.
  7
YAZI
 11
0.0
 21
-900.0
 31
0.0
100
AcDbText
  0
TEXT
  5
20C
330
17
100
AcDbEntity
  8
M-GOST-TABLO
100
AcDbText
 10
0.0
 20
-914.0
 30
0.0
 40
6.84
  1
· Korkuluk: 10+10 mm temperli lamine cam, zemine gömme alüminyum U profil, h = 100 cm (basamak burnundan),
  7
YAZI
 11
0.0
 21
-914.0
 31
0.0
100
AcDbText
  0
TEXT
  5
20D
330
17
100
AcDbEntity
  8
M-GOST-TABLO
100
AcDbText
 10
0.0
 20
-928.0000000000001
 30
0.0
 40
6.84
  1
  paslanmaz küpeşte Ø42.
  7
YAZI
 11
0.0
 21
-928.0000000000001
 31
0.0
100
AcDbText
  0
TEXT
  5
20E
330
17
100
AcDbEntity
  8
M-GOST-TABLO
100
AcDbText
 10
0.0
 20
-942.0000000000002
 30
0.0
 40
6.84
  1
· Duvar tarafında Ø40 paslanmaz küpeşte h = 90 cm; LED basamak aydınlatması (her 3 basamakta bir).
  7
YAZI
 11
0.0
 21
-942.0000000000002
 31
0.0
100
AcDbText
  0
TEXT
  5
20F
330
17
100
AcDbEntity
  8
M-GOST-TABLO
100
AcDbText
 10
0.0
 20
-956.0000000000002
 30
0.0
 40
6.84
  1
· Kol altı: betonarme plak 18 cm, alttan alçı sıva + boya; sahanlık asansör perdesine oturur.
  7
YAZI
 11
0.0
 21
-956.0000000000002
 31
0.0
100
AcDbText
  0
VIEWPORT
  5
4F
330
1B
100
AcDbEntity
 67
1
  8
VIEWPORTS
100
AcDbViewport
 10
210.0
 20
148.5
 30
0.0
 40
462.00000000000006
 41
326.70000000000005
 68
1
 69
1
 12
210.0
 22
148.5
 13
0.0
 23
0.0
 14
10.0
 24
10.0
 15
10.0
 25
10.0
 16
0.0
 26
0.0
 36
1.0
 17
0.0
 27
0.0
 37
0.0
 42
50.0
 43
0.0
 44
0.0
 45
326.70000000000005
 50
0.0
 51
0.0
 72
100
 90
557088
  1

281
0
 71
0
 74
0
110
0.0
120
0.0
130
0.0
111
1.0
121
0.0
131
0.0
112
0.0
122
1.0
132
0.0
 79
0
146
0.0
282
0
  0
TEXT
  5
211
330
1B
100
AcDbEntity
 67
1
  8
M-GOST-ANTETYAZI
100
AcDbText
 10
24.0
 20
18.0
 30
0.0
 40
2.7359999999999998
  1
MERDİVEN DETAYI · Ö: 1/50
  7
YAZI-KALIN
 11
24.0
 21
18.0
 31
0.0
100
AcDbText
  0
TEXT
  5
212
330
1B
100
AcDbEntity
 67
1
  8
M-GOST-ANTETYAZI
100
AcDbText
 10
24.0
 20
13.0
 30
0.0
 40
1.656
  1
İki kollu (U) merdiven, betonarme, traverten kaplama, cam korkuluk
  7
YAZI
 11
24.0
 21
13.0
 31
0.0
100
AcDbText
  0
LWPOLYLINE
  5
214
330
1B
100
AcDbEntity
 67
1
  8
M-GOST-ANTET
100
AcDbPolyline
 90
4
 70
1
 10
10.0
 20
287.0
 10
410.0
 20
287.0
 10
410.0
 20
10.0
 10
10.0
 20
10.0
  0
LWPOLYLINE
  5
215
330
1B
100
AcDbEntity
 67
1
  8
M-GOST-ANTET
100
AcDbPolyline
 90
4
 70
1
 10
318.0
 20
287.0
 10
410.0
 20
287.0
 10
410.0
 20
10.0
 10
318.0
 20
10.0
  0
TEXT
  5
216
330
1B
100
AcDbEntity
 67
1
  8
M-GOST-ANTETYAZI
100
AcDbText
 10
322.0
 20
278.0
 30
0.0
 40
3.7439999999999998
  1
DURUNDAY VİLLA
  7
YAZI-KALIN
 11
322.0
 21
278.0
 31
0.0
100
AcDbText
  0
TEXT
  5
217
330
1B
100
AcDbEntity
 67
1
  8
M-GOST-ANTETYAZI
100
AcDbText
 10
322.0
 20
272.5
 30
0.0
 40
1.8719999999999999
  1
Konya · Meram · Durunday
  7
YAZI
 11
322.0
 21
272.5
 31
0.0
100
AcDbText
  0
TEXT
  5
218
330
1B
100
AcDbEntity
 67
1
  8
M-GOST-ANTETYAZI
100
AcDbText
 10
322.0
 20
268.0
 30
0.0
 40
1.656
  1
Bodrumlu dubleks müstakil konut · 300 m² oturum
  7
YAZI
 11
322.0
 21
268.0
 31
0.0
100
AcDbText
  0
LINE
  5
219
330
1B
100
AcDbEntity
 67
1
  8
M-GOST-ANTET
100
AcDbLine
 10
318.0
 20
264.0
 30
0.0
 11
410.0
 21
264.0
 31
0.0
  0
TEXT
  5
21A
330
1B
100
AcDbEntity
 67
1
  8
M-GOST-ANTETYAZI
100
AcDbText
 10
322.0
 20
258.5
 30
0.0
 40
2.016
  1
MİMARİ ÖN PROJE (AVAN)
  7
YAZI-KALIN
 11
322.0
 21
258.5
 31
0.0
100
AcDbText
  0
TEXT
  5
21B
330
1B
100
AcDbEntity
 67
1
  8
M-GOST-ANTETYAZI
100
AcDbText
 10
322.0
 20
254.2
 30
0.0
 40
1.512
  1
Ruhsat ve uygulamaya esas değildir
  7
YAZI
 11
322.0
 21
254.2
 31
0.0
100
AcDbText
  0
LINE
  5
21C
330
1B
100
AcDbEntity
 67
1
  8
M-GOST-ANTET
100
AcDbLine
 10
318.0
 20
251.0
 30
0.0
 11
410.0
 21
251.0
 31
0.0
  0
TEXT
  5
21D
330
1B
100
AcDbEntity
 67
1
  8
M-GOST-ANTETYAZI
100
AcDbText
 10
322.0
 20
246.0
 30
0.0
 40
1.584
  1
NOTLAR
  7
YAZI-KALIN
 11
322.0
 21
246.0
 31
0.0
100
AcDbText
  0
TEXT
  5
21E
330
1B
100
AcDbEntity
 67
1
  8
M-GOST-ANTETYAZI
100
AcDbText
 10
322.0
 20
242.6
 30
0.0
 40
1.404
  1
1. Merdiven kutusu tüm katlarda aynı yerdedir (x 10,00–12,60
  7
YAZI
 11
322.0
 21
242.6
 31
0.0
100
AcDbText
  0
TEXT
  5
21F
330
1B
100
AcDbEntity
 67
1
  8
M-GOST-ANTETYAZI
100
AcDbText
 10
322.0
 20
239.9
 30
0.0
 40
1.404
  1
    · y 3,20–8,00).
  7
YAZI
 11
322.0
 21
239.9
 31
0.0
100
AcDbText
  0
TEXT
  5
220
330
1B
100
AcDbEntity
 67
1
  8
M-GOST-ANTETYAZI
100
AcDbText
 10
322.0
 20
236.6
 30
0.0
 40
1.404
  1
2. Bodrum→zemin 18 rıht (9+9), zemin→1. kat 19 rıht (10+9);
  7
YAZI
 11
322.0
 21
236.6
 31
0.0
100
AcDbText
  0
TEXT
  5
221
330
1B
100
AcDbEntity
 67
1
  8
M-GOST-ANTETYAZI
100
AcDbText
 10
322.0
 20
233.89999999999998
 30
0.0
 40
1.404
  1
    basamak 28 cm.
  7
YAZI
 11
322.0
 21
233.89999999999998
 31
0.0
100
AcDbText
  0
CIRCLE
  5
223
330
1B
100
AcDbEntity
 67
1
  8
M-GOST-KUZEYOKU
100
AcDbCircle
 10
398.0
 20
115.0
 30
0.0
 40
6.5
  0
HATCH
  5
224
330
1B
100
AcDbEntity
 67
1
  8
M-GOST-KUZEYOKU
100
AcDbHatch
 10
0.0
 20
0.0
 30
0.0
210
0.0
220
0.0
230
1.0
  2
SOLID
 70
1
 71
0
 91
1
 92
3
 72
0
 73
1
 93
4
 10
398.0
 20
123.0
 10
400.2
 20
112.5
 10
398.0
 20
113.80000000000001
 10
395.8
 20
112.5
 97
0
 75
1
 76
1
 98
0
  0
LWPOLYLINE
  5
225
330
1B
100
AcDbEntity
 67
1
  8
M-GOST-KUZEYOKU
100
AcDbPolyline
 90
4
 70
1
 10
398.0
 20
123.0
 10
400.2
 20
112.5
 10
398.0
 20
113.80000000000001
 10
395.8
 20
112.5
  0
TEXT
  5
226
330
1B
100
AcDbEntity
 67
1
  8
M-GOST-ANTETYAZI
100
AcDbText
 10
398.0
 20
124.30000000000001
 30
0.0
 40
2.16
  1
K
  7
YAZI-KALIN
 72
1
 11
398.0
 21
124.30000000000001
 31
0.0
100
AcDbText
  0
LINE
  5
227
330
1B
100
AcDbEntity
 67
1
  8
M-GOST-ANTET
100
AcDbLine
 10
318.0
 20
102.0
 30
0.0
 11
410.0
 21
102.0
 31
0.0
  0
TEXT
  5
228
330
1B
100
AcDbEntity
 67
1
  8
M-GOST-ANTETYAZI
100
AcDbText
 10
322.0
 20
97.0
 30
0.0
 40
1.44
  1
REVİZYONLAR
  7
YAZI-KALIN
 11
322.0
 21
97.0
 31
0.0
100
AcDbText
  0
TEXT
  5
229
330
1B
100
AcDbEntity
 67
1
  8
M-GOST-ANTETYAZI
100
AcDbText
 10
322.0
 20
93.0
 30
0.0
 40
1.3679999999999999
  1
R0
  7
YAZI-KALIN
 11
322.0
 21
93.0
 31
0.0
100
AcDbText
  0
TEXT
  5
22A
330
1B
100
AcDbEntity
 67
1
  8
M-GOST-ANTETYAZI
100
AcDbText
 10
328.0
 20
93.0
 30
0.0
 40
1.3679999999999999
  1
19.09.2026
  7
YAZI
 11
328.0
 21
93.0
 31
0.0
100
AcDbText
  0
TEXT
  5
22B
330
1B
100
AcDbEntity
 67
1
  8
M-GOST-ANTETYAZI
100
AcDbText
 10
345.0
 20
93.0
 30
0.0
 40
1.3679999999999999
  1
İlk yayın
  7
YAZI
 11
345.0
 21
93.0
 31
0.0
100
AcDbText
  0
TEXT
  5
22C
330
1B
100
AcDbEntity
 67
1
  8
M-GOST-ANTETYAZI
100
AcDbText
 10
322.0
 20
89.30000000000001
 30
0.0
 40
1.3679999999999999
  1
R1
  7
YAZI-KALIN
 11
322.0
 21
89.30000000000001
 31
0.0
100
AcDbText
  0
TEXT
  5
22D
330
1B
100
AcDbEntity
 67
1
  8
M-GOST-ANTETYAZI
100
AcDbText
 10
328.0
 20
89.30000000000001
 30
0.0
 40
1.3679999999999999
  1
21.09.2026
  7
YAZI
 11
328.0
 21
89.30000000000001
 31
0.0
100
AcDbText
  0
TEXT
  5
22E
330
1B
100
AcDbEntity
 67
1
  8
M-GOST-ANTETYAZI
100
AcDbText
 10
345.0
 20
89.30000000000001
 30
0.0
 40
1.3679999999999999
  1
Plan kurgusu yeniden düzenlendi; kesit,
  7
YAZI
 11
345.0
 21
89.30000000000001
 31
0.0
100
AcDbText
  0
TEXT
  5
22F
330
1B
100
AcDbEntity
 67
1
  8
M-GOST-ANTETYAZI
100
AcDbText
 10
345.0
 20
86.80000000000001
 30
0.0
 40
1.3679999999999999
  1
görünüş, detay ve doğrama listesi eklendi
  7
YAZI
 11
345.0
 21
86.80000000000001
 31
0.0
100
AcDbText
  0
LINE
  5
230
330
1B
100
AcDbEntity
 67
1
  8
M-GOST-ANTET
100
AcDbLine
 10
318.0
 20
76.0
 30
0.0
 11
410.0
 21
76.0
 31
0.0
  0
TEXT
  5
231
330
1B
100
AcDbEntity
 67
1
  8
M-GOST-ANTETYAZI
100
AcDbText
 10
322.0
 20
71.0
 30
0.0
 40
1.3679999999999999
  1
İŞ SAHİBİ
  7
YAZI
 11
322.0
 21
71.0
 31
0.0
100
AcDbText
  0
TEXT
  5
232
330
1B
100
AcDbEntity
 67
1
  8
M-GOST-ANTETYAZI
100
AcDbText
 10
322.0
 20
66.5
 30
0.0
 40
1.728
  1
—
  7
YAZI
 11
322.0
 21
66.5
 31
0.0
100
AcDbText
  0
TEXT
  5
233
330
1B
100
AcDbEntity
 67
1
  8
M-GOST-ANTETYAZI
100
AcDbText
 10
366.0
 20
71.0
 30
0.0
 40
1.3679999999999999
  1
HAZIRLAYAN
  7
YAZI
 11
366.0
 21
71.0
 31
0.0
100
AcDbText
  0
TEXT
  5
234
330
1B
100
AcDbEntity
 67
1
  8
M-GOST-ANTETYAZI
100
AcDbText
 10
366.0
 20
66.5
 30
0.0
 40
1.728
  1
E. Ceran
  7
YAZI
 11
366.0
 21
66.5
 31
0.0
100
AcDbText
  0
LINE
  5
235
330
1B
100
AcDbEntity
 67
1
  8
M-GOST-ANTET
100
AcDbLine
 10
363.0
 20
76.0
 30
0.0
 11
363.0
 21
62.0
 31
0.0
  0
LINE
  5
236
330
1B
100
AcDbEntity
 67
1
  8
M-GOST-ANTET
100
AcDbLine
 10
318.0
 20
62.0
 30
0.0
 11
410.0
 21
62.0
 31
0.0
  0
TEXT
  5
237
330
1B
100
AcDbEntity
 67
1
  8
M-GOST-ANTETYAZI
100
AcDbText
 10
322.0
 20
57.0
 30
0.0
 40
1.3679999999999999
  1
MÜELLİF MİMAR
  7
YAZI
 11
322.0
 21
57.0
 31
0.0
100
AcDbText
  0
TEXT
  5
238
330
1B
100
AcDbEntity
 67
1
  8
M-GOST-ANTETYAZI
100
AcDbText
 10
322.0
 20
52.0
 30
0.0
 40
1.44
  1
(ruhsat aşamasında atanacak)
  7
YAZI
 11
322.0
 21
52.0
 31
0.0
100
AcDbText
  0
TEXT
  5
239
330
1B
100
AcDbEntity
 67
1
  8
M-GOST-ANTETYAZI
100
AcDbText
 10
366.0
 20
57.0
 30
0.0
 40
1.3679999999999999
  1
İMZA
  7
YAZI
 11
366.0
 21
57.0
 31
0.0
100
AcDbText
  0
LINE
  5
23A
330
1B
100
AcDbEntity
 67
1
  8
M-GOST-ANTET
100
AcDbLine
 10
363.0
 20
62.0
 30
0.0
 11
363.0
 21
48.0
 31
0.0
  0
LINE
  5
23B
330
1B
100
AcDbEntity
 67
1
  8
M-GOST-ANTET
100
AcDbLine
 10
318.0
 20
48.0
 30
0.0
 11
410.0
 21
48.0
 31
0.0
  0
TEXT
  5
23C
330
1B
100
AcDbEntity
 67
1
  8
M-GOST-ANTETYAZI
100
AcDbText
 10
322.0
 20
42.0
 30
0.0
 40
1.3679999999999999
  1
PAFTA ADI
  7
YAZI
 11
322.0
 21
42.0
 31
0.0
100
AcDbText
  0
TEXT
  5
23D
330
1B
100
AcDbEntity
 67
1
  8
M-GOST-ANTETYAZI
100
AcDbText
 10
322.0
 20
35.0
 30
0.0
 40
3.5999999999999996
  1
MERDİVEN DETAYI
  7
YAZI-KALIN
 11
322.0
 21
35.0
 31
0.0
100
AcDbText
  0
LINE
  5
23E
330
1B
100
AcDbEntity
 67
1
  8
M-GOST-ANTET
100
AcDbLine
 10
318.0
 20
24.0
 30
0.0
 11
410.0
 21
24.0
 31
0.0
  0
TEXT
  5
23F
330
1B
100
AcDbEntity
 67
1
  8
M-GOST-ANTETYAZI
100
AcDbText
 10
322.0
 20
19.5
 30
0.0
 40
1.3679999999999999
  1
ÖLÇEK
  7
YAZI
 11
322.0
 21
19.5
 31
0.0
100
AcDbText
  0
TEXT
  5
240
330
1B
100
AcDbEntity
 67
1
  8
M-GOST-ANTETYAZI
100
AcDbText
 10
322.0
 20
13.5
 30
0.0
 40
2.592
  1
1/50
  7
YAZI-KALIN
 11
322.0
 21
13.5
 31
0.0
100
AcDbText
  0
TEXT
  5
241
330
1B
100
AcDbEntity
 67
1
  8
M-GOST-ANTETYAZI
100
AcDbText
 10
350.0
 20
19.5
 30
0.0
 40
1.3679999999999999
  1
TARİH
  7
YAZI
 11
350.0
 21
19.5
 31
0.0
100
AcDbText
  0
TEXT
  5
242
330
1B
100
AcDbEntity
 67
1
  8
M-GOST-ANTETYAZI
100
AcDbText
 10
350.0
 20
13.5
 30
0.0
 40
2.16
  1
21.09.2026
  7
YAZI
 11
350.0
 21
13.5
 31
0.0
100
AcDbText
  0
TEXT
  5
243
330
1B
100
AcDbEntity
 67
1
  8
M-GOST-ANTETYAZI
100
AcDbText
 10
380.0
 20
19.5
 30
0.0
 40
1.3679999999999999
  1
PAFTA NO
  7
YAZI
 11
380.0
 21
19.5
 31
0.0
100
AcDbText
  0
TEXT
  5
244
330
1B
100
AcDbEntity
 67
1
  8
M-GOST-ANTETYAZI
100
AcDbText
 10
380.0
 20
13.0
 30
0.0
 40
3.7439999999999998
  1
A-11
  7
YAZI-KALIN
 11
380.0
 21
13.0
 31
0.0
100
AcDbText
  0
LINE
  5
245
330
1B
100
AcDbEntity
 67
1
  8
M-GOST-ANTET
100
AcDbLine
 10
347.0
 20
24.0
 30
0.0
 11
347.0
 21
10.0
 31
0.0
  0
LINE
  5
246
330
1B
100
AcDbEntity
 67
1
  8
M-GOST-ANTET
100
AcDbLine
 10
377.0
 20
24.0
 30
0.0
 11
377.0
 21
10.0
 31
0.0
  0
VIEWPORT
  5
248
330
1B
100
AcDbEntity
 67
1
  8
M-GOST-VPORT
100
AcDbViewport
 10
135.0
 20
165.70999999999998
 30
0.0
 40
224.0
 41
186.58000000000004
 68
2
 69
3
 12
505.0
 22
-506.4500000000001
 13
0.0
 23
0.0
 14
10.0
 24
10.0
 15
10.0
 25
10.0
 16
0.0
 26
0.0
 36
1.0
 17
0.0
 27
0.0
 37
0.0
 42
50.0
 43
0.0
 44
0.0
 45
932.9000000000002
 50
0.0
 51
0.0
 72
100
 90
0
  1

281
0
 71
0
 74
0
110
0.0
120
0.0
130
0.0
111
1.0
121
0.0
131
0.0
112
0.0
122
1.0
132
0.0
 79
0
146
0.0
282
0
  0
ENDSEC
  0
SECTION
  2
OBJECTS
  0
DICTIONARY
  5
A
330
0
100
AcDbDictionary
280
0
281
1
  3
ACAD_COLOR
350
B
  3
ACAD_GROUP
350
C
  3
ACAD_LAYOUT
350
D
  3
ACAD_MATERIAL
350
E
  3
ACAD_MLEADERSTYLE
350
F
  3
ACAD_MLINESTYLE
350
10
  3
ACAD_PLOTSETTINGS
350
11
  3
ACAD_PLOTSTYLENAME
350
12
  3
ACAD_SCALELIST
350
14
  3
ACAD_TABLESTYLE
350
15
  3
ACAD_VISUALSTYLE
350
16
  3
EZDXF_META
350
2D
  0
DICTIONARY
  5
B
330
A
100
AcDbDictionary
280
0
281
1
  0
DICTIONARY
  5
C
330
A
100
AcDbDictionary
280
0
281
1
  0
DICTIONARY
  5
D
330
A
100
AcDbDictionary
280
0
281
1
  3
Model
350
1A
  3
A-11 MERDIVEN DETAYI
350
1E
  0
DICTIONARY
  5
E
330
A
100
AcDbDictionary
280
0
281
1
  3
ByBlock
350
1F
  3
ByLayer
350
20
  3
Global
350
21
  0
DICTIONARY
  5
F
330
A
100
AcDbDictionary
280
0
281
1
  3
Standard
350
2C
  0
DICTIONARY
  5
10
330
A
100
AcDbDictionary
280
0
281
1
  3
Standard
350
22
  0
DICTIONARY
  5
11
330
A
100
AcDbDictionary
280
0
281
1
  0
ACDBDICTIONARYWDFLT
  5
12
330
A
100
AcDbDictionary
280
0
281
1
  3
Normal
350
13
100
AcDbDictionaryWithDefault
340
13
  0
ACDBPLACEHOLDER
  5
13
330
12
  0
DICTIONARY
  5
14
330
A
100
AcDbDictionary
280
0
281
1
  0
DICTIONARY
  5
15
330
A
100
AcDbDictionary
280
0
281
1
  0
DICTIONARY
  5
16
330
A
100
AcDbDictionary
280
0
281
1
  0
LAYOUT
  5
1A
330
D
100
AcDbPlotSettings
  1

  2
Adobe PDF
  4
A3
  6

 40
7.5
 41
20.0
 42
7.5
 43
20.0
 44
420.0
 45
297.0
 46
0.0
 47
0.0
 48
0.0
 49
0.0
140
0.0
141
0.0
142
1.0
143
1.0
 70
1024
 72
1
 73
0
 74
5
  7

 75
16
 76
0
 77
2
 78
300
147
1.0
148
0.0
149
0.0
100
AcDbLayout
  1
Model
 70
1
 71
0
 10
0.0
 20
0.0
 11
420.0
 21
297.0
 12
0.0
 22
0.0
 32
0.0
 14
1e+20
 24
1e+20
 34
1e+20
 15
-1e+20
 25
-1e+20
 35
-1e+20
146
0.0
 13
0.0
 23
0.0
 33
0.0
 16
1.0
 26
0.0
 36
0.0
 17
0.0
 27
1.0
 37
0.0
 76
1
330
17
  0
LAYOUT
  5
1E
330
D
100
AcDbPlotSettings
  1

  2
DWG to PDF.pc3
  4
ezdxf_(420.00_x_297.00_MM)
  6

 40
0.0
 41
0.0
 42
0.0
 43
0.0
 44
420.0
 45
297.0
 46
0.0
 47
0.0
 48
0.0
 49
0.0
140
0.0
141
0.0
142
1.0
143
1.0
 70
672
 72
1
 73
0
 74
5
  7

 75
16
 76
0
 77
2
 78
300
147
1.0
148
0.0
149
0.0
100
AcDbLayout
  1
A-11 MERDIVEN DETAYI
 70
1
 71
1
 10
-0.0
 20
-0.0
 11
420.0
 21
297.0
 12
0.0
 22
0.0
 32
0.0
 14
1e+20
 24
1e+20
 34
1e+20
 15
-1e+20
 25
-1e+20
 35
-1e+20
146
0.0
 13
0.0
 23
0.0
 33
0.0
 16
1.0
 26
0.0
 36
0.0
 17
0.0
 27
1.0
 37
0.0
 76
1
330
1B
331
4F
  0
MATERIAL
  5
1F
102
{ACAD_REACTORS
330
E
102
}
330
E
100
AcDbMaterial
  1
ByBlock
  2

 70
0
 40
1.0
 71
1
 41
1.0
 91
-1023410177
 42
1.0
 72
1
  3

 73
1
 74
1
 75
1
 44
0.5
 73
0
 45
1.0
 46
1.0
 77
1
  4

 78
1
 79
1
170
1
 48
1.0
171
1
  6

172
1
173
1
174
1
140
1.0
141
1.0
175
1
  7

176
1
177
1
178
1
143
1.0
179
1
  8

270
1
271
1
272
1
145
1.0
146
1.0
273
1
  9

274
1
275
1
276
1
 42
1.0
 72
1
  3

 73
1
 74
1
 75
1
 94
63
  0
MATERIAL
  5
20
102
{ACAD_REACTORS
330
E
102
}
330
E
100
AcDbMaterial
  1
ByLayer
  2

 70
0
 40
1.0
 71
1
 41
1.0
 91
-1023410177
 42
1.0
 72
1
  3

 73
1
 74
1
 75
1
 44
0.5
 73
0
 45
1.0
 46
1.0
 77
1
  4

 78
1
 79
1
170
1
 48
1.0
171
1
  6

172
1
173
1
174
1
140
1.0
141
1.0
175
1
  7

176
1
177
1
178
1
143
1.0
179
1
  8

270
1
271
1
272
1
145
1.0
146
1.0
273
1
  9

274
1
275
1
276
1
 42
1.0
 72
1
  3

 73
1
 74
1
 75
1
 94
63
  0
MATERIAL
  5
21
102
{ACAD_REACTORS
330
E
102
}
330
E
100
AcDbMaterial
  1
Global
  2

 70
0
 40
1.0
 71
1
 41
1.0
 91
-1023410177
 42
1.0
 72
1
  3

 73
1
 74
1
 75
1
 44
0.5
 73
0
 45
1.0
 46
1.0
 77
1
  4

 78
1
 79
1
170
1
 48
1.0
171
1
  6

172
1
173
1
174
1
140
1.0
141
1.0
175
1
  7

176
1
177
1
178
1
143
1.0
179
1
  8

270
1
271
1
272
1
145
1.0
146
1.0
273
1
  9

274
1
275
1
276
1
 42
1.0
 72
1
  3

 73
1
 74
1
 75
1
 94
63
  0
MLINESTYLE
  5
22
102
{ACAD_REACTORS
330
10
102
}
330
10
100
AcDbMlineStyle
  2
Standard
 70
0
  3

 62
256
 51
90.0
 52
90.0
 71
2
 49
0.5
 62
256
  6
BYLAYER
 49
-0.5
 62
256
  6
BYLAYER
  0
MLEADERSTYLE
  5
2C
102
{ACAD_REACTORS
330
F
102
}
330
F
100
AcDbMLeaderStyle
179
2
170
2
171
1
172
0
 90
2
 40
0.0
 41
0.0
173
1
 91
-1056964608
 92
-2
290
1
 42
2.0
291
1
 43
8.0
  3
Standard
 44
4.0
300

342
29
174
1
175
1
176
0
178
1
 93
-1056964608
 45
4.0
292
0
297
0
 46
4.0
 94
-1056964608
 47
1.0
 49
1.0
140
1.0
294
1
141
0.0
177
0
142
1.0
295
0
296
0
143
3.75
271
0
272
9
273
9
  0
DICTIONARY
  5
2D
330
A
100
AcDbDictionary
281
1
  3
CREATED_BY_EZDXF
350
2E
  3
WRITTEN_BY_EZDXF
350
24B
  0
DICTIONARYVAR
  5
2E
330
2D
100
DictionaryVariables
280
0
  1
1.1.4 @ 2026-09-22T09:33:00.974842+00:00
  0
DICTIONARYVAR
  5
24B
330
2D
100
DictionaryVariables
280
0
  1
1.1.4 @ 2026-09-22T09:33:01.010413+00:00
  0
ENDSEC
  0
EOF
