  0
SECTION
  2
HEADER
  9
$ACADVER
  1
AC1032
  9
$ACADMAINTVER
 90
4
  9
$DWGCODEPAGE
  3
ANSI_1252
  9
$LASTSAVEDBY
  1
ezdxf
  9
$REQUIREDVERSIONS
160
0
  9
$INSBASE
 10
0.0
 20
0.0
 30
0.0
  9
$EXTMIN
 10
1e+20
 20
1e+20
 30
1e+20
  9
$EXTMAX
 10
-1e+20
 20
-1e+20
 30
-1e+20
  9
$LIMMIN
 10
0.0
 20
0.0
  9
$LIMMAX
 10
420.0
 20
297.0
  9
$ORTHOMODE
 70
0
  9
$REGENMODE
 70
1
  9
$FILLMODE
 70
1
  9
$QTEXTMODE
 70
0
  9
$MIRRTEXT
 70
1
  9
$LTSCALE
 40
0.25
  9
$ATTMODE
 70
1
  9
$TEXTSIZE
 40
2.5
  9
$TRACEWID
 40
1.0
  9
$TEXTSTYLE
  7
YAZI
  9
$CLAYER
  8
0
  9
$CELTYPE
  6
ByLayer
  9
$CECOLOR
 62
256
  9
$CELTSCALE
 40
1.0
  9
$DISPSILH
 70
0
  9
$DIMSCALE
 40
1.0
  9
$DIMASZ
 40
2.5
  9
$DIMEXO
 40
0.625
  9
$DIMDLI
 40
3.75
  9
$DIMRND
 40
0.0
  9
$DIMDLE
 40
0.0
  9
$DIMEXE
 40
1.25
  9
$DIMTP
 40
0.0
  9
$DIMTM
 40
0.0
  9
$DIMTXT
 40
2.5
  9
$DIMCEN
 40
2.5
  9
$DIMTSZ
 40
0.0
  9
$DIMTOL
 70
0
  9
$DIMLIM
 70
0
  9
$DIMTIH
 70
0
  9
$DIMTOH
 70
0
  9
$DIMSE1
 70
0
  9
$DIMSE2
 70
0
  9
$DIMTAD
 70
1
  9
$DIMZIN
 70
8
  9
$DIMBLK
  1

  9
$DIMASO
 70
1
  9
$DIMSHO
 70
1
  9
$DIMPOST
  1

  9
$DIMAPOST
  1

  9
$DIMALT
 70
0
  9
$DIMALTD
 70
3
  9
$DIMALTF
 40
0.03937007874
  9
$DIMLFAC
 40
1.0
  9
$DIMTOFL
 70
1
  9
$DIMTVP
 40
0.0
  9
$DIMTIX
 70
0
  9
$DIMSOXD
 70
0
  9
$DIMSAH
 70
0
  9
$DIMBLK1
  1

  9
$DIMBLK2
  1

  9
$DIMSTYLE
  2
ISO-25
  9
$DIMCLRD
 70
0
  9
$DIMCLRE
 70
0
  9
$DIMCLRT
 70
0
  9
$DIMTFAC
 40
1.0
  9
$DIMGAP
 40
0.625
  9
$DIMJUST
 70
0
  9
$DIMSD1
 70
0
  9
$DIMSD2
 70
0
  9
$DIMTOLJ
 70
0
  9
$DIMTZIN
 70
8
  9
$DIMALTZ
 70
0
  9
$DIMALTTZ
 70
0
  9
$DIMUPT
 70
0
  9
$DIMDEC
 70
2
  9
$DIMTDEC
 70
2
  9
$DIMALTU
 70
2
  9
$DIMALTTD
 70
3
  9
$DIMTXSTY
  7
Standard
  9
$DIMAUNIT
 70
0
  9
$DIMADEC
 70
0
  9
$DIMALTRND
 40
0.0
  9
$DIMAZIN
 70
0
  9
$DIMDSEP
 70
44
  9
$DIMATFIT
 70
3
  9
$DIMFRAC
 70
0
  9
$DIMLDRBLK
  1

  9
$DIMLUNIT
 70
2
  9
$DIMLWD
 70
-2
  9
$DIMLWE
 70
-2
  9
$DIMTMOVE
 70
0
  9
$DIMFXL
 40
1.0
  9
$DIMFXLON
 70
0
  9
$DIMJOGANG
 40
0.785398163397
  9
$DIMTFILL
 70
0
  9
$DIMTFILLCLR
 70
0
  9
$DIMARCSYM
 70
0
  9
$DIMLTYPE
  6

  9
$DIMLTEX1
  6

  9
$DIMLTEX2
  6

  9
$DIMTXTDIRECTION
 70
0
  9
$LUNITS
 70
2
  9
$LUPREC
 70
4
  9
$SKETCHINC
 40
1.0
  9
$FILLETRAD
 40
10.0
  9
$AUNITS
 70
0
  9
$AUPREC
 70
2
  9
$MENU
  1
.
  9
$ELEVATION
 40
0.0
  9
$PELEVATION
 40
0.0
  9
$THICKNESS
 40
0.0
  9
$LIMCHECK
 70
0
  9
$CHAMFERA
 40
0.0
  9
$CHAMFERB
 40
0.0
  9
$CHAMFERC
 40
0.0
  9
$CHAMFERD
 40
0.0
  9
$SKPOLY
 70
0
  9
$TDCREATE
 40
2461306.5229166667
  9
$TDUCREATE
 40
2458532.153996898
  9
$TDUPDATE
 40
2461306.5229166667
  9
$TDUUPDATE
 40
2458532.1544311
  9
$TDINDWG
 40
0.0
  9
$TDUSRTIMER
 40
0.0
  9
$USRTIMER
 70
1
  9
$ANGBASE
 50
0.0
  9
$ANGDIR
 70
0
  9
$PDMODE
 70
0
  9
$PDSIZE
 40
0.0
  9
$PLINEWID
 40
0.0
  9
$SPLFRAME
 70
0
  9
$SPLINETYPE
 70
6
  9
$SPLINESEGS
 70
8
  9
$HANDSEED
  5
14D
  9
$SURFTAB1
 70
6
  9
$SURFTAB2
 70
6
  9
$SURFTYPE
 70
6
  9
$SURFU
 70
6
  9
$SURFV
 70
6
  9
$UCSBASE
  2

  9
$UCSNAME
  2

  9
$UCSORG
 10
0.0
 20
0.0
 30
0.0
  9
$UCSXDIR
 10
1.0
 20
0.0
 30
0.0
  9
$UCSYDIR
 10
0.0
 20
1.0
 30
0.0
  9
$UCSORTHOREF
  2

  9
$UCSORTHOVIEW
 70
0
  9
$UCSORGTOP
 10
0.0
 20
0.0
 30
0.0
  9
$UCSORGBOTTOM
 10
0.0
 20
0.0
 30
0.0
  9
$UCSORGLEFT
 10
0.0
 20
0.0
 30
0.0
  9
$UCSORGRIGHT
 10
0.0
 20
0.0
 30
0.0
  9
$UCSORGFRONT
 10
0.0
 20
0.0
 30
0.0
  9
$UCSORGBACK
 10
0.0
 20
0.0
 30
0.0
  9
$PUCSBASE
  2

  9
$PUCSNAME
  2

  9
$PUCSORG
 10
0.0
 20
0.0
 30
0.0
  9
$PUCSXDIR
 10
1.0
 20
0.0
 30
0.0
  9
$PUCSYDIR
 10
0.0
 20
1.0
 30
0.0
  9
$PUCSORTHOREF
  2

  9
$PUCSORTHOVIEW
 70
0
  9
$PUCSORGTOP
 10
0.0
 20
0.0
 30
0.0
  9
$PUCSORGBOTTOM
 10
0.0
 20
0.0
 30
0.0
  9
$PUCSORGLEFT
 10
0.0
 20
0.0
 30
0.0
  9
$PUCSORGRIGHT
 10
0.0
 20
0.0
 30
0.0
  9
$PUCSORGFRONT
 10
0.0
 20
0.0
 30
0.0
  9
$PUCSORGBACK
 10
0.0
 20
0.0
 30
0.0
  9
$USERI1
 70
0
  9
$USERI2
 70
0
  9
$USERI3
 70
0
  9
$USERI4
 70
0
  9
$USERI5
 70
0
  9
$USERR1
 40
0.0
  9
$USERR2
 40
0.0
  9
$USERR3
 40
0.0
  9
$USERR4
 40
0.0
  9
$USERR5
 40
0.0
  9
$WORLDVIEW
 70
1
  9
$SHADEDGE
 70
3
  9
$SHADEDIF
 70
70
  9
$TILEMODE
 70
1
  9
$MAXACTVP
 70
64
  9
$PINSBASE
 10
0.0
 20
0.0
 30
0.0
  9
$PLIMCHECK
 70
0
  9
$PEXTMIN
 10
1e+20
 20
1e+20
 30
1e+20
  9
$PEXTMAX
 10
-1e+20
 20
-1e+20
 30
-1e+20
  9
$PLIMMIN
 10
-0.0
 20
-0.0
  9
$PLIMMAX
 10
420.0
 20
297.0
  9
$UNITMODE
 70
0
  9
$VISRETAIN
 70
1
  9
$PLINEGEN
 70
0
  9
$PSLTSCALE
 70
1
  9
$TREEDEPTH
 70
3020
  9
$CMLSTYLE
  2
Standard
  9
$CMLJUST
 70
0
  9
$CMLSCALE
 40
20.0
  9
$PROXYGRAPHICS
 70
1
  9
$MEASUREMENT
 70
1
  9
$CELWEIGHT
370
-1
  9
$ENDCAPS
280
0
  9
$JOINSTYLE
280
0
  9
$LWDISPLAY
290
1
  9
$INSUNITS
 70
5
  9
$HYPERLINKBASE
  1

  9
$STYLESHEET
  1

  9
$XEDIT
290
1
  9
$CEPSNTYPE
380
0
  9
$PSTYLEMODE
290
1
  9
$FINGERPRINTGUID
  2
{EA412EBF-EACD-4E38-AF5E-63DB0282D38C}
  9
$VERSIONGUID
  2
{8690B059-07FA-4098-A197-63608C670C75}
  9
$EXTNAMES
290
1
  9
$PSVPSCALE
 40
0.0
  9
$OLESTARTUP
290
0
  9
$SORTENTS
280
127
  9
$INDEXCTL
280
0
  9
$HIDETEXT
280
1
  9
$XCLIPFRAME
280
0
  9
$HALOGAP
280
0
  9
$OBSCOLOR
 70
257
  9
$OBSLTYPE
280
0
  9
$INTERSECTIONDISPLAY
280
0
  9
$INTERSECTIONCOLOR
 70
257
  9
$DIMASSOC
280
2
  9
$PROJECTNAME
  1

  9
$CAMERADISPLAY
290
0
  9
$LENSLENGTH
 40
50.0
  9
$CAMERAHEIGHT
 40
0.0
  9
$STEPSPERSEC
 40
24.0
  9
$STEPSIZE
 40
100.0
  9
$3DDWFPREC
 40
2.0
  9
$PSOLWIDTH
 40
0.005
  9
$PSOLHEIGHT
 40
0.08
  9
$LOFTANG1
 40
1.570796326795
  9
$LOFTANG2
 40
1.570796326795
  9
$LOFTMAG1
 40
0.0
  9
$LOFTMAG2
 40
0.0
  9
$LOFTPARAM
 70
7
  9
$LOFTNORMALS
280
1
  9
$LATITUDE
 40
37.795
  9
$LONGITUDE
 40
-122.394
  9
$NORTHDIRECTION
 40
0.0
  9
$TIMEZONE
 70
-8000
  9
$LIGHTGLYPHDISPLAY
280
1
  9
$TILEMODELIGHTSYNCH
280
1
  9
$CMATERIAL
347
20
  9
$SOLIDHIST
280
0
  9
$SHOWHIST
280
1
  9
$DWFFRAME
280
2
  9
$DGNFRAME
280
2
  9
$REALWORLDSCALE
290
1
  9
$INTERFERECOLOR
 62
256
  9
$CSHADOW
280
0
  9
$SHADOWPLANELOCATION
 40
0.0
  0
ENDSEC
  0
SECTION
  2
CLASSES
  0
CLASS
  1
ACDBDICTIONARYWDFLT
  2
AcDbDictionaryWithDefault
  3
ObjectDBX Classes
 90
0
 91
0
280
0
281
0
  0
CLASS
  1
SUN
  2
AcDbSun
  3
SCENEOE
 90
1153
 91
0
280
0
281
0
  0
CLASS
  1
VISUALSTYLE
  2
AcDbVisualStyle
  3
ObjectDBX Classes
 90
4095
 91
0
280
0
281
0
  0
CLASS
  1
MATERIAL
  2
AcDbMaterial
  3
ObjectDBX Classes
 90
1153
 91
0
280
0
281
0
  0
CLASS
  1
SCALE
  2
AcDbScale
  3
ObjectDBX Classes
 90
1153
 91
0
280
0
281
0
  0
CLASS
  1
TABLESTYLE
  2
AcDbTableStyle
  3
ObjectDBX Classes
 90
4095
 91
0
280
0
281
0
  0
CLASS
  1
MLEADERSTYLE
  2
AcDbMLeaderStyle
  3
ACDB_MLEADERSTYLE_CLASS
 90
4095
 91
0
280
0
281
0
  0
CLASS
  1
DICTIONARYVAR
  2
AcDbDictionaryVar
  3
ObjectDBX Classes
 90
0
 91
0
280
0
281
0
  0
CLASS
  1
CELLSTYLEMAP
  2
AcDbCellStyleMap
  3
ObjectDBX Classes
 90
1152
 91
0
280
0
281
0
  0
CLASS
  1
MENTALRAYRENDERSETTINGS
  2
AcDbMentalRayRenderSettings
  3
SCENEOE
 90
1024
 91
0
280
0
281
0
  0
CLASS
  1
ACDBDETAILVIEWSTYLE
  2
AcDbDetailViewStyle
  3
ObjectDBX Classes
 90
1025
 91
0
280
0
281
0
  0
CLASS
  1
ACDBSECTIONVIEWSTYLE
  2
AcDbSectionViewStyle
  3
ObjectDBX Classes
 90
1025
 91
0
280
0
281
0
  0
CLASS
  1
RASTERVARIABLES
  2
AcDbRasterVariables
  3
ISM
 90
0
 91
0
280
0
281
0
  0
CLASS
  1
LAYOUT
  2
AcDbLayout
  3
ObjectDBX Classes
 90
0
 91
0
280
0
281
0
  0
CLASS
  1
ACDBPLACEHOLDER
  2
AcDbPlaceHolder
  3
ObjectDBX Classes
 90
0
 91
0
280
0
281
0
  0
ENDSEC
  0
SECTION
  2
TABLES
  0
TABLE
  2
VPORT
  5
8
330
0
100
AcDbSymbolTable
 70
1
  0
VPORT
  5
23
330
8
100
AcDbSymbolTableRecord
100
AcDbViewportTableRecord
  2
*Active
 70
0
 10
0.0
 20
0.0
 11
1.0
 21
1.0
 12
0.0
 22
0.0
 13
0.0
 23
0.0
 14
0.5
 24
0.5
 15
0.5
 25
0.5
 16
0.0
 26
0.0
 36
1.0
 17
0.0
 27
0.0
 37
0.0
 40
1000.0
 41
1.34
 42
50.0
 43
0.0
 44
0.0
 50
0.0
 51
0.0
 71
0
 72
1000
 73
1
 74
3
 75
0
 76
0
 77
0
 78
0
281
0
 65
0
146
0.0
  0
ENDTAB
  0
TABLE
  2
LTYPE
  5
2
330
0
100
AcDbSymbolTable
 70
7
  0
LTYPE
  5
24
330
2
100
AcDbSymbolTableRecord
100
AcDbLinetypeTableRecord
  2
ByBlock
 70
0
  3

 72
65
 73
0
 40
0.0
  0
LTYPE
  5
25
330
2
100
AcDbSymbolTableRecord
100
AcDbLinetypeTableRecord
  2
ByLayer
 70
0
  3

 72
65
 73
0
 40
0.0
  0
LTYPE
  5
26
330
2
100
AcDbSymbolTableRecord
100
AcDbLinetypeTableRecord
  2
Continuous
 70
0
  3

 72
65
 73
0
 40
0.0
  0
LTYPE
  5
48
330
2
100
AcDbSymbolTableRecord
100
AcDbLinetypeTableRecord
  2
ACAD_ISO02W100
 70
0
  3
ISO kesik __ __ __
 72
65
 73
2
 40
15.0
 49
12.0
 74
0
 49
-3.0
 74
0
  0
LTYPE
  5
49
330
2
100
AcDbSymbolTableRecord
100
AcDbLinetypeTableRecord
  2
ACAD_ISO03W100
 70
0
  3
ISO kesik boşluk __    __
 72
65
 73
2
 40
30.0
 49
12.0
 74
0
 49
-18.0
 74
0
  0
LTYPE
  5
4A
330
2
100
AcDbSymbolTableRecord
100
AcDbLinetypeTableRecord
  2
ACAD_ISO04W100
 70
0
  3
ISO uzun kesik nokta ____ . ____
 72
65
 73
4
 40
30.0
 49
24.0
 74
0
 49
-3.0
 74
0
 49
0.0
 74
0
 49
-3.0
 74
0
  0
LTYPE
  5
4B
330
2
100
AcDbSymbolTableRecord
100
AcDbLinetypeTableRecord
  2
ACAD_ISO07W100
 70
0
  3
ISO nokta . . . .
 72
65
 73
2
 40
3.0
 49
0.0
 74
0
 49
-3.0
 74
0
  0
ENDTAB
  0
TABLE
  2
LAYER
  5
1
330
0
100
AcDbSymbolTable
 70
19
  0
LAYER
  5
27
330
1
100
AcDbSymbolTableRecord
100
AcDbLayerTableRecord
  2
0
 70
0
 62
7
  6
Continuous
370
-3
390
13
347
21
  0
LAYER
  5
28
330
1
100
AcDbSymbolTableRecord
100
AcDbLayerTableRecord
  2
Defpoints
 70
0
 62
7
  6
Continuous
290
0
370
-3
390
13
347
21
  0
LAYER
  5
50
330
1
100
AcDbSymbolTableRecord
100
AcDbLayerTableRecord
  2
M-CVRE-ZEMIN-T
 70
0
 62
8
  6
Continuous
370
5
390
13
347
21
1001
AcAecLayerStandard
1000

1000
Doğal zemin / toprak (kesit ve görünüş) — tarama
  0
LAYER
  5
53
330
1
100
AcDbSymbolTableRecord
100
AcDbLayerTableRecord
  2
M-TASI-BETONARME-T
 70
0
 62
250
  6
Continuous
370
5
390
13
347
21
1001
AcAecLayerStandard
1000

1000
Betonarme kolon, perde, kiriş, döşeme, temel (kesilen) — tarama
  0
LAYER
  5
56
330
1
100
AcDbSymbolTableRecord
100
AcDbLayerTableRecord
  2
M-TASI-BETONARME
 70
0
 62
5
  6
Continuous
370
35
390
13
347
21
1001
AcAecLayerStandard
1000

1000
Betonarme kolon, perde, kiriş, döşeme, temel (kesilen)
  0
LAYER
  5
59
330
1
100
AcDbSymbolTableRecord
100
AcDbLayerTableRecord
  2
M-ISYA-TASYUNU-T
 70
0
 62
8
  6
Continuous
370
5
390
13
347
21
1001
AcAecLayerStandard
1000

1000
Isı yalıtımı (taşyünü / XPS) ve su yalıtımı — tarama
  0
LAYER
  5
63
330
1
100
AcDbSymbolTableRecord
100
AcDbLayerTableRecord
  2
M-GOST-YAZI
 70
0
 62
2
  6
Continuous
370
9
390
13
347
21
1001
AcAecLayerStandard
1000

1000
Genel yazılar, başlıklar, malzeme notları
  0
LAYER
  5
7F
330
1
100
AcDbSymbolTableRecord
100
AcDbLayerTableRecord
  2
M-PNKS-ALUMINYUM
 70
0
 62
171
  6
Continuous
370
9
390
13
347
21
1001
AcAecLayerStandard
1000

1000
Pencere / doğrama kasası ve kanadı (alüminyum)
  0
LAYER
  5
81
330
1
100
AcDbSymbolTableRecord
100
AcDbLayerTableRecord
  2
M-DUVA-GAZBETON-T
 70
0
 62
8
  6
Continuous
370
5
390
13
347
21
1001
AcAecLayerStandard
1000

1000
Gazbeton duvar (dış 25 cm, iç 13,5 cm) — tarama
  0
LAYER
  5
91
330
1
100
AcDbSymbolTableRecord
100
AcDbLayerTableRecord
  2
M-KALD-TAS-T
 70
0
 62
8
  6
Continuous
370
5
390
13
347
21
1001
AcAecLayerStandard
1000

1000
Dış zemin: teras, giriş sahanlığı, basamaklar — tarama
  0
LAYER
  5
92
330
1
100
AcDbSymbolTableRecord
100
AcDbLayerTableRecord
  2
M-KALD-TAS
 70
0
 62
45
  6
Continuous
370
9
390
13
347
21
1001
AcAecLayerStandard
1000

1000
Dış zemin: teras, giriş sahanlığı, basamaklar
  0
LAYER
  5
97
330
1
100
AcDbSymbolTableRecord
100
AcDbLayerTableRecord
  2
M-CKAP-KIREMIT-T
 70
0
 62
8
  6
Continuous
370
5
390
13
347
21
1001
AcAecLayerStandard
1000

1000
Çatı kaplama (kil kiremit), mahya, dere — tarama
  0
LAYER
  5
98
330
1
100
AcDbSymbolTableRecord
100
AcDbLayerTableRecord
  2
M-CKAP-KIREMIT
 70
0
 62
66
  6
Continuous
370
9
390
13
347
21
1001
AcAecLayerStandard
1000

1000
Çatı kaplama (kil kiremit), mahya, dere
  0
LAYER
  5
A5
330
1
100
AcDbSymbolTableRecord
100
AcDbLayerTableRecord
  2
M-GOST-KESITKOT
 70
0
 62
46
  6
Continuous
370
9
390
13
347
21
1001
AcAecLayerStandard
1000

1000
Kesit ve görünüş kotları
  0
LAYER
  5
FC
330
1
100
AcDbSymbolTableRecord
100
AcDbLayerTableRecord
  2
M-GOST-ANTETYAZI
 70
0
 62
177
  6
Continuous
370
9
390
13
347
21
1001
AcAecLayerStandard
1000

1000
Antet yazıları, notlar, pafta başlıkları (layout)
  0
LAYER
  5
FF
330
1
100
AcDbSymbolTableRecord
100
AcDbLayerTableRecord
  2
M-GOST-ANTET
 70
0
 62
176
  6
Continuous
370
25
390
13
347
21
1001
AcAecLayerStandard
1000

1000
Pafta çerçevesi ve antet (layout)
  0
LAYER
  5
10A
330
1
100
AcDbSymbolTableRecord
100
AcDbLayerTableRecord
  2
M-GOST-LEJANT
 70
0
 62
173
  6
Continuous
370
9
390
13
347
21
1001
AcAecLayerStandard
1000

1000
Lejant sembolleri
  0
LAYER
  5
123
330
1
100
AcDbSymbolTableRecord
100
AcDbLayerTableRecord
  2
M-GOST-KUZEYOKU
 70
0
 62
1
  6
Continuous
370
9
390
13
347
21
1001
AcAecLayerStandard
1000

1000
Kuzey oku
  0
LAYER
  5
148
330
1
100
AcDbSymbolTableRecord
100
AcDbLayerTableRecord
  2
M-GOST-VPORT
 70
0
 62
8
  6
Continuous
290
0
370
9
390
13
347
21
1001
AcAecLayerStandard
1000

1000
Viewport çerçeveleri — yazdırılmaz
  0
ENDTAB
  0
TABLE
  2
STYLE
  5
5
330
0
100
AcDbSymbolTable
 70
28
  0
STYLE
  5
29
330
5
100
AcDbSymbolTableRecord
100
AcDbTextStyleTableRecord
  2
Standard
 70
0
 40
0.0
 41
1.0
 50
0.0
 71
0
 42
2.5
  3
txt
  4

  0
STYLE
  5
2F
330
5
100
AcDbSymbolTableRecord
100
AcDbTextStyleTableRecord
  2
OpenSans-Light
 70
0
 40
0.0
 41
1.0
 50
0.0
 71
0
 42
2.5
  3
OpenSans-Light.ttf
  4

  0
STYLE
  5
30
330
5
100
AcDbSymbolTableRecord
100
AcDbTextStyleTableRecord
  2
OpenSans-Light-Italic
 70
0
 40
0.0
 41
1.0
 50
0.0
 71
0
 42
2.5
  3
OpenSans-LightItalic.ttf
  4

  0
STYLE
  5
31
330
5
100
AcDbSymbolTableRecord
100
AcDbTextStyleTableRecord
  2
OpenSans
 70
0
 40
0.0
 41
1.0
 50
0.0
 71
0
 42
2.5
  3
OpenSans-Regular.ttf
  4

  0
STYLE
  5
32
330
5
100
AcDbSymbolTableRecord
100
AcDbTextStyleTableRecord
  2
OpenSans-Italic
 70
0
 40
0.0
 41
1.0
 50
0.0
 71
0
 42
2.5
  3
OpenSans-Italic.ttf
  4

  0
STYLE
  5
33
330
5
100
AcDbSymbolTableRecord
100
AcDbTextStyleTableRecord
  2
OpenSans-SemiBold
 70
0
 40
0.0
 41
1.0
 50
0.0
 71
0
 42
2.5
  3
OpenSans-SemiBold.ttf
  4

  0
STYLE
  5
34
330
5
100
AcDbSymbolTableRecord
100
AcDbTextStyleTableRecord
  2
OpenSans-SemiBoldItalic
 70
0
 40
0.0
 41
1.0
 50
0.0
 71
0
 42
2.5
  3
OpenSans-SemiBoldItalic.ttf
  4

  0
STYLE
  5
35
330
5
100
AcDbSymbolTableRecord
100
AcDbTextStyleTableRecord
  2
OpenSans-Bold
 70
0
 40
0.0
 41
1.0
 50
0.0
 71
0
 42
2.5
  3
OpenSans-Bold.ttf
  4

  0
STYLE
  5
36
330
5
100
AcDbSymbolTableRecord
100
AcDbTextStyleTableRecord
  2
OpenSans-BoldItalic
 70
0
 40
0.0
 41
1.0
 50
0.0
 71
0
 42
2.5
  3
OpenSans-BoldItalic.ttf
  4

  0
STYLE
  5
37
330
5
100
AcDbSymbolTableRecord
100
AcDbTextStyleTableRecord
  2
OpenSans-ExtraBold
 70
0
 40
0.0
 41
1.0
 50
0.0
 71
0
 42
2.5
  3
OpenSans-ExtraBold.ttf
  4

  0
STYLE
  5
38
330
5
100
AcDbSymbolTableRecord
100
AcDbTextStyleTableRecord
  2
OpenSans-ExtraBoldItalic
 70
0
 40
0.0
 41
1.0
 50
0.0
 71
0
 42
2.5
  3
OpenSans-ExtraBoldItalic.ttf
  4

  0
STYLE
  5
39
330
5
100
AcDbSymbolTableRecord
100
AcDbTextStyleTableRecord
  2
OpenSansCondensed-Bold
 70
0
 40
0.0
 41
1.0
 50
0.0
 71
0
 42
2.5
  3
OpenSansCondensed-Bold.ttf
  4

  0
STYLE
  5
3A
330
5
100
AcDbSymbolTableRecord
100
AcDbTextStyleTableRecord
  2
OpenSansCondensed-Light
 70
0
 40
0.0
 41
1.0
 50
0.0
 71
0
 42
2.5
  3
OpenSansCondensed-Light.ttf
  4

  0
STYLE
  5
3B
330
5
100
AcDbSymbolTableRecord
100
AcDbTextStyleTableRecord
  2
OpenSansCondensed-Italic
 70
0
 40
0.0
 41
1.0
 50
0.0
 71
0
 42
2.5
  3
OpenSansCondensed-LightItalic.ttf
  4

  0
STYLE
  5
3C
330
5
100
AcDbSymbolTableRecord
100
AcDbTextStyleTableRecord
  2
LiberationSans
 70
0
 40
0.0
 41
1.0
 50
0.0
 71
0
 42
2.5
  3
LiberationSans-Regular.ttf
  4

  0
STYLE
  5
3D
330
5
100
AcDbSymbolTableRecord
100
AcDbTextStyleTableRecord
  2
LiberationSans-Bold
 70
0
 40
0.0
 41
1.0
 50
0.0
 71
0
 42
2.5
  3
LiberationSans-Bold.ttf
  4

  0
STYLE
  5
3E
330
5
100
AcDbSymbolTableRecord
100
AcDbTextStyleTableRecord
  2
LiberationSans-BoldItalic
 70
0
 40
0.0
 41
1.0
 50
0.0
 71
0
 42
2.5
  3
LiberationSans-BoldItalic.ttf
  4

  0
STYLE
  5
3F
330
5
100
AcDbSymbolTableRecord
100
AcDbTextStyleTableRecord
  2
LiberationSans-Italic
 70
0
 40
0.0
 41
1.0
 50
0.0
 71
0
 42
2.5
  3
LiberationSans-Italic.ttf
  4

  0
STYLE
  5
40
330
5
100
AcDbSymbolTableRecord
100
AcDbTextStyleTableRecord
  2
LiberationSerif
 70
0
 40
0.0
 41
1.0
 50
0.0
 71
0
 42
2.5
  3
LiberationSerif-Regular.ttf
  4

  0
STYLE
  5
41
330
5
100
AcDbSymbolTableRecord
100
AcDbTextStyleTableRecord
  2
LiberationSerif-Bold
 70
0
 40
0.0
 41
1.0
 50
0.0
 71
0
 42
2.5
  3
LiberationSerif-Bold.ttf
  4

  0
STYLE
  5
42
330
5
100
AcDbSymbolTableRecord
100
AcDbTextStyleTableRecord
  2
LiberationSerif-BoldItalic
 70
0
 40
0.0
 41
1.0
 50
0.0
 71
0
 42
2.5
  3
LiberationSerif-BoldItalic.ttf
  4

  0
STYLE
  5
43
330
5
100
AcDbSymbolTableRecord
100
AcDbTextStyleTableRecord
  2
LiberationSerif-Italic
 70
0
 40
0.0
 41
1.0
 50
0.0
 71
0
 42
2.5
  3
LiberationSerif-Italic.ttf
  4

  0
STYLE
  5
44
330
5
100
AcDbSymbolTableRecord
100
AcDbTextStyleTableRecord
  2
LiberationMono
 70
0
 40
0.0
 41
1.0
 50
0.0
 71
0
 42
2.5
  3
LiberationMono-Regular.ttf
  4

  0
STYLE
  5
45
330
5
100
AcDbSymbolTableRecord
100
AcDbTextStyleTableRecord
  2
LiberationMono-Bold
 70
0
 40
0.0
 41
1.0
 50
0.0
 71
0
 42
2.5
  3
LiberationMono-Bold.ttf
  4

  0
STYLE
  5
46
330
5
100
AcDbSymbolTableRecord
100
AcDbTextStyleTableRecord
  2
LiberationMono-BoldItalic
 70
0
 40
0.0
 41
1.0
 50
0.0
 71
0
 42
2.5
  3
LiberationMono-BoldItalic.ttf
  4

  0
STYLE
  5
47
330
5
100
AcDbSymbolTableRecord
100
AcDbTextStyleTableRecord
  2
LiberationMono-Italic
 70
0
 40
0.0
 41
1.0
 50
0.0
 71
0
 42
2.5
  3
LiberationMono-Italic.ttf
  4

  0
STYLE
  5
4C
330
5
100
AcDbSymbolTableRecord
100
AcDbTextStyleTableRecord
  2
YAZI
 70
0
 40
0.0
 41
1.0
 50
0.0
 71
0
 42
2.5
  3
arialn.ttf
  4

  0
STYLE
  5
4D
330
5
100
AcDbSymbolTableRecord
100
AcDbTextStyleTableRecord
  2
YAZI-KALIN
 70
0
 40
0.0
 41
1.0
 50
0.0
 71
0
 42
2.5
  3
arialnb.ttf
  4

  0
ENDTAB
  0
TABLE
  2
VIEW
  5
7
330
0
100
AcDbSymbolTable
 70
0
  0
ENDTAB
  0
TABLE
  2
UCS
  5
6
330
0
100
AcDbSymbolTable
 70
0
  0
ENDTAB
  0
TABLE
  2
APPID
  5
3
330
0
100
AcDbSymbolTable
 70
4
  0
APPID
  5
2A
330
3
100
AcDbSymbolTableRecord
100
AcDbRegAppTableRecord
  2
ACAD
 70
0
  0
APPID
  5
51
330
3
100
AcDbSymbolTableRecord
100
AcDbRegAppTableRecord
  2
AcAecLayerStandard
 70
0
  0
APPID
  5
14A
330
3
100
AcDbSymbolTableRecord
100
AcDbRegAppTableRecord
  2
HATCHBACKGROUNDCOLOR
 70
0
  0
APPID
  5
14B
330
3
100
AcDbSymbolTableRecord
100
AcDbRegAppTableRecord
  2
EZDXF
 70
0
  0
ENDTAB
  0
TABLE
  2
DIMSTYLE
  5
4
330
0
100
AcDbSymbolTable
 70
2
100
AcDbDimStyleTable
  0
DIMSTYLE
105
2B
330
4
100
AcDbSymbolTableRecord
100
AcDbDimStyleTableRecord
  2
Standard
 70
0
 40
1.0
 41
2.5
 42
0.625
 43
3.75
 44
1.25
 45
0.0
 46
0.0
 47
0.0
 48
0.0
 49
2.5
140
2.5
141
2.5
142
0.0
143
0.03937007874
144
1.0
145
0.0
146
1.0
147
0.625
148
0.0
 69
0
 70
0
 71
0
 72
0
 73
0
 74
0
 75
0
 76
0
 77
1
 78
8
 79
3
170
0
171
3
172
1
173
0
174
0
175
0
176
0
177
0
178
0
179
2
271
2
272
2
273
2
274
3
275
0
276
0
277
2
278
44
279
0
280
0
281
0
282
0
283
0
284
8
285
0
286
0
288
0
289
3
290
0
371
-2
372
-2
  0
DIMSTYLE
105
4E
330
4
100
AcDbSymbolTableRecord
100
AcDbDimStyleTableRecord
  2
MIMARI
 70
0
 40
1.0
 41
2.5
 42
0.0
 43
3.75
 44
1.2
 45
0.0
 46
0.0
 47
0.0
 48
0.0
 49
2.5
140
1.296
141
2.5
142
0.8
143
0.03937007874
144
1.0
145
0.0
146
1.0
147
0.5
148
0.0
 69
0
 70
0
 71
0
 72
0
 73
0
 74
0
 75
0
 76
0
 77
1
 78
8
 79
3
170
0
171
3
172
1
173
0
174
0
175
0
176
256
177
256
178
256
179
2
271
0
272
2
273
2
274
3
275
0
276
0
277
2
278
44
279
0
280
0
281
0
282
0
283
0
284
8
285
0
286
0
288
0
289
3
290
0
340
4C
371
-2
372
-2
  0
ENDTAB
  0
TABLE
  2
BLOCK_RECORD
  5
9
330
0
100
AcDbSymbolTable
 70
2
  0
BLOCK_RECORD
  5
17
330
9
100
AcDbSymbolTableRecord
100
AcDbBlockTableRecord
  2
*Model_Space
340
1A
 70
0
280
1
281
0
  0
BLOCK_RECORD
  5
1B
330
9
100
AcDbSymbolTableRecord
100
AcDbBlockTableRecord
  2
*Paper_Space
340
1E
 70
0
280
1
281
0
  0
ENDTAB
  0
ENDSEC
  0
SECTION
  2
BLOCKS
  0
BLOCK
  5
18
330
17
100
AcDbEntity
  8
0
100
AcDbBlockBegin
  2
*Model_Space
 70
0
 10
0.0
 20
0.0
 30
0.0
  3
*Model_Space
  1

  0
ENDBLK
  5
19
330
17
100
AcDbEntity
  8
0
100
AcDbBlockEnd
  0
BLOCK
  5
1C
330
1B
100
AcDbEntity
  8
0
100
AcDbBlockBegin
  2
*Paper_Space
 70
0
 10
0.0
 20
0.0
 30
0.0
  3
*Paper_Space
  1

  0
ENDBLK
  5
1D
330
1B
100
AcDbEntity
  8
0
100
AcDbBlockEnd
  0
ENDSEC
  0
SECTION
  2
ENTITIES
  0
HATCH
  5
52
330
17
100
AcDbEntity
  8
M-CVRE-ZEMIN-T
 62
7
100
AcDbHatch
 10
0.0
 20
0.0
 30
0.0
210
0.0
220
0.0
230
1.0
  2
EARTH
 70
0
 71
0
 91
1
 92
3
 72
0
 73
1
 93
4
 10
300.0
 20
-30.0
 10
520.0
 20
-30.0
 10
520.0
 20
-395.0
 10
300.0
 20
-395.0
 97
0
 75
1
 76
1
 52
0.0
 41
2.5
 77
0
 78
6
 53
0.0
 43
0.0
 44
0.0
 45
15.875
 46
15.875
 79
2
 49
15.875
 49
-15.875
 53
0.0
 43
0.0
 44
5.953125
 45
15.875
 46
15.875
 79
2
 49
15.875
 49
-15.875
 53
0.0
 43
0.0
 44
11.90625
 45
15.875
 46
15.875
 79
2
 49
15.875
 49
-15.875
 53
90.0
 43
1.984375
 44
13.890625
 45
-15.875
 46
15.875
 79
2
 49
15.875
 49
-15.875
 53
90.0
 43
7.9375
 44
13.890625
 45
-15.875
 46
15.875
 79
2
 49
15.875
 49
-15.875
 53
90.0
 43
13.890625
 44
13.890625
 45
-15.875
 46
15.875
 79
2
 49
15.875
 49
-15.875
 98
0
  0
HATCH
  5
54
330
17
100
AcDbEntity
  8
M-TASI-BETONARME-T
100
AcDbHatch
 10
0.0
 20
0.0
 30
0.0
210
0.0
220
0.0
230
1.0
  2
SOLID
 70
1
 71
0
 91
1
 92
3
 72
0
 73
1
 93
4
 10
0.0
 20
-315.99999999999994
 10
350.0
 20
-315.99999999999994
 10
350.0
 20
-375.99999999999994
 10
0.0
 20
-375.99999999999994
 97
0
 75
1
 76
1
 98
0
  0
HATCH
  5
55
330
17
100
AcDbEntity
  8
M-TASI-BETONARME-T
 62
7
100
AcDbHatch
 10
0.0
 20
0.0
 30
0.0
210
0.0
220
0.0
230
1.0
  2
AR-CONC
 70
0
 71
0
 91
1
 92
3
 72
0
 73
1
 93
4
 10
0.0
 20
-375.99999999999994
 10
360.0
 20
-375.99999999999994
 10
360.0
 20
-385.99999999999994
 10
0.0
 20
-385.99999999999994
 97
0
 75
1
 76
1
 52
0.0
 41
0.15
 77
0
 78
13
 53
50.0
 43
0.0
 44
0.0
 45
27.3277003494
 46
-2.3908628308
 79
2
 49
2.8575
 49
-31.4325
 53
355.0
 43
0.0
 44
0.0
 45
-5.2865132138
 46
28.6585267859
 79
2
 49
2.286
 49
-25.1460876255
 53
100.4514447
 43
2.27730105
 44
-0.199238025
 45
22.0411870636
 46
26.2676627868
 79
2
 49
2.42850132
 49
-26.71353669
 53
46.1842
 43
0.0
 44
7.62
 45
40.6618561338
 46
-6.3063491899
 79
2
 49
4.28625
 49
-47.14875
 53
96.63555761
 43
3.388485
 44
7.094475
 45
35.6106201077
 46
37.1139186897
 79
2
 49
3.642753471
 49
-40.070341224
 53
351.18415117
 43
0.0
 44
7.62
 45
35.6106201097
 46
37.1139186878
 79
2
 49
3.4289950605
 49
-37.718959788
 53
21.0
 43
3.81
 44
5.715
 45
22.7421586904
 46
-15.3397797281
 79
2
 49
2.8575
 49
-31.4325
 53
326.0
 43
3.81
 44
5.715
 45
9.2703042521
 46
27.6281949183
 79
2
 49
2.286
 49
-25.146
 53
71.451445
 43
5.70517989
 44
4.436685015
 45
32.0124628918
 46
12.2884153329
 79
2
 49
2.42850132
 49
-26.71349064
 53
37.5
 43
0.0
 44
0.0
 45
0.4632904876
 46
12.683255831
 79
6
 49
0.0
 49
-24.8412
 49
0.0
 49
-25.527
 49
0.0
 49
-25.24125
 53
7.5
 43
0.0
 44
0.0
 45
10.0229493765
 46
15.0270862227
 79
6
 49
0.0
 49
-14.5542
 49
0.0
 49
-24.2697
 49
0.0
 49
-9.62025
 53
-32.5
 43
-8.4963
 44
0.0
 45
20.338589275
 46
-0.8593115989
 79
6
 49
0.0
 49
-9.525
 49
0.0
 49
-29.718
 49
0.0
 49
-39.4335
 53
-42.5
 43
-12.3063
 44
0.0
 45
22.2193772079
 46
3.813973655
 79
6
 49
0.0
 49
-12.3825
 49
0.0
 49
-19.7358
 49
0.0
 49
-28.0035
 98
0
  0
LWPOLYLINE
  5
57
330
17
100
AcDbEntity
  8
M-TASI-BETONARME
100
AcDbPolyline
 90
4
 70
1
 10
0.0
 20
-375.99999999999994
 10
360.0
 20
-375.99999999999994
 10
360.0
 20
-385.99999999999994
 10
0.0
 20
-385.99999999999994
  0
LWPOLYLINE
  5
58
330
17
100
AcDbEntity
  8
M-TASI-BETONARME
100
AcDbPolyline
 90
4
 70
1
 10
0.0
 20
-305.99999999999994
 10
265.0
 20
-305.99999999999994
 10
265.0
 20
-315.99999999999994
 10
0.0
 20
-315.99999999999994
  0
HATCH
  5
5A
330
17
100
AcDbEntity
  8
M-ISYA-TASYUNU-T
 62
7
100
AcDbHatch
 10
0.0
 20
0.0
 30
0.0
210
0.0
220
0.0
230
1.0
  2
INSUL
 70
0
 71
0
 91
1
 92
3
 72
0
 73
1
 93
4
 10
0.0
 20
-310.99999999999994
 10
265.0
 20
-310.99999999999994
 10
265.0
 20
-315.99999999999994
 10
0.0
 20
-315.99999999999994
 97
0
 75
1
 76
1
 52
0.0
 41
0.25
 77
0
 78
3
 53
0.0
 43
0.0
 44
0.0
 45
0.0
 46
2.38125
 79
0
 53
0.0
 43
0.0
 44
0.79375
 45
0.0
 46
2.38125
 79
2
 49
0.79375
 49
-0.79375
 53
0.0
 43
0.0
 44
1.5875
 45
0.0
 46
2.38125
 79
2
 49
0.79375
 49
-0.79375
 98
0
  0
LWPOLYLINE
  5
5B
330
17
100
AcDbEntity
  8
M-TASI-BETONARME
100
AcDbPolyline
 90
4
 70
1
 10
0.0
 20
-310.99999999999994
 10
265.0
 20
-310.99999999999994
 10
265.0
 20
-315.99999999999994
 10
0.0
 20
-315.99999999999994
  0
HATCH
  5
5C
330
17
100
AcDbEntity
  8
M-TASI-BETONARME-T
100
AcDbHatch
 10
0.0
 20
0.0
 30
0.0
210
0.0
220
0.0
230
1.0
  2
SOLID
 70
1
 71
0
 91
1
 92
3
 72
0
 73
1
 93
4
 10
265.0
 20
0.0
 10
295.0
 20
0.0
 10
295.0
 20
-315.99999999999994
 10
265.0
 20
-315.99999999999994
 97
0
 75
1
 76
1
 98
0
  0
HATCH
  5
5D
330
17
100
AcDbEntity
  8
M-ISYA-TASYUNU-T
 62
7
100
AcDbHatch
 10
0.0
 20
0.0
 30
0.0
210
0.0
220
0.0
230
1.0
  2
INSUL
 70
0
 71
0
 91
1
 92
3
 72
0
 73
1
 93
4
 10
294.99999999999994
 20
30.0
 10
299.99999999999994
 20
30.0
 10
299.99999999999994
 20
-315.99999999999994
 10
294.99999999999994
 20
-315.99999999999994
 97
0
 75
1
 76
1
 52
0.0
 41
0.25
 77
0
 78
3
 53
0.0
 43
0.0
 44
0.0
 45
0.0
 46
2.38125
 79
0
 53
0.0
 43
0.0
 44
0.79375
 45
0.0
 46
2.38125
 79
2
 49
0.79375
 49
-0.79375
 53
0.0
 43
0.0
 44
1.5875
 45
0.0
 46
2.38125
 79
2
 49
0.79375
 49
-0.79375
 98
0
  0
LWPOLYLINE
  5
5E
330
17
100
AcDbEntity
  8
M-TASI-BETONARME
100
AcDbPolyline
 90
4
 70
1
 10
294.99999999999994
 20
30.0
 10
299.99999999999994
 20
30.0
 10
299.99999999999994
 20
-315.99999999999994
 10
294.99999999999994
 20
-315.99999999999994
  0
HATCH
  5
5F
330
17
100
AcDbEntity
  8
M-TASI-BETONARME-T
100
AcDbHatch
 10
0.0
 20
0.0
 30
0.0
210
0.0
220
0.0
230
1.0
  2
SOLID
 70
1
 71
0
 91
1
 92
3
 72
0
 73
1
 93
4
 10
300.0
 20
30.0
 10
302.0
 20
30.0
 10
302.0
 20
-315.99999999999994
 10
300.0
 20
-315.99999999999994
 97
0
 75
1
 76
1
 98
0
  0
CIRCLE
  5
60
330
17
100
AcDbEntity
  8
M-TASI-BETONARME
100
AcDbCircle
 10
325.0
 20
-300.0
 30
0.0
 40
8.0
  0
LWPOLYLINE
  5
61
330
17
100
AcDbEntity
  8
M-TASI-BETONARME
100
AcDbPolyline
 90
4
 70
1
 10
301.99999999999994
 20
-260.0
 10
361.99999999999994
 20
-260.0
 10
361.99999999999994
 20
-330.0
 10
301.99999999999994
 20
-330.0
  0
CIRCLE
  5
62
330
17
100
AcDbEntity
  8
M-TASI-BETONARME
100
AcDbCircle
 10
340.0
 20
-300.0
 30
0.0
 40
20.0
  0
TEXT
  5
64
330
17
100
AcDbEntity
  8
M-GOST-YAZI
100
AcDbText
 10
140.0
 20
-140.0
 30
0.0
 40
8.64
  1
MİSAFİR ODASI (bodrum)
  7
YAZI-KALIN
 72
1
 11
140.0
 21
-140.0
 31
0.0
100
AcDbText
  0
HATCH
  5
65
330
17
100
AcDbEntity
  8
M-TASI-BETONARME-T
100
AcDbHatch
 10
0.0
 20
0.0
 30
0.0
210
0.0
220
0.0
230
1.0
  2
SOLID
 70
1
 71
0
 91
1
 92
3
 72
0
 73
1
 93
4
 10
0.0
 20
-10.0
 10
300.0
 20
-10.0
 10
300.0
 20
-30.0
 10
0.0
 20
-30.0
 97
0
 75
1
 76
1
 98
0
  0
LWPOLYLINE
  5
66
330
17
100
AcDbEntity
  8
M-TASI-BETONARME
100
AcDbPolyline
 90
4
 70
1
 10
0.0
 20
0.0
 10
265.0
 20
0.0
 10
265.0
 20
-10.0
 10
0.0
 20
-10.0
  0
HATCH
  5
67
330
17
100
AcDbEntity
  8
M-TASI-BETONARME-T
100
AcDbHatch
 10
0.0
 20
0.0
 30
0.0
210
0.0
220
0.0
230
1.0
  2
SOLID
 70
1
 71
0
 91
1
 92
3
 72
0
 73
1
 93
4
 10
269.99999999999994
 20
-30.0
 10
299.99999999999994
 20
-30.0
 10
299.99999999999994
 20
-60.0
 10
269.99999999999994
 20
-60.0
 97
0
 75
1
 76
1
 98
0
  0
CIRCLE
  5
68
330
17
100
AcDbEntity
  8
M-TASI-BETONARME
100
AcDbCircle
 10
30.00000000000007
 20
-5.0
 30
0.0
 40
2.0
  0
CIRCLE
  5
69
330
17
100
AcDbEntity
  8
M-TASI-BETONARME
100
AcDbCircle
 10
65.00000000000003
 20
-5.0
 30
0.0
 40
2.0
  0
CIRCLE
  5
6A
330
17
100
AcDbEntity
  8
M-TASI-BETONARME
100
AcDbCircle
 10
100.0
 20
-5.0
 30
0.0
 40
2.0
  0
CIRCLE
  5
6B
330
17
100
AcDbEntity
  8
M-TASI-BETONARME
100
AcDbCircle
 10
135.00000000000014
 20
-5.0
 30
0.0
 40
2.0
  0
CIRCLE
  5
6C
330
17
100
AcDbEntity
  8
M-TASI-BETONARME
100
AcDbCircle
 10
170.00000000000014
 20
-5.0
 30
0.0
 40
2.0
  0
CIRCLE
  5
6D
330
17
100
AcDbEntity
  8
M-TASI-BETONARME
100
AcDbCircle
 10
205.00000000000006
 20
-5.0
 30
0.0
 40
2.0
  0
CIRCLE
  5
6E
330
17
100
AcDbEntity
  8
M-TASI-BETONARME
100
AcDbCircle
 10
240.0
 20
-5.0
 30
0.0
 40
2.0
  0
CIRCLE
  5
6F
330
17
100
AcDbEntity
  8
M-TASI-BETONARME
100
AcDbCircle
 10
275.0
 20
-5.0
 30
0.0
 40
2.0
  0
HATCH
  5
70
330
17
100
AcDbEntity
  8
M-TASI-BETONARME-T
100
AcDbHatch
 10
0.0
 20
0.0
 30
0.0
210
0.0
220
0.0
230
1.0
  2
SOLID
 70
1
 71
0
 91
1
 92
3
 72
0
 73
1
 93
4
 10
0.0
 20
310.0
 10
300.0
 20
310.0
 10
300.0
 20
290.0
 10
0.0
 20
290.0
 97
0
 75
1
 76
1
 98
0
  0
LWPOLYLINE
  5
71
330
17
100
AcDbEntity
  8
M-TASI-BETONARME
100
AcDbPolyline
 90
4
 70
1
 10
0.0
 20
320.0
 10
265.0
 20
320.0
 10
265.0
 20
310.0
 10
0.0
 20
310.0
  0
HATCH
  5
72
330
17
100
AcDbEntity
  8
M-TASI-BETONARME-T
100
AcDbHatch
 10
0.0
 20
0.0
 30
0.0
210
0.0
220
0.0
230
1.0
  2
SOLID
 70
1
 71
0
 91
1
 92
3
 72
0
 73
1
 93
4
 10
269.99999999999994
 20
290.0
 10
299.99999999999994
 20
290.0
 10
299.99999999999994
 20
260.0
 10
269.99999999999994
 20
260.0
 97
0
 75
1
 76
1
 98
0
  0
CIRCLE
  5
73
330
17
100
AcDbEntity
  8
M-TASI-BETONARME
100
AcDbCircle
 10
30.00000000000007
 20
315.0
 30
0.0
 40
2.0
  0
CIRCLE
  5
74
330
17
100
AcDbEntity
  8
M-TASI-BETONARME
100
AcDbCircle
 10
65.00000000000003
 20
315.0
 30
0.0
 40
2.0
  0
CIRCLE
  5
75
330
17
100
AcDbEntity
  8
M-TASI-BETONARME
100
AcDbCircle
 10
100.0
 20
315.0
 30
0.0
 40
2.0
  0
CIRCLE
  5
76
330
17
100
AcDbEntity
  8
M-TASI-BETONARME
100
AcDbCircle
 10
135.00000000000014
 20
315.0
 30
0.0
 40
2.0
  0
CIRCLE
  5
77
330
17
100
AcDbEntity
  8
M-TASI-BETONARME
100
AcDbCircle
 10
170.00000000000014
 20
315.0
 30
0.0
 40
2.0
  0
CIRCLE
  5
78
330
17
100
AcDbEntity
  8
M-TASI-BETONARME
100
AcDbCircle
 10
205.00000000000006
 20
315.0
 30
0.0
 40
2.0
  0
CIRCLE
  5
79
330
17
100
AcDbEntity
  8
M-TASI-BETONARME
100
AcDbCircle
 10
240.0
 20
315.0
 30
0.0
 40
2.0
  0
CIRCLE
  5
7A
330
17
100
AcDbEntity
  8
M-TASI-BETONARME
100
AcDbCircle
 10
275.0
 20
315.0
 30
0.0
 40
2.0
  0
HATCH
  5
7B
330
17
100
AcDbEntity
  8
M-TASI-BETONARME-T
100
AcDbHatch
 10
0.0
 20
0.0
 30
0.0
210
0.0
220
0.0
230
1.0
  2
SOLID
 70
1
 71
0
 91
1
 92
3
 72
0
 73
1
 93
4
 10
0.0
 20
620.0
 10
300.0
 20
620.0
 10
300.0
 20
600.0
 10
0.0
 20
600.0
 97
0
 75
1
 76
1
 98
0
  0
HATCH
  5
7C
330
17
100
AcDbEntity
  8
M-ISYA-TASYUNU-T
 62
7
100
AcDbHatch
 10
0.0
 20
0.0
 30
0.0
210
0.0
220
0.0
230
1.0
  2
INSUL
 70
0
 71
0
 91
1
 92
3
 72
0
 73
1
 93
4
 10
0.0
 20
634.0
 10
265.0
 20
634.0
 10
265.0
 20
620.0
 10
0.0
 20
620.0
 97
0
 75
1
 76
1
 52
0.0
 41
0.25
 77
0
 78
3
 53
0.0
 43
0.0
 44
0.0
 45
0.0
 46
2.38125
 79
0
 53
0.0
 43
0.0
 44
0.79375
 45
0.0
 46
2.38125
 79
2
 49
0.79375
 49
-0.79375
 53
0.0
 43
0.0
 44
1.5875
 45
0.0
 46
2.38125
 79
2
 49
0.79375
 49
-0.79375
 98
0
  0
LWPOLYLINE
  5
7D
330
17
100
AcDbEntity
  8
M-TASI-BETONARME
100
AcDbPolyline
 90
4
 70
1
 10
0.0
 20
634.0
 10
265.0
 20
634.0
 10
265.0
 20
620.0
 10
0.0
 20
620.0
  0
HATCH
  5
7E
330
17
100
AcDbEntity
  8
M-TASI-BETONARME-T
100
AcDbHatch
 10
0.0
 20
0.0
 30
0.0
210
0.0
220
0.0
230
1.0
  2
SOLID
 70
1
 71
0
 91
1
 92
3
 72
0
 73
1
 93
4
 10
269.99999999999994
 20
600.0
 10
299.99999999999994
 20
600.0
 10
299.99999999999994
 20
570.0
 10
269.99999999999994
 20
570.0
 97
0
 75
1
 76
1
 98
0
  0
LWPOLYLINE
  5
80
330
17
100
AcDbEntity
  8
M-PNKS-ALUMINYUM
100
AcDbPolyline
 90
4
 70
1
 10
275.0
 20
260.0
 10
287.0
 20
260.0
 10
287.0
 20
0.0
 10
275.0
 20
0.0
  0
HATCH
  5
82
330
17
100
AcDbEntity
  8
M-DUVA-GAZBETON-T
 62
7
100
AcDbHatch
 10
0.0
 20
0.0
 30
0.0
210
0.0
220
0.0
230
1.0
  2
ANSI31
 70
0
 71
0
 91
1
 92
3
 72
0
 73
1
 93
4
 10
265.0
 20
290.0
 10
300.0
 20
290.0
 10
300.0
 20
260.0
 10
265.0
 20
260.0
 97
0
 75
1
 76
1
 52
0.0
 41
3.0
 77
0
 78
1
 53
45.0
 43
0.0
 44
0.0
 45
-6.7351920909
 46
6.7351920909
 79
0
 98
0
  0
LWPOLYLINE
  5
83
330
17
100
AcDbEntity
  8
M-PNKS-ALUMINYUM
100
AcDbPolyline
 90
4
 70
1
 10
265.0
 20
290.0
 10
300.0
 20
290.0
 10
300.0
 20
260.0
 10
265.0
 20
260.0
  0
LWPOLYLINE
  5
84
330
17
100
AcDbEntity
  8
M-PNKS-ALUMINYUM
100
AcDbPolyline
 90
4
 70
1
 10
297.0
 20
320.0
 10
300.0
 20
320.0
 10
300.0
 20
260.0
 10
297.0
 20
260.0
  0
HATCH
  5
85
330
17
100
AcDbEntity
  8
M-PNKS-ALUMINYUM
100
AcDbHatch
 10
0.0
 20
0.0
 30
0.0
210
0.0
220
0.0
230
1.0
  2
SOLID
 70
1
 71
0
 91
1
 92
3
 72
0
 73
1
 93
4
 10
269.99999999999994
 20
2.0000000000000284
 10
303.9999999999999
 20
2.0000000000000284
 10
303.9999999999999
 20
-2.0000000000000284
 10
269.99999999999994
 20
-2.0000000000000284
 97
0
 75
1
 76
1
 98
0
  0
TEXT
  5
86
330
17
100
AcDbEntity
  8
M-GOST-YAZI
100
AcDbText
 10
140.0
 20
130.0
 30
0.0
 40
8.64
  1
SALON
  7
YAZI-KALIN
 72
1
 11
140.0
 21
130.0
 31
0.0
100
AcDbText
  0
LWPOLYLINE
  5
87
330
17
100
AcDbEntity
  8
M-PNKS-ALUMINYUM
100
AcDbPolyline
 90
4
 70
1
 10
275.0
 20
550.0
 10
287.0
 20
550.0
 10
287.0
 20
320.0
 10
275.0
 20
320.0
  0
HATCH
  5
88
330
17
100
AcDbEntity
  8
M-DUVA-GAZBETON-T
 62
7
100
AcDbHatch
 10
0.0
 20
0.0
 30
0.0
210
0.0
220
0.0
230
1.0
  2
ANSI31
 70
0
 71
0
 91
1
 92
3
 72
0
 73
1
 93
4
 10
265.0
 20
600.0
 10
300.0
 20
600.0
 10
300.0
 20
550.0
 10
265.0
 20
550.0
 97
0
 75
1
 76
1
 52
0.0
 41
3.0
 77
0
 78
1
 53
45.0
 43
0.0
 44
0.0
 45
-6.7351920909
 46
6.7351920909
 79
0
 98
0
  0
LWPOLYLINE
  5
89
330
17
100
AcDbEntity
  8
M-PNKS-ALUMINYUM
100
AcDbPolyline
 90
4
 70
1
 10
265.0
 20
600.0
 10
300.0
 20
600.0
 10
300.0
 20
550.0
 10
265.0
 20
550.0
  0
HATCH
  5
8A
330
17
100
AcDbEntity
  8
M-ISYA-TASYUNU-T
 62
7
100
AcDbHatch
 10
0.0
 20
0.0
 30
0.0
210
0.0
220
0.0
230
1.0
  2
INSUL
 70
0
 71
0
 91
1
 92
3
 72
0
 73
1
 93
4
 10
292.0
 20
600.0
 10
300.0
 20
600.0
 10
300.0
 20
550.0
 10
292.0
 20
550.0
 97
0
 75
1
 76
1
 52
0.0
 41
0.25
 77
0
 78
3
 53
0.0
 43
0.0
 44
0.0
 45
0.0
 46
2.38125
 79
0
 53
0.0
 43
0.0
 44
0.79375
 45
0.0
 46
2.38125
 79
2
 49
0.79375
 49
-0.79375
 53
0.0
 43
0.0
 44
1.5875
 45
0.0
 46
2.38125
 79
2
 49
0.79375
 49
-0.79375
 98
0
  0
LWPOLYLINE
  5
8B
330
17
100
AcDbEntity
  8
M-PNKS-ALUMINYUM
100
AcDbPolyline
 90
4
 70
1
 10
292.0
 20
600.0
 10
300.0
 20
600.0
 10
300.0
 20
550.0
 10
292.0
 20
550.0
  0
HATCH
  5
8C
330
17
100
AcDbEntity
  8
M-PNKS-ALUMINYUM
100
AcDbHatch
 10
0.0
 20
0.0
 30
0.0
210
0.0
220
0.0
230
1.0
  2
SOLID
 70
1
 71
0
 91
1
 92
3
 72
0
 73
1
 93
4
 10
280.00000000000006
 20
570.0
 10
297.0000000000001
 20
570.0
 10
297.0000000000001
 20
552.0
 10
280.00000000000006
 20
552.0
 97
0
 75
1
 76
1
 98
0
  0
TEXT
  5
8D
330
17
100
AcDbEntity
  8
M-GOST-YAZI
100
AcDbText
 10
140.0
 20
450.0
 30
0.0
 40
8.64
  1
EBEVEYN YATAK ODASI
  7
YAZI-KALIN
 72
1
 11
140.0
 21
450.0
 31
0.0
100
AcDbText
  0
HATCH
  5
8E
330
17
100
AcDbEntity
  8
M-PNKS-ALUMINYUM
100
AcDbHatch
 10
0.0
 20
0.0
 30
0.0
210
0.0
220
0.0
230
1.0
  2
SOLID
 70
1
 71
0
 91
1
 92
3
 72
0
 73
1
 93
4
 10
300.0
 20
318.0
 10
450.0
 20
318.0
 10
450.0
 20
300.0
 10
300.0
 20
300.0
 97
0
 75
1
 76
1
 98
0
  0
LWPOLYLINE
  5
8F
330
17
100
AcDbEntity
  8
M-PNKS-ALUMINYUM
100
AcDbPolyline
 90
4
 70
1
 10
300.0
 20
321.0
 10
450.0
 20
321.0
 10
450.0
 20
318.00000000000006
 10
300.0
 20
318.00000000000006
  0
LWPOLYLINE
  5
90
330
17
100
AcDbEntity
  8
M-PNKS-ALUMINYUM
100
AcDbPolyline
 90
4
 70
1
 10
442.00000000000017
 20
428.00000000000006
 10
445.0000000000001
 20
428.00000000000006
 10
445.0000000000001
 20
308.0000000000001
 10
442.00000000000017
 20
308.0000000000001
  0
LWPOLYLINE
  5
93
330
17
100
AcDbEntity
  8
M-KALD-TAS
100
AcDbPolyline
 90
4
 70
1
 10
300.0
 20
-2.0000000000000284
 10
520.0
 20
-2.0000000000000284
 10
520.0
 20
-7.999999999999972
 10
300.0
 20
-7.999999999999972
  0
HATCH
  5
94
330
17
100
AcDbEntity
  8
M-TASI-BETONARME-T
 62
7
100
AcDbHatch
 10
0.0
 20
0.0
 30
0.0
210
0.0
220
0.0
230
1.0
  2
AR-CONC
 70
0
 71
0
 91
1
 92
3
 72
0
 73
1
 93
4
 10
300.0
 20
-7.999999999999972
 10
520.0
 20
-7.999999999999972
 10
520.0
 20
-10.999999999999943
 10
300.0
 20
-10.999999999999943
 97
0
 75
1
 76
1
 52
0.0
 41
0.15
 77
0
 78
13
 53
50.0
 43
0.0
 44
0.0
 45
27.3277003494
 46
-2.3908628308
 79
2
 49
2.8575
 49
-31.4325
 53
355.0
 43
0.0
 44
0.0
 45
-5.2865132138
 46
28.6585267859
 79
2
 49
2.286
 49
-25.1460876255
 53
100.4514447
 43
2.27730105
 44
-0.199238025
 45
22.0411870636
 46
26.2676627868
 79
2
 49
2.42850132
 49
-26.71353669
 53
46.1842
 43
0.0
 44
7.62
 45
40.6618561338
 46
-6.3063491899
 79
2
 49
4.28625
 49
-47.14875
 53
96.63555761
 43
3.388485
 44
7.094475
 45
35.6106201077
 46
37.1139186897
 79
2
 49
3.642753471
 49
-40.070341224
 53
351.18415117
 43
0.0
 44
7.62
 45
35.6106201097
 46
37.1139186878
 79
2
 49
3.4289950605
 49
-37.718959788
 53
21.0
 43
3.81
 44
5.715
 45
22.7421586904
 46
-15.3397797281
 79
2
 49
2.8575
 49
-31.4325
 53
326.0
 43
3.81
 44
5.715
 45
9.2703042521
 46
27.6281949183
 79
2
 49
2.286
 49
-25.146
 53
71.451445
 43
5.70517989
 44
4.436685015
 45
32.0124628918
 46
12.2884153329
 79
2
 49
2.42850132
 49
-26.71349064
 53
37.5
 43
0.0
 44
0.0
 45
0.4632904876
 46
12.683255831
 79
6
 49
0.0
 49
-24.8412
 49
0.0
 49
-25.527
 49
0.0
 49
-25.24125
 53
7.5
 43
0.0
 44
0.0
 45
10.0229493765
 46
15.0270862227
 79
6
 49
0.0
 49
-14.5542
 49
0.0
 49
-24.2697
 49
0.0
 49
-9.62025
 53
-32.5
 43
-8.4963
 44
0.0
 45
20.338589275
 46
-0.8593115989
 79
6
 49
0.0
 49
-9.525
 49
0.0
 49
-29.718
 49
0.0
 49
-39.4335
 53
-42.5
 43
-12.3063
 44
0.0
 45
22.2193772079
 46
3.813973655
 79
6
 49
0.0
 49
-12.3825
 49
0.0
 49
-19.7358
 49
0.0
 49
-28.0035
 98
0
  0
LWPOLYLINE
  5
95
330
17
100
AcDbEntity
  8
M-KALD-TAS
100
AcDbPolyline
 90
4
 70
1
 10
300.0
 20
-7.999999999999972
 10
520.0
 20
-7.999999999999972
 10
520.0
 20
-10.999999999999943
 10
300.0
 20
-10.999999999999943
  0
LWPOLYLINE
  5
96
330
17
100
AcDbEntity
  8
M-KALD-TAS
100
AcDbPolyline
 90
4
 70
1
 10
305.00000000000006
 20
-2.0000000000000284
 10
317.0000000000001
 20
-2.0000000000000284
 10
317.0000000000001
 20
-12.000000000000028
 10
305.00000000000006
 20
-12.000000000000028
  0
LWPOLYLINE
  5
99
330
17
100
AcDbEntity
  8
M-CKAP-KIREMIT
100
AcDbPolyline
 90
4
 70
1
 10
0.0
 20
759.0
 10
380.00000000000006
 20
645.0
 10
380.00000000000006
 20
619.0
 10
0.0
 20
733.0
  0
LINE
  5
9A
330
17
100
AcDbEntity
  8
M-CKAP-KIREMIT
100
AcDbLine
 10
0.0
 20
759.0
 30
0.0
 11
30.00000000000007
 21
750.0
 31
0.0
  0
LINE
  5
9B
330
17
100
AcDbEntity
  8
M-CKAP-KIREMIT
100
AcDbLine
 10
59.999999999999964
 20
741.0
 30
0.0
 11
90.0
 21
732.0
 31
0.0
  0
LINE
  5
9C
330
17
100
AcDbEntity
  8
M-CKAP-KIREMIT
100
AcDbLine
 10
119.99999999999993
 20
723.0000000000001
 30
0.0
 11
150.0
 21
714.0
 31
0.0
  0
LINE
  5
9D
330
17
100
AcDbEntity
  8
M-CKAP-KIREMIT
100
AcDbLine
 10
180.00000000000006
 20
705.0
 30
0.0
 11
210.00000000000014
 21
696.0
 31
0.0
  0
LINE
  5
9E
330
17
100
AcDbEntity
  8
M-CKAP-KIREMIT
100
AcDbLine
 10
240.0
 20
687.0
 30
0.0
 11
270.0000000000001
 21
678.0
 31
0.0
  0
LINE
  5
9F
330
17
100
AcDbEntity
  8
M-CKAP-KIREMIT
100
AcDbLine
 10
300.0
 20
669.0
 30
0.0
 11
330.00000000000006
 21
660.0
 31
0.0
  0
HATCH
  5
A0
330
17
100
AcDbEntity
  8
M-CKAP-KIREMIT-T
100
AcDbHatch
 10
0.0
 20
0.0
 30
0.0
210
0.0
220
0.0
230
1.0
  2
SOLID
 70
1
 71
0
 91
1
 92
3
 72
0
 73
1
 93
4
 10
376.00000000000017
 20
645.0
 10
380.0000000000001
 20
645.0
 10
380.0000000000001
 20
609.9999999999999
 10
376.00000000000017
 20
609.9999999999999
 97
0
 75
1
 76
1
 98
0
  0
CIRCLE
  5
A1
330
17
100
AcDbEntity
  8
M-CKAP-KIREMIT
100
AcDbCircle
 10
387.0000000000001
 20
635.0000000000001
 30
0.0
 40
8.0
  0
LWPOLYLINE
  5
A2
330
17
100
AcDbEntity
  8
M-CKAP-KIREMIT
100
AcDbPolyline
 90
4
 70
1
 10
300.0
 20
610.0
 10
380.0
 20
610.0
 10
380.0
 20
608.0
 10
300.0
 20
608.0
  0
LWPOLYLINE
  5
A3
330
17
100
AcDbEntity
  8
M-CKAP-KIREMIT
100
AcDbPolyline
 90
4
 70
1
 10
265.0
 20
653.5
 10
300.0
 20
653.5
 10
300.0
 20
619.9999999999999
 10
265.0
 20
619.9999999999999
  0
TEXT
  5
A4
330
17
100
AcDbEntity
  8
M-GOST-YAZI
100
AcDbText
 10
119.99999999999993
 20
675.0
 30
0.0
 40
7.92
  1
ÇATI ARASI
  7
YAZI-KALIN
 72
1
 11
119.99999999999993
 21
675.0
 31
0.0
100
AcDbText
  0
LINE
  5
A6
330
17
100
AcDbEntity
  8
M-GOST-KESITKOT
100
AcDbLine
 10
-15.0
 20
645.0
 30
0.0
 11
0.0
 21
645.0
 31
0.0
  0
LWPOLYLINE
  5
A7
330
17
100
AcDbEntity
  8
M-GOST-KESITKOT
100
AcDbPolyline
 90
3
 70
1
 10
-25.500000000000007
 20
654.5
 10
-14.499999999999993
 20
654.5
 10
-20.0
 20
645.0
  0
HATCH
  5
A8
330
17
100
AcDbEntity
  8
M-GOST-KESITKOT
100
AcDbHatch
 10
0.0
 20
0.0
 30
0.0
210
0.0
220
0.0
230
1.0
  2
SOLID
 70
1
 71
0
 91
1
 92
3
 72
0
 73
1
 93
3
 10
-25.500000000000007
 20
654.5
 10
-20.0
 20
654.5
 10
-20.0
 20
645.0
 97
0
 75
1
 76
1
 98
0
  0
TEXT
  5
A9
330
17
100
AcDbEntity
  8
M-GOST-KESITKOT
100
AcDbText
 10
-28.999999999999986
 20
647.0
 30
0.0
 40
7.199999999999999
  1
+6.45
  7
YAZI-KALIN
 72
2
 11
-28.999999999999986
 21
647.0
 31
0.0
100
AcDbText
  0
LINE
  5
AA
330
17
100
AcDbEntity
  8
M-GOST-KESITKOT
100
AcDbLine
 10
-15.0
 20
620.0
 30
0.0
 11
0.0
 21
620.0
 31
0.0
  0
LWPOLYLINE
  5
AB
330
17
100
AcDbEntity
  8
M-GOST-KESITKOT
100
AcDbPolyline
 90
3
 70
1
 10
-25.500000000000007
 20
629.5
 10
-14.499999999999993
 20
629.5
 10
-20.0
 20
620.0
  0
HATCH
  5
AC
330
17
100
AcDbEntity
  8
M-GOST-KESITKOT
100
AcDbHatch
 10
0.0
 20
0.0
 30
0.0
210
0.0
220
0.0
230
1.0
  2
SOLID
 70
1
 71
0
 91
1
 92
3
 72
0
 73
1
 93
3
 10
-25.500000000000007
 20
629.5
 10
-20.0
 20
629.5
 10
-20.0
 20
620.0
 97
0
 75
1
 76
1
 98
0
  0
TEXT
  5
AD
330
17
100
AcDbEntity
  8
M-GOST-KESITKOT
100
AcDbText
 10
-28.999999999999986
 20
622.0
 30
0.0
 40
7.199999999999999
  1
+6.20
  7
YAZI-KALIN
 72
2
 11
-28.999999999999986
 21
622.0
 31
0.0
100
AcDbText
  0
LINE
  5
AE
330
17
100
AcDbEntity
  8
M-GOST-KESITKOT
100
AcDbLine
 10
-15.0
 20
320.0
 30
0.0
 11
0.0
 21
320.0
 31
0.0
  0
LWPOLYLINE
  5
AF
330
17
100
AcDbEntity
  8
M-GOST-KESITKOT
100
AcDbPolyline
 90
3
 70
1
 10
-25.500000000000007
 20
329.5
 10
-14.499999999999993
 20
329.5
 10
-20.0
 20
320.0
  0
HATCH
  5
B0
330
17
100
AcDbEntity
  8
M-GOST-KESITKOT
100
AcDbHatch
 10
0.0
 20
0.0
 30
0.0
210
0.0
220
0.0
230
1.0
  2
SOLID
 70
1
 71
0
 91
1
 92
3
 72
0
 73
1
 93
3
 10
-25.500000000000007
 20
329.5
 10
-20.0
 20
329.5
 10
-20.0
 20
320.0
 97
0
 75
1
 76
1
 98
0
  0
TEXT
  5
B1
330
17
100
AcDbEntity
  8
M-GOST-KESITKOT
100
AcDbText
 10
-28.999999999999986
 20
322.0
 30
0.0
 40
7.199999999999999
  1
+3.20
  7
YAZI-KALIN
 72
2
 11
-28.999999999999986
 21
322.0
 31
0.0
100
AcDbText
  0
LINE
  5
B2
330
17
100
AcDbEntity
  8
M-GOST-KESITKOT
100
AcDbLine
 10
-15.0
 20
0.0
 30
0.0
 11
0.0
 21
0.0
 31
0.0
  0
LWPOLYLINE
  5
B3
330
17
100
AcDbEntity
  8
M-GOST-KESITKOT
100
AcDbPolyline
 90
3
 70
1
 10
-25.500000000000007
 20
9.500000000000028
 10
-14.499999999999993
 20
9.500000000000028
 10
-20.0
 20
0.0
  0
HATCH
  5
B4
330
17
100
AcDbEntity
  8
M-GOST-KESITKOT
100
AcDbHatch
 10
0.0
 20
0.0
 30
0.0
210
0.0
220
0.0
230
1.0
  2
SOLID
 70
1
 71
0
 91
1
 92
3
 72
0
 73
1
 93
3
 10
-25.500000000000007
 20
9.500000000000028
 10
-20.0
 20
9.500000000000028
 10
-20.0
 20
0.0
 97
0
 75
1
 76
1
 98
0
  0
TEXT
  5
B5
330
17
100
AcDbEntity
  8
M-GOST-KESITKOT
100
AcDbText
 10
-28.999999999999986
 20
2.0000000000000284
 30
0.0
 40
7.199999999999999
  1
%%p0.00
  7
YAZI-KALIN
 72
2
 11
-28.999999999999986
 21
2.0000000000000284
 31
0.0
100
AcDbText
  0
LINE
  5
B6
330
17
100
AcDbEntity
  8
M-GOST-KESITKOT
100
AcDbLine
 10
-15.0
 20
-30.0
 30
0.0
 11
0.0
 21
-30.0
 31
0.0
  0
LWPOLYLINE
  5
B7
330
17
100
AcDbEntity
  8
M-GOST-KESITKOT
100
AcDbPolyline
 90
3
 70
1
 10
-25.500000000000007
 20
-20.49999999999997
 10
-14.499999999999993
 20
-20.49999999999997
 10
-20.0
 20
-30.0
  0
HATCH
  5
B8
330
17
100
AcDbEntity
  8
M-GOST-KESITKOT
100
AcDbHatch
 10
0.0
 20
0.0
 30
0.0
210
0.0
220
0.0
230
1.0
  2
SOLID
 70
1
 71
0
 91
1
 92
3
 72
0
 73
1
 93
3
 10
-25.500000000000007
 20
-20.49999999999997
 10
-20.0
 20
-20.49999999999997
 10
-20.0
 20
-30.0
 97
0
 75
1
 76
1
 98
0
  0
TEXT
  5
B9
330
17
100
AcDbEntity
  8
M-GOST-KESITKOT
100
AcDbText
 10
-28.999999999999986
 20
-27.99999999999997
 30
0.0
 40
7.199999999999999
  1
-0.30
  7
YAZI-KALIN
 72
2
 11
-28.999999999999986
 21
-27.99999999999997
 31
0.0
100
AcDbText
  0
LINE
  5
BA
330
17
100
AcDbEntity
  8
M-GOST-KESITKOT
100
AcDbLine
 10
-15.0
 20
-305.99999999999994
 30
0.0
 11
0.0
 21
-305.99999999999994
 31
0.0
  0
LWPOLYLINE
  5
BB
330
17
100
AcDbEntity
  8
M-GOST-KESITKOT
100
AcDbPolyline
 90
3
 70
1
 10
-25.500000000000007
 20
-296.4999999999999
 10
-14.499999999999993
 20
-296.4999999999999
 10
-20.0
 20
-305.99999999999994
  0
HATCH
  5
BC
330
17
100
AcDbEntity
  8
M-GOST-KESITKOT
100
AcDbHatch
 10
0.0
 20
0.0
 30
0.0
210
0.0
220
0.0
230
1.0
  2
SOLID
 70
1
 71
0
 91
1
 92
3
 72
0
 73
1
 93
3
 10
-25.500000000000007
 20
-296.4999999999999
 10
-20.0
 20
-296.4999999999999
 10
-20.0
 20
-305.99999999999994
 97
0
 75
1
 76
1
 98
0
  0
TEXT
  5
BD
330
17
100
AcDbEntity
  8
M-GOST-KESITKOT
100
AcDbText
 10
-28.999999999999986
 20
-303.9999999999999
 30
0.0
 40
7.199999999999999
  1
-3.06
  7
YAZI-KALIN
 72
2
 11
-28.999999999999986
 21
-303.9999999999999
 31
0.0
100
AcDbText
  0
LINE
  5
BE
330
17
100
AcDbEntity
  8
M-GOST-KESITKOT
100
AcDbLine
 10
-15.0
 20
-375.99999999999994
 30
0.0
 11
0.0
 21
-375.99999999999994
 31
0.0
  0
LWPOLYLINE
  5
BF
330
17
100
AcDbEntity
  8
M-GOST-KESITKOT
100
AcDbPolyline
 90
3
 70
1
 10
-25.500000000000007
 20
-366.50000000000006
 10
-14.499999999999993
 20
-366.50000000000006
 10
-20.0
 20
-375.99999999999994
  0
HATCH
  5
C0
330
17
100
AcDbEntity
  8
M-GOST-KESITKOT
100
AcDbHatch
 10
0.0
 20
0.0
 30
0.0
210
0.0
220
0.0
230
1.0
  2
SOLID
 70
1
 71
0
 91
1
 92
3
 72
0
 73
1
 93
3
 10
-25.500000000000007
 20
-366.50000000000006
 10
-20.0
 20
-366.50000000000006
 10
-20.0
 20
-375.99999999999994
 97
0
 75
1
 76
1
 98
0
  0
TEXT
  5
C1
330
17
100
AcDbEntity
  8
M-GOST-KESITKOT
100
AcDbText
 10
-28.999999999999986
 20
-374.00000000000006
 30
0.0
 40
7.199999999999999
  1
-3.76
  7
YAZI-KALIN
 72
2
 11
-28.999999999999986
 21
-374.00000000000006
 31
0.0
100
AcDbText
  0
TEXT
  5
C2
330
17
100
AcDbEntity
  8
M-GOST-YAZI
100
AcDbText
 10
590.0
 20
665.0
 30
0.0
 40
7.5600000000000005
  1
ÇATI
  7
YAZI-KALIN
 11
590.0
 21
665.0
 31
0.0
100
AcDbText
  0
LINE
  5
C3
330
17
100
AcDbEntity
  8
M-GOST-YAZI
100
AcDbLine
 10
585.0
 20
668.5
 30
0.0
 11
340.0
 21
647.0
 31
0.0
  0
TEXT
  5
C4
330
17
100
AcDbEntity
  8
M-GOST-YAZI
100
AcDbText
 10
597.5
 20
650.5
 30
0.0
 40
6.3
  1
· Antrasit kil kiremit (kilitli)
  7
YAZI
 11
597.5
 21
650.5
 31
0.0
100
AcDbText
  0
TEXT
  5
C5
330
17
100
AcDbEntity
  8
M-GOST-YAZI
100
AcDbText
 10
597.5
 20
638.75
 30
0.0
 40
6.3
  1
· Çıta 3/5 + karşı çıta 3/5 (havalandırma boşluğu)
  7
YAZI
 11
597.5
 21
638.75
 31
0.0
100
AcDbText
  0
TEXT
  5
C6
330
17
100
AcDbEntity
  8
M-GOST-YAZI
100
AcDbText
 10
597.5
 20
627.0
 30
0.0
 40
6.3
  1
· Nefes alan su yalıtım örtüsü (difüzyona açık)
  7
YAZI
 11
597.5
 21
627.0
 31
0.0
100
AcDbText
  0
TEXT
  5
C7
330
17
100
AcDbEntity
  8
M-GOST-YAZI
100
AcDbText
 10
597.5
 20
615.25
 30
0.0
 40
6.3
  1
· OSB/3 18 mm
  7
YAZI
 11
597.5
 21
615.25
 31
0.0
100
AcDbText
  0
TEXT
  5
C8
330
17
100
AcDbEntity
  8
M-GOST-YAZI
100
AcDbText
 10
597.5
 20
603.5000000000001
 30
0.0
 40
6.3
  1
· Ahşap mertek 5/15 @ 50 cm, aşık, dikme
  7
YAZI
 11
597.5
 21
603.5000000000001
 31
0.0
100
AcDbText
  0
TEXT
  5
C9
330
17
100
AcDbEntity
  8
M-GOST-YAZI
100
AcDbText
 10
597.5
 20
591.7500000000001
 30
0.0
 40
6.3
  1
· Alüminyum oluk + saçak altı ahşap kompozit lambri
  7
YAZI
 11
597.5
 21
591.7500000000001
 31
0.0
100
AcDbText
  0
TEXT
  5
CA
330
17
100
AcDbEntity
  8
M-GOST-YAZI
100
AcDbText
 10
590.0
 20
572.0000000000002
 30
0.0
 40
7.5600000000000005
  1
ÇATI DÖŞEMESI
  7
YAZI-KALIN
 11
590.0
 21
572.0000000000002
 31
0.0
100
AcDbText
  0
LINE
  5
CB
330
17
100
AcDbEntity
  8
M-GOST-YAZI
100
AcDbLine
 10
585.0
 20
575.5000000000002
 30
0.0
 11
219.99999999999994
 21
610.0000000000001
 31
0.0
  0
TEXT
  5
CC
330
17
100
AcDbEntity
  8
M-GOST-YAZI
100
AcDbText
 10
597.5
 20
557.5000000000001
 30
0.0
 40
6.3
  1
· Taşyünü şilte 14 cm (TS 825, 3. bölge)
  7
YAZI
 11
597.5
 21
557.5000000000001
 31
0.0
100
AcDbText
  0
TEXT
  5
CD
330
17
100
AcDbEntity
  8
M-GOST-YAZI
100
AcDbText
 10
597.5
 20
545.7500000000002
 30
0.0
 40
6.3
  1
· Buhar dengeleyici
  7
YAZI
 11
597.5
 21
545.7500000000002
 31
0.0
100
AcDbText
  0
TEXT
  5
CE
330
17
100
AcDbEntity
  8
M-GOST-YAZI
100
AcDbText
 10
597.5
 20
534.0000000000002
 30
0.0
 40
6.3
  1
· Betonarme döşeme 20 cm
  7
YAZI
 11
597.5
 21
534.0000000000002
 31
0.0
100
AcDbText
  0
TEXT
  5
CF
330
17
100
AcDbEntity
  8
M-GOST-YAZI
100
AcDbText
 10
597.5
 20
522.2500000000002
 30
0.0
 40
6.3
  1
· Asma tavan (alçı levha) — net h 2,60
  7
YAZI
 11
597.5
 21
522.2500000000002
 31
0.0
100
AcDbText
  0
TEXT
  5
D0
330
17
100
AcDbEntity
  8
M-GOST-YAZI
100
AcDbText
 10
590.0
 20
502.5000000000003
 30
0.0
 40
7.5600000000000005
  1
DIŞ DUVAR
  7
YAZI-KALIN
 11
590.0
 21
502.5000000000003
 31
0.0
100
AcDbText
  0
LINE
  5
D1
330
17
100
AcDbEntity
  8
M-GOST-YAZI
100
AcDbLine
 10
585.0
 20
506.0000000000003
 30
0.0
 11
285.0
 21
460.0
 31
0.0
  0
TEXT
  5
D2
330
17
100
AcDbEntity
  8
M-GOST-YAZI
100
AcDbText
 10
597.5
 20
488.0000000000002
 30
0.0
 40
6.3
  1
· İnce silikon sıva + file (1. kat) / doğal taş 3 cm (zemin)
  7
YAZI
 11
597.5
 21
488.0000000000002
 31
0.0
100
AcDbText
  0
TEXT
  5
D3
330
17
100
AcDbEntity
  8
M-GOST-YAZI
100
AcDbText
 10
597.5
 20
476.2500000000003
 30
0.0
 40
6.3
  1
· Taşyünü levha 8 cm (mantolama)
  7
YAZI
 11
597.5
 21
476.2500000000003
 31
0.0
100
AcDbText
  0
TEXT
  5
D4
330
17
100
AcDbEntity
  8
M-GOST-YAZI
100
AcDbText
 10
597.5
 20
464.50000000000034
 30
0.0
 40
6.3
  1
· Gazbeton / bims blok 25 cm
  7
YAZI
 11
597.5
 21
464.50000000000034
 31
0.0
100
AcDbText
  0
TEXT
  5
D5
330
17
100
AcDbEntity
  8
M-GOST-YAZI
100
AcDbText
 10
597.5
 20
452.75000000000034
 30
0.0
 40
6.3
  1
· Alçı sıva + boya
  7
YAZI
 11
597.5
 21
452.75000000000034
 31
0.0
100
AcDbText
  0
TEXT
  5
D6
330
17
100
AcDbEntity
  8
M-GOST-YAZI
100
AcDbText
 10
590.0
 20
433.0000000000004
 30
0.0
 40
7.5600000000000005
  1
BALKON
  7
YAZI-KALIN
 11
590.0
 21
433.0000000000004
 31
0.0
100
AcDbText
  0
LINE
  5
D7
330
17
100
AcDbEntity
  8
M-GOST-YAZI
100
AcDbLine
 10
585.0
 20
436.5000000000004
 30
0.0
 11
369.99999999999994
 21
313.00000000000006
 31
0.0
  0
TEXT
  5
D8
330
17
100
AcDbEntity
  8
M-GOST-YAZI
100
AcDbText
 10
597.5
 20
418.50000000000034
 30
0.0
 40
6.3
  1
· Porselen R11 2 cm, eğimli şap
  7
YAZI
 11
597.5
 21
418.50000000000034
 31
0.0
100
AcDbText
  0
TEXT
  5
D9
330
17
100
AcDbEntity
  8
M-GOST-YAZI
100
AcDbText
 10
597.5
 20
406.7500000000004
 30
0.0
 40
6.3
  1
· Sürme su yalıtımı, damlalık
  7
YAZI
 11
597.5
 21
406.7500000000004
 31
0.0
100
AcDbText
  0
TEXT
  5
DA
330
17
100
AcDbEntity
  8
M-GOST-YAZI
100
AcDbText
 10
597.5
 20
395.00000000000045
 30
0.0
 40
6.3
  1
· Betonarme konsol 18 cm + Isokorb ısı köprüsü kesici
  7
YAZI
 11
597.5
 21
395.00000000000045
 31
0.0
100
AcDbText
  0
TEXT
  5
DB
330
17
100
AcDbEntity
  8
M-GOST-YAZI
100
AcDbText
 10
597.5
 20
383.25000000000045
 30
0.0
 40
6.3
  1
· Çerçevesiz temperli lamine cam korkuluk h=110
  7
YAZI
 11
597.5
 21
383.25000000000045
 31
0.0
100
AcDbText
  0
TEXT
  5
DC
330
17
100
AcDbEntity
  8
M-GOST-YAZI
100
AcDbText
 10
590.0
 20
363.5000000000005
 30
0.0
 40
7.5600000000000005
  1
ARA KAT DÖŞEMESI
  7
YAZI-KALIN
 11
590.0
 21
363.5000000000005
 31
0.0
100
AcDbText
  0
LINE
  5
DD
330
17
100
AcDbEntity
  8
M-GOST-YAZI
100
AcDbLine
 10
585.0
 20
367.0000000000005
 30
0.0
 11
200.0
 21
315.0
 31
0.0
  0
TEXT
  5
DE
330
17
100
AcDbEntity
  8
M-GOST-YAZI
100
AcDbText
 10
597.5
 20
349.00000000000045
 30
0.0
 40
6.3
  1
· Lamine meşe parke 14 mm / traverten
  7
YAZI
 11
597.5
 21
349.00000000000045
 31
0.0
100
AcDbText
  0
TEXT
  5
DF
330
17
100
AcDbEntity
  8
M-GOST-YAZI
100
AcDbText
 10
597.5
 20
337.2500000000005
 30
0.0
 40
6.3
  1
· Şap 6 cm + yerden ısıtma borusu
  7
YAZI
 11
597.5
 21
337.2500000000005
 31
0.0
100
AcDbText
  0
TEXT
  5
E0
330
17
100
AcDbEntity
  8
M-GOST-YAZI
100
AcDbText
 10
597.5
 20
325.50000000000057
 30
0.0
 40
6.3
  1
· EPS/XPS 3 cm + kenar bandı
  7
YAZI
 11
597.5
 21
325.50000000000057
 31
0.0
100
AcDbText
  0
TEXT
  5
E1
330
17
100
AcDbEntity
  8
M-GOST-YAZI
100
AcDbText
 10
597.5
 20
313.75000000000057
 30
0.0
 40
6.3
  1
· Betonarme döşeme 20 cm + kiriş
  7
YAZI
 11
597.5
 21
313.75000000000057
 31
0.0
100
AcDbText
  0
TEXT
  5
E2
330
17
100
AcDbEntity
  8
M-GOST-YAZI
100
AcDbText
 10
597.5
 20
302.00000000000057
 30
0.0
 40
6.3
  1
· Asma tavan (gizli perde nişi)
  7
YAZI
 11
597.5
 21
302.00000000000057
 31
0.0
100
AcDbText
  0
TEXT
  5
E3
330
17
100
AcDbEntity
  8
M-GOST-YAZI
100
AcDbText
 10
590.0
 20
282.2500000000007
 30
0.0
 40
7.5600000000000005
  1
ZEMIN KAT DÖŞEMESI
  7
YAZI-KALIN
 11
590.0
 21
282.2500000000007
 31
0.0
100
AcDbText
  0
LINE
  5
E4
330
17
100
AcDbEntity
  8
M-GOST-YAZI
100
AcDbLine
 10
585.0
 20
285.75000000000057
 30
0.0
 11
180.00000000000006
 21
-5.0
 31
0.0
  0
TEXT
  5
E5
330
17
100
AcDbEntity
  8
M-GOST-YAZI
100
AcDbText
 10
597.5
 20
267.7500000000006
 30
0.0
 40
6.3
  1
· Traverten 2 cm
  7
YAZI
 11
597.5
 21
267.7500000000006
 31
0.0
100
AcDbText
  0
TEXT
  5
E6
330
17
100
AcDbEntity
  8
M-GOST-YAZI
100
AcDbText
 10
597.5
 20
256.0000000000007
 30
0.0
 40
6.3
  1
· Şap 6 cm + yerden ısıtma
  7
YAZI
 11
597.5
 21
256.0000000000007
 31
0.0
100
AcDbText
  0
TEXT
  5
E7
330
17
100
AcDbEntity
  8
M-GOST-YAZI
100
AcDbText
 10
597.5
 20
244.25000000000068
 30
0.0
 40
6.3
  1
· XPS 3 cm
  7
YAZI
 11
597.5
 21
244.25000000000068
 31
0.0
100
AcDbText
  0
TEXT
  5
E8
330
17
100
AcDbEntity
  8
M-GOST-YAZI
100
AcDbText
 10
597.5
 20
232.5000000000007
 30
0.0
 40
6.3
  1
· Betonarme döşeme 20 cm
  7
YAZI
 11
597.5
 21
232.5000000000007
 31
0.0
100
AcDbText
  0
TEXT
  5
E9
330
17
100
AcDbEntity
  8
M-GOST-YAZI
100
AcDbText
 10
590.0
 20
212.75000000000077
 30
0.0
 40
7.5600000000000005
  1
TERAS
  7
YAZI-KALIN
 11
590.0
 21
212.75000000000077
 31
0.0
100
AcDbText
  0
LINE
  5
EA
330
17
100
AcDbEntity
  8
M-GOST-YAZI
100
AcDbLine
 10
585.0
 20
216.2500000000007
 30
0.0
 11
420.0
 21
-5.0
 31
0.0
  0
TEXT
  5
EB
330
17
100
AcDbEntity
  8
M-GOST-YAZI
100
AcDbText
 10
597.5
 20
198.25000000000074
 30
0.0
 40
6.3
  1
· Dış mekan traverten R11, 3 cm
  7
YAZI
 11
597.5
 21
198.25000000000074
 31
0.0
100
AcDbText
  0
TEXT
  5
EC
330
17
100
AcDbEntity
  8
M-GOST-YAZI
100
AcDbText
 10
597.5
 20
186.50000000000077
 30
0.0
 40
6.3
  1
· Harç + drenaj
  7
YAZI
 11
597.5
 21
186.50000000000077
 31
0.0
100
AcDbText
  0
TEXT
  5
ED
330
17
100
AcDbEntity
  8
M-GOST-YAZI
100
AcDbText
 10
597.5
 20
174.7500000000008
 30
0.0
 40
6.3
  1
· Sıkıştırılmış stabilize + grobeton
  7
YAZI
 11
597.5
 21
174.7500000000008
 31
0.0
100
AcDbText
  0
TEXT
  5
EE
330
17
100
AcDbEntity
  8
M-GOST-YAZI
100
AcDbText
 10
597.5
 20
163.00000000000082
 30
0.0
 40
6.3
  1
· Eşikte lineer süzgeç
  7
YAZI
 11
597.5
 21
163.00000000000082
 31
0.0
100
AcDbText
  0
TEXT
  5
EF
330
17
100
AcDbEntity
  8
M-GOST-YAZI
100
AcDbText
 10
590.0
 20
143.25000000000088
 30
0.0
 40
7.5600000000000005
  1
BODRUM PERDESI
  7
YAZI-KALIN
 11
590.0
 21
143.25000000000088
 31
0.0
100
AcDbText
  0
LINE
  5
F0
330
17
100
AcDbEntity
  8
M-GOST-YAZI
100
AcDbLine
 10
585.0
 20
146.75000000000082
 30
0.0
 11
280.00000000000006
 21
-180.0
 31
0.0
  0
TEXT
  5
F1
330
17
100
AcDbEntity
  8
M-GOST-YAZI
100
AcDbText
 10
597.5
 20
128.75000000000085
 30
0.0
 40
6.3
  1
· Betonarme perde 30 cm (su geçirimsiz beton)
  7
YAZI
 11
597.5
 21
128.75000000000085
 31
0.0
100
AcDbText
  0
TEXT
  5
F2
330
17
100
AcDbEntity
  8
M-GOST-YAZI
100
AcDbText
 10
597.5
 20
117.00000000000088
 30
0.0
 40
6.3
  1
· 2 kat bitümlü membran (-3,86'dan +0,30'a)
  7
YAZI
 11
597.5
 21
117.00000000000088
 31
0.0
100
AcDbText
  0
TEXT
  5
F3
330
17
100
AcDbEntity
  8
M-GOST-YAZI
100
AcDbText
 10
597.5
 20
105.25000000000091
 30
0.0
 40
6.3
  1
· XPS 5 cm + drenaj levhası
  7
YAZI
 11
597.5
 21
105.25000000000091
 31
0.0
100
AcDbText
  0
TEXT
  5
F4
330
17
100
AcDbEntity
  8
M-GOST-YAZI
100
AcDbText
 10
597.5
 20
93.50000000000094
 30
0.0
 40
6.3
  1
· Perde dibinde delikli drenaj borusu + filtre çakıl
  7
YAZI
 11
597.5
 21
93.50000000000094
 31
0.0
100
AcDbText
  0
TEXT
  5
F5
330
17
100
AcDbEntity
  8
M-GOST-YAZI
100
AcDbText
 10
590.0
 20
73.750000000001
 30
0.0
 40
7.5600000000000005
  1
RADYE TEMEL
  7
YAZI-KALIN
 11
590.0
 21
73.750000000001
 31
0.0
100
AcDbText
  0
LINE
  5
F6
330
17
100
AcDbEntity
  8
M-GOST-YAZI
100
AcDbLine
 10
585.0
 20
77.25000000000094
 30
0.0
 11
160.0
 21
-340.0
 31
0.0
  0
TEXT
  5
F7
330
17
100
AcDbEntity
  8
M-GOST-YAZI
100
AcDbText
 10
597.5
 20
59.250000000000966
 30
0.0
 40
6.3
  1
· Parke / şap + yerden ısıtma
  7
YAZI
 11
597.5
 21
59.250000000000966
 31
0.0
100
AcDbText
  0
TEXT
  5
F8
330
17
100
AcDbEntity
  8
M-GOST-YAZI
100
AcDbText
 10
597.5
 20
47.500000000000995
 30
0.0
 40
6.3
  1
· XPS 5 cm
  7
YAZI
 11
597.5
 21
47.500000000000995
 31
0.0
100
AcDbText
  0
TEXT
  5
F9
330
17
100
AcDbEntity
  8
M-GOST-YAZI
100
AcDbText
 10
597.5
 20
35.75000000000102
 30
0.0
 40
6.3
  1
· Radye 60 cm (C30/37)
  7
YAZI
 11
597.5
 21
35.75000000000102
 31
0.0
100
AcDbText
  0
TEXT
  5
FA
330
17
100
AcDbEntity
  8
M-GOST-YAZI
100
AcDbText
 10
597.5
 20
24.00000000000105
 30
0.0
 40
6.3
  1
· 2 kat membran + koruma betonu
  7
YAZI
 11
597.5
 21
24.00000000000105
 31
0.0
100
AcDbText
  0
TEXT
  5
FB
330
17
100
AcDbEntity
  8
M-GOST-YAZI
100
AcDbText
 10
597.5
 20
12.25000000000108
 30
0.0
 40
6.3
  1
· Grobeton 10 cm
  7
YAZI
 11
597.5
 21
12.25000000000108
 31
0.0
100
AcDbText
  0
VIEWPORT
  5
4F
330
1B
100
AcDbEntity
 67
1
  8
VIEWPORTS
100
AcDbViewport
 10
210.0
 20
148.5
 30
0.0
 40
462.00000000000006
 41
326.70000000000005
 68
1
 69
1
 12
210.0
 22
148.5
 13
0.0
 23
0.0
 14
10.0
 24
10.0
 15
10.0
 25
10.0
 16
0.0
 26
0.0
 36
1.0
 17
0.0
 27
0.0
 37
0.0
 42
50.0
 43
0.0
 44
0.0
 45
326.70000000000005
 50
0.0
 51
0.0
 72
100
 90
557088
  1

281
0
 71
0
 74
0
110
0.0
120
0.0
130
0.0
111
1.0
121
0.0
131
0.0
112
0.0
122
1.0
132
0.0
 79
0
146
0.0
282
0
  0
TEXT
  5
FD
330
1B
100
AcDbEntity
 67
1
  8
M-GOST-ANTETYAZI
100
AcDbText
 10
24.0
 20
18.0
 30
0.0
 40
2.7359999999999998
  1
SİSTEM KESİTİ S–S · Ö: 1/50
  7
YAZI-KALIN
 11
24.0
 21
18.0
 31
0.0
100
AcDbText
  0
TEXT
  5
FE
330
1B
100
AcDbEntity
 67
1
  8
M-GOST-ANTETYAZI
100
AcDbText
 10
24.0
 20
13.0
 30
0.0
 40
1.656
  1
Güney cephesi, x = 4,00 m: bodrum misafir odası · salon · ebeveyn yatak odası ve balkon
  7
YAZI
 11
24.0
 21
13.0
 31
0.0
100
AcDbText
  0
LWPOLYLINE
  5
100
330
1B
100
AcDbEntity
 67
1
  8
M-GOST-ANTET
100
AcDbPolyline
 90
4
 70
1
 10
10.0
 20
287.0
 10
410.0
 20
287.0
 10
410.0
 20
10.0
 10
10.0
 20
10.0
  0
LWPOLYLINE
  5
101
330
1B
100
AcDbEntity
 67
1
  8
M-GOST-ANTET
100
AcDbPolyline
 90
4
 70
1
 10
318.0
 20
287.0
 10
410.0
 20
287.0
 10
410.0
 20
10.0
 10
318.0
 20
10.0
  0
TEXT
  5
102
330
1B
100
AcDbEntity
 67
1
  8
M-GOST-ANTETYAZI
100
AcDbText
 10
322.0
 20
278.0
 30
0.0
 40
3.7439999999999998
  1
DURUNDAY VİLLA
  7
YAZI-KALIN
 11
322.0
 21
278.0
 31
0.0
100
AcDbText
  0
TEXT
  5
103
330
1B
100
AcDbEntity
 67
1
  8
M-GOST-ANTETYAZI
100
AcDbText
 10
322.0
 20
272.5
 30
0.0
 40
1.8719999999999999
  1
Konya · Meram · Durunday
  7
YAZI
 11
322.0
 21
272.5
 31
0.0
100
AcDbText
  0
TEXT
  5
104
330
1B
100
AcDbEntity
 67
1
  8
M-GOST-ANTETYAZI
100
AcDbText
 10
322.0
 20
268.0
 30
0.0
 40
1.656
  1
Bodrumlu dubleks müstakil konut · 300 m² oturum
  7
YAZI
 11
322.0
 21
268.0
 31
0.0
100
AcDbText
  0
LINE
  5
105
330
1B
100
AcDbEntity
 67
1
  8
M-GOST-ANTET
100
AcDbLine
 10
318.0
 20
264.0
 30
0.0
 11
410.0
 21
264.0
 31
0.0
  0
TEXT
  5
106
330
1B
100
AcDbEntity
 67
1
  8
M-GOST-ANTETYAZI
100
AcDbText
 10
322.0
 20
258.5
 30
0.0
 40
2.016
  1
MİMARİ ÖN PROJE (AVAN)
  7
YAZI-KALIN
 11
322.0
 21
258.5
 31
0.0
100
AcDbText
  0
TEXT
  5
107
330
1B
100
AcDbEntity
 67
1
  8
M-GOST-ANTETYAZI
100
AcDbText
 10
322.0
 20
254.2
 30
0.0
 40
1.512
  1
Ruhsat ve uygulamaya esas değildir
  7
YAZI
 11
322.0
 21
254.2
 31
0.0
100
AcDbText
  0
LINE
  5
108
330
1B
100
AcDbEntity
 67
1
  8
M-GOST-ANTET
100
AcDbLine
 10
318.0
 20
251.0
 30
0.0
 11
410.0
 21
251.0
 31
0.0
  0
TEXT
  5
109
330
1B
100
AcDbEntity
 67
1
  8
M-GOST-ANTETYAZI
100
AcDbText
 10
322.0
 20
246.0
 30
0.0
 40
1.584
  1
LEJANT
  7
YAZI-KALIN
 11
322.0
 21
246.0
 31
0.0
100
AcDbText
  0
HATCH
  5
10B
330
1B
100
AcDbEntity
 67
1
  8
M-GOST-LEJANT
100
AcDbHatch
 10
0.0
 20
0.0
 30
0.0
210
0.0
220
0.0
230
1.0
  2
SOLID
 70
1
 71
0
 91
1
 92
3
 72
0
 73
1
 93
4
 10
322.0
 20
245.0
 10
331.0
 20
245.0
 10
331.0
 20
242.4
 10
322.0
 20
242.4
 97
0
 75
1
 76
1
 98
0
  0
TEXT
  5
10C
330
1B
100
AcDbEntity
 67
1
  8
M-GOST-ANTETYAZI
100
AcDbText
 10
333.0
 20
242.8
 30
0.0
 40
1.44
  1
Betonarme (kesilen)
  7
YAZI
 11
333.0
 21
242.8
 31
0.0
100
AcDbText
  0
HATCH
  5
10D
330
1B
100
AcDbEntity
 67
1
  8
M-GOST-LEJANT
 62
7
100
AcDbHatch
 10
0.0
 20
0.0
 30
0.0
210
0.0
220
0.0
230
1.0
  2
ANSI31
 70
0
 71
0
 91
1
 92
3
 72
0
 73
1
 93
4
 10
322.0
 20
241.4
 10
331.0
 20
241.4
 10
331.0
 20
238.8
 10
322.0
 20
238.8
 97
0
 75
1
 76
1
 52
0.0
 41
0.6
 77
0
 78
1
 53
45.0
 43
0.0
 44
0.0
 45
-1.3470384182
 46
1.3470384182
 79
0
 98
0
  0
LWPOLYLINE
  5
10E
330
1B
100
AcDbEntity
 67
1
  8
M-GOST-LEJANT
100
AcDbPolyline
 90
4
 70
1
 10
322.0
 20
241.4
 10
331.0
 20
241.4
 10
331.0
 20
238.8
 10
322.0
 20
238.8
  0
TEXT
  5
10F
330
1B
100
AcDbEntity
 67
1
  8
M-GOST-ANTETYAZI
100
AcDbText
 10
333.0
 20
239.2
 30
0.0
 40
1.44
  1
Duvar (kesilen)
  7
YAZI
 11
333.0
 21
239.2
 31
0.0
100
AcDbText
  0
HATCH
  5
110
330
1B
100
AcDbEntity
 67
1
  8
M-GOST-LEJANT
 62
7
100
AcDbHatch
 10
0.0
 20
0.0
 30
0.0
210
0.0
220
0.0
230
1.0
  2
INSUL
 70
0
 71
0
 91
1
 92
3
 72
0
 73
1
 93
4
 10
322.0
 20
237.8
 10
331.0
 20
237.8
 10
331.0
 20
235.2
 10
322.0
 20
235.2
 97
0
 75
1
 76
1
 52
0.0
 41
0.05
 77
0
 78
3
 53
0.0
 43
0.0
 44
0.0
 45
0.0
 46
0.47625
 79
0
 53
0.0
 43
0.0
 44
0.15875
 45
0.0
 46
0.47625
 79
2
 49
0.15875
 49
-0.15875
 53
0.0
 43
0.0
 44
0.3175
 45
0.0
 46
0.47625
 79
2
 49
0.15875
 49
-0.15875
 98
0
  0
LWPOLYLINE
  5
111
330
1B
100
AcDbEntity
 67
1
  8
M-GOST-LEJANT
100
AcDbPolyline
 90
4
 70
1
 10
322.0
 20
237.8
 10
331.0
 20
237.8
 10
331.0
 20
235.2
 10
322.0
 20
235.2
  0
TEXT
  5
112
330
1B
100
AcDbEntity
 67
1
  8
M-GOST-ANTETYAZI
100
AcDbText
 10
333.0
 20
235.6
 30
0.0
 40
1.44
  1
Isı / su yalıtımı
  7
YAZI
 11
333.0
 21
235.6
 31
0.0
100
AcDbText
  0
HATCH
  5
113
330
1B
100
AcDbEntity
 67
1
  8
M-GOST-LEJANT
 62
7
100
AcDbHatch
 10
0.0
 20
0.0
 30
0.0
210
0.0
220
0.0
230
1.0
  2
EARTH
 70
0
 71
0
 91
1
 92
3
 72
0
 73
1
 93
4
 10
322.0
 20
234.2
 10
331.0
 20
234.2
 10
331.0
 20
231.60000000000002
 10
322.0
 20
231.60000000000002
 97
0
 75
1
 76
1
 52
0.0
 41
0.5
 77
0
 78
6
 53
0.0
 43
0.0
 44
0.0
 45
3.175
 46
3.175
 79
2
 49
3.175
 49
-3.175
 53
0.0
 43
0.0
 44
1.190625
 45
3.175
 46
3.175
 79
2
 49
3.175
 49
-3.175
 53
0.0
 43
0.0
 44
2.38125
 45
3.175
 46
3.175
 79
2
 49
3.175
 49
-3.175
 53
90.0
 43
0.396875
 44
2.778125
 45
-3.175
 46
3.175
 79
2
 49
3.175
 49
-3.175
 53
90.0
 43
1.5875
 44
2.778125
 45
-3.175
 46
3.175
 79
2
 49
3.175
 49
-3.175
 53
90.0
 43
2.778125
 44
2.778125
 45
-3.175
 46
3.175
 79
2
 49
3.175
 49
-3.175
 98
0
  0
TEXT
  5
114
330
1B
100
AcDbEntity
 67
1
  8
M-GOST-ANTETYAZI
100
AcDbText
 10
333.0
 20
232.0
 30
0.0
 40
1.44
  1
Doğal zemin
  7
YAZI
 11
333.0
 21
232.0
 31
0.0
100
AcDbText
  0
LWPOLYLINE
  5
115
330
1B
100
AcDbEntity
 67
1
  8
M-GOST-LEJANT
100
AcDbPolyline
 90
4
 70
1
 10
322.0
 20
230.60000000000002
 10
331.0
 20
230.60000000000002
 10
331.0
 20
228.0
 10
322.0
 20
228.0
  0
TEXT
  5
116
330
1B
100
AcDbEntity
 67
1
  8
M-GOST-ANTETYAZI
100
AcDbText
 10
333.0
 20
228.4
 30
0.0
 40
1.44
  1
Cam / doğrama
  7
YAZI
 11
333.0
 21
228.4
 31
0.0
100
AcDbText
  0
LWPOLYLINE
  5
117
330
1B
100
AcDbEntity
 67
1
  8
M-GOST-ANTET
100
AcDbPolyline
 90
3
 70
1
 10
323.9
 20
226.60000000000002
 10
326.1
 20
226.60000000000002
 10
325.0
 20
224.70000000000002
  0
HATCH
  5
118
330
1B
100
AcDbEntity
 67
1
  8
M-GOST-ANTET
100
AcDbHatch
 10
0.0
 20
0.0
 30
0.0
210
0.0
220
0.0
230
1.0
  2
SOLID
 70
1
 71
0
 91
1
 92
3
 72
0
 73
1
 93
3
 10
323.9
 20
226.60000000000002
 10
325.0
 20
226.60000000000002
 10
325.0
 20
224.70000000000002
 97
0
 75
1
 76
1
 98
0
  0
TEXT
  5
119
330
1B
100
AcDbEntity
 67
1
  8
M-GOST-ANTETYAZI
100
AcDbText
 10
333.0
 20
224.8
 30
0.0
 40
1.44
  1
Kot (m)
  7
YAZI
 11
333.0
 21
224.8
 31
0.0
100
AcDbText
  0
TEXT
  5
11A
330
1B
100
AcDbEntity
 67
1
  8
M-GOST-ANTETYAZI
100
AcDbText
 10
322.0
 20
219.70000000000002
 30
0.0
 40
1.584
  1
NOTLAR
  7
YAZI-KALIN
 11
322.0
 21
219.70000000000002
 31
0.0
100
AcDbText
  0
TEXT
  5
11B
330
1B
100
AcDbEntity
 67
1
  8
M-GOST-ANTETYAZI
100
AcDbText
 10
322.0
 20
216.3
 30
0.0
 40
1.404
  1
1. Isı yalıtımı TS 825'e göre 3. bölge (Konya) değerleriyle;
  7
YAZI
 11
322.0
 21
216.3
 31
0.0
100
AcDbText
  0
TEXT
  5
11C
330
1B
100
AcDbEntity
 67
1
  8
M-GOST-ANTETYAZI
100
AcDbText
 10
322.0
 20
213.60000000000002
 30
0.0
 40
1.404
  1
    enerji kimlik belgesi hesabında kesinleşir.
  7
YAZI
 11
322.0
 21
213.60000000000002
 31
0.0
100
AcDbText
  0
TEXT
  5
11D
330
1B
100
AcDbEntity
 67
1
  8
M-GOST-ANTETYAZI
100
AcDbText
 10
322.0
 20
210.3
 30
0.0
 40
1.404
  1
2. Bodrum su yalıtımı radye altından perde üstüne kesintisiz;
  7
YAZI
 11
322.0
 21
210.3
 31
0.0
100
AcDbText
  0
TEXT
  5
11E
330
1B
100
AcDbEntity
 67
1
  8
M-GOST-ANTETYAZI
100
AcDbText
 10
322.0
 20
207.60000000000002
 30
0.0
 40
1.404
  1
    köşelerde pah ve takviye bandı.
  7
YAZI
 11
322.0
 21
207.60000000000002
 31
0.0
100
AcDbText
  0
TEXT
  5
11F
330
1B
100
AcDbEntity
 67
1
  8
M-GOST-ANTETYAZI
100
AcDbText
 10
322.0
 20
204.3
 30
0.0
 40
1.404
  1
3. Balkon döşemesi ısı köprüsü kesici elemanla (Isokorb) ana
  7
YAZI
 11
322.0
 21
204.3
 31
0.0
100
AcDbText
  0
TEXT
  5
120
330
1B
100
AcDbEntity
 67
1
  8
M-GOST-ANTETYAZI
100
AcDbText
 10
322.0
 20
201.60000000000002
 30
0.0
 40
1.404
  1
    döşemeye bağlanır.
  7
YAZI
 11
322.0
 21
201.60000000000002
 31
0.0
100
AcDbText
  0
TEXT
  5
121
330
1B
100
AcDbEntity
 67
1
  8
M-GOST-ANTETYAZI
100
AcDbText
 10
322.0
 20
198.3
 30
0.0
 40
1.404
  1
4. Doğrama montajı: iç tarafta buhar kesici, dış tarafta
  7
YAZI
 11
322.0
 21
198.3
 31
0.0
100
AcDbText
  0
TEXT
  5
122
330
1B
100
AcDbEntity
 67
1
  8
M-GOST-ANTETYAZI
100
AcDbText
 10
322.0
 20
195.60000000000002
 30
0.0
 40
1.404
  1
    difüzyona açık bant (RAL montaj).
  7
YAZI
 11
322.0
 21
195.60000000000002
 31
0.0
100
AcDbText
  0
CIRCLE
  5
124
330
1B
100
AcDbEntity
 67
1
  8
M-GOST-KUZEYOKU
100
AcDbCircle
 10
398.0
 20
115.0
 30
0.0
 40
6.5
  0
HATCH
  5
125
330
1B
100
AcDbEntity
 67
1
  8
M-GOST-KUZEYOKU
100
AcDbHatch
 10
0.0
 20
0.0
 30
0.0
210
0.0
220
0.0
230
1.0
  2
SOLID
 70
1
 71
0
 91
1
 92
3
 72
0
 73
1
 93
4
 10
398.0
 20
123.0
 10
400.2
 20
112.5
 10
398.0
 20
113.80000000000001
 10
395.8
 20
112.5
 97
0
 75
1
 76
1
 98
0
  0
LWPOLYLINE
  5
126
330
1B
100
AcDbEntity
 67
1
  8
M-GOST-KUZEYOKU
100
AcDbPolyline
 90
4
 70
1
 10
398.0
 20
123.0
 10
400.2
 20
112.5
 10
398.0
 20
113.80000000000001
 10
395.8
 20
112.5
  0
TEXT
  5
127
330
1B
100
AcDbEntity
 67
1
  8
M-GOST-ANTETYAZI
100
AcDbText
 10
398.0
 20
124.30000000000001
 30
0.0
 40
2.16
  1
K
  7
YAZI-KALIN
 72
1
 11
398.0
 21
124.30000000000001
 31
0.0
100
AcDbText
  0
LINE
  5
128
330
1B
100
AcDbEntity
 67
1
  8
M-GOST-ANTET
100
AcDbLine
 10
318.0
 20
102.0
 30
0.0
 11
410.0
 21
102.0
 31
0.0
  0
TEXT
  5
129
330
1B
100
AcDbEntity
 67
1
  8
M-GOST-ANTETYAZI
100
AcDbText
 10
322.0
 20
97.0
 30
0.0
 40
1.44
  1
REVİZYONLAR
  7
YAZI-KALIN
 11
322.0
 21
97.0
 31
0.0
100
AcDbText
  0
TEXT
  5
12A
330
1B
100
AcDbEntity
 67
1
  8
M-GOST-ANTETYAZI
100
AcDbText
 10
322.0
 20
93.0
 30
0.0
 40
1.3679999999999999
  1
R0
  7
YAZI-KALIN
 11
322.0
 21
93.0
 31
0.0
100
AcDbText
  0
TEXT
  5
12B
330
1B
100
AcDbEntity
 67
1
  8
M-GOST-ANTETYAZI
100
AcDbText
 10
328.0
 20
93.0
 30
0.0
 40
1.3679999999999999
  1
19.09.2026
  7
YAZI
 11
328.0
 21
93.0
 31
0.0
100
AcDbText
  0
TEXT
  5
12C
330
1B
100
AcDbEntity
 67
1
  8
M-GOST-ANTETYAZI
100
AcDbText
 10
345.0
 20
93.0
 30
0.0
 40
1.3679999999999999
  1
İlk yayın
  7
YAZI
 11
345.0
 21
93.0
 31
0.0
100
AcDbText
  0
TEXT
  5
12D
330
1B
100
AcDbEntity
 67
1
  8
M-GOST-ANTETYAZI
100
AcDbText
 10
322.0
 20
89.30000000000001
 30
0.0
 40
1.3679999999999999
  1
R1
  7
YAZI-KALIN
 11
322.0
 21
89.30000000000001
 31
0.0
100
AcDbText
  0
TEXT
  5
12E
330
1B
100
AcDbEntity
 67
1
  8
M-GOST-ANTETYAZI
100
AcDbText
 10
328.0
 20
89.30000000000001
 30
0.0
 40
1.3679999999999999
  1
21.09.2026
  7
YAZI
 11
328.0
 21
89.30000000000001
 31
0.0
100
AcDbText
  0
TEXT
  5
12F
330
1B
100
AcDbEntity
 67
1
  8
M-GOST-ANTETYAZI
100
AcDbText
 10
345.0
 20
89.30000000000001
 30
0.0
 40
1.3679999999999999
  1
Plan kurgusu yeniden düzenlendi; kesit,
  7
YAZI
 11
345.0
 21
89.30000000000001
 31
0.0
100
AcDbText
  0
TEXT
  5
130
330
1B
100
AcDbEntity
 67
1
  8
M-GOST-ANTETYAZI
100
AcDbText
 10
345.0
 20
86.80000000000001
 30
0.0
 40
1.3679999999999999
  1
görünüş, detay ve doğrama listesi eklendi
  7
YAZI
 11
345.0
 21
86.80000000000001
 31
0.0
100
AcDbText
  0
LINE
  5
131
330
1B
100
AcDbEntity
 67
1
  8
M-GOST-ANTET
100
AcDbLine
 10
318.0
 20
76.0
 30
0.0
 11
410.0
 21
76.0
 31
0.0
  0
TEXT
  5
132
330
1B
100
AcDbEntity
 67
1
  8
M-GOST-ANTETYAZI
100
AcDbText
 10
322.0
 20
71.0
 30
0.0
 40
1.3679999999999999
  1
İŞ SAHİBİ
  7
YAZI
 11
322.0
 21
71.0
 31
0.0
100
AcDbText
  0
TEXT
  5
133
330
1B
100
AcDbEntity
 67
1
  8
M-GOST-ANTETYAZI
100
AcDbText
 10
322.0
 20
66.5
 30
0.0
 40
1.728
  1
—
  7
YAZI
 11
322.0
 21
66.5
 31
0.0
100
AcDbText
  0
TEXT
  5
134
330
1B
100
AcDbEntity
 67
1
  8
M-GOST-ANTETYAZI
100
AcDbText
 10
366.0
 20
71.0
 30
0.0
 40
1.3679999999999999
  1
HAZIRLAYAN
  7
YAZI
 11
366.0
 21
71.0
 31
0.0
100
AcDbText
  0
TEXT
  5
135
330
1B
100
AcDbEntity
 67
1
  8
M-GOST-ANTETYAZI
100
AcDbText
 10
366.0
 20
66.5
 30
0.0
 40
1.728
  1
E. Ceran
  7
YAZI
 11
366.0
 21
66.5
 31
0.0
100
AcDbText
  0
LINE
  5
136
330
1B
100
AcDbEntity
 67
1
  8
M-GOST-ANTET
100
AcDbLine
 10
363.0
 20
76.0
 30
0.0
 11
363.0
 21
62.0
 31
0.0
  0
LINE
  5
137
330
1B
100
AcDbEntity
 67
1
  8
M-GOST-ANTET
100
AcDbLine
 10
318.0
 20
62.0
 30
0.0
 11
410.0
 21
62.0
 31
0.0
  0
TEXT
  5
138
330
1B
100
AcDbEntity
 67
1
  8
M-GOST-ANTETYAZI
100
AcDbText
 10
322.0
 20
57.0
 30
0.0
 40
1.3679999999999999
  1
MÜELLİF MİMAR
  7
YAZI
 11
322.0
 21
57.0
 31
0.0
100
AcDbText
  0
TEXT
  5
139
330
1B
100
AcDbEntity
 67
1
  8
M-GOST-ANTETYAZI
100
AcDbText
 10
322.0
 20
52.0
 30
0.0
 40
1.44
  1
(ruhsat aşamasında atanacak)
  7
YAZI
 11
322.0
 21
52.0
 31
0.0
100
AcDbText
  0
TEXT
  5
13A
330
1B
100
AcDbEntity
 67
1
  8
M-GOST-ANTETYAZI
100
AcDbText
 10
366.0
 20
57.0
 30
0.0
 40
1.3679999999999999
  1
İMZA
  7
YAZI
 11
366.0
 21
57.0
 31
0.0
100
AcDbText
  0
LINE
  5
13B
330
1B
100
AcDbEntity
 67
1
  8
M-GOST-ANTET
100
AcDbLine
 10
363.0
 20
62.0
 30
0.0
 11
363.0
 21
48.0
 31
0.0
  0
LINE
  5
13C
330
1B
100
AcDbEntity
 67
1
  8
M-GOST-ANTET
100
AcDbLine
 10
318.0
 20
48.0
 30
0.0
 11
410.0
 21
48.0
 31
0.0
  0
TEXT
  5
13D
330
1B
100
AcDbEntity
 67
1
  8
M-GOST-ANTETYAZI
100
AcDbText
 10
322.0
 20
42.0
 30
0.0
 40
1.3679999999999999
  1
PAFTA ADI
  7
YAZI
 11
322.0
 21
42.0
 31
0.0
100
AcDbText
  0
TEXT
  5
13E
330
1B
100
AcDbEntity
 67
1
  8
M-GOST-ANTETYAZI
100
AcDbText
 10
322.0
 20
35.0
 30
0.0
 40
3.5999999999999996
  1
SİSTEM KESİTİ
  7
YAZI-KALIN
 11
322.0
 21
35.0
 31
0.0
100
AcDbText
  0
LINE
  5
13F
330
1B
100
AcDbEntity
 67
1
  8
M-GOST-ANTET
100
AcDbLine
 10
318.0
 20
24.0
 30
0.0
 11
410.0
 21
24.0
 31
0.0
  0
TEXT
  5
140
330
1B
100
AcDbEntity
 67
1
  8
M-GOST-ANTETYAZI
100
AcDbText
 10
322.0
 20
19.5
 30
0.0
 40
1.3679999999999999
  1
ÖLÇEK
  7
YAZI
 11
322.0
 21
19.5
 31
0.0
100
AcDbText
  0
TEXT
  5
141
330
1B
100
AcDbEntity
 67
1
  8
M-GOST-ANTETYAZI
100
AcDbText
 10
322.0
 20
13.5
 30
0.0
 40
2.592
  1
1/50
  7
YAZI-KALIN
 11
322.0
 21
13.5
 31
0.0
100
AcDbText
  0
TEXT
  5
142
330
1B
100
AcDbEntity
 67
1
  8
M-GOST-ANTETYAZI
100
AcDbText
 10
350.0
 20
19.5
 30
0.0
 40
1.3679999999999999
  1
TARİH
  7
YAZI
 11
350.0
 21
19.5
 31
0.0
100
AcDbText
  0
TEXT
  5
143
330
1B
100
AcDbEntity
 67
1
  8
M-GOST-ANTETYAZI
100
AcDbText
 10
350.0
 20
13.5
 30
0.0
 40
2.16
  1
21.09.2026
  7
YAZI
 11
350.0
 21
13.5
 31
0.0
100
AcDbText
  0
TEXT
  5
144
330
1B
100
AcDbEntity
 67
1
  8
M-GOST-ANTETYAZI
100
AcDbText
 10
380.0
 20
19.5
 30
0.0
 40
1.3679999999999999
  1
PAFTA NO
  7
YAZI
 11
380.0
 21
19.5
 31
0.0
100
AcDbText
  0
TEXT
  5
145
330
1B
100
AcDbEntity
 67
1
  8
M-GOST-ANTETYAZI
100
AcDbText
 10
380.0
 20
13.0
 30
0.0
 40
3.7439999999999998
  1
A-10
  7
YAZI-KALIN
 11
380.0
 21
13.0
 31
0.0
100
AcDbText
  0
LINE
  5
146
330
1B
100
AcDbEntity
 67
1
  8
M-GOST-ANTET
100
AcDbLine
 10
347.0
 20
24.0
 30
0.0
 11
347.0
 21
10.0
 31
0.0
  0
LINE
  5
147
330
1B
100
AcDbEntity
 67
1
  8
M-GOST-ANTET
100
AcDbLine
 10
377.0
 20
24.0
 30
0.0
 11
377.0
 21
10.0
 31
0.0
  0
VIEWPORT
  5
149
330
1B
100
AcDbEntity
 67
1
  8
M-GOST-VPORT
100
AcDbViewport
 10
126.6
 20
143.4
 30
0.0
 40
188.8
 41
236.8
 68
2
 69
3
 12
403.0
 22
182.00000000000003
 13
0.0
 23
0.0
 14
10.0
 24
10.0
 15
10.0
 25
10.0
 16
0.0
 26
0.0
 36
1.0
 17
0.0
 27
0.0
 37
0.0
 42
50.0
 43
0.0
 44
0.0
 45
1184.0
 50
0.0
 51
0.0
 72
100
 90
0
  1

281
0
 71
0
 74
0
110
0.0
120
0.0
130
0.0
111
1.0
121
0.0
131
0.0
112
0.0
122
1.0
132
0.0
 79
0
146
0.0
282
0
  0
ENDSEC
  0
SECTION
  2
OBJECTS
  0
DICTIONARY
  5
A
330
0
100
AcDbDictionary
280
0
281
1
  3
ACAD_COLOR
350
B
  3
ACAD_GROUP
350
C
  3
ACAD_LAYOUT
350
D
  3
ACAD_MATERIAL
350
E
  3
ACAD_MLEADERSTYLE
350
F
  3
ACAD_MLINESTYLE
350
10
  3
ACAD_PLOTSETTINGS
350
11
  3
ACAD_PLOTSTYLENAME
350
12
  3
ACAD_SCALELIST
350
14
  3
ACAD_TABLESTYLE
350
15
  3
ACAD_VISUALSTYLE
350
16
  3
EZDXF_META
350
2D
  0
DICTIONARY
  5
B
330
A
100
AcDbDictionary
280
0
281
1
  0
DICTIONARY
  5
C
330
A
100
AcDbDictionary
280
0
281
1
  0
DICTIONARY
  5
D
330
A
100
AcDbDictionary
280
0
281
1
  3
Model
350
1A
  3
A-10 SISTEM KESITI
350
1E
  0
DICTIONARY
  5
E
330
A
100
AcDbDictionary
280
0
281
1
  3
ByBlock
350
1F
  3
ByLayer
350
20
  3
Global
350
21
  0
DICTIONARY
  5
F
330
A
100
AcDbDictionary
280
0
281
1
  3
Standard
350
2C
  0
DICTIONARY
  5
10
330
A
100
AcDbDictionary
280
0
281
1
  3
Standard
350
22
  0
DICTIONARY
  5
11
330
A
100
AcDbDictionary
280
0
281
1
  0
ACDBDICTIONARYWDFLT
  5
12
330
A
100
AcDbDictionary
280
0
281
1
  3
Normal
350
13
100
AcDbDictionaryWithDefault
340
13
  0
ACDBPLACEHOLDER
  5
13
330
12
  0
DICTIONARY
  5
14
330
A
100
AcDbDictionary
280
0
281
1
  0
DICTIONARY
  5
15
330
A
100
AcDbDictionary
280
0
281
1
  0
DICTIONARY
  5
16
330
A
100
AcDbDictionary
280
0
281
1
  0
LAYOUT
  5
1A
330
D
100
AcDbPlotSettings
  1

  2
Adobe PDF
  4
A3
  6

 40
7.5
 41
20.0
 42
7.5
 43
20.0
 44
420.0
 45
297.0
 46
0.0
 47
0.0
 48
0.0
 49
0.0
140
0.0
141
0.0
142
1.0
143
1.0
 70
1024
 72
1
 73
0
 74
5
  7

 75
16
 76
0
 77
2
 78
300
147
1.0
148
0.0
149
0.0
100
AcDbLayout
  1
Model
 70
1
 71
0
 10
0.0
 20
0.0
 11
420.0
 21
297.0
 12
0.0
 22
0.0
 32
0.0
 14
1e+20
 24
1e+20
 34
1e+20
 15
-1e+20
 25
-1e+20
 35
-1e+20
146
0.0
 13
0.0
 23
0.0
 33
0.0
 16
1.0
 26
0.0
 36
0.0
 17
0.0
 27
1.0
 37
0.0
 76
1
330
17
  0
LAYOUT
  5
1E
330
D
100
AcDbPlotSettings
  1

  2
DWG to PDF.pc3
  4
ezdxf_(420.00_x_297.00_MM)
  6

 40
0.0
 41
0.0
 42
0.0
 43
0.0
 44
420.0
 45
297.0
 46
0.0
 47
0.0
 48
0.0
 49
0.0
140
0.0
141
0.0
142
1.0
143
1.0
 70
672
 72
1
 73
0
 74
5
  7

 75
16
 76
0
 77
2
 78
300
147
1.0
148
0.0
149
0.0
100
AcDbLayout
  1
A-10 SISTEM KESITI
 70
1
 71
1
 10
-0.0
 20
-0.0
 11
420.0
 21
297.0
 12
0.0
 22
0.0
 32
0.0
 14
1e+20
 24
1e+20
 34
1e+20
 15
-1e+20
 25
-1e+20
 35
-1e+20
146
0.0
 13
0.0
 23
0.0
 33
0.0
 16
1.0
 26
0.0
 36
0.0
 17
0.0
 27
1.0
 37
0.0
 76
1
330
1B
331
4F
  0
MATERIAL
  5
1F
102
{ACAD_REACTORS
330
E
102
}
330
E
100
AcDbMaterial
  1
ByBlock
  2

 70
0
 40
1.0
 71
1
 41
1.0
 91
-1023410177
 42
1.0
 72
1
  3

 73
1
 74
1
 75
1
 44
0.5
 73
0
 45
1.0
 46
1.0
 77
1
  4

 78
1
 79
1
170
1
 48
1.0
171
1
  6

172
1
173
1
174
1
140
1.0
141
1.0
175
1
  7

176
1
177
1
178
1
143
1.0
179
1
  8

270
1
271
1
272
1
145
1.0
146
1.0
273
1
  9

274
1
275
1
276
1
 42
1.0
 72
1
  3

 73
1
 74
1
 75
1
 94
63
  0
MATERIAL
  5
20
102
{ACAD_REACTORS
330
E
102
}
330
E
100
AcDbMaterial
  1
ByLayer
  2

 70
0
 40
1.0
 71
1
 41
1.0
 91
-1023410177
 42
1.0
 72
1
  3

 73
1
 74
1
 75
1
 44
0.5
 73
0
 45
1.0
 46
1.0
 77
1
  4

 78
1
 79
1
170
1
 48
1.0
171
1
  6

172
1
173
1
174
1
140
1.0
141
1.0
175
1
  7

176
1
177
1
178
1
143
1.0
179
1
  8

270
1
271
1
272
1
145
1.0
146
1.0
273
1
  9

274
1
275
1
276
1
 42
1.0
 72
1
  3

 73
1
 74
1
 75
1
 94
63
  0
MATERIAL
  5
21
102
{ACAD_REACTORS
330
E
102
}
330
E
100
AcDbMaterial
  1
Global
  2

 70
0
 40
1.0
 71
1
 41
1.0
 91
-1023410177
 42
1.0
 72
1
  3

 73
1
 74
1
 75
1
 44
0.5
 73
0
 45
1.0
 46
1.0
 77
1
  4

 78
1
 79
1
170
1
 48
1.0
171
1
  6

172
1
173
1
174
1
140
1.0
141
1.0
175
1
  7

176
1
177
1
178
1
143
1.0
179
1
  8

270
1
271
1
272
1
145
1.0
146
1.0
273
1
  9

274
1
275
1
276
1
 42
1.0
 72
1
  3

 73
1
 74
1
 75
1
 94
63
  0
MLINESTYLE
  5
22
102
{ACAD_REACTORS
330
10
102
}
330
10
100
AcDbMlineStyle
  2
Standard
 70
0
  3

 62
256
 51
90.0
 52
90.0
 71
2
 49
0.5
 62
256
  6
BYLAYER
 49
-0.5
 62
256
  6
BYLAYER
  0
MLEADERSTYLE
  5
2C
102
{ACAD_REACTORS
330
F
102
}
330
F
100
AcDbMLeaderStyle
179
2
170
2
171
1
172
0
 90
2
 40
0.0
 41
0.0
173
1
 91
-1056964608
 92
-2
290
1
 42
2.0
291
1
 43
8.0
  3
Standard
 44
4.0
300

342
29
174
1
175
1
176
0
178
1
 93
-1056964608
 45
4.0
292
0
297
0
 46
4.0
 94
-1056964608
 47
1.0
 49
1.0
140
1.0
294
1
141
0.0
177
0
142
1.0
295
0
296
0
143
3.75
271
0
272
9
273
9
  0
DICTIONARY
  5
2D
330
A
100
AcDbDictionary
281
1
  3
CREATED_BY_EZDXF
350
2E
  3
WRITTEN_BY_EZDXF
350
14C
  0
DICTIONARYVAR
  5
2E
330
2D
100
DictionaryVariables
280
0
  1
1.1.4 @ 2026-09-22T09:33:00.904382+00:00
  0
DICTIONARYVAR
  5
14C
330
2D
100
DictionaryVariables
280
0
  1
1.1.4 @ 2026-09-22T09:33:00.926459+00:00
  0
ENDSEC
  0
EOF
