  0
SECTION
  2
HEADER
  9
$ACADVER
  1
AC1032
  9
$ACADMAINTVER
 90
4
  9
$DWGCODEPAGE
  3
ANSI_1252
  9
$LASTSAVEDBY
  1
ezdxf
  9
$REQUIREDVERSIONS
160
0
  9
$INSBASE
 10
0.0
 20
0.0
 30
0.0
  9
$EXTMIN
 10
1e+20
 20
1e+20
 30
1e+20
  9
$EXTMAX
 10
-1e+20
 20
-1e+20
 30
-1e+20
  9
$LIMMIN
 10
0.0
 20
0.0
  9
$LIMMAX
 10
420.0
 20
297.0
  9
$ORTHOMODE
 70
0
  9
$REGENMODE
 70
1
  9
$FILLMODE
 70
1
  9
$QTEXTMODE
 70
0
  9
$MIRRTEXT
 70
1
  9
$LTSCALE
 40
0.25
  9
$ATTMODE
 70
1
  9
$TEXTSIZE
 40
2.5
  9
$TRACEWID
 40
1.0
  9
$TEXTSTYLE
  7
YAZI
  9
$CLAYER
  8
0
  9
$CELTYPE
  6
ByLayer
  9
$CECOLOR
 62
256
  9
$CELTSCALE
 40
1.0
  9
$DISPSILH
 70
0
  9
$DIMSCALE
 40
1.0
  9
$DIMASZ
 40
2.5
  9
$DIMEXO
 40
0.625
  9
$DIMDLI
 40
3.75
  9
$DIMRND
 40
0.0
  9
$DIMDLE
 40
0.0
  9
$DIMEXE
 40
1.25
  9
$DIMTP
 40
0.0
  9
$DIMTM
 40
0.0
  9
$DIMTXT
 40
2.5
  9
$DIMCEN
 40
2.5
  9
$DIMTSZ
 40
0.0
  9
$DIMTOL
 70
0
  9
$DIMLIM
 70
0
  9
$DIMTIH
 70
0
  9
$DIMTOH
 70
0
  9
$DIMSE1
 70
0
  9
$DIMSE2
 70
0
  9
$DIMTAD
 70
1
  9
$DIMZIN
 70
8
  9
$DIMBLK
  1

  9
$DIMASO
 70
1
  9
$DIMSHO
 70
1
  9
$DIMPOST
  1

  9
$DIMAPOST
  1

  9
$DIMALT
 70
0
  9
$DIMALTD
 70
3
  9
$DIMALTF
 40
0.03937007874
  9
$DIMLFAC
 40
1.0
  9
$DIMTOFL
 70
1
  9
$DIMTVP
 40
0.0
  9
$DIMTIX
 70
0
  9
$DIMSOXD
 70
0
  9
$DIMSAH
 70
0
  9
$DIMBLK1
  1

  9
$DIMBLK2
  1

  9
$DIMSTYLE
  2
ISO-25
  9
$DIMCLRD
 70
0
  9
$DIMCLRE
 70
0
  9
$DIMCLRT
 70
0
  9
$DIMTFAC
 40
1.0
  9
$DIMGAP
 40
0.625
  9
$DIMJUST
 70
0
  9
$DIMSD1
 70
0
  9
$DIMSD2
 70
0
  9
$DIMTOLJ
 70
0
  9
$DIMTZIN
 70
8
  9
$DIMALTZ
 70
0
  9
$DIMALTTZ
 70
0
  9
$DIMUPT
 70
0
  9
$DIMDEC
 70
2
  9
$DIMTDEC
 70
2
  9
$DIMALTU
 70
2
  9
$DIMALTTD
 70
3
  9
$DIMTXSTY
  7
Standard
  9
$DIMAUNIT
 70
0
  9
$DIMADEC
 70
0
  9
$DIMALTRND
 40
0.0
  9
$DIMAZIN
 70
0
  9
$DIMDSEP
 70
44
  9
$DIMATFIT
 70
3
  9
$DIMFRAC
 70
0
  9
$DIMLDRBLK
  1

  9
$DIMLUNIT
 70
2
  9
$DIMLWD
 70
-2
  9
$DIMLWE
 70
-2
  9
$DIMTMOVE
 70
0
  9
$DIMFXL
 40
1.0
  9
$DIMFXLON
 70
0
  9
$DIMJOGANG
 40
0.785398163397
  9
$DIMTFILL
 70
0
  9
$DIMTFILLCLR
 70
0
  9
$DIMARCSYM
 70
0
  9
$DIMLTYPE
  6

  9
$DIMLTEX1
  6

  9
$DIMLTEX2
  6

  9
$DIMTXTDIRECTION
 70
0
  9
$LUNITS
 70
2
  9
$LUPREC
 70
4
  9
$SKETCHINC
 40
1.0
  9
$FILLETRAD
 40
10.0
  9
$AUNITS
 70
0
  9
$AUPREC
 70
2
  9
$MENU
  1
.
  9
$ELEVATION
 40
0.0
  9
$PELEVATION
 40
0.0
  9
$THICKNESS
 40
0.0
  9
$LIMCHECK
 70
0
  9
$CHAMFERA
 40
0.0
  9
$CHAMFERB
 40
0.0
  9
$CHAMFERC
 40
0.0
  9
$CHAMFERD
 40
0.0
  9
$SKPOLY
 70
0
  9
$TDCREATE
 40
2461306.5229166667
  9
$TDUCREATE
 40
2458532.153996898
  9
$TDUPDATE
 40
2461306.5229166667
  9
$TDUUPDATE
 40
2458532.1544311
  9
$TDINDWG
 40
0.0
  9
$TDUSRTIMER
 40
0.0
  9
$USRTIMER
 70
1
  9
$ANGBASE
 50
0.0
  9
$ANGDIR
 70
0
  9
$PDMODE
 70
0
  9
$PDSIZE
 40
0.0
  9
$PLINEWID
 40
0.0
  9
$SPLFRAME
 70
0
  9
$SPLINETYPE
 70
6
  9
$SPLINESEGS
 70
8
  9
$HANDSEED
  5
1CF
  9
$SURFTAB1
 70
6
  9
$SURFTAB2
 70
6
  9
$SURFTYPE
 70
6
  9
$SURFU
 70
6
  9
$SURFV
 70
6
  9
$UCSBASE
  2

  9
$UCSNAME
  2

  9
$UCSORG
 10
0.0
 20
0.0
 30
0.0
  9
$UCSXDIR
 10
1.0
 20
0.0
 30
0.0
  9
$UCSYDIR
 10
0.0
 20
1.0
 30
0.0
  9
$UCSORTHOREF
  2

  9
$UCSORTHOVIEW
 70
0
  9
$UCSORGTOP
 10
0.0
 20
0.0
 30
0.0
  9
$UCSORGBOTTOM
 10
0.0
 20
0.0
 30
0.0
  9
$UCSORGLEFT
 10
0.0
 20
0.0
 30
0.0
  9
$UCSORGRIGHT
 10
0.0
 20
0.0
 30
0.0
  9
$UCSORGFRONT
 10
0.0
 20
0.0
 30
0.0
  9
$UCSORGBACK
 10
0.0
 20
0.0
 30
0.0
  9
$PUCSBASE
  2

  9
$PUCSNAME
  2

  9
$PUCSORG
 10
0.0
 20
0.0
 30
0.0
  9
$PUCSXDIR
 10
1.0
 20
0.0
 30
0.0
  9
$PUCSYDIR
 10
0.0
 20
1.0
 30
0.0
  9
$PUCSORTHOREF
  2

  9
$PUCSORTHOVIEW
 70
0
  9
$PUCSORGTOP
 10
0.0
 20
0.0
 30
0.0
  9
$PUCSORGBOTTOM
 10
0.0
 20
0.0
 30
0.0
  9
$PUCSORGLEFT
 10
0.0
 20
0.0
 30
0.0
  9
$PUCSORGRIGHT
 10
0.0
 20
0.0
 30
0.0
  9
$PUCSORGFRONT
 10
0.0
 20
0.0
 30
0.0
  9
$PUCSORGBACK
 10
0.0
 20
0.0
 30
0.0
  9
$USERI1
 70
0
  9
$USERI2
 70
0
  9
$USERI3
 70
0
  9
$USERI4
 70
0
  9
$USERI5
 70
0
  9
$USERR1
 40
0.0
  9
$USERR2
 40
0.0
  9
$USERR3
 40
0.0
  9
$USERR4
 40
0.0
  9
$USERR5
 40
0.0
  9
$WORLDVIEW
 70
1
  9
$SHADEDGE
 70
3
  9
$SHADEDIF
 70
70
  9
$TILEMODE
 70
1
  9
$MAXACTVP
 70
64
  9
$PINSBASE
 10
0.0
 20
0.0
 30
0.0
  9
$PLIMCHECK
 70
0
  9
$PEXTMIN
 10
1e+20
 20
1e+20
 30
1e+20
  9
$PEXTMAX
 10
-1e+20
 20
-1e+20
 30
-1e+20
  9
$PLIMMIN
 10
-0.0
 20
-0.0
  9
$PLIMMAX
 10
420.0
 20
297.0
  9
$UNITMODE
 70
0
  9
$VISRETAIN
 70
1
  9
$PLINEGEN
 70
0
  9
$PSLTSCALE
 70
1
  9
$TREEDEPTH
 70
3020
  9
$CMLSTYLE
  2
Standard
  9
$CMLJUST
 70
0
  9
$CMLSCALE
 40
20.0
  9
$PROXYGRAPHICS
 70
1
  9
$MEASUREMENT
 70
1
  9
$CELWEIGHT
370
-1
  9
$ENDCAPS
280
0
  9
$JOINSTYLE
280
0
  9
$LWDISPLAY
290
1
  9
$INSUNITS
 70
5
  9
$HYPERLINKBASE
  1

  9
$STYLESHEET
  1

  9
$XEDIT
290
1
  9
$CEPSNTYPE
380
0
  9
$PSTYLEMODE
290
1
  9
$FINGERPRINTGUID
  2
{78DD2E5A-447F-48FE-979A-A39E88D4F81C}
  9
$VERSIONGUID
  2
{8F505B7B-E965-4D33-BCAF-48868682150E}
  9
$EXTNAMES
290
1
  9
$PSVPSCALE
 40
0.0
  9
$OLESTARTUP
290
0
  9
$SORTENTS
280
127
  9
$INDEXCTL
280
0
  9
$HIDETEXT
280
1
  9
$XCLIPFRAME
280
0
  9
$HALOGAP
280
0
  9
$OBSCOLOR
 70
257
  9
$OBSLTYPE
280
0
  9
$INTERSECTIONDISPLAY
280
0
  9
$INTERSECTIONCOLOR
 70
257
  9
$DIMASSOC
280
2
  9
$PROJECTNAME
  1

  9
$CAMERADISPLAY
290
0
  9
$LENSLENGTH
 40
50.0
  9
$CAMERAHEIGHT
 40
0.0
  9
$STEPSPERSEC
 40
24.0
  9
$STEPSIZE
 40
100.0
  9
$3DDWFPREC
 40
2.0
  9
$PSOLWIDTH
 40
0.005
  9
$PSOLHEIGHT
 40
0.08
  9
$LOFTANG1
 40
1.570796326795
  9
$LOFTANG2
 40
1.570796326795
  9
$LOFTMAG1
 40
0.0
  9
$LOFTMAG2
 40
0.0
  9
$LOFTPARAM
 70
7
  9
$LOFTNORMALS
280
1
  9
$LATITUDE
 40
37.795
  9
$LONGITUDE
 40
-122.394
  9
$NORTHDIRECTION
 40
0.0
  9
$TIMEZONE
 70
-8000
  9
$LIGHTGLYPHDISPLAY
280
1
  9
$TILEMODELIGHTSYNCH
280
1
  9
$CMATERIAL
347
20
  9
$SOLIDHIST
280
0
  9
$SHOWHIST
280
1
  9
$DWFFRAME
280
2
  9
$DGNFRAME
280
2
  9
$REALWORLDSCALE
290
1
  9
$INTERFERECOLOR
 62
256
  9
$CSHADOW
280
0
  9
$SHADOWPLANELOCATION
 40
0.0
  0
ENDSEC
  0
SECTION
  2
CLASSES
  0
CLASS
  1
ACDBDICTIONARYWDFLT
  2
AcDbDictionaryWithDefault
  3
ObjectDBX Classes
 90
0
 91
0
280
0
281
0
  0
CLASS
  1
SUN
  2
AcDbSun
  3
SCENEOE
 90
1153
 91
0
280
0
281
0
  0
CLASS
  1
VISUALSTYLE
  2
AcDbVisualStyle
  3
ObjectDBX Classes
 90
4095
 91
0
280
0
281
0
  0
CLASS
  1
MATERIAL
  2
AcDbMaterial
  3
ObjectDBX Classes
 90
1153
 91
0
280
0
281
0
  0
CLASS
  1
SCALE
  2
AcDbScale
  3
ObjectDBX Classes
 90
1153
 91
0
280
0
281
0
  0
CLASS
  1
TABLESTYLE
  2
AcDbTableStyle
  3
ObjectDBX Classes
 90
4095
 91
0
280
0
281
0
  0
CLASS
  1
MLEADERSTYLE
  2
AcDbMLeaderStyle
  3
ACDB_MLEADERSTYLE_CLASS
 90
4095
 91
0
280
0
281
0
  0
CLASS
  1
DICTIONARYVAR
  2
AcDbDictionaryVar
  3
ObjectDBX Classes
 90
0
 91
0
280
0
281
0
  0
CLASS
  1
CELLSTYLEMAP
  2
AcDbCellStyleMap
  3
ObjectDBX Classes
 90
1152
 91
0
280
0
281
0
  0
CLASS
  1
MENTALRAYRENDERSETTINGS
  2
AcDbMentalRayRenderSettings
  3
SCENEOE
 90
1024
 91
0
280
0
281
0
  0
CLASS
  1
ACDBDETAILVIEWSTYLE
  2
AcDbDetailViewStyle
  3
ObjectDBX Classes
 90
1025
 91
0
280
0
281
0
  0
CLASS
  1
ACDBSECTIONVIEWSTYLE
  2
AcDbSectionViewStyle
  3
ObjectDBX Classes
 90
1025
 91
0
280
0
281
0
  0
CLASS
  1
RASTERVARIABLES
  2
AcDbRasterVariables
  3
ISM
 90
0
 91
0
280
0
281
0
  0
CLASS
  1
LAYOUT
  2
AcDbLayout
  3
ObjectDBX Classes
 90
0
 91
0
280
0
281
0
  0
CLASS
  1
ACDBPLACEHOLDER
  2
AcDbPlaceHolder
  3
ObjectDBX Classes
 90
0
 91
0
280
0
281
0
  0
ENDSEC
  0
SECTION
  2
TABLES
  0
TABLE
  2
VPORT
  5
8
330
0
100
AcDbSymbolTable
 70
1
  0
VPORT
  5
23
330
8
100
AcDbSymbolTableRecord
100
AcDbViewportTableRecord
  2
*Active
 70
0
 10
0.0
 20
0.0
 11
1.0
 21
1.0
 12
0.0
 22
0.0
 13
0.0
 23
0.0
 14
0.5
 24
0.5
 15
0.5
 25
0.5
 16
0.0
 26
0.0
 36
1.0
 17
0.0
 27
0.0
 37
0.0
 40
1000.0
 41
1.34
 42
50.0
 43
0.0
 44
0.0
 50
0.0
 51
0.0
 71
0
 72
1000
 73
1
 74
3
 75
0
 76
0
 77
0
 78
0
281
0
 65
0
146
0.0
  0
ENDTAB
  0
TABLE
  2
LTYPE
  5
2
330
0
100
AcDbSymbolTable
 70
7
  0
LTYPE
  5
24
330
2
100
AcDbSymbolTableRecord
100
AcDbLinetypeTableRecord
  2
ByBlock
 70
0
  3

 72
65
 73
0
 40
0.0
  0
LTYPE
  5
25
330
2
100
AcDbSymbolTableRecord
100
AcDbLinetypeTableRecord
  2
ByLayer
 70
0
  3

 72
65
 73
0
 40
0.0
  0
LTYPE
  5
26
330
2
100
AcDbSymbolTableRecord
100
AcDbLinetypeTableRecord
  2
Continuous
 70
0
  3

 72
65
 73
0
 40
0.0
  0
LTYPE
  5
48
330
2
100
AcDbSymbolTableRecord
100
AcDbLinetypeTableRecord
  2
ACAD_ISO02W100
 70
0
  3
ISO kesik __ __ __
 72
65
 73
2
 40
15.0
 49
12.0
 74
0
 49
-3.0
 74
0
  0
LTYPE
  5
49
330
2
100
AcDbSymbolTableRecord
100
AcDbLinetypeTableRecord
  2
ACAD_ISO03W100
 70
0
  3
ISO kesik boşluk __    __
 72
65
 73
2
 40
30.0
 49
12.0
 74
0
 49
-18.0
 74
0
  0
LTYPE
  5
4A
330
2
100
AcDbSymbolTableRecord
100
AcDbLinetypeTableRecord
  2
ACAD_ISO04W100
 70
0
  3
ISO uzun kesik nokta ____ . ____
 72
65
 73
4
 40
30.0
 49
24.0
 74
0
 49
-3.0
 74
0
 49
0.0
 74
0
 49
-3.0
 74
0
  0
LTYPE
  5
4B
330
2
100
AcDbSymbolTableRecord
100
AcDbLinetypeTableRecord
  2
ACAD_ISO07W100
 70
0
  3
ISO nokta . . . .
 72
65
 73
2
 40
3.0
 49
0.0
 74
0
 49
-3.0
 74
0
  0
ENDTAB
  0
TABLE
  2
LAYER
  5
1
330
0
100
AcDbSymbolTable
 70
30
  0
LAYER
  5
27
330
1
100
AcDbSymbolTableRecord
100
AcDbLayerTableRecord
  2
0
 70
0
 62
7
  6
Continuous
370
-3
390
13
347
21
  0
LAYER
  5
28
330
1
100
AcDbSymbolTableRecord
100
AcDbLayerTableRecord
  2
Defpoints
 70
0
 62
7
  6
Continuous
290
0
370
-3
390
13
347
21
  0
LAYER
  5
50
330
1
100
AcDbSymbolTableRecord
100
AcDbLayerTableRecord
  2
M-BITK-AGAC-1
 70
0
 62
70
  6
Continuous
370
9
390
13
347
21
1001
AcAecLayerStandard
1000

1000
Ağaçlar, selviler — görünüşte görünen (derinlik 1)
  0
LAYER
  5
56
330
1
100
AcDbSymbolTableRecord
100
AcDbLayerTableRecord
  2
M-DUVK-DOGALTAS-1-T
 70
0
 62
8
  6
Continuous
370
5
390
13
347
21
1001
AcAecLayerStandard
1000

1000
Duvar/cephe kaplama: Sille taşı, subasman yontma taş — görünüşte görünen (derinlik 1) — tarama
  0
LAYER
  5
57
330
1
100
AcDbSymbolTableRecord
100
AcDbLayerTableRecord
  2
M-DUVK-DOGALTAS-1
 70
0
 62
139
  6
Continuous
370
5
390
13
347
21
1001
AcAecLayerStandard
1000

1000
Duvar/cephe kaplama: Sille taşı, subasman yontma taş — görünüşte görünen (derinlik 1)
  0
LAYER
  5
80
330
1
100
AcDbSymbolTableRecord
100
AcDbLayerTableRecord
  2
M-DUVK-PREKAST-1-T
 70
0
 62
8
  6
Continuous
370
5
390
13
347
21
1001
AcAecLayerStandard
1000

1000
Kat silmesi (prekast / GRC) — görünüşte görünen (derinlik 1) — tarama
  0
LAYER
  5
81
330
1
100
AcDbSymbolTableRecord
100
AcDbLayerTableRecord
  2
M-DUVK-PREKAST-1
 70
0
 62
127
  6
Continuous
370
5
390
13
347
21
1001
AcAecLayerStandard
1000

1000
Kat silmesi (prekast / GRC) — görünüşte görünen (derinlik 1)
  0
LAYER
  5
83
330
1
100
AcDbSymbolTableRecord
100
AcDbLayerTableRecord
  2
M-SIVA-1-T
 70
0
 62
8
  6
Continuous
370
5
390
13
347
21
1001
AcAecLayerStandard
1000

1000
Sıva (cephe: ince silikon sıva) — görünüşte görünen (derinlik 1) — tarama
  0
LAYER
  5
84
330
1
100
AcDbSymbolTableRecord
100
AcDbLayerTableRecord
  2
M-SIVA-1
 70
0
 62
52
  6
Continuous
370
5
390
13
347
21
1001
AcAecLayerStandard
1000

1000
Sıva (cephe: ince silikon sıva) — görünüşte görünen (derinlik 1)
  0
LAYER
  5
86
330
1
100
AcDbSymbolTableRecord
100
AcDbLayerTableRecord
  2
M-PNKS-ALUMINYUM-1
 70
0
 62
171
  6
Continuous
370
9
390
13
347
21
1001
AcAecLayerStandard
1000

1000
Pencere / doğrama kasası ve kanadı (alüminyum) — görünüşte görünen (derinlik 1)
  0
LAYER
  5
94
330
1
100
AcDbSymbolTableRecord
100
AcDbLayerTableRecord
  2
M-KPKN-AHSAP-1
 70
0
 62
93
  6
Continuous
370
9
390
13
347
21
1001
AcAecLayerStandard
1000

1000
Kapı kanadı — görünüşte görünen (derinlik 1)
  0
LAYER
  5
96
330
1
100
AcDbSymbolTableRecord
100
AcDbLayerTableRecord
  2
M-DUVK-AHSAP-1-T
 70
0
 62
8
  6
Continuous
370
5
390
13
347
21
1001
AcAecLayerStandard
1000

1000
Cephe ahşap kompozit kaplama — görünüşte görünen (derinlik 1) — tarama
  0
LAYER
  5
B9
330
1
100
AcDbSymbolTableRecord
100
AcDbLayerTableRecord
  2
M-BACA-TUGLA-1-T
 70
0
 62
8
  6
Continuous
370
5
390
13
347
21
1001
AcAecLayerStandard
1000

1000
Baca ve şömine — görünüşte görünen (derinlik 1) — tarama
  0
LAYER
  5
BB
330
1
100
AcDbSymbolTableRecord
100
AcDbLayerTableRecord
  2
M-BACA-TUGLA-1
 70
0
 62
116
  6
Continuous
370
9
390
13
347
21
1001
AcAecLayerStandard
1000

1000
Baca ve şömine — görünüşte görünen (derinlik 1)
  0
LAYER
  5
BE
330
1
100
AcDbSymbolTableRecord
100
AcDbLayerTableRecord
  2
M-CKAP-KIREMIT-1-T
 70
0
 62
8
  6
Continuous
370
5
390
13
347
21
1001
AcAecLayerStandard
1000

1000
Çatı kaplama (kil kiremit), mahya, dere — görünüşte görünen (derinlik 1) — tarama
  0
LAYER
  5
C0
330
1
100
AcDbSymbolTableRecord
100
AcDbLayerTableRecord
  2
M-CKAP-KIREMIT-1
 70
0
 62
66
  6
Continuous
370
9
390
13
347
21
1001
AcAecLayerStandard
1000

1000
Çatı kaplama (kil kiremit), mahya, dere — görünüşte görünen (derinlik 1)
  0
LAYER
  5
C5
330
1
100
AcDbSymbolTableRecord
100
AcDbLayerTableRecord
  2
M-YIBO-SAC-1
 70
0
 62
12
  6
Continuous
370
9
390
13
347
21
1001
AcAecLayerStandard
1000

1000
Yağmur iniş borusu — görünüşte görünen (derinlik 1)
  0
LAYER
  5
C8
330
1
100
AcDbSymbolTableRecord
100
AcDbLayerTableRecord
  2
M-TASI-BETONARME-1-T
 70
0
 62
250
  6
Continuous
370
5
390
13
347
21
1001
AcAecLayerStandard
1000

1000
Betonarme kolon, perde, kiriş, döşeme, temel (kesilen) — görünüşte görünen (derinlik 1) — tarama
  0
LAYER
  5
C9
330
1
100
AcDbSymbolTableRecord
100
AcDbLayerTableRecord
  2
M-TASI-BETONARME-1
 70
0
 62
5
  6
Continuous
370
35
390
13
347
21
1001
AcAecLayerStandard
1000

1000
Betonarme kolon, perde, kiriş, döşeme, temel (kesilen) — görünüşte görünen (derinlik 1)
  0
LAYER
  5
CE
330
1
100
AcDbSymbolTableRecord
100
AcDbLayerTableRecord
  2
M-DUVK-AHSAP-1
 70
0
 62
126
  6
Continuous
370
5
390
13
347
21
1001
AcAecLayerStandard
1000

1000
Cephe ahşap kompozit kaplama — görünüşte görünen (derinlik 1)
  0
LAYER
  5
D0
330
1
100
AcDbSymbolTableRecord
100
AcDbLayerTableRecord
  2
M-GOST-YAZI
 70
0
 62
2
  6
Continuous
370
9
390
13
347
21
1001
AcAecLayerStandard
1000

1000
Genel yazılar, başlıklar, malzeme notları
  0
LAYER
  5
D2
330
1
100
AcDbSymbolTableRecord
100
AcDbLayerTableRecord
  2
M-CVRE-ZEMIN-T
 70
0
 62
8
  6
Continuous
370
5
390
13
347
21
1001
AcAecLayerStandard
1000

1000
Doğal zemin / toprak (kesit ve görünüş) — tarama
  0
LAYER
  5
D4
330
1
100
AcDbSymbolTableRecord
100
AcDbLayerTableRecord
  2
M-CVRE-ZEMIN
 70
0
 62
45
  6
Continuous
370
18
390
13
347
21
1001
AcAecLayerStandard
1000

1000
Doğal zemin / toprak (kesit ve görünüş)
  0
LAYER
  5
D6
330
1
100
AcDbSymbolTableRecord
100
AcDbLayerTableRecord
  2
M-GOST-GENEL
 70
0
 62
81
  6
Continuous
370
9
390
13
347
21
1001
AcAecLayerStandard
1000

1000
Diğer gösterimler (ölçek insanı vb.)
  0
LAYER
  5
D7
330
1
100
AcDbSymbolTableRecord
100
AcDbLayerTableRecord
  2
M-GOST-KESITKOT
 70
0
 62
46
  6
Continuous
370
9
390
13
347
21
1001
AcAecLayerStandard
1000

1000
Kesit ve görünüş kotları
  0
LAYER
  5
102
330
1
100
AcDbSymbolTableRecord
100
AcDbLayerTableRecord
  2
M-GOST-ANTET
 70
0
 62
176
  6
Continuous
370
25
390
13
347
21
1001
AcAecLayerStandard
1000

1000
Pafta çerçevesi ve antet (layout)
  0
LAYER
  5
187
330
1
100
AcDbSymbolTableRecord
100
AcDbLayerTableRecord
  2
M-GOST-ANTETYAZI
 70
0
 62
177
  6
Continuous
370
9
390
13
347
21
1001
AcAecLayerStandard
1000

1000
Antet yazıları, notlar, pafta başlıkları (layout)
  0
LAYER
  5
190
330
1
100
AcDbSymbolTableRecord
100
AcDbLayerTableRecord
  2
M-GOST-LEJANT
 70
0
 62
173
  6
Continuous
370
9
390
13
347
21
1001
AcAecLayerStandard
1000

1000
Lejant sembolleri
  0
LAYER
  5
1A4
330
1
100
AcDbSymbolTableRecord
100
AcDbLayerTableRecord
  2
M-GOST-KUZEYOKU
 70
0
 62
1
  6
Continuous
370
9
390
13
347
21
1001
AcAecLayerStandard
1000

1000
Kuzey oku
  0
LAYER
  5
1C9
330
1
100
AcDbSymbolTableRecord
100
AcDbLayerTableRecord
  2
M-GOST-VPORT
 70
0
 62
8
  6
Continuous
290
0
370
9
390
13
347
21
1001
AcAecLayerStandard
1000

1000
Viewport çerçeveleri — yazdırılmaz
  0
ENDTAB
  0
TABLE
  2
STYLE
  5
5
330
0
100
AcDbSymbolTable
 70
28
  0
STYLE
  5
29
330
5
100
AcDbSymbolTableRecord
100
AcDbTextStyleTableRecord
  2
Standard
 70
0
 40
0.0
 41
1.0
 50
0.0
 71
0
 42
2.5
  3
txt
  4

  0
STYLE
  5
2F
330
5
100
AcDbSymbolTableRecord
100
AcDbTextStyleTableRecord
  2
OpenSans-Light
 70
0
 40
0.0
 41
1.0
 50
0.0
 71
0
 42
2.5
  3
OpenSans-Light.ttf
  4

  0
STYLE
  5
30
330
5
100
AcDbSymbolTableRecord
100
AcDbTextStyleTableRecord
  2
OpenSans-Light-Italic
 70
0
 40
0.0
 41
1.0
 50
0.0
 71
0
 42
2.5
  3
OpenSans-LightItalic.ttf
  4

  0
STYLE
  5
31
330
5
100
AcDbSymbolTableRecord
100
AcDbTextStyleTableRecord
  2
OpenSans
 70
0
 40
0.0
 41
1.0
 50
0.0
 71
0
 42
2.5
  3
OpenSans-Regular.ttf
  4

  0
STYLE
  5
32
330
5
100
AcDbSymbolTableRecord
100
AcDbTextStyleTableRecord
  2
OpenSans-Italic
 70
0
 40
0.0
 41
1.0
 50
0.0
 71
0
 42
2.5
  3
OpenSans-Italic.ttf
  4

  0
STYLE
  5
33
330
5
100
AcDbSymbolTableRecord
100
AcDbTextStyleTableRecord
  2
OpenSans-SemiBold
 70
0
 40
0.0
 41
1.0
 50
0.0
 71
0
 42
2.5
  3
OpenSans-SemiBold.ttf
  4

  0
STYLE
  5
34
330
5
100
AcDbSymbolTableRecord
100
AcDbTextStyleTableRecord
  2
OpenSans-SemiBoldItalic
 70
0
 40
0.0
 41
1.0
 50
0.0
 71
0
 42
2.5
  3
OpenSans-SemiBoldItalic.ttf
  4

  0
STYLE
  5
35
330
5
100
AcDbSymbolTableRecord
100
AcDbTextStyleTableRecord
  2
OpenSans-Bold
 70
0
 40
0.0
 41
1.0
 50
0.0
 71
0
 42
2.5
  3
OpenSans-Bold.ttf
  4

  0
STYLE
  5
36
330
5
100
AcDbSymbolTableRecord
100
AcDbTextStyleTableRecord
  2
OpenSans-BoldItalic
 70
0
 40
0.0
 41
1.0
 50
0.0
 71
0
 42
2.5
  3
OpenSans-BoldItalic.ttf
  4

  0
STYLE
  5
37
330
5
100
AcDbSymbolTableRecord
100
AcDbTextStyleTableRecord
  2
OpenSans-ExtraBold
 70
0
 40
0.0
 41
1.0
 50
0.0
 71
0
 42
2.5
  3
OpenSans-ExtraBold.ttf
  4

  0
STYLE
  5
38
330
5
100
AcDbSymbolTableRecord
100
AcDbTextStyleTableRecord
  2
OpenSans-ExtraBoldItalic
 70
0
 40
0.0
 41
1.0
 50
0.0
 71
0
 42
2.5
  3
OpenSans-ExtraBoldItalic.ttf
  4

  0
STYLE
  5
39
330
5
100
AcDbSymbolTableRecord
100
AcDbTextStyleTableRecord
  2
OpenSansCondensed-Bold
 70
0
 40
0.0
 41
1.0
 50
0.0
 71
0
 42
2.5
  3
OpenSansCondensed-Bold.ttf
  4

  0
STYLE
  5
3A
330
5
100
AcDbSymbolTableRecord
100
AcDbTextStyleTableRecord
  2
OpenSansCondensed-Light
 70
0
 40
0.0
 41
1.0
 50
0.0
 71
0
 42
2.5
  3
OpenSansCondensed-Light.ttf
  4

  0
STYLE
  5
3B
330
5
100
AcDbSymbolTableRecord
100
AcDbTextStyleTableRecord
  2
OpenSansCondensed-Italic
 70
0
 40
0.0
 41
1.0
 50
0.0
 71
0
 42
2.5
  3
OpenSansCondensed-LightItalic.ttf
  4

  0
STYLE
  5
3C
330
5
100
AcDbSymbolTableRecord
100
AcDbTextStyleTableRecord
  2
LiberationSans
 70
0
 40
0.0
 41
1.0
 50
0.0
 71
0
 42
2.5
  3
LiberationSans-Regular.ttf
  4

  0
STYLE
  5
3D
330
5
100
AcDbSymbolTableRecord
100
AcDbTextStyleTableRecord
  2
LiberationSans-Bold
 70
0
 40
0.0
 41
1.0
 50
0.0
 71
0
 42
2.5
  3
LiberationSans-Bold.ttf
  4

  0
STYLE
  5
3E
330
5
100
AcDbSymbolTableRecord
100
AcDbTextStyleTableRecord
  2
LiberationSans-BoldItalic
 70
0
 40
0.0
 41
1.0
 50
0.0
 71
0
 42
2.5
  3
LiberationSans-BoldItalic.ttf
  4

  0
STYLE
  5
3F
330
5
100
AcDbSymbolTableRecord
100
AcDbTextStyleTableRecord
  2
LiberationSans-Italic
 70
0
 40
0.0
 41
1.0
 50
0.0
 71
0
 42
2.5
  3
LiberationSans-Italic.ttf
  4

  0
STYLE
  5
40
330
5
100
AcDbSymbolTableRecord
100
AcDbTextStyleTableRecord
  2
LiberationSerif
 70
0
 40
0.0
 41
1.0
 50
0.0
 71
0
 42
2.5
  3
LiberationSerif-Regular.ttf
  4

  0
STYLE
  5
41
330
5
100
AcDbSymbolTableRecord
100
AcDbTextStyleTableRecord
  2
LiberationSerif-Bold
 70
0
 40
0.0
 41
1.0
 50
0.0
 71
0
 42
2.5
  3
LiberationSerif-Bold.ttf
  4

  0
STYLE
  5
42
330
5
100
AcDbSymbolTableRecord
100
AcDbTextStyleTableRecord
  2
LiberationSerif-BoldItalic
 70
0
 40
0.0
 41
1.0
 50
0.0
 71
0
 42
2.5
  3
LiberationSerif-BoldItalic.ttf
  4

  0
STYLE
  5
43
330
5
100
AcDbSymbolTableRecord
100
AcDbTextStyleTableRecord
  2
LiberationSerif-Italic
 70
0
 40
0.0
 41
1.0
 50
0.0
 71
0
 42
2.5
  3
LiberationSerif-Italic.ttf
  4

  0
STYLE
  5
44
330
5
100
AcDbSymbolTableRecord
100
AcDbTextStyleTableRecord
  2
LiberationMono
 70
0
 40
0.0
 41
1.0
 50
0.0
 71
0
 42
2.5
  3
LiberationMono-Regular.ttf
  4

  0
STYLE
  5
45
330
5
100
AcDbSymbolTableRecord
100
AcDbTextStyleTableRecord
  2
LiberationMono-Bold
 70
0
 40
0.0
 41
1.0
 50
0.0
 71
0
 42
2.5
  3
LiberationMono-Bold.ttf
  4

  0
STYLE
  5
46
330
5
100
AcDbSymbolTableRecord
100
AcDbTextStyleTableRecord
  2
LiberationMono-BoldItalic
 70
0
 40
0.0
 41
1.0
 50
0.0
 71
0
 42
2.5
  3
LiberationMono-BoldItalic.ttf
  4

  0
STYLE
  5
47
330
5
100
AcDbSymbolTableRecord
100
AcDbTextStyleTableRecord
  2
LiberationMono-Italic
 70
0
 40
0.0
 41
1.0
 50
0.0
 71
0
 42
2.5
  3
LiberationMono-Italic.ttf
  4

  0
STYLE
  5
4C
330
5
100
AcDbSymbolTableRecord
100
AcDbTextStyleTableRecord
  2
YAZI
 70
0
 40
0.0
 41
1.0
 50
0.0
 71
0
 42
2.5
  3
arialn.ttf
  4

  0
STYLE
  5
4D
330
5
100
AcDbSymbolTableRecord
100
AcDbTextStyleTableRecord
  2
YAZI-KALIN
 70
0
 40
0.0
 41
1.0
 50
0.0
 71
0
 42
2.5
  3
arialnb.ttf
  4

  0
ENDTAB
  0
TABLE
  2
VIEW
  5
7
330
0
100
AcDbSymbolTable
 70
0
  0
ENDTAB
  0
TABLE
  2
UCS
  5
6
330
0
100
AcDbSymbolTable
 70
0
  0
ENDTAB
  0
TABLE
  2
APPID
  5
3
330
0
100
AcDbSymbolTable
 70
4
  0
APPID
  5
2A
330
3
100
AcDbSymbolTableRecord
100
AcDbRegAppTableRecord
  2
ACAD
 70
0
  0
APPID
  5
51
330
3
100
AcDbSymbolTableRecord
100
AcDbRegAppTableRecord
  2
AcAecLayerStandard
 70
0
  0
APPID
  5
1CC
330
3
100
AcDbSymbolTableRecord
100
AcDbRegAppTableRecord
  2
HATCHBACKGROUNDCOLOR
 70
0
  0
APPID
  5
1CD
330
3
100
AcDbSymbolTableRecord
100
AcDbRegAppTableRecord
  2
EZDXF
 70
0
  0
ENDTAB
  0
TABLE
  2
DIMSTYLE
  5
4
330
0
100
AcDbSymbolTable
 70
2
100
AcDbDimStyleTable
  0
DIMSTYLE
105
2B
330
4
100
AcDbSymbolTableRecord
100
AcDbDimStyleTableRecord
  2
Standard
 70
0
 40
1.0
 41
2.5
 42
0.625
 43
3.75
 44
1.25
 45
0.0
 46
0.0
 47
0.0
 48
0.0
 49
2.5
140
2.5
141
2.5
142
0.0
143
0.03937007874
144
1.0
145
0.0
146
1.0
147
0.625
148
0.0
 69
0
 70
0
 71
0
 72
0
 73
0
 74
0
 75
0
 76
0
 77
1
 78
8
 79
3
170
0
171
3
172
1
173
0
174
0
175
0
176
0
177
0
178
0
179
2
271
2
272
2
273
2
274
3
275
0
276
0
277
2
278
44
279
0
280
0
281
0
282
0
283
0
284
8
285
0
286
0
288
0
289
3
290
0
371
-2
372
-2
  0
DIMSTYLE
105
4E
330
4
100
AcDbSymbolTableRecord
100
AcDbDimStyleTableRecord
  2
MIMARI
 70
0
 40
1.0
 41
2.5
 42
0.0
 43
3.75
 44
1.2
 45
0.0
 46
0.0
 47
0.0
 48
0.0
 49
2.5
140
1.296
141
2.5
142
0.8
143
0.03937007874
144
1.0
145
0.0
146
1.0
147
0.5
148
0.0
 69
0
 70
0
 71
0
 72
0
 73
0
 74
0
 75
0
 76
0
 77
1
 78
8
 79
3
170
0
171
3
172
1
173
0
174
0
175
0
176
256
177
256
178
256
179
2
271
0
272
2
273
2
274
3
275
0
276
0
277
2
278
44
279
0
280
0
281
0
282
0
283
0
284
8
285
0
286
0
288
0
289
3
290
0
340
4C
371
-2
372
-2
  0
ENDTAB
  0
TABLE
  2
BLOCK_RECORD
  5
9
330
0
100
AcDbSymbolTable
 70
2
  0
BLOCK_RECORD
  5
17
330
9
100
AcDbSymbolTableRecord
100
AcDbBlockTableRecord
  2
*Model_Space
340
1A
 70
0
280
1
281
0
  0
BLOCK_RECORD
  5
1B
330
9
100
AcDbSymbolTableRecord
100
AcDbBlockTableRecord
  2
*Paper_Space
340
1E
 70
0
280
1
281
0
  0
ENDTAB
  0
ENDSEC
  0
SECTION
  2
BLOCKS
  0
BLOCK
  5
18
330
17
100
AcDbEntity
  8
0
100
AcDbBlockBegin
  2
*Model_Space
 70
0
 10
0.0
 20
0.0
 30
0.0
  3
*Model_Space
  1

  0
ENDBLK
  5
19
330
17
100
AcDbEntity
  8
0
100
AcDbBlockEnd
  0
BLOCK
  5
1C
330
1B
100
AcDbEntity
  8
0
100
AcDbBlockBegin
  2
*Paper_Space
 70
0
 10
0.0
 20
0.0
 30
0.0
  3
*Paper_Space
  1

  0
ENDBLK
  5
1D
330
1B
100
AcDbEntity
  8
0
100
AcDbBlockEnd
  0
ENDSEC
  0
SECTION
  2
ENTITIES
  0
LINE
  5
52
330
17
100
AcDbEntity
  8
M-BITK-AGAC-1
100
AcDbLine
 10
2140.0
 20
-30.0
 30
0.0
 11
2140.0
 21
440.0
 31
0.0
  0
CIRCLE
  5
53
330
17
100
AcDbEntity
  8
M-BITK-AGAC-1
100
AcDbCircle
 10
2140.0
 20
478.0
 30
0.0
 40
190.0
  0
LINE
  5
54
330
17
100
AcDbEntity
  8
M-BITK-AGAC-1
100
AcDbLine
 10
-139.99999999999986
 20
-30.0
 30
0.0
 11
-139.99999999999986
 21
490.0
 31
0.0
  0
CIRCLE
  5
55
330
17
100
AcDbEntity
  8
M-BITK-AGAC-1
100
AcDbCircle
 10
-139.99999999999986
 20
532.0
 30
0.0
 40
210.0
  0
LWPOLYLINE
  5
58
330
17
100
AcDbEntity
  8
M-DUVK-DOGALTAS-1
100
AcDbPolyline
 90
4
 70
1
 10
0.0
 20
0.0
 10
2000.0
 20
0.0
 10
2000.0
 20
-30.0
 10
0.0
 20
-30.0
  0
HATCH
  5
59
330
17
100
AcDbEntity
  8
M-DUVK-DOGALTAS-1-T
 62
7
100
AcDbHatch
 10
0.0
 20
0.0
 30
0.0
210
0.0
220
0.0
230
1.0
  2
AR-B816
 70
0
 71
0
 91
1
 92
3
 72
0
 73
1
 93
4
 10
0.0
 20
290.0
 10
2000.0
 20
290.0
 10
2000.0
 20
245.0
 10
0.0
 20
245.0
 97
0
 75
1
 76
1
 52
0.0
 41
0.35000000000000003
 77
0
 78
2
 53
0.0
 43
0.0
 44
0.0
 45
0.0
 46
71.12
 79
0
 53
90.0
 43
0.0
 44
0.0
 45
-71.12
 46
71.12
 79
2
 49
71.12
 49
-71.12
 98
0
  0
HATCH
  5
5A
330
17
100
AcDbEntity
  8
M-DUVK-DOGALTAS-1-T
 62
7
100
AcDbHatch
 10
0.0
 20
0.0
 30
0.0
210
0.0
220
0.0
230
1.0
  2
AR-B816
 70
0
 71
0
 91
1
 92
3
 72
0
 73
1
 93
4
 10
0.0
 20
245.0
 10
55.0
 20
245.0
 10
55.0
 20
242.99999999999997
 10
0.0
 20
242.99999999999997
 97
0
 75
1
 76
1
 52
0.0
 41
0.35000000000000003
 77
0
 78
2
 53
0.0
 43
0.0
 44
0.0
 45
0.0
 46
71.12
 79
0
 53
90.0
 43
0.0
 44
0.0
 45
-71.12
 46
71.12
 79
2
 49
71.12
 49
-71.12
 98
0
  0
HATCH
  5
5B
330
17
100
AcDbEntity
  8
M-DUVK-DOGALTAS-1-T
 62
7
100
AcDbHatch
 10
0.0
 20
0.0
 30
0.0
210
0.0
220
0.0
230
1.0
  2
AR-B816
 70
0
 71
0
 91
1
 92
3
 72
0
 73
1
 93
4
 10
545.0
 20
245.0
 10
1030.0
 20
245.0
 10
1030.0
 20
242.99999999999997
 10
545.0
 20
242.99999999999997
 97
0
 75
1
 76
1
 52
0.0
 41
0.35000000000000003
 77
0
 78
2
 53
0.0
 43
0.0
 44
0.0
 45
0.0
 46
71.12
 79
0
 53
90.0
 43
0.0
 44
0.0
 45
-71.12
 46
71.12
 79
2
 49
71.12
 49
-71.12
 98
0
  0
HATCH
  5
5C
330
17
100
AcDbEntity
  8
M-DUVK-DOGALTAS-1-T
 62
7
100
AcDbHatch
 10
0.0
 20
0.0
 30
0.0
210
0.0
220
0.0
230
1.0
  2
AR-B816
 70
0
 71
0
 91
1
 92
3
 72
0
 73
1
 93
4
 10
1150.0
 20
245.0
 10
2000.0
 20
245.0
 10
2000.0
 20
242.99999999999997
 10
1150.0
 20
242.99999999999997
 97
0
 75
1
 76
1
 52
0.0
 41
0.35000000000000003
 77
0
 78
2
 53
0.0
 43
0.0
 44
0.0
 45
0.0
 46
71.12
 79
0
 53
90.0
 43
0.0
 44
0.0
 45
-71.12
 46
71.12
 79
2
 49
71.12
 49
-71.12
 98
0
  0
HATCH
  5
5D
330
17
100
AcDbEntity
  8
M-DUVK-DOGALTAS-1-T
 62
7
100
AcDbHatch
 10
0.0
 20
0.0
 30
0.0
210
0.0
220
0.0
230
1.0
  2
AR-B816
 70
0
 71
0
 91
1
 92
3
 72
0
 73
1
 93
4
 10
0.0
 20
92.00000000000003
 10
55.0
 20
92.00000000000003
 10
55.0
 20
0.0
 10
0.0
 20
0.0
 97
0
 75
1
 76
1
 52
0.0
 41
0.35000000000000003
 77
0
 78
2
 53
0.0
 43
0.0
 44
0.0
 45
0.0
 46
71.12
 79
0
 53
90.0
 43
0.0
 44
0.0
 45
-71.12
 46
71.12
 79
2
 49
71.12
 49
-71.12
 98
0
  0
HATCH
  5
5E
330
17
100
AcDbEntity
  8
M-DUVK-DOGALTAS-1-T
 62
7
100
AcDbHatch
 10
0.0
 20
0.0
 30
0.0
210
0.0
220
0.0
230
1.0
  2
AR-B816
 70
0
 71
0
 91
1
 92
3
 72
0
 73
1
 93
4
 10
545.0
 20
92.00000000000003
 10
796.9999999999999
 20
92.00000000000003
 10
796.9999999999999
 20
0.0
 10
545.0
 20
0.0
 97
0
 75
1
 76
1
 52
0.0
 41
0.35000000000000003
 77
0
 78
2
 53
0.0
 43
0.0
 44
0.0
 45
0.0
 46
71.12
 79
0
 53
90.0
 43
0.0
 44
0.0
 45
-71.12
 46
71.12
 79
2
 49
71.12
 49
-71.12
 98
0
  0
HATCH
  5
5F
330
17
100
AcDbEntity
  8
M-DUVK-DOGALTAS-1-T
 62
7
100
AcDbHatch
 10
0.0
 20
0.0
 30
0.0
210
0.0
220
0.0
230
1.0
  2
AR-B816
 70
0
 71
0
 91
1
 92
3
 72
0
 73
1
 93
4
 10
983.0000000000001
 20
92.00000000000003
 10
1030.0
 20
92.00000000000003
 10
1030.0
 20
0.0
 10
983.0000000000001
 20
0.0
 97
0
 75
1
 76
1
 52
0.0
 41
0.35000000000000003
 77
0
 78
2
 53
0.0
 43
0.0
 44
0.0
 45
0.0
 46
71.12
 79
0
 53
90.0
 43
0.0
 44
0.0
 45
-71.12
 46
71.12
 79
2
 49
71.12
 49
-71.12
 98
0
  0
HATCH
  5
60
330
17
100
AcDbEntity
  8
M-DUVK-DOGALTAS-1-T
 62
7
100
AcDbHatch
 10
0.0
 20
0.0
 30
0.0
210
0.0
220
0.0
230
1.0
  2
AR-B816
 70
0
 71
0
 91
1
 92
3
 72
0
 73
1
 93
4
 10
1150.0
 20
92.00000000000003
 10
2000.0
 20
92.00000000000003
 10
2000.0
 20
0.0
 10
1150.0
 20
0.0
 97
0
 75
1
 76
1
 52
0.0
 41
0.35000000000000003
 77
0
 78
2
 53
0.0
 43
0.0
 44
0.0
 45
0.0
 46
71.12
 79
0
 53
90.0
 43
0.0
 44
0.0
 45
-71.12
 46
71.12
 79
2
 49
71.12
 49
-71.12
 98
0
  0
HATCH
  5
61
330
17
100
AcDbEntity
  8
M-DUVK-DOGALTAS-1-T
 62
7
100
AcDbHatch
 10
0.0
 20
0.0
 30
0.0
210
0.0
220
0.0
230
1.0
  2
AR-B816
 70
0
 71
0
 91
1
 92
3
 72
0
 73
1
 93
4
 10
0.0
 20
95.0
 10
55.0
 20
95.0
 10
55.0
 20
92.00000000000003
 10
0.0
 20
92.00000000000003
 97
0
 75
1
 76
1
 52
0.0
 41
0.35000000000000003
 77
0
 78
2
 53
0.0
 43
0.0
 44
0.0
 45
0.0
 46
71.12
 79
0
 53
90.0
 43
0.0
 44
0.0
 45
-71.12
 46
71.12
 79
2
 49
71.12
 49
-71.12
 98
0
  0
HATCH
  5
62
330
17
100
AcDbEntity
  8
M-DUVK-DOGALTAS-1-T
 62
7
100
AcDbHatch
 10
0.0
 20
0.0
 30
0.0
210
0.0
220
0.0
230
1.0
  2
AR-B816
 70
0
 71
0
 91
1
 92
3
 72
0
 73
1
 93
4
 10
545.0
 20
95.0
 10
796.9999999999999
 20
95.0
 10
796.9999999999999
 20
92.00000000000003
 10
545.0
 20
92.00000000000003
 97
0
 75
1
 76
1
 52
0.0
 41
0.35000000000000003
 77
0
 78
2
 53
0.0
 43
0.0
 44
0.0
 45
0.0
 46
71.12
 79
0
 53
90.0
 43
0.0
 44
0.0
 45
-71.12
 46
71.12
 79
2
 49
71.12
 49
-71.12
 98
0
  0
HATCH
  5
63
330
17
100
AcDbEntity
  8
M-DUVK-DOGALTAS-1-T
 62
7
100
AcDbHatch
 10
0.0
 20
0.0
 30
0.0
210
0.0
220
0.0
230
1.0
  2
AR-B816
 70
0
 71
0
 91
1
 92
3
 72
0
 73
1
 93
4
 10
983.0000000000001
 20
95.0
 10
1030.0
 20
95.0
 10
1030.0
 20
92.00000000000003
 10
983.0000000000001
 20
92.00000000000003
 97
0
 75
1
 76
1
 52
0.0
 41
0.35000000000000003
 77
0
 78
2
 53
0.0
 43
0.0
 44
0.0
 45
0.0
 46
71.12
 79
0
 53
90.0
 43
0.0
 44
0.0
 45
-71.12
 46
71.12
 79
2
 49
71.12
 49
-71.12
 98
0
  0
HATCH
  5
64
330
17
100
AcDbEntity
  8
M-DUVK-DOGALTAS-1-T
 62
7
100
AcDbHatch
 10
0.0
 20
0.0
 30
0.0
210
0.0
220
0.0
230
1.0
  2
AR-B816
 70
0
 71
0
 91
1
 92
3
 72
0
 73
1
 93
4
 10
1150.0
 20
95.0
 10
1575.0
 20
95.0
 10
1575.0
 20
92.00000000000003
 10
1150.0
 20
92.00000000000003
 97
0
 75
1
 76
1
 52
0.0
 41
0.35000000000000003
 77
0
 78
2
 53
0.0
 43
0.0
 44
0.0
 45
0.0
 46
71.12
 79
0
 53
90.0
 43
0.0
 44
0.0
 45
-71.12
 46
71.12
 79
2
 49
71.12
 49
-71.12
 98
0
  0
HATCH
  5
65
330
17
100
AcDbEntity
  8
M-DUVK-DOGALTAS-1-T
 62
7
100
AcDbHatch
 10
0.0
 20
0.0
 30
0.0
210
0.0
220
0.0
230
1.0
  2
AR-B816
 70
0
 71
0
 91
1
 92
3
 72
0
 73
1
 93
4
 10
1845.0
 20
95.0
 10
2000.0
 20
95.0
 10
2000.0
 20
92.00000000000003
 10
1845.0
 20
92.00000000000003
 97
0
 75
1
 76
1
 52
0.0
 41
0.35000000000000003
 77
0
 78
2
 53
0.0
 43
0.0
 44
0.0
 45
0.0
 46
71.12
 79
0
 53
90.0
 43
0.0
 44
0.0
 45
-71.12
 46
71.12
 79
2
 49
71.12
 49
-71.12
 98
0
  0
HATCH
  5
66
330
17
100
AcDbEntity
  8
M-DUVK-DOGALTAS-1-T
 62
7
100
AcDbHatch
 10
0.0
 20
0.0
 30
0.0
210
0.0
220
0.0
230
1.0
  2
AR-B816
 70
0
 71
0
 91
1
 92
3
 72
0
 73
1
 93
4
 10
0.0
 20
152.00000000000003
 10
55.0
 20
152.00000000000003
 10
55.0
 20
97.00000000000003
 10
0.0
 20
97.00000000000003
 97
0
 75
1
 76
1
 52
0.0
 41
0.35000000000000003
 77
0
 78
2
 53
0.0
 43
0.0
 44
0.0
 45
0.0
 46
71.12
 79
0
 53
90.0
 43
0.0
 44
0.0
 45
-71.12
 46
71.12
 79
2
 49
71.12
 49
-71.12
 98
0
  0
HATCH
  5
67
330
17
100
AcDbEntity
  8
M-DUVK-DOGALTAS-1-T
 62
7
100
AcDbHatch
 10
0.0
 20
0.0
 30
0.0
210
0.0
220
0.0
230
1.0
  2
AR-B816
 70
0
 71
0
 91
1
 92
3
 72
0
 73
1
 93
4
 10
545.0
 20
152.00000000000003
 10
796.9999999999999
 20
152.00000000000003
 10
796.9999999999999
 20
97.00000000000003
 10
545.0
 20
97.00000000000003
 97
0
 75
1
 76
1
 52
0.0
 41
0.35000000000000003
 77
0
 78
2
 53
0.0
 43
0.0
 44
0.0
 45
0.0
 46
71.12
 79
0
 53
90.0
 43
0.0
 44
0.0
 45
-71.12
 46
71.12
 79
2
 49
71.12
 49
-71.12
 98
0
  0
HATCH
  5
68
330
17
100
AcDbEntity
  8
M-DUVK-DOGALTAS-1-T
 62
7
100
AcDbHatch
 10
0.0
 20
0.0
 30
0.0
210
0.0
220
0.0
230
1.0
  2
AR-B816
 70
0
 71
0
 91
1
 92
3
 72
0
 73
1
 93
4
 10
983.0000000000001
 20
152.00000000000003
 10
1030.0
 20
152.00000000000003
 10
1030.0
 20
97.00000000000003
 10
983.0000000000001
 20
97.00000000000003
 97
0
 75
1
 76
1
 52
0.0
 41
0.35000000000000003
 77
0
 78
2
 53
0.0
 43
0.0
 44
0.0
 45
0.0
 46
71.12
 79
0
 53
90.0
 43
0.0
 44
0.0
 45
-71.12
 46
71.12
 79
2
 49
71.12
 49
-71.12
 98
0
  0
HATCH
  5
69
330
17
100
AcDbEntity
  8
M-DUVK-DOGALTAS-1-T
 62
7
100
AcDbHatch
 10
0.0
 20
0.0
 30
0.0
210
0.0
220
0.0
230
1.0
  2
AR-B816
 70
0
 71
0
 91
1
 92
3
 72
0
 73
1
 93
4
 10
1150.0
 20
152.00000000000003
 10
1577.0
 20
152.00000000000003
 10
1577.0
 20
97.00000000000003
 10
1150.0
 20
97.00000000000003
 97
0
 75
1
 76
1
 52
0.0
 41
0.35000000000000003
 77
0
 78
2
 53
0.0
 43
0.0
 44
0.0
 45
0.0
 46
71.12
 79
0
 53
90.0
 43
0.0
 44
0.0
 45
-71.12
 46
71.12
 79
2
 49
71.12
 49
-71.12
 98
0
  0
HATCH
  5
6A
330
17
100
AcDbEntity
  8
M-DUVK-DOGALTAS-1-T
 62
7
100
AcDbHatch
 10
0.0
 20
0.0
 30
0.0
210
0.0
220
0.0
230
1.0
  2
AR-B816
 70
0
 71
0
 91
1
 92
3
 72
0
 73
1
 93
4
 10
0.0
 20
155.0
 10
55.0
 20
155.0
 10
55.0
 20
152.00000000000003
 10
0.0
 20
152.00000000000003
 97
0
 75
1
 76
1
 52
0.0
 41
0.35000000000000003
 77
0
 78
2
 53
0.0
 43
0.0
 44
0.0
 45
0.0
 46
71.12
 79
0
 53
90.0
 43
0.0
 44
0.0
 45
-71.12
 46
71.12
 79
2
 49
71.12
 49
-71.12
 98
0
  0
HATCH
  5
6B
330
17
100
AcDbEntity
  8
M-DUVK-DOGALTAS-1-T
 62
7
100
AcDbHatch
 10
0.0
 20
0.0
 30
0.0
210
0.0
220
0.0
230
1.0
  2
AR-B816
 70
0
 71
0
 91
1
 92
3
 72
0
 73
1
 93
4
 10
545.0
 20
155.0
 10
796.9999999999999
 20
155.0
 10
796.9999999999999
 20
152.00000000000003
 10
545.0
 20
152.00000000000003
 97
0
 75
1
 76
1
 52
0.0
 41
0.35000000000000003
 77
0
 78
2
 53
0.0
 43
0.0
 44
0.0
 45
0.0
 46
71.12
 79
0
 53
90.0
 43
0.0
 44
0.0
 45
-71.12
 46
71.12
 79
2
 49
71.12
 49
-71.12
 98
0
  0
HATCH
  5
6C
330
17
100
AcDbEntity
  8
M-DUVK-DOGALTAS-1-T
 62
7
100
AcDbHatch
 10
0.0
 20
0.0
 30
0.0
210
0.0
220
0.0
230
1.0
  2
AR-B816
 70
0
 71
0
 91
1
 92
3
 72
0
 73
1
 93
4
 10
983.0000000000001
 20
155.0
 10
1030.0
 20
155.0
 10
1030.0
 20
152.00000000000003
 10
983.0000000000001
 20
152.00000000000003
 97
0
 75
1
 76
1
 52
0.0
 41
0.35000000000000003
 77
0
 78
2
 53
0.0
 43
0.0
 44
0.0
 45
0.0
 46
71.12
 79
0
 53
90.0
 43
0.0
 44
0.0
 45
-71.12
 46
71.12
 79
2
 49
71.12
 49
-71.12
 98
0
  0
HATCH
  5
6D
330
17
100
AcDbEntity
  8
M-DUVK-DOGALTAS-1-T
 62
7
100
AcDbHatch
 10
0.0
 20
0.0
 30
0.0
210
0.0
220
0.0
230
1.0
  2
AR-B816
 70
0
 71
0
 91
1
 92
3
 72
0
 73
1
 93
4
 10
1150.0
 20
155.0
 10
1265.0
 20
155.0
 10
1265.0
 20
152.00000000000003
 10
1150.0
 20
152.00000000000003
 97
0
 75
1
 76
1
 52
0.0
 41
0.35000000000000003
 77
0
 78
2
 53
0.0
 43
0.0
 44
0.0
 45
0.0
 46
71.12
 79
0
 53
90.0
 43
0.0
 44
0.0
 45
-71.12
 46
71.12
 79
2
 49
71.12
 49
-71.12
 98
0
  0
HATCH
  5
6E
330
17
100
AcDbEntity
  8
M-DUVK-DOGALTAS-1-T
 62
7
100
AcDbHatch
 10
0.0
 20
0.0
 30
0.0
210
0.0
220
0.0
230
1.0
  2
AR-B816
 70
0
 71
0
 91
1
 92
3
 72
0
 73
1
 93
4
 10
1375.0
 20
155.0
 10
1577.0
 20
155.0
 10
1577.0
 20
152.00000000000003
 10
1375.0
 20
152.00000000000003
 97
0
 75
1
 76
1
 52
0.0
 41
0.35000000000000003
 77
0
 78
2
 53
0.0
 43
0.0
 44
0.0
 45
0.0
 46
71.12
 79
0
 53
90.0
 43
0.0
 44
0.0
 45
-71.12
 46
71.12
 79
2
 49
71.12
 49
-71.12
 98
0
  0
HATCH
  5
6F
330
17
100
AcDbEntity
  8
M-DUVK-DOGALTAS-1-T
 62
7
100
AcDbHatch
 10
0.0
 20
0.0
 30
0.0
210
0.0
220
0.0
230
1.0
  2
AR-B816
 70
0
 71
0
 91
1
 92
3
 72
0
 73
1
 93
4
 10
0.0
 20
242.99999999999997
 10
55.0
 20
242.99999999999997
 10
55.0
 20
157.00000000000003
 10
0.0
 20
157.00000000000003
 97
0
 75
1
 76
1
 52
0.0
 41
0.35000000000000003
 77
0
 78
2
 53
0.0
 43
0.0
 44
0.0
 45
0.0
 46
71.12
 79
0
 53
90.0
 43
0.0
 44
0.0
 45
-71.12
 46
71.12
 79
2
 49
71.12
 49
-71.12
 98
0
  0
HATCH
  5
70
330
17
100
AcDbEntity
  8
M-DUVK-DOGALTAS-1-T
 62
7
100
AcDbHatch
 10
0.0
 20
0.0
 30
0.0
210
0.0
220
0.0
230
1.0
  2
AR-B816
 70
0
 71
0
 91
1
 92
3
 72
0
 73
1
 93
4
 10
545.0
 20
242.99999999999997
 10
796.9999999999999
 20
242.99999999999997
 10
796.9999999999999
 20
157.00000000000003
 10
545.0
 20
157.00000000000003
 97
0
 75
1
 76
1
 52
0.0
 41
0.35000000000000003
 77
0
 78
2
 53
0.0
 43
0.0
 44
0.0
 45
0.0
 46
71.12
 79
0
 53
90.0
 43
0.0
 44
0.0
 45
-71.12
 46
71.12
 79
2
 49
71.12
 49
-71.12
 98
0
  0
HATCH
  5
71
330
17
100
AcDbEntity
  8
M-DUVK-DOGALTAS-1-T
 62
7
100
AcDbHatch
 10
0.0
 20
0.0
 30
0.0
210
0.0
220
0.0
230
1.0
  2
AR-B816
 70
0
 71
0
 91
1
 92
3
 72
0
 73
1
 93
4
 10
983.0000000000001
 20
242.99999999999997
 10
1030.0
 20
242.99999999999997
 10
1030.0
 20
157.00000000000003
 10
983.0000000000001
 20
157.00000000000003
 97
0
 75
1
 76
1
 52
0.0
 41
0.35000000000000003
 77
0
 78
2
 53
0.0
 43
0.0
 44
0.0
 45
0.0
 46
71.12
 79
0
 53
90.0
 43
0.0
 44
0.0
 45
-71.12
 46
71.12
 79
2
 49
71.12
 49
-71.12
 98
0
  0
HATCH
  5
72
330
17
100
AcDbEntity
  8
M-DUVK-DOGALTAS-1-T
 62
7
100
AcDbHatch
 10
0.0
 20
0.0
 30
0.0
210
0.0
220
0.0
230
1.0
  2
AR-B816
 70
0
 71
0
 91
1
 92
3
 72
0
 73
1
 93
4
 10
1150.0
 20
242.99999999999997
 10
1267.0
 20
242.99999999999997
 10
1267.0
 20
157.00000000000003
 10
1150.0
 20
157.00000000000003
 97
0
 75
1
 76
1
 52
0.0
 41
0.35000000000000003
 77
0
 78
2
 53
0.0
 43
0.0
 44
0.0
 45
0.0
 46
71.12
 79
0
 53
90.0
 43
0.0
 44
0.0
 45
-71.12
 46
71.12
 79
2
 49
71.12
 49
-71.12
 98
0
  0
HATCH
  5
73
330
17
100
AcDbEntity
  8
M-DUVK-DOGALTAS-1-T
 62
7
100
AcDbHatch
 10
0.0
 20
0.0
 30
0.0
210
0.0
220
0.0
230
1.0
  2
AR-B816
 70
0
 71
0
 91
1
 92
3
 72
0
 73
1
 93
4
 10
0.0
 20
157.00000000000003
 10
55.0
 20
157.00000000000003
 10
55.0
 20
155.0
 10
0.0
 20
155.0
 97
0
 75
1
 76
1
 52
0.0
 41
0.35000000000000003
 77
0
 78
2
 53
0.0
 43
0.0
 44
0.0
 45
0.0
 46
71.12
 79
0
 53
90.0
 43
0.0
 44
0.0
 45
-71.12
 46
71.12
 79
2
 49
71.12
 49
-71.12
 98
0
  0
HATCH
  5
74
330
17
100
AcDbEntity
  8
M-DUVK-DOGALTAS-1-T
 62
7
100
AcDbHatch
 10
0.0
 20
0.0
 30
0.0
210
0.0
220
0.0
230
1.0
  2
AR-B816
 70
0
 71
0
 91
1
 92
3
 72
0
 73
1
 93
4
 10
545.0
 20
157.00000000000003
 10
796.9999999999999
 20
157.00000000000003
 10
796.9999999999999
 20
155.0
 10
545.0
 20
155.0
 97
0
 75
1
 76
1
 52
0.0
 41
0.35000000000000003
 77
0
 78
2
 53
0.0
 43
0.0
 44
0.0
 45
0.0
 46
71.12
 79
0
 53
90.0
 43
0.0
 44
0.0
 45
-71.12
 46
71.12
 79
2
 49
71.12
 49
-71.12
 98
0
  0
HATCH
  5
75
330
17
100
AcDbEntity
  8
M-DUVK-DOGALTAS-1-T
 62
7
100
AcDbHatch
 10
0.0
 20
0.0
 30
0.0
210
0.0
220
0.0
230
1.0
  2
AR-B816
 70
0
 71
0
 91
1
 92
3
 72
0
 73
1
 93
4
 10
983.0000000000001
 20
157.00000000000003
 10
1030.0
 20
157.00000000000003
 10
1030.0
 20
155.0
 10
983.0000000000001
 20
155.0
 97
0
 75
1
 76
1
 52
0.0
 41
0.35000000000000003
 77
0
 78
2
 53
0.0
 43
0.0
 44
0.0
 45
0.0
 46
71.12
 79
0
 53
90.0
 43
0.0
 44
0.0
 45
-71.12
 46
71.12
 79
2
 49
71.12
 49
-71.12
 98
0
  0
HATCH
  5
76
330
17
100
AcDbEntity
  8
M-DUVK-DOGALTAS-1-T
 62
7
100
AcDbHatch
 10
0.0
 20
0.0
 30
0.0
210
0.0
220
0.0
230
1.0
  2
AR-B816
 70
0
 71
0
 91
1
 92
3
 72
0
 73
1
 93
4
 10
1150.0
 20
157.00000000000003
 10
1265.0
 20
157.00000000000003
 10
1265.0
 20
155.0
 10
1150.0
 20
155.0
 97
0
 75
1
 76
1
 52
0.0
 41
0.35000000000000003
 77
0
 78
2
 53
0.0
 43
0.0
 44
0.0
 45
0.0
 46
71.12
 79
0
 53
90.0
 43
0.0
 44
0.0
 45
-71.12
 46
71.12
 79
2
 49
71.12
 49
-71.12
 98
0
  0
HATCH
  5
77
330
17
100
AcDbEntity
  8
M-DUVK-DOGALTAS-1-T
 62
7
100
AcDbHatch
 10
0.0
 20
0.0
 30
0.0
210
0.0
220
0.0
230
1.0
  2
AR-B816
 70
0
 71
0
 91
1
 92
3
 72
0
 73
1
 93
4
 10
1373.0
 20
242.99999999999997
 10
1577.0
 20
242.99999999999997
 10
1577.0
 20
157.00000000000003
 10
1373.0
 20
157.00000000000003
 97
0
 75
1
 76
1
 52
0.0
 41
0.35000000000000003
 77
0
 78
2
 53
0.0
 43
0.0
 44
0.0
 45
0.0
 46
71.12
 79
0
 53
90.0
 43
0.0
 44
0.0
 45
-71.12
 46
71.12
 79
2
 49
71.12
 49
-71.12
 98
0
  0
HATCH
  5
78
330
17
100
AcDbEntity
  8
M-DUVK-DOGALTAS-1-T
 62
7
100
AcDbHatch
 10
0.0
 20
0.0
 30
0.0
210
0.0
220
0.0
230
1.0
  2
AR-B816
 70
0
 71
0
 91
1
 92
3
 72
0
 73
1
 93
4
 10
1375.0
 20
157.00000000000003
 10
1577.0
 20
157.00000000000003
 10
1577.0
 20
155.0
 10
1375.0
 20
155.0
 97
0
 75
1
 76
1
 52
0.0
 41
0.35000000000000003
 77
0
 78
2
 53
0.0
 43
0.0
 44
0.0
 45
0.0
 46
71.12
 79
0
 53
90.0
 43
0.0
 44
0.0
 45
-71.12
 46
71.12
 79
2
 49
71.12
 49
-71.12
 98
0
  0
HATCH
  5
79
330
17
100
AcDbEntity
  8
M-DUVK-DOGALTAS-1-T
 62
7
100
AcDbHatch
 10
0.0
 20
0.0
 30
0.0
210
0.0
220
0.0
230
1.0
  2
AR-B816
 70
0
 71
0
 91
1
 92
3
 72
0
 73
1
 93
4
 10
0.0
 20
97.00000000000003
 10
55.0
 20
97.00000000000003
 10
55.0
 20
95.0
 10
0.0
 20
95.0
 97
0
 75
1
 76
1
 52
0.0
 41
0.35000000000000003
 77
0
 78
2
 53
0.0
 43
0.0
 44
0.0
 45
0.0
 46
71.12
 79
0
 53
90.0
 43
0.0
 44
0.0
 45
-71.12
 46
71.12
 79
2
 49
71.12
 49
-71.12
 98
0
  0
HATCH
  5
7A
330
17
100
AcDbEntity
  8
M-DUVK-DOGALTAS-1-T
 62
7
100
AcDbHatch
 10
0.0
 20
0.0
 30
0.0
210
0.0
220
0.0
230
1.0
  2
AR-B816
 70
0
 71
0
 91
1
 92
3
 72
0
 73
1
 93
4
 10
545.0
 20
97.00000000000003
 10
796.9999999999999
 20
97.00000000000003
 10
796.9999999999999
 20
95.0
 10
545.0
 20
95.0
 97
0
 75
1
 76
1
 52
0.0
 41
0.35000000000000003
 77
0
 78
2
 53
0.0
 43
0.0
 44
0.0
 45
0.0
 46
71.12
 79
0
 53
90.0
 43
0.0
 44
0.0
 45
-71.12
 46
71.12
 79
2
 49
71.12
 49
-71.12
 98
0
  0
HATCH
  5
7B
330
17
100
AcDbEntity
  8
M-DUVK-DOGALTAS-1-T
 62
7
100
AcDbHatch
 10
0.0
 20
0.0
 30
0.0
210
0.0
220
0.0
230
1.0
  2
AR-B816
 70
0
 71
0
 91
1
 92
3
 72
0
 73
1
 93
4
 10
983.0000000000001
 20
97.00000000000003
 10
1030.0
 20
97.00000000000003
 10
1030.0
 20
95.0
 10
983.0000000000001
 20
95.0
 97
0
 75
1
 76
1
 52
0.0
 41
0.35000000000000003
 77
0
 78
2
 53
0.0
 43
0.0
 44
0.0
 45
0.0
 46
71.12
 79
0
 53
90.0
 43
0.0
 44
0.0
 45
-71.12
 46
71.12
 79
2
 49
71.12
 49
-71.12
 98
0
  0
HATCH
  5
7C
330
17
100
AcDbEntity
  8
M-DUVK-DOGALTAS-1-T
 62
7
100
AcDbHatch
 10
0.0
 20
0.0
 30
0.0
210
0.0
220
0.0
230
1.0
  2
AR-B816
 70
0
 71
0
 91
1
 92
3
 72
0
 73
1
 93
4
 10
1150.0
 20
97.00000000000003
 10
1575.0
 20
97.00000000000003
 10
1575.0
 20
95.0
 10
1150.0
 20
95.0
 97
0
 75
1
 76
1
 52
0.0
 41
0.35000000000000003
 77
0
 78
2
 53
0.0
 43
0.0
 44
0.0
 45
0.0
 46
71.12
 79
0
 53
90.0
 43
0.0
 44
0.0
 45
-71.12
 46
71.12
 79
2
 49
71.12
 49
-71.12
 98
0
  0
HATCH
  5
7D
330
17
100
AcDbEntity
  8
M-DUVK-DOGALTAS-1-T
 62
7
100
AcDbHatch
 10
0.0
 20
0.0
 30
0.0
210
0.0
220
0.0
230
1.0
  2
AR-B816
 70
0
 71
0
 91
1
 92
3
 72
0
 73
1
 93
4
 10
1843.0
 20
242.99999999999997
 10
2000.0
 20
242.99999999999997
 10
2000.0
 20
97.00000000000003
 10
1843.0
 20
97.00000000000003
 97
0
 75
1
 76
1
 52
0.0
 41
0.35000000000000003
 77
0
 78
2
 53
0.0
 43
0.0
 44
0.0
 45
0.0
 46
71.12
 79
0
 53
90.0
 43
0.0
 44
0.0
 45
-71.12
 46
71.12
 79
2
 49
71.12
 49
-71.12
 98
0
  0
HATCH
  5
7E
330
17
100
AcDbEntity
  8
M-DUVK-DOGALTAS-1-T
 62
7
100
AcDbHatch
 10
0.0
 20
0.0
 30
0.0
210
0.0
220
0.0
230
1.0
  2
AR-B816
 70
0
 71
0
 91
1
 92
3
 72
0
 73
1
 93
4
 10
1845.0
 20
97.00000000000003
 10
2000.0
 20
97.00000000000003
 10
2000.0
 20
95.0
 10
1845.0
 20
95.0
 97
0
 75
1
 76
1
 52
0.0
 41
0.35000000000000003
 77
0
 78
2
 53
0.0
 43
0.0
 44
0.0
 45
0.0
 46
71.12
 79
0
 53
90.0
 43
0.0
 44
0.0
 45
-71.12
 46
71.12
 79
2
 49
71.12
 49
-71.12
 98
0
  0
LWPOLYLINE
  5
7F
330
17
100
AcDbEntity
  8
M-DUVK-DOGALTAS-1
100
AcDbPolyline
 90
4
 70
1
 10
0.0
 20
290.0
 10
2000.0
 20
290.0
 10
2000.0
 20
0.0
 10
0.0
 20
0.0
  0
LWPOLYLINE
  5
82
330
17
100
AcDbEntity
  8
M-DUVK-PREKAST-1
100
AcDbPolyline
 90
4
 70
1
 10
0.0
 20
320.0
 10
2000.0
 20
320.0
 10
2000.0
 20
290.0
 10
0.0
 20
290.0
  0
LWPOLYLINE
  5
85
330
17
100
AcDbEntity
  8
M-SIVA-1
100
AcDbPolyline
 90
4
 70
1
 10
0.0
 20
610.0
 10
2000.0
 20
610.0
 10
2000.0
 20
320.0
 10
0.0
 20
320.0
  0
LWPOLYLINE
  5
87
330
17
100
AcDbEntity
  8
M-PNKS-ALUMINYUM-1
100
AcDbPolyline
 90
4
 70
1
 10
1577.0
 20
242.99999999999997
 10
1843.0
 20
242.99999999999997
 10
1843.0
 20
95.0
 10
1577.0
 20
95.0
  0
LWPOLYLINE
  5
88
330
17
100
AcDbEntity
  8
M-PNKS-ALUMINYUM-1
100
AcDbPolyline
 90
4
 70
1
 10
1583.0
 20
235.99999999999994
 10
1837.0000000000005
 20
235.99999999999994
 10
1837.0000000000005
 20
101.99999999999989
 10
1583.0
 20
101.99999999999989
  0
LWPOLYLINE
  5
89
330
17
100
AcDbEntity
  8
M-PNKS-ALUMINYUM-1
100
AcDbPolyline
 90
4
 70
1
 10
1707.0
 20
240.0
 10
1712.9999999999998
 20
240.0
 10
1712.9999999999998
 20
100.0
 10
1707.0
 20
100.0
  0
LWPOLYLINE
  5
8A
330
17
100
AcDbEntity
  8
M-PNKS-ALUMINYUM-1
100
AcDbPolyline
 90
4
 70
1
 10
1575.0
 20
97.00000000000003
 10
1845.0
 20
97.00000000000003
 10
1845.0
 20
92.00000000000003
 10
1575.0
 20
92.00000000000003
  0
LWPOLYLINE
  5
8B
330
17
100
AcDbEntity
  8
M-PNKS-ALUMINYUM-1
100
AcDbPolyline
 90
4
 70
1
 10
1575.0
 20
97.00000000000003
 10
1845.0
 20
97.00000000000003
 10
1845.0
 20
92.00000000000003
 10
1575.0
 20
92.00000000000003
  0
LWPOLYLINE
  5
8C
330
17
100
AcDbEntity
  8
M-PNKS-ALUMINYUM-1
100
AcDbPolyline
 90
4
 70
1
 10
1267.0
 20
242.99999999999997
 10
1373.0
 20
242.99999999999997
 10
1373.0
 20
155.0
 10
1267.0
 20
155.0
  0
LWPOLYLINE
  5
8D
330
17
100
AcDbEntity
  8
M-PNKS-ALUMINYUM-1
100
AcDbPolyline
 90
4
 70
1
 10
1273.0
 20
235.99999999999994
 10
1367.0
 20
235.99999999999994
 10
1367.0
 20
162.00000000000003
 10
1273.0
 20
162.00000000000003
  0
LWPOLYLINE
  5
8E
330
17
100
AcDbEntity
  8
M-PNKS-ALUMINYUM-1
100
AcDbPolyline
 90
4
 70
1
 10
1265.0
 20
157.00000000000003
 10
1375.0
 20
157.00000000000003
 10
1375.0
 20
152.00000000000003
 10
1265.0
 20
152.00000000000003
  0
LWPOLYLINE
  5
8F
330
17
100
AcDbEntity
  8
M-PNKS-ALUMINYUM-1
100
AcDbPolyline
 90
4
 70
1
 10
1265.0
 20
157.00000000000003
 10
1375.0
 20
157.00000000000003
 10
1375.0
 20
152.00000000000003
 10
1265.0
 20
152.00000000000003
  0
LWPOLYLINE
  5
90
330
17
100
AcDbEntity
  8
M-PNKS-ALUMINYUM-1
100
AcDbPolyline
 90
4
 70
1
 10
796.9999999999999
 20
242.99999999999997
 10
983.0000000000001
 20
242.99999999999997
 10
983.0000000000001
 20
-5.0
 10
796.9999999999999
 20
-5.0
  0
LWPOLYLINE
  5
91
330
17
100
AcDbEntity
  8
M-PNKS-ALUMINYUM-1
100
AcDbPolyline
 90
4
 70
1
 10
803.0000000000001
 20
235.99999999999994
 10
977.0000000000002
 20
235.99999999999994
 10
977.0000000000002
 20
1.9999999999998863
 10
803.0000000000001
 20
1.9999999999998863
  0
LWPOLYLINE
  5
92
330
17
100
AcDbEntity
  8
M-PNKS-ALUMINYUM-1
100
AcDbPolyline
 90
4
 70
1
 10
887.0000000000002
 20
240.0
 10
893.0000000000001
 20
240.0
 10
893.0000000000001
 20
0.0
 10
887.0000000000002
 20
0.0
  0
LWPOLYLINE
  5
93
330
17
100
AcDbEntity
  8
M-PNKS-ALUMINYUM-1
100
AcDbPolyline
 90
4
 70
1
 10
800.0
 20
215.0
 10
980.0
 20
215.0
 10
980.0
 20
210.0
 10
800.0
 20
210.0
  0
LWPOLYLINE
  5
95
330
17
100
AcDbEntity
  8
M-KPKN-AHSAP-1
100
AcDbPolyline
 90
4
 70
1
 10
1030.0
 20
245.0
 10
1150.0
 20
245.0
 10
1150.0
 20
0.0
 10
1030.0
 20
0.0
  0
HATCH
  5
97
330
17
100
AcDbEntity
  8
M-DUVK-AHSAP-1-T
 62
7
100
AcDbHatch
 10
0.0
 20
0.0
 30
0.0
210
0.0
220
0.0
230
1.0
  2
LINE
 70
0
 71
0
 91
1
 92
3
 72
0
 73
1
 93
4
 10
1037.0
 20
240.0
 10
1143.0
 20
240.0
 10
1143.0
 20
0.0
 10
1037.0
 20
0.0
 97
0
 75
1
 76
1
 52
90.0
 41
4.0
 77
0
 78
1
 53
90.0
 43
0.0
 44
0.0
 45
-12.7
 46
0.0
 79
0
 98
0
  0
LWPOLYLINE
  5
98
330
17
100
AcDbEntity
  8
M-KPKN-AHSAP-1
100
AcDbPolyline
 90
4
 70
1
 10
1057.0
 20
170.0
 10
1060.0
 20
170.0
 10
1060.0
 20
60.0
 10
1057.0
 20
60.0
  0
LWPOLYLINE
  5
99
330
17
100
AcDbEntity
  8
M-KPKN-AHSAP-1
100
AcDbPolyline
 90
4
 70
1
 10
55.0
 20
245.0
 10
545.0
 20
245.0
 10
545.0
 20
-16.999999999999886
 10
55.0
 20
-16.999999999999886
  0
LWPOLYLINE
  5
9A
330
17
100
AcDbEntity
  8
M-KPKN-AHSAP-1
100
AcDbPolyline
 90
4
 70
1
 10
60.00000000000014
 20
240.0
 10
540.0
 20
240.0
 10
540.0
 20
-17.00000000000003
 10
60.00000000000014
 20
-17.00000000000003
  0
LINE
  5
9B
330
17
100
AcDbEntity
  8
M-KPKN-AHSAP-1
100
AcDbLine
 10
540.0
 20
34.39999999999998
 30
0.0
 11
60.00000000000014
 21
34.39999999999998
 31
0.0
  0
LINE
  5
9C
330
17
100
AcDbEntity
  8
M-KPKN-AHSAP-1
100
AcDbLine
 10
540.0
 20
85.79999999999998
 30
0.0
 11
60.00000000000014
 21
85.79999999999998
 31
0.0
  0
LINE
  5
9D
330
17
100
AcDbEntity
  8
M-KPKN-AHSAP-1
100
AcDbLine
 10
540.0
 20
137.2
 30
0.0
 11
60.00000000000014
 21
137.2
 31
0.0
  0
LINE
  5
9E
330
17
100
AcDbEntity
  8
M-KPKN-AHSAP-1
100
AcDbLine
 10
540.0
 20
188.6
 30
0.0
 11
60.00000000000014
 21
188.6
 31
0.0
  0
LWPOLYLINE
  5
9F
330
17
100
AcDbEntity
  8
M-PNKS-ALUMINYUM-1
100
AcDbPolyline
 90
4
 70
1
 10
1577.0
 20
553.0000000000001
 10
1843.0
 20
553.0000000000001
 10
1843.0
 20
405.0000000000001
 10
1577.0
 20
405.0000000000001
  0
LWPOLYLINE
  5
A0
330
17
100
AcDbEntity
  8
M-PNKS-ALUMINYUM-1
100
AcDbPolyline
 90
4
 70
1
 10
1583.0
 20
546.0
 10
1837.0000000000005
 20
546.0
 10
1837.0000000000005
 20
411.9999999999999
 10
1583.0
 20
411.9999999999999
  0
LWPOLYLINE
  5
A1
330
17
100
AcDbEntity
  8
M-PNKS-ALUMINYUM-1
100
AcDbPolyline
 90
4
 70
1
 10
1707.0
 20
550.0
 10
1712.9999999999998
 20
550.0
 10
1712.9999999999998
 20
410.0
 10
1707.0
 20
410.0
  0
LWPOLYLINE
  5
A2
330
17
100
AcDbEntity
  8
M-PNKS-ALUMINYUM-1
100
AcDbPolyline
 90
4
 70
1
 10
1575.0
 20
407.0
 10
1845.0
 20
407.0
 10
1845.0
 20
402.0
 10
1575.0
 20
402.0
  0
LWPOLYLINE
  5
A3
330
17
100
AcDbEntity
  8
M-PNKS-ALUMINYUM-1
100
AcDbPolyline
 90
4
 70
1
 10
1575.0
 20
407.0
 10
1845.0
 20
407.0
 10
1845.0
 20
402.0
 10
1575.0
 20
402.0
  0
LWPOLYLINE
  5
A4
330
17
100
AcDbEntity
  8
M-PNKS-ALUMINYUM-1
100
AcDbPolyline
 90
4
 70
1
 10
1577.0
 20
570.0
 10
1843.0
 20
570.0
 10
1843.0
 20
553.0
 10
1577.0
 20
553.0
  0
LWPOLYLINE
  5
A5
330
17
100
AcDbEntity
  8
M-PNKS-ALUMINYUM-1
100
AcDbPolyline
 90
4
 70
1
 10
1267.0
 20
553.0000000000001
 10
1373.0
 20
553.0000000000001
 10
1373.0
 20
465.0000000000001
 10
1267.0
 20
465.0000000000001
  0
LWPOLYLINE
  5
A6
330
17
100
AcDbEntity
  8
M-PNKS-ALUMINYUM-1
100
AcDbPolyline
 90
4
 70
1
 10
1273.0
 20
546.0
 10
1367.0
 20
546.0
 10
1367.0
 20
471.9999999999999
 10
1273.0
 20
471.9999999999999
  0
LWPOLYLINE
  5
A7
330
17
100
AcDbEntity
  8
M-PNKS-ALUMINYUM-1
100
AcDbPolyline
 90
4
 70
1
 10
1265.0
 20
467.0
 10
1375.0
 20
467.0
 10
1375.0
 20
462.0
 10
1265.0
 20
462.0
  0
LWPOLYLINE
  5
A8
330
17
100
AcDbEntity
  8
M-PNKS-ALUMINYUM-1
100
AcDbPolyline
 90
4
 70
1
 10
1265.0
 20
467.0
 10
1375.0
 20
467.0
 10
1375.0
 20
462.0
 10
1265.0
 20
462.0
  0
LWPOLYLINE
  5
A9
330
17
100
AcDbEntity
  8
M-PNKS-ALUMINYUM-1
100
AcDbPolyline
 90
4
 70
1
 10
1027.0000000000002
 20
553.0000000000001
 10
1172.9999999999998
 20
553.0000000000001
 10
1172.9999999999998
 20
315.0000000000001
 10
1027.0000000000002
 20
315.0000000000001
  0
LWPOLYLINE
  5
AA
330
17
100
AcDbEntity
  8
M-PNKS-ALUMINYUM-1
100
AcDbPolyline
 90
4
 70
1
 10
1033.0
 20
546.0
 10
1167.0
 20
546.0
 10
1167.0
 20
321.9999999999999
 10
1033.0
 20
321.9999999999999
  0
LWPOLYLINE
  5
AB
330
17
100
AcDbEntity
  8
M-PNKS-ALUMINYUM-1
100
AcDbPolyline
 90
4
 70
1
 10
1030.0
 20
535.0
 10
1170.0
 20
535.0
 10
1170.0
 20
530.0000000000001
 10
1030.0
 20
530.0000000000001
  0
LWPOLYLINE
  5
AC
330
17
100
AcDbEntity
  8
M-PNKS-ALUMINYUM-1
100
AcDbPolyline
 90
4
 70
1
 10
796.9999999999999
 20
553.0000000000001
 10
983.0000000000001
 20
553.0000000000001
 10
983.0000000000001
 20
405.0000000000001
 10
796.9999999999999
 20
405.0000000000001
  0
LWPOLYLINE
  5
AD
330
17
100
AcDbEntity
  8
M-PNKS-ALUMINYUM-1
100
AcDbPolyline
 90
4
 70
1
 10
803.0000000000001
 20
546.0
 10
977.0000000000002
 20
546.0
 10
977.0000000000002
 20
411.9999999999999
 10
803.0000000000001
 20
411.9999999999999
  0
LWPOLYLINE
  5
AE
330
17
100
AcDbEntity
  8
M-PNKS-ALUMINYUM-1
100
AcDbPolyline
 90
4
 70
1
 10
887.0000000000002
 20
550.0
 10
893.0000000000001
 20
550.0
 10
893.0000000000001
 20
410.0
 10
887.0000000000002
 20
410.0
  0
LWPOLYLINE
  5
AF
330
17
100
AcDbEntity
  8
M-PNKS-ALUMINYUM-1
100
AcDbPolyline
 90
4
 70
1
 10
795.0
 20
407.0
 10
985.0
 20
407.0
 10
985.0
 20
402.0
 10
795.0
 20
402.0
  0
LWPOLYLINE
  5
B0
330
17
100
AcDbEntity
  8
M-PNKS-ALUMINYUM-1
100
AcDbPolyline
 90
4
 70
1
 10
795.0
 20
407.0
 10
985.0
 20
407.0
 10
985.0
 20
402.0
 10
795.0
 20
402.0
  0
LWPOLYLINE
  5
B1
330
17
100
AcDbEntity
  8
M-PNKS-ALUMINYUM-1
100
AcDbPolyline
 90
4
 70
1
 10
796.9999999999999
 20
570.0
 10
983.0000000000001
 20
570.0
 10
983.0000000000001
 20
553.0
 10
796.9999999999999
 20
553.0
  0
LWPOLYLINE
  5
B2
330
17
100
AcDbEntity
  8
M-PNKS-ALUMINYUM-1
100
AcDbPolyline
 90
4
 70
1
 10
136.99999999999974
 20
553.0000000000001
 10
462.99999999999983
 20
553.0000000000001
 10
462.99999999999983
 20
405.0000000000001
 10
136.99999999999974
 20
405.0000000000001
  0
LWPOLYLINE
  5
B3
330
17
100
AcDbEntity
  8
M-PNKS-ALUMINYUM-1
100
AcDbPolyline
 90
4
 70
1
 10
142.99999999999997
 20
546.0
 10
456.9999999999999
 20
546.0
 10
456.9999999999999
 20
411.9999999999999
 10
142.99999999999997
 20
411.9999999999999
  0
LWPOLYLINE
  5
B4
330
17
100
AcDbEntity
  8
M-PNKS-ALUMINYUM-1
100
AcDbPolyline
 90
4
 70
1
 10
350.33333333333303
 20
550.0
 10
356.33333333333326
 20
550.0
 10
356.33333333333326
 20
410.0
 10
350.33333333333303
 20
410.0
  0
LWPOLYLINE
  5
B5
330
17
100
AcDbEntity
  8
M-PNKS-ALUMINYUM-1
100
AcDbPolyline
 90
4
 70
1
 10
243.66666666666646
 20
550.0
 10
249.66666666666669
 20
550.0
 10
249.66666666666669
 20
410.0
 10
243.66666666666646
 20
410.0
  0
LWPOLYLINE
  5
B6
330
17
100
AcDbEntity
  8
M-PNKS-ALUMINYUM-1
100
AcDbPolyline
 90
4
 70
1
 10
134.99999999999972
 20
407.0
 10
465.0
 20
407.0
 10
465.0
 20
402.0
 10
134.99999999999972
 20
402.0
  0
LWPOLYLINE
  5
B7
330
17
100
AcDbEntity
  8
M-PNKS-ALUMINYUM-1
100
AcDbPolyline
 90
4
 70
1
 10
134.99999999999972
 20
407.0
 10
465.0
 20
407.0
 10
465.0
 20
402.0
 10
134.99999999999972
 20
402.0
  0
LWPOLYLINE
  5
B8
330
17
100
AcDbEntity
  8
M-PNKS-ALUMINYUM-1
100
AcDbPolyline
 90
4
 70
1
 10
136.99999999999974
 20
570.0
 10
462.99999999999983
 20
570.0
 10
462.99999999999983
 20
553.0
 10
136.99999999999974
 20
553.0
  0
HATCH
  5
BA
330
17
100
AcDbEntity
  8
M-BACA-TUGLA-1-T
 62
7
100
AcDbHatch
 10
0.0
 20
0.0
 30
0.0
210
0.0
220
0.0
230
1.0
  2
AR-B816
 70
0
 71
0
 91
1
 92
3
 72
0
 73
1
 93
4
 10
2000.0
 20
840.0
 10
2060.0
 20
840.0
 10
2060.0
 20
-30.000000000000142
 10
2000.0
 20
-30.000000000000142
 97
0
 75
1
 76
1
 52
0.0
 41
0.35000000000000003
 77
0
 78
2
 53
0.0
 43
0.0
 44
0.0
 45
0.0
 46
71.12
 79
0
 53
90.0
 43
0.0
 44
0.0
 45
-71.12
 46
71.12
 79
2
 49
71.12
 49
-71.12
 98
0
  0
LWPOLYLINE
  5
BC
330
17
100
AcDbEntity
  8
M-BACA-TUGLA-1
100
AcDbPolyline
 90
4
 70
1
 10
2000.0
 20
840.0
 10
2060.0
 20
840.0
 10
2060.0
 20
-30.000000000000142
 10
2000.0
 20
-30.000000000000142
  0
HATCH
  5
BD
330
17
100
AcDbEntity
  8
M-BACA-TUGLA-1-T
100
AcDbHatch
 10
0.0
 20
0.0
 30
0.0
210
0.0
220
0.0
230
1.0
  2
SOLID
 70
1
 71
0
 91
1
 92
3
 72
0
 73
1
 93
4
 10
1992.0000000000005
 20
851.9999999999999
 10
2068.0
 20
851.9999999999999
 10
2068.0
 20
840.0
 10
1992.0000000000005
 20
840.0
 97
0
 75
1
 76
1
 98
0
  0
HATCH
  5
BF
330
17
100
AcDbEntity
  8
M-CKAP-KIREMIT-1-T
 62
7
100
AcDbHatch
 10
0.0
 20
0.0
 30
0.0
210
0.0
220
0.0
230
1.0
  2
AR-B816
 70
0
 71
0
 91
1
 92
3
 72
0
 73
1
 93
4
 10
2080.0
 20
645.0
 10
1250.0
 20
894.0
 10
750.0
 20
894.0
 10
-80.0
 20
645.0
 97
0
 75
1
 76
1
 52
0.0
 41
0.12
 77
0
 78
2
 53
0.0
 43
0.0
 44
0.0
 45
0.0
 46
24.384
 79
0
 53
90.0
 43
0.0
 44
0.0
 45
-24.384
 46
24.384
 79
2
 49
24.384
 49
-24.384
 98
0
  0
LWPOLYLINE
  5
C1
330
17
100
AcDbEntity
  8
M-CKAP-KIREMIT-1
100
AcDbPolyline
 90
4
 70
1
 10
2080.0
 20
645.0
 10
1250.0
 20
894.0
 10
750.0
 20
894.0
 10
-80.0
 20
645.0
  0
HATCH
  5
C2
330
17
100
AcDbEntity
  8
M-CKAP-KIREMIT-1-T
100
AcDbHatch
 10
0.0
 20
0.0
 30
0.0
210
0.0
220
0.0
230
1.0
  2
SOLID
 70
1
 71
0
 91
1
 92
3
 72
0
 73
1
 93
4
 10
-80.0
 20
645.0
 10
2080.0
 20
645.0
 10
2080.0
 20
609.9999999999999
 10
-80.0
 20
609.9999999999999
 97
0
 75
1
 76
1
 98
0
  0
LWPOLYLINE
  5
C3
330
17
100
AcDbEntity
  8
M-CKAP-KIREMIT-1
100
AcDbPolyline
 90
4
 70
1
 10
-80.0
 20
645.0
 10
2080.0
 20
645.0
 10
2080.0
 20
609.9999999999999
 10
-80.0
 20
609.9999999999999
  0
HATCH
  5
C4
330
17
100
AcDbEntity
  8
M-CKAP-KIREMIT-1-T
100
AcDbHatch
 10
0.0
 20
0.0
 30
0.0
210
0.0
220
0.0
230
1.0
  2
SOLID
 70
1
 71
0
 91
1
 92
3
 72
0
 73
1
 93
4
 10
-80.0
 20
650.0
 10
2080.0
 20
650.0
 10
2080.0
 20
640.0
 10
-80.0
 20
640.0
 97
0
 75
1
 76
1
 98
0
  0
HATCH
  5
C6
330
17
100
AcDbEntity
  8
M-YIBO-SAC-1
100
AcDbHatch
 10
0.0
 20
0.0
 30
0.0
210
0.0
220
0.0
230
1.0
  2
SOLID
 70
1
 71
0
 91
1
 92
3
 72
0
 73
1
 93
4
 10
1982.9999999999995
 20
610.0
 10
1993.0
 20
610.0
 10
1993.0
 20
-30.0
 10
1982.9999999999995
 20
-30.0
 97
0
 75
1
 76
1
 98
0
  0
HATCH
  5
C7
330
17
100
AcDbEntity
  8
M-YIBO-SAC-1
100
AcDbHatch
 10
0.0
 20
0.0
 30
0.0
210
0.0
220
0.0
230
1.0
  2
SOLID
 70
1
 71
0
 91
1
 92
3
 72
0
 73
1
 93
4
 10
7.000000000000028
 20
610.0
 10
17.00000000000017
 20
610.0
 10
17.00000000000017
 20
-30.0
 10
7.000000000000028
 20
-30.0
 97
0
 75
1
 76
1
 98
0
  0
LWPOLYLINE
  5
CA
330
17
100
AcDbEntity
  8
M-TASI-BETONARME-1
100
AcDbPolyline
 90
4
 70
1
 10
760.0
 20
295.0
 10
1210.0
 20
295.0
 10
1210.0
 20
275.0
 10
760.0
 20
275.0
  0
LWPOLYLINE
  5
CB
330
17
100
AcDbEntity
  8
M-TASI-BETONARME-1
100
AcDbPolyline
 90
4
 70
1
 10
740.0
 20
-15.999999999999943
 10
1230.0
 20
-15.999999999999943
 10
1230.0
 20
-30.0
 10
740.0
 20
-30.0
  0
LWPOLYLINE
  5
CC
330
17
100
AcDbEntity
  8
M-TASI-BETONARME-1
100
AcDbPolyline
 90
4
 70
1
 10
740.0
 20
-2.0000000000000284
 10
1230.0
 20
-2.0000000000000284
 10
1230.0
 20
-16.000000000000085
 10
740.0
 20
-16.000000000000085
  0
HATCH
  5
CD
330
17
100
AcDbEntity
  8
M-DUVK-AHSAP-1-T
 62
7
100
AcDbHatch
 10
0.0
 20
0.0
 30
0.0
210
0.0
220
0.0
230
1.0
  2
LINE
 70
0
 71
0
 91
1
 92
3
 72
0
 73
1
 93
4
 10
1165.0
 20
275.0
 10
1205.0
 20
275.0
 10
1205.0
 20
0.0
 10
1165.0
 20
0.0
 97
0
 75
1
 76
1
 52
90.0
 41
4.0
 77
0
 78
1
 53
90.0
 43
0.0
 44
0.0
 45
-12.7
 46
0.0
 79
0
 98
0
  0
LWPOLYLINE
  5
CF
330
17
100
AcDbEntity
  8
M-DUVK-AHSAP-1
100
AcDbPolyline
 90
4
 70
1
 10
1165.0
 20
275.0
 10
1205.0
 20
275.0
 10
1205.0
 20
0.0
 10
1165.0
 20
0.0
  0
TEXT
  5
D1
330
17
100
AcDbEntity
  8
M-GOST-YAZI
100
AcDbText
 10
300.0
 20
-58.000000000000114
 30
0.0
 40
11.52
  1
garaj · araç yolu -0.20
  7
YAZI
 72
1
 11
300.0
 21
-58.000000000000114
 31
0.0
100
AcDbText
  0
HATCH
  5
D3
330
17
100
AcDbEntity
  8
M-CVRE-ZEMIN-T
 62
7
100
AcDbHatch
 10
0.0
 20
0.0
 30
0.0
210
0.0
220
0.0
230
1.0
  2
EARTH
 70
0
 71
0
 91
1
 92
3
 72
0
 73
1
 93
4
 10
-219.99999999999994
 20
-30.0
 10
2220.0
 20
-30.0
 10
2220.0
 20
-60.0
 10
-219.99999999999994
 20
-60.0
 97
0
 75
1
 76
1
 52
0.0
 41
5.0
 77
0
 78
6
 53
0.0
 43
0.0
 44
0.0
 45
31.75
 46
31.75
 79
2
 49
31.75
 49
-31.75
 53
0.0
 43
0.0
 44
11.90625
 45
31.75
 46
31.75
 79
2
 49
31.75
 49
-31.75
 53
0.0
 43
0.0
 44
23.8125
 45
31.75
 46
31.75
 79
2
 49
31.75
 49
-31.75
 53
90.0
 43
3.96875
 44
27.78125
 45
-31.75
 46
31.75
 79
2
 49
31.75
 49
-31.75
 53
90.0
 43
15.875
 44
27.78125
 45
-31.75
 46
31.75
 79
2
 49
31.75
 49
-31.75
 53
90.0
 43
27.78125
 44
27.78125
 45
-31.75
 46
31.75
 79
2
 49
31.75
 49
-31.75
 98
0
  0
LINE
  5
D5
330
17
100
AcDbEntity
  8
M-CVRE-ZEMIN
100
AcDbLine
 10
2220.0
 20
-30.0
 30
0.0
 11
-219.99999999999994
 21
-30.0
 31
0.0
  0
LINE
  5
D8
330
17
100
AcDbEntity
  8
M-GOST-KESITKOT
  6
ACAD_ISO02W100
100
AcDbLine
 10
2010.0
 20
894.0
 30
0.0
 11
2240.0
 21
894.0
 31
0.0
  0
LWPOLYLINE
  5
D9
330
17
100
AcDbEntity
  8
M-GOST-KESITKOT
100
AcDbPolyline
 90
3
 70
1
 10
2249.0
 20
913.0000000000001
 10
2271.0
 20
913.0000000000001
 10
2260.0
 20
894.0
  0
HATCH
  5
DA
330
17
100
AcDbEntity
  8
M-GOST-KESITKOT
100
AcDbHatch
 10
0.0
 20
0.0
 30
0.0
210
0.0
220
0.0
230
1.0
  2
SOLID
 70
1
 71
0
 91
1
 92
3
 72
0
 73
1
 93
3
 10
2249.0
 20
913.0000000000001
 10
2260.0
 20
913.0000000000001
 10
2260.0
 20
894.0
 97
0
 75
1
 76
1
 98
0
  0
TEXT
  5
DB
330
17
100
AcDbEntity
  8
M-GOST-KESITKOT
100
AcDbText
 10
2278.0
 20
898.0000000000001
 30
0.0
 40
12.96
  1
+8.94
  7
YAZI-KALIN
 11
2278.0
 21
898.0000000000001
 31
0.0
100
AcDbText
  0
LINE
  5
DC
330
17
100
AcDbEntity
  8
M-GOST-KESITKOT
  6
ACAD_ISO02W100
100
AcDbLine
 10
2010.0
 20
645.0
 30
0.0
 11
2240.0
 21
645.0
 31
0.0
  0
LWPOLYLINE
  5
DD
330
17
100
AcDbEntity
  8
M-GOST-KESITKOT
100
AcDbPolyline
 90
3
 70
1
 10
2249.0
 20
664.0
 10
2271.0
 20
664.0
 10
2260.0
 20
645.0
  0
HATCH
  5
DE
330
17
100
AcDbEntity
  8
M-GOST-KESITKOT
100
AcDbHatch
 10
0.0
 20
0.0
 30
0.0
210
0.0
220
0.0
230
1.0
  2
SOLID
 70
1
 71
0
 91
1
 92
3
 72
0
 73
1
 93
3
 10
2249.0
 20
664.0
 10
2260.0
 20
664.0
 10
2260.0
 20
645.0
 97
0
 75
1
 76
1
 98
0
  0
TEXT
  5
DF
330
17
100
AcDbEntity
  8
M-GOST-KESITKOT
100
AcDbText
 10
2278.0
 20
649.0
 30
0.0
 40
12.96
  1
+6.45
  7
YAZI-KALIN
 11
2278.0
 21
649.0
 31
0.0
100
AcDbText
  0
LINE
  5
E0
330
17
100
AcDbEntity
  8
M-GOST-KESITKOT
  6
ACAD_ISO02W100
100
AcDbLine
 10
2010.0
 20
620.0
 30
0.0
 11
2240.0
 21
620.0
 31
0.0
  0
LWPOLYLINE
  5
E1
330
17
100
AcDbEntity
  8
M-GOST-KESITKOT
100
AcDbPolyline
 90
3
 70
1
 10
2249.0
 20
639.0
 10
2271.0
 20
639.0
 10
2260.0
 20
620.0
  0
HATCH
  5
E2
330
17
100
AcDbEntity
  8
M-GOST-KESITKOT
100
AcDbHatch
 10
0.0
 20
0.0
 30
0.0
210
0.0
220
0.0
230
1.0
  2
SOLID
 70
1
 71
0
 91
1
 92
3
 72
0
 73
1
 93
3
 10
2249.0
 20
639.0
 10
2260.0
 20
639.0
 10
2260.0
 20
620.0
 97
0
 75
1
 76
1
 98
0
  0
TEXT
  5
E3
330
17
100
AcDbEntity
  8
M-GOST-KESITKOT
100
AcDbText
 10
2278.0
 20
624.0
 30
0.0
 40
12.96
  1
+6.20
  7
YAZI-KALIN
 11
2278.0
 21
624.0
 31
0.0
100
AcDbText
  0
LINE
  5
E4
330
17
100
AcDbEntity
  8
M-GOST-KESITKOT
  6
ACAD_ISO02W100
100
AcDbLine
 10
2010.0
 20
320.0
 30
0.0
 11
2240.0
 21
320.0
 31
0.0
  0
LWPOLYLINE
  5
E5
330
17
100
AcDbEntity
  8
M-GOST-KESITKOT
100
AcDbPolyline
 90
3
 70
1
 10
2249.0
 20
339.00000000000006
 10
2271.0
 20
339.00000000000006
 10
2260.0
 20
320.0
  0
HATCH
  5
E6
330
17
100
AcDbEntity
  8
M-GOST-KESITKOT
100
AcDbHatch
 10
0.0
 20
0.0
 30
0.0
210
0.0
220
0.0
230
1.0
  2
SOLID
 70
1
 71
0
 91
1
 92
3
 72
0
 73
1
 93
3
 10
2249.0
 20
339.00000000000006
 10
2260.0
 20
339.00000000000006
 10
2260.0
 20
320.0
 97
0
 75
1
 76
1
 98
0
  0
TEXT
  5
E7
330
17
100
AcDbEntity
  8
M-GOST-KESITKOT
100
AcDbText
 10
2278.0
 20
324.00000000000006
 30
0.0
 40
12.96
  1
+3.20
  7
YAZI-KALIN
 11
2278.0
 21
324.00000000000006
 31
0.0
100
AcDbText
  0
LINE
  5
E8
330
17
100
AcDbEntity
  8
M-GOST-KESITKOT
  6
ACAD_ISO02W100
100
AcDbLine
 10
2010.0
 20
0.0
 30
0.0
 11
2240.0
 21
0.0
 31
0.0
  0
LWPOLYLINE
  5
E9
330
17
100
AcDbEntity
  8
M-GOST-KESITKOT
100
AcDbPolyline
 90
3
 70
1
 10
2249.0
 20
19.000000000000057
 10
2271.0
 20
19.000000000000057
 10
2260.0
 20
0.0
  0
HATCH
  5
EA
330
17
100
AcDbEntity
  8
M-GOST-KESITKOT
100
AcDbHatch
 10
0.0
 20
0.0
 30
0.0
210
0.0
220
0.0
230
1.0
  2
SOLID
 70
1
 71
0
 91
1
 92
3
 72
0
 73
1
 93
3
 10
2249.0
 20
19.000000000000057
 10
2260.0
 20
19.000000000000057
 10
2260.0
 20
0.0
 97
0
 75
1
 76
1
 98
0
  0
TEXT
  5
EB
330
17
100
AcDbEntity
  8
M-GOST-KESITKOT
100
AcDbText
 10
2278.0
 20
4.000000000000057
 30
0.0
 40
12.96
  1
%%p0.00
  7
YAZI-KALIN
 11
2278.0
 21
4.000000000000057
 31
0.0
100
AcDbText
  0
LINE
  5
EC
330
17
100
AcDbEntity
  8
M-GOST-KESITKOT
  6
ACAD_ISO02W100
100
AcDbLine
 10
2010.0
 20
-30.0
 30
0.0
 11
2240.0
 21
-30.0
 31
0.0
  0
LWPOLYLINE
  5
ED
330
17
100
AcDbEntity
  8
M-GOST-KESITKOT
100
AcDbPolyline
 90
3
 70
1
 10
2249.0
 20
-10.999999999999943
 10
2271.0
 20
-10.999999999999943
 10
2260.0
 20
-30.0
  0
HATCH
  5
EE
330
17
100
AcDbEntity
  8
M-GOST-KESITKOT
100
AcDbHatch
 10
0.0
 20
0.0
 30
0.0
210
0.0
220
0.0
230
1.0
  2
SOLID
 70
1
 71
0
 91
1
 92
3
 72
0
 73
1
 93
3
 10
2249.0
 20
-10.999999999999943
 10
2260.0
 20
-10.999999999999943
 10
2260.0
 20
-30.0
 97
0
 75
1
 76
1
 98
0
  0
TEXT
  5
EF
330
17
100
AcDbEntity
  8
M-GOST-KESITKOT
100
AcDbText
 10
2278.0
 20
-25.999999999999943
 30
0.0
 40
12.96
  1
-0.30
  7
YAZI-KALIN
 11
2278.0
 21
-25.999999999999943
 31
0.0
100
AcDbText
  0
LINE
  5
F0
330
17
100
AcDbEntity
  8
M-GOST-YAZI
100
AcDbLine
 10
-239.99999999999994
 20
804.0
 30
0.0
 11
40.0
 21
804.0
 31
0.0
  0
HATCH
  5
F1
330
17
100
AcDbEntity
  8
M-GOST-YAZI
100
AcDbHatch
 10
0.0
 20
0.0
 30
0.0
210
0.0
220
0.0
230
1.0
  2
SOLID
 70
1
 71
0
 91
1
 92
1
 93
1
 72
2
 10
40.0
 20
804.0
 40
3.5
 50
0
 51
360
 73
1
 97
0
 75
1
 76
1
 98
0
  0
TEXT
  5
F2
330
17
100
AcDbEntity
  8
M-GOST-YAZI
100
AcDbText
 10
-249.99999999999994
 20
798.0000000000001
 30
0.0
 40
12.24
  1
antrasit kil kiremit, %30 eğim
  7
YAZI
 72
2
 11
-249.99999999999994
 21
798.0000000000001
 31
0.0
100
AcDbText
  0
LINE
  5
F3
330
17
100
AcDbEntity
  8
M-GOST-YAZI
100
AcDbLine
 10
-239.99999999999994
 20
500.0
 30
0.0
 11
40.0
 21
500.0
 31
0.0
  0
HATCH
  5
F4
330
17
100
AcDbEntity
  8
M-GOST-YAZI
100
AcDbHatch
 10
0.0
 20
0.0
 30
0.0
210
0.0
220
0.0
230
1.0
  2
SOLID
 70
1
 71
0
 91
1
 92
1
 93
1
 72
2
 10
40.0
 20
500.0
 40
3.5
 50
0
 51
360
 73
1
 97
0
 75
1
 76
1
 98
0
  0
TEXT
  5
F5
330
17
100
AcDbEntity
  8
M-GOST-YAZI
100
AcDbText
 10
-249.99999999999994
 20
494.00000000000006
 30
0.0
 40
12.24
  1
1. kat: beyaz ince silikon sıva (8 cm taşyünü mantolama)
  7
YAZI
 72
2
 11
-249.99999999999994
 21
494.00000000000006
 31
0.0
100
AcDbText
  0
LINE
  5
F6
330
17
100
AcDbEntity
  8
M-GOST-YAZI
100
AcDbLine
 10
-239.99999999999994
 20
305.0
 30
0.0
 11
40.0
 21
305.0
 31
0.0
  0
HATCH
  5
F7
330
17
100
AcDbEntity
  8
M-GOST-YAZI
100
AcDbHatch
 10
0.0
 20
0.0
 30
0.0
210
0.0
220
0.0
230
1.0
  2
SOLID
 70
1
 71
0
 91
1
 92
1
 93
1
 72
2
 10
40.0
 20
305.0
 40
3.5
 50
0
 51
360
 73
1
 97
0
 75
1
 76
1
 98
0
  0
TEXT
  5
F8
330
17
100
AcDbEntity
  8
M-GOST-YAZI
100
AcDbText
 10
-249.99999999999994
 20
299.00000000000006
 30
0.0
 40
12.24
  1
kat silmesi: beyaz prekast / GRC
  7
YAZI
 72
2
 11
-249.99999999999994
 21
299.00000000000006
 31
0.0
100
AcDbText
  0
LINE
  5
F9
330
17
100
AcDbEntity
  8
M-GOST-YAZI
100
AcDbLine
 10
-239.99999999999994
 20
140.0
 30
0.0
 11
40.0
 21
140.0
 31
0.0
  0
HATCH
  5
FA
330
17
100
AcDbEntity
  8
M-GOST-YAZI
100
AcDbHatch
 10
0.0
 20
0.0
 30
0.0
210
0.0
220
0.0
230
1.0
  2
SOLID
 70
1
 71
0
 91
1
 92
1
 93
1
 72
2
 10
40.0
 20
140.0
 40
3.5
 50
0
 51
360
 73
1
 97
0
 75
1
 76
1
 98
0
  0
TEXT
  5
FB
330
17
100
AcDbEntity
  8
M-GOST-YAZI
100
AcDbText
 10
-249.99999999999994
 20
134.00000000000006
 30
0.0
 40
12.24
  1
zemin kat: doğal taş kaplama (Sille taşı, bej)
  7
YAZI
 72
2
 11
-249.99999999999994
 21
134.00000000000006
 31
0.0
100
AcDbText
  0
LINE
  5
FC
330
17
100
AcDbEntity
  8
M-GOST-YAZI
100
AcDbLine
 10
-239.99999999999994
 20
-15.0
 30
0.0
 11
40.0
 21
-15.0
 31
0.0
  0
HATCH
  5
FD
330
17
100
AcDbEntity
  8
M-GOST-YAZI
100
AcDbHatch
 10
0.0
 20
0.0
 30
0.0
210
0.0
220
0.0
230
1.0
  2
SOLID
 70
1
 71
0
 91
1
 92
1
 93
1
 72
2
 10
40.0
 20
-15.0
 40
3.5
 50
0
 51
360
 73
1
 97
0
 75
1
 76
1
 98
0
  0
TEXT
  5
FE
330
17
100
AcDbEntity
  8
M-GOST-YAZI
100
AcDbText
 10
-249.99999999999994
 20
-20.999999999999943
 30
0.0
 40
12.24
  1
subasman: yontma taş
  7
YAZI
 72
2
 11
-249.99999999999994
 21
-20.999999999999943
 31
0.0
100
AcDbText
  0
TEXT
  5
FF
330
17
100
AcDbEntity
  8
M-GOST-YAZI
100
AcDbText
 10
0.0
 20
-85.0
 30
0.0
 40
11.52
  1
DOĞU
  7
YAZI
 11
0.0
 21
-85.0
 31
0.0
100
AcDbText
  0
TEXT
  5
100
330
17
100
AcDbEntity
  8
M-GOST-YAZI
100
AcDbText
 10
2000.0
 20
-85.0
 30
0.0
 40
11.52
  1
BATI
  7
YAZI
 72
2
 11
2000.0
 21
-85.0
 31
0.0
100
AcDbText
  0
TEXT
  5
101
330
17
100
AcDbEntity
  8
M-GOST-YAZI
100
AcDbText
 10
-219.99999999999994
 20
934.0
 30
0.0
 40
21.6
  1
KUZEY GÖRÜNÜŞÜ (GİRİŞ CEPHESİ) · Ö: 1/100
  7
YAZI-KALIN
 11
-219.99999999999994
 21
934.0
 31
0.0
100
AcDbText
  0
LINE
  5
104
330
17
100
AcDbEntity
  8
M-BITK-AGAC-1
100
AcDbLine
 10
4909.0
 20
-30.0
 30
0.0
 11
4909.0
 21
440.0
 31
0.0
  0
CIRCLE
  5
105
330
17
100
AcDbEntity
  8
M-BITK-AGAC-1
100
AcDbCircle
 10
4909.0
 20
478.0000000000001
 30
0.0
 40
190.0
  0
LINE
  5
106
330
17
100
AcDbEntity
  8
M-BITK-AGAC-1
100
AcDbLine
 10
7189.0
 20
-30.0
 30
0.0
 11
7189.0
 21
490.0
 31
0.0
  0
CIRCLE
  5
107
330
17
100
AcDbEntity
  8
M-BITK-AGAC-1
100
AcDbCircle
 10
7189.0
 20
531.9999999999999
 30
0.0
 40
210.0
  0
LWPOLYLINE
  5
108
330
17
100
AcDbEntity
  8
M-DUVK-DOGALTAS-1
100
AcDbPolyline
 90
4
 70
1
 10
5049.0
 20
0.0
 10
7049.0
 20
0.0
 10
7049.0
 20
-30.0
 10
5049.0
 20
-30.0
  0
HATCH
  5
109
330
17
100
AcDbEntity
  8
M-DUVK-DOGALTAS-1-T
 62
7
100
AcDbHatch
 10
0.0
 20
0.0
 30
0.0
210
0.0
220
0.0
230
1.0
  2
AR-B816
 70
0
 71
0
 91
1
 92
3
 72
0
 73
1
 93
4
 10
5049.0
 20
290.0
 10
7049.0
 20
290.0
 10
7049.0
 20
263.0000000000001
 10
5049.0
 20
263.0000000000001
 97
0
 75
1
 76
1
 52
0.0
 41
0.35000000000000003
 77
0
 78
2
 53
0.0
 43
0.0
 44
0.0
 45
0.0
 46
71.12
 79
0
 53
90.0
 43
0.0
 44
0.0
 45
-71.12
 46
71.12
 79
2
 49
71.12
 49
-71.12
 98
0
  0
HATCH
  5
10A
330
17
100
AcDbEntity
  8
M-DUVK-DOGALTAS-1-T
 62
7
100
AcDbHatch
 10
0.0
 20
0.0
 30
0.0
210
0.0
220
0.0
230
1.0
  2
AR-B816
 70
0
 71
0
 91
1
 92
3
 72
0
 73
1
 93
4
 10
5049.0
 20
263.0000000000001
 10
5166.0
 20
263.0000000000001
 10
5166.0
 20
0.0
 10
5049.0
 20
0.0
 97
0
 75
1
 76
1
 52
0.0
 41
0.35000000000000003
 77
0
 78
2
 53
0.0
 43
0.0
 44
0.0
 45
0.0
 46
71.12
 79
0
 53
90.0
 43
0.0
 44
0.0
 45
-71.12
 46
71.12
 79
2
 49
71.12
 49
-71.12
 98
0
  0
HATCH
  5
10B
330
17
100
AcDbEntity
  8
M-DUVK-DOGALTAS-1-T
 62
7
100
AcDbHatch
 10
0.0
 20
0.0
 30
0.0
210
0.0
220
0.0
230
1.0
  2
AR-B816
 70
0
 71
0
 91
1
 92
3
 72
0
 73
1
 93
4
 10
5712.0
 20
263.0000000000001
 10
5886.0
 20
263.0000000000001
 10
5886.0
 20
0.0
 10
5712.0
 20
0.0
 97
0
 75
1
 76
1
 52
0.0
 41
0.35000000000000003
 77
0
 78
2
 53
0.0
 43
0.0
 44
0.0
 45
0.0
 46
71.12
 79
0
 53
90.0
 43
0.0
 44
0.0
 45
-71.12
 46
71.12
 79
2
 49
71.12
 49
-71.12
 98
0
  0
HATCH
  5
10C
330
17
100
AcDbEntity
  8
M-DUVK-DOGALTAS-1-T
 62
7
100
AcDbHatch
 10
0.0
 20
0.0
 30
0.0
210
0.0
220
0.0
230
1.0
  2
AR-B816
 70
0
 71
0
 91
1
 92
3
 72
0
 73
1
 93
4
 10
6252.0
 20
263.0000000000001
 10
6386.0
 20
263.0000000000001
 10
6386.0
 20
0.0
 10
6252.0
 20
0.0
 97
0
 75
1
 76
1
 52
0.0
 41
0.35000000000000003
 77
0
 78
2
 53
0.0
 43
0.0
 44
0.0
 45
0.0
 46
71.12
 79
0
 53
90.0
 43
0.0
 44
0.0
 45
-71.12
 46
71.12
 79
2
 49
71.12
 49
-71.12
 98
0
  0
HATCH
  5
10D
330
17
100
AcDbEntity
  8
M-DUVK-DOGALTAS-1-T
 62
7
100
AcDbHatch
 10
0.0
 20
0.0
 30
0.0
210
0.0
220
0.0
230
1.0
  2
AR-B816
 70
0
 71
0
 91
1
 92
3
 72
0
 73
1
 93
4
 10
6932.0
 20
263.0000000000001
 10
7049.0
 20
263.0000000000001
 10
7049.0
 20
0.0
 10
6932.0
 20
0.0
 97
0
 75
1
 76
1
 52
0.0
 41
0.35000000000000003
 77
0
 78
2
 53
0.0
 43
0.0
 44
0.0
 45
0.0
 46
71.12
 79
0
 53
90.0
 43
0.0
 44
0.0
 45
-71.12
 46
71.12
 79
2
 49
71.12
 49
-71.12
 98
0
  0
LWPOLYLINE
  5
10E
330
17
100
AcDbEntity
  8
M-DUVK-DOGALTAS-1
100
AcDbPolyline
 90
4
 70
1
 10
5049.0
 20
290.0
 10
7049.0
 20
290.0
 10
7049.0
 20
0.0
 10
5049.0
 20
0.0
  0
LWPOLYLINE
  5
10F
330
17
100
AcDbEntity
  8
M-DUVK-PREKAST-1
100
AcDbPolyline
 90
4
 70
1
 10
5049.0
 20
320.0
 10
7049.0
 20
320.0
 10
7049.0
 20
290.0
 10
5049.0
 20
290.0
  0
LWPOLYLINE
  5
110
330
17
100
AcDbEntity
  8
M-SIVA-1
100
AcDbPolyline
 90
4
 70
1
 10
5049.0
 20
610.0
 10
7049.0
 20
610.0
 10
7049.0
 20
320.0
 10
5049.0
 20
320.0
  0
LWPOLYLINE
  5
111
330
17
100
AcDbEntity
  8
M-PNKS-ALUMINYUM-1
100
AcDbPolyline
 90
4
 70
1
 10
5166.0
 20
263.0000000000001
 10
5712.0
 20
263.0000000000001
 10
5712.0
 20
-5.0
 10
5166.0
 20
-5.0
  0
LWPOLYLINE
  5
112
330
17
100
AcDbEntity
  8
M-PNKS-ALUMINYUM-1
100
AcDbPolyline
 90
4
 70
1
 10
5172.0
 20
255.99999999999994
 10
5706.0
 20
255.99999999999994
 10
5706.0
 20
1.9999999999998863
 10
5172.0
 20
1.9999999999998863
  0
LWPOLYLINE
  5
113
330
17
100
AcDbEntity
  8
M-PNKS-ALUMINYUM-1
100
AcDbPolyline
 90
4
 70
1
 10
5346.0
 20
260.0
 10
5352.0
 20
260.0
 10
5352.0
 20
0.0
 10
5346.0
 20
0.0
  0
LWPOLYLINE
  5
114
330
17
100
AcDbEntity
  8
M-PNKS-ALUMINYUM-1
100
AcDbPolyline
 90
4
 70
1
 10
5526.0
 20
260.0
 10
5532.0
 20
260.0
 10
5532.0
 20
0.0
 10
5526.0
 20
0.0
  0
LWPOLYLINE
  5
115
330
17
100
AcDbEntity
  8
M-PNKS-ALUMINYUM-1
100
AcDbPolyline
 90
4
 70
1
 10
5886.0
 20
263.0000000000001
 10
6252.0
 20
263.0000000000001
 10
6252.0
 20
-5.0
 10
5886.0
 20
-5.0
  0
LWPOLYLINE
  5
116
330
17
100
AcDbEntity
  8
M-PNKS-ALUMINYUM-1
100
AcDbPolyline
 90
4
 70
1
 10
5892.0
 20
255.99999999999994
 10
6246.0
 20
255.99999999999994
 10
6246.0
 20
1.9999999999998863
 10
5892.0
 20
1.9999999999998863
  0
LWPOLYLINE
  5
117
330
17
100
AcDbEntity
  8
M-PNKS-ALUMINYUM-1
100
AcDbPolyline
 90
4
 70
1
 10
6066.0
 20
260.0
 10
6072.0
 20
260.0
 10
6072.0
 20
0.0
 10
6066.0
 20
0.0
  0
LWPOLYLINE
  5
118
330
17
100
AcDbEntity
  8
M-PNKS-ALUMINYUM-1
100
AcDbPolyline
 90
4
 70
1
 10
6386.0
 20
263.0000000000001
 10
6932.0
 20
263.0000000000001
 10
6932.0
 20
-5.0
 10
6386.0
 20
-5.0
  0
LWPOLYLINE
  5
119
330
17
100
AcDbEntity
  8
M-PNKS-ALUMINYUM-1
100
AcDbPolyline
 90
4
 70
1
 10
6392.0
 20
255.99999999999994
 10
6926.0
 20
255.99999999999994
 10
6926.0
 20
1.9999999999998863
 10
6392.0
 20
1.9999999999998863
  0
LWPOLYLINE
  5
11A
330
17
100
AcDbEntity
  8
M-PNKS-ALUMINYUM-1
100
AcDbPolyline
 90
4
 70
1
 10
6566.0
 20
260.0
 10
6572.0
 20
260.0
 10
6572.0
 20
0.0
 10
6566.0
 20
0.0
  0
LWPOLYLINE
  5
11B
330
17
100
AcDbEntity
  8
M-PNKS-ALUMINYUM-1
100
AcDbPolyline
 90
4
 70
1
 10
6746.0
 20
260.0
 10
6752.0
 20
260.0
 10
6752.0
 20
0.0
 10
6746.0
 20
0.0
  0
LWPOLYLINE
  5
11C
330
17
100
AcDbEntity
  8
M-PNKS-ALUMINYUM-1
100
AcDbPolyline
 90
4
 70
1
 10
5226.0
 20
553.0000000000001
 10
5652.0
 20
553.0000000000001
 10
5652.0
 20
315.0
 10
5226.0
 20
315.0
  0
LWPOLYLINE
  5
11D
330
17
100
AcDbEntity
  8
M-PNKS-ALUMINYUM-1
100
AcDbPolyline
 90
4
 70
1
 10
5232.0
 20
546.0
 10
5646.0
 20
546.0
 10
5646.0
 20
321.9999999999999
 10
5232.0
 20
321.9999999999999
  0
LWPOLYLINE
  5
11E
330
17
100
AcDbEntity
  8
M-PNKS-ALUMINYUM-1
100
AcDbPolyline
 90
4
 70
1
 10
5436.0
 20
550.0
 10
5442.0
 20
550.0
 10
5442.0
 20
320.0
 10
5436.0
 20
320.0
  0
LWPOLYLINE
  5
11F
330
17
100
AcDbEntity
  8
M-PNKS-ALUMINYUM-1
100
AcDbPolyline
 90
4
 70
1
 10
5226.0
 20
570.0
 10
5652.0
 20
570.0
 10
5652.0
 20
553.0000000000001
 10
5226.0
 20
553.0000000000001
  0
LWPOLYLINE
  5
120
330
17
100
AcDbEntity
  8
M-PNKS-ALUMINYUM-1
100
AcDbPolyline
 90
4
 70
1
 10
5906.0
 20
553.0000000000001
 10
6232.0
 20
553.0000000000001
 10
6232.0
 20
405.0000000000003
 10
5906.0
 20
405.0000000000003
  0
LWPOLYLINE
  5
121
330
17
100
AcDbEntity
  8
M-PNKS-ALUMINYUM-1
100
AcDbPolyline
 90
4
 70
1
 10
5912.0
 20
546.0
 10
6226.0
 20
546.0
 10
6226.0
 20
411.9999999999999
 10
5912.0
 20
411.9999999999999
  0
LWPOLYLINE
  5
122
330
17
100
AcDbEntity
  8
M-PNKS-ALUMINYUM-1
100
AcDbPolyline
 90
4
 70
1
 10
6012.666666666667
 20
550.0
 10
6018.666666666666
 20
550.0
 10
6018.666666666666
 20
410.0
 10
6012.666666666667
 20
410.0
  0
LWPOLYLINE
  5
123
330
17
100
AcDbEntity
  8
M-PNKS-ALUMINYUM-1
100
AcDbPolyline
 90
4
 70
1
 10
6119.333333333334
 20
550.0
 10
6125.333333333333
 20
550.0
 10
6125.333333333333
 20
410.0
 10
6119.333333333334
 20
410.0
  0
LWPOLYLINE
  5
124
330
17
100
AcDbEntity
  8
M-PNKS-ALUMINYUM-1
100
AcDbPolyline
 90
4
 70
1
 10
5904.0
 20
406.9999999999999
 10
6234.0
 20
406.9999999999999
 10
6234.0
 20
401.9999999999999
 10
5904.0
 20
401.9999999999999
  0
LWPOLYLINE
  5
125
330
17
100
AcDbEntity
  8
M-PNKS-ALUMINYUM-1
100
AcDbPolyline
 90
4
 70
1
 10
5904.0
 20
406.9999999999999
 10
6234.0
 20
406.9999999999999
 10
6234.0
 20
401.9999999999999
 10
5904.0
 20
401.9999999999999
  0
LWPOLYLINE
  5
126
330
17
100
AcDbEntity
  8
M-PNKS-ALUMINYUM-1
100
AcDbPolyline
 90
4
 70
1
 10
5906.0
 20
570.0
 10
6232.0
 20
570.0
 10
6232.0
 20
553.0000000000001
 10
5906.0
 20
553.0000000000001
  0
LWPOLYLINE
  5
127
330
17
100
AcDbEntity
  8
M-PNKS-ALUMINYUM-1
100
AcDbPolyline
 90
4
 70
1
 10
6386.0
 20
553.0000000000001
 10
6932.0
 20
553.0000000000001
 10
6932.0
 20
315.0
 10
6386.0
 20
315.0
  0
LWPOLYLINE
  5
128
330
17
100
AcDbEntity
  8
M-PNKS-ALUMINYUM-1
100
AcDbPolyline
 90
4
 70
1
 10
6392.0
 20
546.0
 10
6926.0
 20
546.0
 10
6926.0
 20
321.9999999999999
 10
6392.0
 20
321.9999999999999
  0
LWPOLYLINE
  5
129
330
17
100
AcDbEntity
  8
M-PNKS-ALUMINYUM-1
100
AcDbPolyline
 90
4
 70
1
 10
6566.0
 20
550.0
 10
6572.0
 20
550.0
 10
6572.0
 20
320.0
 10
6566.0
 20
320.0
  0
LWPOLYLINE
  5
12A
330
17
100
AcDbEntity
  8
M-PNKS-ALUMINYUM-1
100
AcDbPolyline
 90
4
 70
1
 10
6746.0
 20
550.0
 10
6752.0
 20
550.0
 10
6752.0
 20
320.0
 10
6746.0
 20
320.0
  0
LWPOLYLINE
  5
12B
330
17
100
AcDbEntity
  8
M-PNKS-ALUMINYUM-1
100
AcDbPolyline
 90
4
 70
1
 10
6386.0
 20
570.0
 10
6932.0
 20
570.0
 10
6932.0
 20
553.0000000000001
 10
6386.0
 20
553.0000000000001
  0
HATCH
  5
12C
330
17
100
AcDbEntity
  8
M-BACA-TUGLA-1-T
 62
7
100
AcDbHatch
 10
0.0
 20
0.0
 30
0.0
210
0.0
220
0.0
230
1.0
  2
AR-B816
 70
0
 71
0
 91
1
 92
3
 72
0
 73
1
 93
4
 10
4989.0
 20
840.0
 10
5049.0
 20
840.0
 10
5049.0
 20
-30.0
 10
4989.0
 20
-30.0
 97
0
 75
1
 76
1
 52
0.0
 41
0.35000000000000003
 77
0
 78
2
 53
0.0
 43
0.0
 44
0.0
 45
0.0
 46
71.12
 79
0
 53
90.0
 43
0.0
 44
0.0
 45
-71.12
 46
71.12
 79
2
 49
71.12
 49
-71.12
 98
0
  0
LWPOLYLINE
  5
12D
330
17
100
AcDbEntity
  8
M-BACA-TUGLA-1
100
AcDbPolyline
 90
4
 70
1
 10
4989.0
 20
840.0
 10
5049.0
 20
840.0
 10
5049.0
 20
-30.0
 10
4989.0
 20
-30.0
  0
HATCH
  5
12E
330
17
100
AcDbEntity
  8
M-BACA-TUGLA-1-T
100
AcDbHatch
 10
0.0
 20
0.0
 30
0.0
210
0.0
220
0.0
230
1.0
  2
SOLID
 70
1
 71
0
 91
1
 92
3
 72
0
 73
1
 93
4
 10
4981.0
 20
851.9999999999999
 10
5057.0
 20
851.9999999999999
 10
5057.0
 20
840.0
 10
4981.0
 20
840.0
 97
0
 75
1
 76
1
 98
0
  0
HATCH
  5
12F
330
17
100
AcDbEntity
  8
M-CKAP-KIREMIT-1-T
 62
7
100
AcDbHatch
 10
0.0
 20
0.0
 30
0.0
210
0.0
220
0.0
230
1.0
  2
AR-B816
 70
0
 71
0
 91
1
 92
3
 72
0
 73
1
 93
4
 10
4969.0
 20
645.0
 10
5799.0
 20
894.0
 10
6299.0
 20
894.0
 10
7129.0
 20
645.0
 97
0
 75
1
 76
1
 52
0.0
 41
0.12
 77
0
 78
2
 53
0.0
 43
0.0
 44
0.0
 45
0.0
 46
24.384
 79
0
 53
90.0
 43
0.0
 44
0.0
 45
-24.384
 46
24.384
 79
2
 49
24.384
 49
-24.384
 98
0
  0
LWPOLYLINE
  5
130
330
17
100
AcDbEntity
  8
M-CKAP-KIREMIT-1
100
AcDbPolyline
 90
4
 70
1
 10
4969.0
 20
645.0
 10
5799.0
 20
894.0
 10
6299.0
 20
894.0
 10
7129.0
 20
645.0
  0
HATCH
  5
131
330
17
100
AcDbEntity
  8
M-CKAP-KIREMIT-1-T
100
AcDbHatch
 10
0.0
 20
0.0
 30
0.0
210
0.0
220
0.0
230
1.0
  2
SOLID
 70
1
 71
0
 91
1
 92
3
 72
0
 73
1
 93
4
 10
4969.0
 20
645.0
 10
7129.0
 20
645.0
 10
7129.0
 20
610.0
 10
4969.0
 20
610.0
 97
0
 75
1
 76
1
 98
0
  0
LWPOLYLINE
  5
132
330
17
100
AcDbEntity
  8
M-CKAP-KIREMIT-1
100
AcDbPolyline
 90
4
 70
1
 10
4969.0
 20
645.0
 10
7129.0
 20
645.0
 10
7129.0
 20
610.0
 10
4969.0
 20
610.0
  0
HATCH
  5
133
330
17
100
AcDbEntity
  8
M-CKAP-KIREMIT-1-T
100
AcDbHatch
 10
0.0
 20
0.0
 30
0.0
210
0.0
220
0.0
230
1.0
  2
SOLID
 70
1
 71
0
 91
1
 92
3
 72
0
 73
1
 93
4
 10
4969.0
 20
650.0
 10
7129.0
 20
650.0
 10
7129.0
 20
640.0
 10
4969.0
 20
640.0
 97
0
 75
1
 76
1
 98
0
  0
HATCH
  5
134
330
17
100
AcDbEntity
  8
M-YIBO-SAC-1
100
AcDbHatch
 10
0.0
 20
0.0
 30
0.0
210
0.0
220
0.0
230
1.0
  2
SOLID
 70
1
 71
0
 91
1
 92
3
 72
0
 73
1
 93
4
 10
5056.0
 20
610.0
 10
5066.0
 20
610.0
 10
5066.0
 20
-30.0
 10
5056.0
 20
-30.0
 97
0
 75
1
 76
1
 98
0
  0
HATCH
  5
135
330
17
100
AcDbEntity
  8
M-YIBO-SAC-1
100
AcDbHatch
 10
0.0
 20
0.0
 30
0.0
210
0.0
220
0.0
230
1.0
  2
SOLID
 70
1
 71
0
 91
1
 92
3
 72
0
 73
1
 93
4
 10
7032.0
 20
610.0
 10
7042.0
 20
610.0
 10
7042.0
 20
-30.0
 10
7032.0
 20
-30.0
 97
0
 75
1
 76
1
 98
0
  0
LWPOLYLINE
  5
136
330
17
100
AcDbEntity
  8
M-TASI-BETONARME-1
100
AcDbPolyline
 90
4
 70
1
 10
5109.0
 20
318.0000000000001
 10
5769.0
 20
318.0000000000001
 10
5769.0
 20
298.0000000000001
 10
5109.0
 20
298.0000000000001
  0
LWPOLYLINE
  5
137
330
17
100
AcDbEntity
  8
M-TASI-BETONARME-1
100
AcDbPolyline
 90
4
 70
1
 10
5112.0
 20
428.0000000000001
 10
5766.0
 20
428.0000000000001
 10
5766.0
 20
318.0000000000001
 10
5112.0
 20
318.0000000000001
  0
LWPOLYLINE
  5
138
330
17
100
AcDbEntity
  8
M-TASI-BETONARME-1
100
AcDbPolyline
 90
4
 70
1
 10
6369.0
 20
318.0000000000001
 10
6989.0
 20
318.0000000000001
 10
6989.0
 20
298.0000000000001
 10
6369.0
 20
298.0000000000001
  0
LWPOLYLINE
  5
139
330
17
100
AcDbEntity
  8
M-TASI-BETONARME-1
100
AcDbPolyline
 90
4
 70
1
 10
6372.0
 20
428.0000000000001
 10
6986.0
 20
428.0000000000001
 10
6986.0
 20
318.0000000000001
 10
6372.0
 20
318.0000000000001
  0
HATCH
  5
13A
330
17
100
AcDbEntity
  8
M-TASI-BETONARME-1-T
100
AcDbHatch
 10
0.0
 20
0.0
 30
0.0
210
0.0
220
0.0
230
1.0
  2
SOLID
 70
1
 71
0
 91
1
 92
3
 72
0
 73
1
 93
4
 10
6309.0
 20
285.0
 10
7049.0
 20
285.0
 10
7049.0
 20
263.0000000000001
 10
6309.0
 20
263.0000000000001
 97
0
 75
1
 76
1
 98
0
  0
LWPOLYLINE
  5
13B
330
17
100
AcDbEntity
  8
M-TASI-BETONARME-1
100
AcDbPolyline
 90
4
 70
1
 10
6309.0
 20
285.0
 10
7049.0
 20
285.0
 10
7049.0
 20
263.0000000000001
 10
6309.0
 20
263.0000000000001
  0
HATCH
  5
13C
330
17
100
AcDbEntity
  8
M-TASI-BETONARME-1-T
100
AcDbHatch
 10
0.0
 20
0.0
 30
0.0
210
0.0
220
0.0
230
1.0
  2
SOLID
 70
1
 71
0
 91
1
 92
3
 72
0
 73
1
 93
4
 10
6324.0
 20
263.0000000000001
 10
6339.0
 20
263.0000000000001
 10
6339.0
 20
-1.9999999999998863
 10
6324.0
 20
-1.9999999999998863
 97
0
 75
1
 76
1
 98
0
  0
HATCH
  5
13D
330
17
100
AcDbEntity
  8
M-TASI-BETONARME-1-T
100
AcDbHatch
 10
0.0
 20
0.0
 30
0.0
210
0.0
220
0.0
230
1.0
  2
SOLID
 70
1
 71
0
 91
1
 92
3
 72
0
 73
1
 93
4
 10
7019.0
 20
263.0000000000001
 10
7034.0
 20
263.0000000000001
 10
7034.0
 20
-1.9999999999998863
 10
7019.0
 20
-1.9999999999998863
 97
0
 75
1
 76
1
 98
0
  0
LINE
  5
13E
330
17
100
AcDbEntity
  8
M-TASI-BETONARME-1
100
AcDbLine
 10
6339.0
 20
265.0
 30
0.0
 11
6339.0
 21
285.0
 31
0.0
  0
LINE
  5
13F
330
17
100
AcDbEntity
  8
M-TASI-BETONARME-1
100
AcDbLine
 10
6368.565217391304
 20
265.0
 30
0.0
 11
6368.565217391304
 21
285.0
 31
0.0
  0
LINE
  5
140
330
17
100
AcDbEntity
  8
M-TASI-BETONARME-1
100
AcDbLine
 10
6398.130434782609
 20
265.0
 30
0.0
 11
6398.130434782609
 21
285.0
 31
0.0
  0
LINE
  5
141
330
17
100
AcDbEntity
  8
M-TASI-BETONARME-1
100
AcDbLine
 10
6427.695652173913
 20
265.0
 30
0.0
 11
6427.695652173913
 21
285.0
 31
0.0
  0
LINE
  5
142
330
17
100
AcDbEntity
  8
M-TASI-BETONARME-1
100
AcDbLine
 10
6457.260869565218
 20
265.0
 30
0.0
 11
6457.260869565218
 21
285.0
 31
0.0
  0
LINE
  5
143
330
17
100
AcDbEntity
  8
M-TASI-BETONARME-1
100
AcDbLine
 10
6486.826086956522
 20
265.0
 30
0.0
 11
6486.826086956522
 21
285.0
 31
0.0
  0
LINE
  5
144
330
17
100
AcDbEntity
  8
M-TASI-BETONARME-1
100
AcDbLine
 10
6516.391304347826
 20
265.0
 30
0.0
 11
6516.391304347826
 21
285.0
 31
0.0
  0
LINE
  5
145
330
17
100
AcDbEntity
  8
M-TASI-BETONARME-1
100
AcDbLine
 10
6545.95652173913
 20
265.0
 30
0.0
 11
6545.95652173913
 21
285.0
 31
0.0
  0
LINE
  5
146
330
17
100
AcDbEntity
  8
M-TASI-BETONARME-1
100
AcDbLine
 10
6575.521739130435
 20
265.0
 30
0.0
 11
6575.521739130435
 21
285.0
 31
0.0
  0
LINE
  5
147
330
17
100
AcDbEntity
  8
M-TASI-BETONARME-1
100
AcDbLine
 10
6605.086956521739
 20
265.0
 30
0.0
 11
6605.086956521739
 21
285.0
 31
0.0
  0
LINE
  5
148
330
17
100
AcDbEntity
  8
M-TASI-BETONARME-1
100
AcDbLine
 10
6634.652173913044
 20
265.0
 30
0.0
 11
6634.652173913044
 21
285.0
 31
0.0
  0
LINE
  5
149
330
17
100
AcDbEntity
  8
M-TASI-BETONARME-1
100
AcDbLine
 10
6664.217391304348
 20
265.0
 30
0.0
 11
6664.217391304348
 21
285.0
 31
0.0
  0
LINE
  5
14A
330
17
100
AcDbEntity
  8
M-TASI-BETONARME-1
100
AcDbLine
 10
6693.782608695652
 20
265.0
 30
0.0
 11
6693.782608695652
 21
285.0
 31
0.0
  0
LINE
  5
14B
330
17
100
AcDbEntity
  8
M-TASI-BETONARME-1
100
AcDbLine
 10
6723.347826086956
 20
265.0
 30
0.0
 11
6723.347826086956
 21
285.0
 31
0.0
  0
LINE
  5
14C
330
17
100
AcDbEntity
  8
M-TASI-BETONARME-1
100
AcDbLine
 10
6752.913043478261
 20
265.0
 30
0.0
 11
6752.913043478261
 21
285.0
 31
0.0
  0
LINE
  5
14D
330
17
100
AcDbEntity
  8
M-TASI-BETONARME-1
100
AcDbLine
 10
6782.478260869566
 20
265.0
 30
0.0
 11
6782.478260869566
 21
285.0
 31
0.0
  0
LINE
  5
14E
330
17
100
AcDbEntity
  8
M-TASI-BETONARME-1
100
AcDbLine
 10
6812.04347826087
 20
265.0
 30
0.0
 11
6812.04347826087
 21
285.0
 31
0.0
  0
LINE
  5
14F
330
17
100
AcDbEntity
  8
M-TASI-BETONARME-1
100
AcDbLine
 10
6841.608695652174
 20
265.0
 30
0.0
 11
6841.608695652174
 21
285.0
 31
0.0
  0
LINE
  5
150
330
17
100
AcDbEntity
  8
M-TASI-BETONARME-1
100
AcDbLine
 10
6871.173913043479
 20
265.0
 30
0.0
 11
6871.173913043479
 21
285.0
 31
0.0
  0
LINE
  5
151
330
17
100
AcDbEntity
  8
M-TASI-BETONARME-1
100
AcDbLine
 10
6900.739130434782
 20
265.0
 30
0.0
 11
6900.739130434782
 21
285.0
 31
0.0
  0
LINE
  5
152
330
17
100
AcDbEntity
  8
M-TASI-BETONARME-1
100
AcDbLine
 10
6930.304347826087
 20
265.0
 30
0.0
 11
6930.304347826087
 21
285.0
 31
0.0
  0
LINE
  5
153
330
17
100
AcDbEntity
  8
M-TASI-BETONARME-1
100
AcDbLine
 10
6959.869565217391
 20
265.0
 30
0.0
 11
6959.869565217391
 21
285.0
 31
0.0
  0
LINE
  5
154
330
17
100
AcDbEntity
  8
M-TASI-BETONARME-1
100
AcDbLine
 10
6989.434782608696
 20
265.0
 30
0.0
 11
6989.434782608696
 21
285.0
 31
0.0
  0
LINE
  5
155
330
17
100
AcDbEntity
  8
M-TASI-BETONARME-1
100
AcDbLine
 10
7019.0
 20
265.0
 30
0.0
 11
7019.0
 21
285.0
 31
0.0
  0
LWPOLYLINE
  5
156
330
17
100
AcDbEntity
  8
M-TASI-BETONARME-1
100
AcDbPolyline
 90
4
 70
1
 10
5009.0
 20
-1.9999999999998863
 10
7089.0
 20
-1.9999999999998863
 10
7089.0
 20
-30.0
 10
5009.0
 20
-30.0
  0
HATCH
  5
157
330
17
100
AcDbEntity
  8
M-CVRE-ZEMIN-T
 62
7
100
AcDbHatch
 10
0.0
 20
0.0
 30
0.0
210
0.0
220
0.0
230
1.0
  2
EARTH
 70
0
 71
0
 91
1
 92
3
 72
0
 73
1
 93
4
 10
4829.0
 20
-30.0
 10
7269.0
 20
-30.0
 10
7269.0
 20
-60.0
 10
4829.0
 20
-60.0
 97
0
 75
1
 76
1
 52
0.0
 41
5.0
 77
0
 78
6
 53
0.0
 43
0.0
 44
0.0
 45
31.75
 46
31.75
 79
2
 49
31.75
 49
-31.75
 53
0.0
 43
0.0
 44
11.90625
 45
31.75
 46
31.75
 79
2
 49
31.75
 49
-31.75
 53
0.0
 43
0.0
 44
23.8125
 45
31.75
 46
31.75
 79
2
 49
31.75
 49
-31.75
 53
90.0
 43
3.96875
 44
27.78125
 45
-31.75
 46
31.75
 79
2
 49
31.75
 49
-31.75
 53
90.0
 43
15.875
 44
27.78125
 45
-31.75
 46
31.75
 79
2
 49
31.75
 49
-31.75
 53
90.0
 43
27.78125
 44
27.78125
 45
-31.75
 46
31.75
 79
2
 49
31.75
 49
-31.75
 98
0
  0
LINE
  5
158
330
17
100
AcDbEntity
  8
M-CVRE-ZEMIN
100
AcDbLine
 10
4829.0
 20
-30.0
 30
0.0
 11
7269.0
 21
-30.0
 31
0.0
  0
LINE
  5
159
330
17
100
AcDbEntity
  8
M-GOST-KESITKOT
  6
ACAD_ISO02W100
100
AcDbLine
 10
7059.0
 20
894.0
 30
0.0
 11
7289.0
 21
894.0
 31
0.0
  0
LWPOLYLINE
  5
15A
330
17
100
AcDbEntity
  8
M-GOST-KESITKOT
100
AcDbPolyline
 90
3
 70
1
 10
7298.0
 20
913.0000000000001
 10
7320.0
 20
913.0000000000001
 10
7309.0
 20
894.0
  0
HATCH
  5
15B
330
17
100
AcDbEntity
  8
M-GOST-KESITKOT
100
AcDbHatch
 10
0.0
 20
0.0
 30
0.0
210
0.0
220
0.0
230
1.0
  2
SOLID
 70
1
 71
0
 91
1
 92
3
 72
0
 73
1
 93
3
 10
7298.0
 20
913.0000000000001
 10
7309.0
 20
913.0000000000001
 10
7309.0
 20
894.0
 97
0
 75
1
 76
1
 98
0
  0
TEXT
  5
15C
330
17
100
AcDbEntity
  8
M-GOST-KESITKOT
100
AcDbText
 10
7327.0
 20
898.0000000000001
 30
0.0
 40
12.96
  1
+8.94
  7
YAZI-KALIN
 11
7327.0
 21
898.0000000000001
 31
0.0
100
AcDbText
  0
LINE
  5
15D
330
17
100
AcDbEntity
  8
M-GOST-KESITKOT
  6
ACAD_ISO02W100
100
AcDbLine
 10
7059.0
 20
645.0
 30
0.0
 11
7289.0
 21
645.0
 31
0.0
  0
LWPOLYLINE
  5
15E
330
17
100
AcDbEntity
  8
M-GOST-KESITKOT
100
AcDbPolyline
 90
3
 70
1
 10
7298.0
 20
664.0
 10
7320.0
 20
664.0
 10
7309.0
 20
645.0
  0
HATCH
  5
15F
330
17
100
AcDbEntity
  8
M-GOST-KESITKOT
100
AcDbHatch
 10
0.0
 20
0.0
 30
0.0
210
0.0
220
0.0
230
1.0
  2
SOLID
 70
1
 71
0
 91
1
 92
3
 72
0
 73
1
 93
3
 10
7298.0
 20
664.0
 10
7309.0
 20
664.0
 10
7309.0
 20
645.0
 97
0
 75
1
 76
1
 98
0
  0
TEXT
  5
160
330
17
100
AcDbEntity
  8
M-GOST-KESITKOT
100
AcDbText
 10
7327.0
 20
649.0
 30
0.0
 40
12.96
  1
+6.45
  7
YAZI-KALIN
 11
7327.0
 21
649.0
 31
0.0
100
AcDbText
  0
LINE
  5
161
330
17
100
AcDbEntity
  8
M-GOST-KESITKOT
  6
ACAD_ISO02W100
100
AcDbLine
 10
7059.0
 20
620.0
 30
0.0
 11
7289.0
 21
620.0
 31
0.0
  0
LWPOLYLINE
  5
162
330
17
100
AcDbEntity
  8
M-GOST-KESITKOT
100
AcDbPolyline
 90
3
 70
1
 10
7298.0
 20
639.0
 10
7320.0
 20
639.0
 10
7309.0
 20
620.0
  0
HATCH
  5
163
330
17
100
AcDbEntity
  8
M-GOST-KESITKOT
100
AcDbHatch
 10
0.0
 20
0.0
 30
0.0
210
0.0
220
0.0
230
1.0
  2
SOLID
 70
1
 71
0
 91
1
 92
3
 72
0
 73
1
 93
3
 10
7298.0
 20
639.0
 10
7309.0
 20
639.0
 10
7309.0
 20
620.0
 97
0
 75
1
 76
1
 98
0
  0
TEXT
  5
164
330
17
100
AcDbEntity
  8
M-GOST-KESITKOT
100
AcDbText
 10
7327.0
 20
624.0
 30
0.0
 40
12.96
  1
+6.20
  7
YAZI-KALIN
 11
7327.0
 21
624.0
 31
0.0
100
AcDbText
  0
LINE
  5
165
330
17
100
AcDbEntity
  8
M-GOST-KESITKOT
  6
ACAD_ISO02W100
100
AcDbLine
 10
7059.0
 20
320.0
 30
0.0
 11
7289.0
 21
320.0
 31
0.0
  0
LWPOLYLINE
  5
166
330
17
100
AcDbEntity
  8
M-GOST-KESITKOT
100
AcDbPolyline
 90
3
 70
1
 10
7298.0
 20
339.00000000000006
 10
7320.0
 20
339.00000000000006
 10
7309.0
 20
320.0
  0
HATCH
  5
167
330
17
100
AcDbEntity
  8
M-GOST-KESITKOT
100
AcDbHatch
 10
0.0
 20
0.0
 30
0.0
210
0.0
220
0.0
230
1.0
  2
SOLID
 70
1
 71
0
 91
1
 92
3
 72
0
 73
1
 93
3
 10
7298.0
 20
339.00000000000006
 10
7309.0
 20
339.00000000000006
 10
7309.0
 20
320.0
 97
0
 75
1
 76
1
 98
0
  0
TEXT
  5
168
330
17
100
AcDbEntity
  8
M-GOST-KESITKOT
100
AcDbText
 10
7327.0
 20
324.00000000000006
 30
0.0
 40
12.96
  1
+3.20
  7
YAZI-KALIN
 11
7327.0
 21
324.00000000000006
 31
0.0
100
AcDbText
  0
LINE
  5
169
330
17
100
AcDbEntity
  8
M-GOST-KESITKOT
  6
ACAD_ISO02W100
100
AcDbLine
 10
7059.0
 20
0.0
 30
0.0
 11
7289.0
 21
0.0
 31
0.0
  0
LWPOLYLINE
  5
16A
330
17
100
AcDbEntity
  8
M-GOST-KESITKOT
100
AcDbPolyline
 90
3
 70
1
 10
7298.0
 20
19.000000000000057
 10
7320.0
 20
19.000000000000057
 10
7309.0
 20
0.0
  0
HATCH
  5
16B
330
17
100
AcDbEntity
  8
M-GOST-KESITKOT
100
AcDbHatch
 10
0.0
 20
0.0
 30
0.0
210
0.0
220
0.0
230
1.0
  2
SOLID
 70
1
 71
0
 91
1
 92
3
 72
0
 73
1
 93
3
 10
7298.0
 20
19.000000000000057
 10
7309.0
 20
19.000000000000057
 10
7309.0
 20
0.0
 97
0
 75
1
 76
1
 98
0
  0
TEXT
  5
16C
330
17
100
AcDbEntity
  8
M-GOST-KESITKOT
100
AcDbText
 10
7327.0
 20
4.000000000000057
 30
0.0
 40
12.96
  1
%%p0.00
  7
YAZI-KALIN
 11
7327.0
 21
4.000000000000057
 31
0.0
100
AcDbText
  0
LINE
  5
16D
330
17
100
AcDbEntity
  8
M-GOST-KESITKOT
  6
ACAD_ISO02W100
100
AcDbLine
 10
7059.0
 20
-30.0
 30
0.0
 11
7289.0
 21
-30.0
 31
0.0
  0
LWPOLYLINE
  5
16E
330
17
100
AcDbEntity
  8
M-GOST-KESITKOT
100
AcDbPolyline
 90
3
 70
1
 10
7298.0
 20
-10.999999999999943
 10
7320.0
 20
-10.999999999999943
 10
7309.0
 20
-30.0
  0
HATCH
  5
16F
330
17
100
AcDbEntity
  8
M-GOST-KESITKOT
100
AcDbHatch
 10
0.0
 20
0.0
 30
0.0
210
0.0
220
0.0
230
1.0
  2
SOLID
 70
1
 71
0
 91
1
 92
3
 72
0
 73
1
 93
3
 10
7298.0
 20
-10.999999999999943
 10
7309.0
 20
-10.999999999999943
 10
7309.0
 20
-30.0
 97
0
 75
1
 76
1
 98
0
  0
TEXT
  5
170
330
17
100
AcDbEntity
  8
M-GOST-KESITKOT
100
AcDbText
 10
7327.0
 20
-26.000000000000227
 30
0.0
 40
12.96
  1
-0.30
  7
YAZI-KALIN
 11
7327.0
 21
-26.000000000000227
 31
0.0
100
AcDbText
  0
LINE
  5
171
330
17
100
AcDbEntity
  8
M-GOST-YAZI
100
AcDbLine
 10
4809.0
 20
804.0
 30
0.0
 11
5089.0
 21
804.0
 31
0.0
  0
HATCH
  5
172
330
17
100
AcDbEntity
  8
M-GOST-YAZI
100
AcDbHatch
 10
0.0
 20
0.0
 30
0.0
210
0.0
220
0.0
230
1.0
  2
SOLID
 70
1
 71
0
 91
1
 92
1
 93
1
 72
2
 10
5089.0
 20
804.0
 40
3.5
 50
0
 51
360
 73
1
 97
0
 75
1
 76
1
 98
0
  0
TEXT
  5
173
330
17
100
AcDbEntity
  8
M-GOST-YAZI
100
AcDbText
 10
4799.0
 20
798.0000000000001
 30
0.0
 40
12.24
  1
antrasit kil kiremit, %30 eğim
  7
YAZI
 72
2
 11
4799.0
 21
798.0000000000001
 31
0.0
100
AcDbText
  0
LINE
  5
174
330
17
100
AcDbEntity
  8
M-GOST-YAZI
100
AcDbLine
 10
4809.0
 20
500.0
 30
0.0
 11
5089.0
 21
500.0
 31
0.0
  0
HATCH
  5
175
330
17
100
AcDbEntity
  8
M-GOST-YAZI
100
AcDbHatch
 10
0.0
 20
0.0
 30
0.0
210
0.0
220
0.0
230
1.0
  2
SOLID
 70
1
 71
0
 91
1
 92
1
 93
1
 72
2
 10
5089.0
 20
500.0
 40
3.5
 50
0
 51
360
 73
1
 97
0
 75
1
 76
1
 98
0
  0
TEXT
  5
176
330
17
100
AcDbEntity
  8
M-GOST-YAZI
100
AcDbText
 10
4799.0
 20
494.00000000000006
 30
0.0
 40
12.24
  1
1. kat: beyaz ince silikon sıva (8 cm taşyünü mantolama)
  7
YAZI
 72
2
 11
4799.0
 21
494.00000000000006
 31
0.0
100
AcDbText
  0
LINE
  5
177
330
17
100
AcDbEntity
  8
M-GOST-YAZI
100
AcDbLine
 10
4809.0
 20
305.0
 30
0.0
 11
5089.0
 21
305.0
 31
0.0
  0
HATCH
  5
178
330
17
100
AcDbEntity
  8
M-GOST-YAZI
100
AcDbHatch
 10
0.0
 20
0.0
 30
0.0
210
0.0
220
0.0
230
1.0
  2
SOLID
 70
1
 71
0
 91
1
 92
1
 93
1
 72
2
 10
5089.0
 20
305.0
 40
3.5
 50
0
 51
360
 73
1
 97
0
 75
1
 76
1
 98
0
  0
TEXT
  5
179
330
17
100
AcDbEntity
  8
M-GOST-YAZI
100
AcDbText
 10
4799.0
 20
299.00000000000006
 30
0.0
 40
12.24
  1
kat silmesi: beyaz prekast / GRC
  7
YAZI
 72
2
 11
4799.0
 21
299.00000000000006
 31
0.0
100
AcDbText
  0
LINE
  5
17A
330
17
100
AcDbEntity
  8
M-GOST-YAZI
100
AcDbLine
 10
4809.0
 20
140.0
 30
0.0
 11
5089.0
 21
140.0
 31
0.0
  0
HATCH
  5
17B
330
17
100
AcDbEntity
  8
M-GOST-YAZI
100
AcDbHatch
 10
0.0
 20
0.0
 30
0.0
210
0.0
220
0.0
230
1.0
  2
SOLID
 70
1
 71
0
 91
1
 92
1
 93
1
 72
2
 10
5089.0
 20
140.0
 40
3.5
 50
0
 51
360
 73
1
 97
0
 75
1
 76
1
 98
0
  0
TEXT
  5
17C
330
17
100
AcDbEntity
  8
M-GOST-YAZI
100
AcDbText
 10
4799.0
 20
134.00000000000006
 30
0.0
 40
12.24
  1
zemin kat: doğal taş kaplama (Sille taşı, bej)
  7
YAZI
 72
2
 11
4799.0
 21
134.00000000000006
 31
0.0
100
AcDbText
  0
LINE
  5
17D
330
17
100
AcDbEntity
  8
M-GOST-YAZI
100
AcDbLine
 10
4809.0
 20
-15.0
 30
0.0
 11
5089.0
 21
-15.0
 31
0.0
  0
HATCH
  5
17E
330
17
100
AcDbEntity
  8
M-GOST-YAZI
100
AcDbHatch
 10
0.0
 20
0.0
 30
0.0
210
0.0
220
0.0
230
1.0
  2
SOLID
 70
1
 71
0
 91
1
 92
1
 93
1
 72
2
 10
5089.0
 20
-15.0
 40
3.5
 50
0
 51
360
 73
1
 97
0
 75
1
 76
1
 98
0
  0
TEXT
  5
17F
330
17
100
AcDbEntity
  8
M-GOST-YAZI
100
AcDbText
 10
4799.0
 20
-21.000000000000227
 30
0.0
 40
12.24
  1
subasman: yontma taş
  7
YAZI
 72
2
 11
4799.0
 21
-21.000000000000227
 31
0.0
100
AcDbText
  0
TEXT
  5
180
330
17
100
AcDbEntity
  8
M-GOST-YAZI
100
AcDbText
 10
5049.0
 20
-85.0
 30
0.0
 40
11.52
  1
BATI
  7
YAZI
 11
5049.0
 21
-85.0
 31
0.0
100
AcDbText
  0
TEXT
  5
181
330
17
100
AcDbEntity
  8
M-GOST-YAZI
100
AcDbText
 10
7049.0
 20
-85.0
 30
0.0
 40
11.52
  1
DOĞU
  7
YAZI
 72
2
 11
7049.0
 21
-85.0
 31
0.0
100
AcDbText
  0
TEXT
  5
182
330
17
100
AcDbEntity
  8
M-GOST-YAZI
100
AcDbText
 10
4829.0
 20
934.0
 30
0.0
 40
21.6
  1
GÜNEY GÖRÜNÜŞÜ (BAHÇE CEPHESİ) · Ö: 1/100
  7
YAZI-KALIN
 11
4829.0
 21
934.0
 31
0.0
100
AcDbText
  0
VIEWPORT
  5
4F
330
1B
100
AcDbEntity
 67
1
  8
VIEWPORTS
100
AcDbViewport
 10
210.0
 20
148.5
 30
0.0
 40
462.00000000000006
 41
326.70000000000005
 68
1
 69
1
 12
210.0
 22
148.5
 13
0.0
 23
0.0
 14
10.0
 24
10.0
 15
10.0
 25
10.0
 16
0.0
 26
0.0
 36
1.0
 17
0.0
 27
0.0
 37
0.0
 42
50.0
 43
0.0
 44
0.0
 45
326.70000000000005
 50
0.0
 51
0.0
 72
100
 90
557088
  1

281
0
 71
0
 74
0
110
0.0
120
0.0
130
0.0
111
1.0
121
0.0
131
0.0
112
0.0
122
1.0
132
0.0
 79
0
146
0.0
282
0
  0
LINE
  5
103
330
1B
100
AcDbEntity
 67
1
  8
M-GOST-ANTET
  6
ACAD_ISO02W100
100
AcDbLine
 10
60.0
 20
171.5
 30
0.0
 11
88.0
 21
171.5
 31
0.0
  0
LINE
  5
183
330
1B
100
AcDbEntity
 67
1
  8
M-GOST-ANTET
  6
ACAD_ISO02W100
100
AcDbLine
 10
60.0
 20
41.5
 30
0.0
 11
88.0
 21
41.5
 31
0.0
  0
LWPOLYLINE
  5
184
330
1B
100
AcDbEntity
 67
1
  8
M-GOST-ANTET
100
AcDbPolyline
 90
4
 70
1
 10
10.0
 20
287.0
 10
410.0
 20
287.0
 10
410.0
 20
10.0
 10
10.0
 20
10.0
  0
LINE
  5
185
330
1B
100
AcDbEntity
 67
1
  8
M-GOST-ANTET
  6
ACAD_ISO02W100
100
AcDbLine
 10
60.0
 20
41.5
 30
0.0
 11
88.0
 21
41.5
 31
0.0
  0
LWPOLYLINE
  5
186
330
1B
100
AcDbEntity
 67
1
  8
M-GOST-ANTET
100
AcDbPolyline
 90
4
 70
1
 10
318.0
 20
287.0
 10
410.0
 20
287.0
 10
410.0
 20
10.0
 10
318.0
 20
10.0
  0
TEXT
  5
188
330
1B
100
AcDbEntity
 67
1
  8
M-GOST-ANTETYAZI
100
AcDbText
 10
322.0
 20
278.0
 30
0.0
 40
3.7439999999999998
  1
DURUNDAY VİLLA
  7
YAZI-KALIN
 11
322.0
 21
278.0
 31
0.0
100
AcDbText
  0
TEXT
  5
189
330
1B
100
AcDbEntity
 67
1
  8
M-GOST-ANTETYAZI
100
AcDbText
 10
322.0
 20
272.5
 30
0.0
 40
1.8719999999999999
  1
Konya · Meram · Durunday
  7
YAZI
 11
322.0
 21
272.5
 31
0.0
100
AcDbText
  0
TEXT
  5
18A
330
1B
100
AcDbEntity
 67
1
  8
M-GOST-ANTETYAZI
100
AcDbText
 10
322.0
 20
268.0
 30
0.0
 40
1.656
  1
Bodrumlu dubleks müstakil konut · 300 m² oturum
  7
YAZI
 11
322.0
 21
268.0
 31
0.0
100
AcDbText
  0
LINE
  5
18B
330
1B
100
AcDbEntity
 67
1
  8
M-GOST-ANTET
100
AcDbLine
 10
318.0
 20
264.0
 30
0.0
 11
410.0
 21
264.0
 31
0.0
  0
TEXT
  5
18C
330
1B
100
AcDbEntity
 67
1
  8
M-GOST-ANTETYAZI
100
AcDbText
 10
322.0
 20
258.5
 30
0.0
 40
2.016
  1
MİMARİ ÖN PROJE (AVAN)
  7
YAZI-KALIN
 11
322.0
 21
258.5
 31
0.0
100
AcDbText
  0
TEXT
  5
18D
330
1B
100
AcDbEntity
 67
1
  8
M-GOST-ANTETYAZI
100
AcDbText
 10
322.0
 20
254.2
 30
0.0
 40
1.512
  1
Ruhsat ve uygulamaya esas değildir
  7
YAZI
 11
322.0
 21
254.2
 31
0.0
100
AcDbText
  0
LINE
  5
18E
330
1B
100
AcDbEntity
 67
1
  8
M-GOST-ANTET
100
AcDbLine
 10
318.0
 20
251.0
 30
0.0
 11
410.0
 21
251.0
 31
0.0
  0
TEXT
  5
18F
330
1B
100
AcDbEntity
 67
1
  8
M-GOST-ANTETYAZI
100
AcDbText
 10
322.0
 20
246.0
 30
0.0
 40
1.584
  1
LEJANT
  7
YAZI-KALIN
 11
322.0
 21
246.0
 31
0.0
100
AcDbText
  0
HATCH
  5
191
330
1B
100
AcDbEntity
 67
1
  8
M-GOST-LEJANT
 62
7
100
AcDbHatch
 10
0.0
 20
0.0
 30
0.0
210
0.0
220
0.0
230
1.0
  2
AR-B816
 70
0
 71
0
 91
1
 92
3
 72
0
 73
1
 93
4
 10
322.0
 20
245.0
 10
331.0
 20
245.0
 10
331.0
 20
242.4
 10
322.0
 20
242.4
 97
0
 75
1
 76
1
 52
0.0
 41
0.035
 77
0
 78
2
 53
0.0
 43
0.0
 44
0.0
 45
0.0
 46
7.112
 79
0
 53
90.0
 43
0.0
 44
0.0
 45
-7.112
 46
7.112
 79
2
 49
7.112
 49
-7.112
 98
0
  0
LWPOLYLINE
  5
192
330
1B
100
AcDbEntity
 67
1
  8
M-GOST-LEJANT
100
AcDbPolyline
 90
4
 70
1
 10
322.0
 20
245.0
 10
331.0
 20
245.0
 10
331.0
 20
242.4
 10
322.0
 20
242.4
  0
TEXT
  5
193
330
1B
100
AcDbEntity
 67
1
  8
M-GOST-ANTETYAZI
100
AcDbText
 10
333.0
 20
242.8
 30
0.0
 40
1.44
  1
Doğal taş kaplama (Sille taşı)
  7
YAZI
 11
333.0
 21
242.8
 31
0.0
100
AcDbText
  0
LWPOLYLINE
  5
194
330
1B
100
AcDbEntity
 67
1
  8
M-GOST-LEJANT
100
AcDbPolyline
 90
4
 70
1
 10
322.0
 20
241.4
 10
331.0
 20
241.4
 10
331.0
 20
238.8
 10
322.0
 20
238.8
  0
TEXT
  5
195
330
1B
100
AcDbEntity
 67
1
  8
M-GOST-ANTETYAZI
100
AcDbText
 10
333.0
 20
239.2
 30
0.0
 40
1.44
  1
İnce silikon sıva (mantolama)
  7
YAZI
 11
333.0
 21
239.2
 31
0.0
100
AcDbText
  0
HATCH
  5
196
330
1B
100
AcDbEntity
 67
1
  8
M-GOST-LEJANT
 62
7
100
AcDbHatch
 10
0.0
 20
0.0
 30
0.0
210
0.0
220
0.0
230
1.0
  2
LINE
 70
0
 71
0
 91
1
 92
3
 72
0
 73
1
 93
4
 10
322.0
 20
237.8
 10
331.0
 20
237.8
 10
331.0
 20
235.2
 10
322.0
 20
235.2
 97
0
 75
1
 76
1
 52
90.0
 41
0.4
 77
0
 78
1
 53
90.0
 43
0.0
 44
0.0
 45
-1.27
 46
0.0
 79
0
 98
0
  0
LWPOLYLINE
  5
197
330
1B
100
AcDbEntity
 67
1
  8
M-GOST-LEJANT
100
AcDbPolyline
 90
4
 70
1
 10
322.0
 20
237.8
 10
331.0
 20
237.8
 10
331.0
 20
235.2
 10
322.0
 20
235.2
  0
TEXT
  5
198
330
1B
100
AcDbEntity
 67
1
  8
M-GOST-ANTETYAZI
100
AcDbText
 10
333.0
 20
235.6
 30
0.0
 40
1.44
  1
Ahşap kompozit kaplama
  7
YAZI
 11
333.0
 21
235.6
 31
0.0
100
AcDbText
  0
HATCH
  5
199
330
1B
100
AcDbEntity
 67
1
  8
M-GOST-LEJANT
 62
7
100
AcDbHatch
 10
0.0
 20
0.0
 30
0.0
210
0.0
220
0.0
230
1.0
  2
AR-B816
 70
0
 71
0
 91
1
 92
3
 72
0
 73
1
 93
4
 10
322.0
 20
234.2
 10
331.0
 20
234.2
 10
331.0
 20
231.60000000000002
 10
322.0
 20
231.60000000000002
 97
0
 75
1
 76
1
 52
0.0
 41
0.012
 77
0
 78
2
 53
0.0
 43
0.0
 44
0.0
 45
0.0
 46
2.4384
 79
0
 53
90.0
 43
0.0
 44
0.0
 45
-2.4384
 46
2.4384
 79
2
 49
2.4384
 49
-2.4384
 98
0
  0
LWPOLYLINE
  5
19A
330
1B
100
AcDbEntity
 67
1
  8
M-GOST-LEJANT
100
AcDbPolyline
 90
4
 70
1
 10
322.0
 20
234.2
 10
331.0
 20
234.2
 10
331.0
 20
231.60000000000002
 10
322.0
 20
231.60000000000002
  0
TEXT
  5
19B
330
1B
100
AcDbEntity
 67
1
  8
M-GOST-ANTETYAZI
100
AcDbText
 10
333.0
 20
232.0
 30
0.0
 40
1.44
  1
Antrasit kil kiremit
  7
YAZI
 11
333.0
 21
232.0
 31
0.0
100
AcDbText
  0
LWPOLYLINE
  5
19C
330
1B
100
AcDbEntity
 67
1
  8
M-GOST-LEJANT
100
AcDbPolyline
 90
4
 70
1
 10
322.0
 20
230.60000000000002
 10
331.0
 20
230.60000000000002
 10
331.0
 20
228.0
 10
322.0
 20
228.0
  0
TEXT
  5
19D
330
1B
100
AcDbEntity
 67
1
  8
M-GOST-ANTETYAZI
100
AcDbText
 10
333.0
 20
228.4
 30
0.0
 40
1.44
  1
Isıcam, antrasit doğrama
  7
YAZI
 11
333.0
 21
228.4
 31
0.0
100
AcDbText
  0
TEXT
  5
19E
330
1B
100
AcDbEntity
 67
1
  8
M-GOST-ANTETYAZI
100
AcDbText
 10
322.0
 20
223.3
 30
0.0
 40
1.584
  1
NOTLAR
  7
YAZI-KALIN
 11
322.0
 21
223.3
 31
0.0
100
AcDbText
  0
TEXT
  5
19F
330
1B
100
AcDbEntity
 67
1
  8
M-GOST-ANTETYAZI
100
AcDbText
 10
322.0
 20
219.9
 30
0.0
 40
1.404
  1
1. Doğramalar antrasit (RAL 7016) ısı yalıtımlı alüminyum.
  7
YAZI
 11
322.0
 21
219.9
 31
0.0
100
AcDbText
  0
TEXT
  5
1A0
330
1B
100
AcDbEntity
 67
1
  8
M-GOST-ANTETYAZI
100
AcDbText
 10
322.0
 20
216.60000000000002
 30
0.0
 40
1.404
  1
2. Yatak odalarında motorlu dış jaluzi kutusu cephe içine
  7
YAZI
 11
322.0
 21
216.60000000000002
 31
0.0
100
AcDbText
  0
TEXT
  5
1A1
330
1B
100
AcDbEntity
 67
1
  8
M-GOST-ANTETYAZI
100
AcDbText
 10
322.0
 20
213.9
 30
0.0
 40
1.404
  1
    gömülüdür.
  7
YAZI
 11
322.0
 21
213.9
 31
0.0
100
AcDbText
  0
TEXT
  5
1A2
330
1B
100
AcDbEntity
 67
1
  8
M-GOST-ANTETYAZI
100
AcDbText
 10
322.0
 20
210.60000000000002
 30
0.0
 40
1.404
  1
3. Güney cephesi: konsol balkonlar ve teras pergolası yazın
  7
YAZI
 11
322.0
 21
210.60000000000002
 31
0.0
100
AcDbText
  0
TEXT
  5
1A3
330
1B
100
AcDbEntity
 67
1
  8
M-GOST-ANTETYAZI
100
AcDbText
 10
322.0
 20
207.9
 30
0.0
 40
1.404
  1
    güneş kontrolü sağlar.
  7
YAZI
 11
322.0
 21
207.9
 31
0.0
100
AcDbText
  0
CIRCLE
  5
1A5
330
1B
100
AcDbEntity
 67
1
  8
M-GOST-KUZEYOKU
100
AcDbCircle
 10
398.0
 20
115.0
 30
0.0
 40
6.5
  0
HATCH
  5
1A6
330
1B
100
AcDbEntity
 67
1
  8
M-GOST-KUZEYOKU
100
AcDbHatch
 10
0.0
 20
0.0
 30
0.0
210
0.0
220
0.0
230
1.0
  2
SOLID
 70
1
 71
0
 91
1
 92
3
 72
0
 73
1
 93
4
 10
398.0
 20
123.0
 10
400.2
 20
112.5
 10
398.0
 20
113.80000000000001
 10
395.8
 20
112.5
 97
0
 75
1
 76
1
 98
0
  0
LWPOLYLINE
  5
1A7
330
1B
100
AcDbEntity
 67
1
  8
M-GOST-KUZEYOKU
100
AcDbPolyline
 90
4
 70
1
 10
398.0
 20
123.0
 10
400.2
 20
112.5
 10
398.0
 20
113.80000000000001
 10
395.8
 20
112.5
  0
TEXT
  5
1A8
330
1B
100
AcDbEntity
 67
1
  8
M-GOST-ANTETYAZI
100
AcDbText
 10
398.0
 20
124.30000000000001
 30
0.0
 40
2.16
  1
K
  7
YAZI-KALIN
 72
1
 11
398.0
 21
124.30000000000001
 31
0.0
100
AcDbText
  0
LINE
  5
1A9
330
1B
100
AcDbEntity
 67
1
  8
M-GOST-ANTET
100
AcDbLine
 10
318.0
 20
102.0
 30
0.0
 11
410.0
 21
102.0
 31
0.0
  0
TEXT
  5
1AA
330
1B
100
AcDbEntity
 67
1
  8
M-GOST-ANTETYAZI
100
AcDbText
 10
322.0
 20
97.0
 30
0.0
 40
1.44
  1
REVİZYONLAR
  7
YAZI-KALIN
 11
322.0
 21
97.0
 31
0.0
100
AcDbText
  0
TEXT
  5
1AB
330
1B
100
AcDbEntity
 67
1
  8
M-GOST-ANTETYAZI
100
AcDbText
 10
322.0
 20
93.0
 30
0.0
 40
1.3679999999999999
  1
R0
  7
YAZI-KALIN
 11
322.0
 21
93.0
 31
0.0
100
AcDbText
  0
TEXT
  5
1AC
330
1B
100
AcDbEntity
 67
1
  8
M-GOST-ANTETYAZI
100
AcDbText
 10
328.0
 20
93.0
 30
0.0
 40
1.3679999999999999
  1
19.09.2026
  7
YAZI
 11
328.0
 21
93.0
 31
0.0
100
AcDbText
  0
TEXT
  5
1AD
330
1B
100
AcDbEntity
 67
1
  8
M-GOST-ANTETYAZI
100
AcDbText
 10
345.0
 20
93.0
 30
0.0
 40
1.3679999999999999
  1
İlk yayın
  7
YAZI
 11
345.0
 21
93.0
 31
0.0
100
AcDbText
  0
TEXT
  5
1AE
330
1B
100
AcDbEntity
 67
1
  8
M-GOST-ANTETYAZI
100
AcDbText
 10
322.0
 20
89.30000000000001
 30
0.0
 40
1.3679999999999999
  1
R1
  7
YAZI-KALIN
 11
322.0
 21
89.30000000000001
 31
0.0
100
AcDbText
  0
TEXT
  5
1AF
330
1B
100
AcDbEntity
 67
1
  8
M-GOST-ANTETYAZI
100
AcDbText
 10
328.0
 20
89.30000000000001
 30
0.0
 40
1.3679999999999999
  1
21.09.2026
  7
YAZI
 11
328.0
 21
89.30000000000001
 31
0.0
100
AcDbText
  0
TEXT
  5
1B0
330
1B
100
AcDbEntity
 67
1
  8
M-GOST-ANTETYAZI
100
AcDbText
 10
345.0
 20
89.30000000000001
 30
0.0
 40
1.3679999999999999
  1
Plan kurgusu yeniden düzenlendi; kesit,
  7
YAZI
 11
345.0
 21
89.30000000000001
 31
0.0
100
AcDbText
  0
TEXT
  5
1B1
330
1B
100
AcDbEntity
 67
1
  8
M-GOST-ANTETYAZI
100
AcDbText
 10
345.0
 20
86.80000000000001
 30
0.0
 40
1.3679999999999999
  1
görünüş, detay ve doğrama listesi eklendi
  7
YAZI
 11
345.0
 21
86.80000000000001
 31
0.0
100
AcDbText
  0
LINE
  5
1B2
330
1B
100
AcDbEntity
 67
1
  8
M-GOST-ANTET
100
AcDbLine
 10
318.0
 20
76.0
 30
0.0
 11
410.0
 21
76.0
 31
0.0
  0
TEXT
  5
1B3
330
1B
100
AcDbEntity
 67
1
  8
M-GOST-ANTETYAZI
100
AcDbText
 10
322.0
 20
71.0
 30
0.0
 40
1.3679999999999999
  1
İŞ SAHİBİ
  7
YAZI
 11
322.0
 21
71.0
 31
0.0
100
AcDbText
  0
TEXT
  5
1B4
330
1B
100
AcDbEntity
 67
1
  8
M-GOST-ANTETYAZI
100
AcDbText
 10
322.0
 20
66.5
 30
0.0
 40
1.728
  1
—
  7
YAZI
 11
322.0
 21
66.5
 31
0.0
100
AcDbText
  0
TEXT
  5
1B5
330
1B
100
AcDbEntity
 67
1
  8
M-GOST-ANTETYAZI
100
AcDbText
 10
366.0
 20
71.0
 30
0.0
 40
1.3679999999999999
  1
HAZIRLAYAN
  7
YAZI
 11
366.0
 21
71.0
 31
0.0
100
AcDbText
  0
TEXT
  5
1B6
330
1B
100
AcDbEntity
 67
1
  8
M-GOST-ANTETYAZI
100
AcDbText
 10
366.0
 20
66.5
 30
0.0
 40
1.728
  1
E. Ceran
  7
YAZI
 11
366.0
 21
66.5
 31
0.0
100
AcDbText
  0
LINE
  5
1B7
330
1B
100
AcDbEntity
 67
1
  8
M-GOST-ANTET
100
AcDbLine
 10
363.0
 20
76.0
 30
0.0
 11
363.0
 21
62.0
 31
0.0
  0
LINE
  5
1B8
330
1B
100
AcDbEntity
 67
1
  8
M-GOST-ANTET
100
AcDbLine
 10
318.0
 20
62.0
 30
0.0
 11
410.0
 21
62.0
 31
0.0
  0
TEXT
  5
1B9
330
1B
100
AcDbEntity
 67
1
  8
M-GOST-ANTETYAZI
100
AcDbText
 10
322.0
 20
57.0
 30
0.0
 40
1.3679999999999999
  1
MÜELLİF MİMAR
  7
YAZI
 11
322.0
 21
57.0
 31
0.0
100
AcDbText
  0
TEXT
  5
1BA
330
1B
100
AcDbEntity
 67
1
  8
M-GOST-ANTETYAZI
100
AcDbText
 10
322.0
 20
52.0
 30
0.0
 40
1.44
  1
(ruhsat aşamasında atanacak)
  7
YAZI
 11
322.0
 21
52.0
 31
0.0
100
AcDbText
  0
TEXT
  5
1BB
330
1B
100
AcDbEntity
 67
1
  8
M-GOST-ANTETYAZI
100
AcDbText
 10
366.0
 20
57.0
 30
0.0
 40
1.3679999999999999
  1
İMZA
  7
YAZI
 11
366.0
 21
57.0
 31
0.0
100
AcDbText
  0
LINE
  5
1BC
330
1B
100
AcDbEntity
 67
1
  8
M-GOST-ANTET
100
AcDbLine
 10
363.0
 20
62.0
 30
0.0
 11
363.0
 21
48.0
 31
0.0
  0
LINE
  5
1BD
330
1B
100
AcDbEntity
 67
1
  8
M-GOST-ANTET
100
AcDbLine
 10
318.0
 20
48.0
 30
0.0
 11
410.0
 21
48.0
 31
0.0
  0
TEXT
  5
1BE
330
1B
100
AcDbEntity
 67
1
  8
M-GOST-ANTETYAZI
100
AcDbText
 10
322.0
 20
42.0
 30
0.0
 40
1.3679999999999999
  1
PAFTA ADI
  7
YAZI
 11
322.0
 21
42.0
 31
0.0
100
AcDbText
  0
TEXT
  5
1BF
330
1B
100
AcDbEntity
 67
1
  8
M-GOST-ANTETYAZI
100
AcDbText
 10
322.0
 20
35.0
 30
0.0
 40
3.5999999999999996
  1
KUZEY VE GÜNEY GÖRÜNÜŞLERİ
  7
YAZI-KALIN
 11
322.0
 21
35.0
 31
0.0
100
AcDbText
  0
LINE
  5
1C0
330
1B
100
AcDbEntity
 67
1
  8
M-GOST-ANTET
100
AcDbLine
 10
318.0
 20
24.0
 30
0.0
 11
410.0
 21
24.0
 31
0.0
  0
TEXT
  5
1C1
330
1B
100
AcDbEntity
 67
1
  8
M-GOST-ANTETYAZI
100
AcDbText
 10
322.0
 20
19.5
 30
0.0
 40
1.3679999999999999
  1
ÖLÇEK
  7
YAZI
 11
322.0
 21
19.5
 31
0.0
100
AcDbText
  0
TEXT
  5
1C2
330
1B
100
AcDbEntity
 67
1
  8
M-GOST-ANTETYAZI
100
AcDbText
 10
322.0
 20
13.5
 30
0.0
 40
2.592
  1
1/100
  7
YAZI-KALIN
 11
322.0
 21
13.5
 31
0.0
100
AcDbText
  0
TEXT
  5
1C3
330
1B
100
AcDbEntity
 67
1
  8
M-GOST-ANTETYAZI
100
AcDbText
 10
350.0
 20
19.5
 30
0.0
 40
1.3679999999999999
  1
TARİH
  7
YAZI
 11
350.0
 21
19.5
 31
0.0
100
AcDbText
  0
TEXT
  5
1C4
330
1B
100
AcDbEntity
 67
1
  8
M-GOST-ANTETYAZI
100
AcDbText
 10
350.0
 20
13.5
 30
0.0
 40
2.16
  1
21.09.2026
  7
YAZI
 11
350.0
 21
13.5
 31
0.0
100
AcDbText
  0
TEXT
  5
1C5
330
1B
100
AcDbEntity
 67
1
  8
M-GOST-ANTETYAZI
100
AcDbText
 10
380.0
 20
19.5
 30
0.0
 40
1.3679999999999999
  1
PAFTA NO
  7
YAZI
 11
380.0
 21
19.5
 31
0.0
100
AcDbText
  0
TEXT
  5
1C6
330
1B
100
AcDbEntity
 67
1
  8
M-GOST-ANTETYAZI
100
AcDbText
 10
380.0
 20
13.0
 30
0.0
 40
3.7439999999999998
  1
A-08
  7
YAZI-KALIN
 11
380.0
 21
13.0
 31
0.0
100
AcDbText
  0
LINE
  5
1C7
330
1B
100
AcDbEntity
 67
1
  8
M-GOST-ANTET
100
AcDbLine
 10
347.0
 20
24.0
 30
0.0
 11
347.0
 21
10.0
 31
0.0
  0
LINE
  5
1C8
330
1B
100
AcDbEntity
 67
1
  8
M-GOST-ANTET
100
AcDbLine
 10
377.0
 20
24.0
 30
0.0
 11
377.0
 21
10.0
 31
0.0
  0
VIEWPORT
  5
1CA
330
1B
100
AcDbEntity
 67
1
  8
M-GOST-VPORT
100
AcDbViewport
 10
164.0
 20
216.79000000000002
 30
0.0
 40
307.0
 41
111.22
 68
2
 69
3
 12
800.0
 22
437.9000000000001
 13
0.0
 23
0.0
 14
10.0
 24
10.0
 15
10.0
 25
10.0
 16
0.0
 26
0.0
 36
1.0
 17
0.0
 27
0.0
 37
0.0
 42
50.0
 43
0.0
 44
0.0
 45
1112.2
 50
0.0
 51
0.0
 72
100
 90
0
  1

281
0
 71
0
 74
0
110
0.0
120
0.0
130
0.0
111
1.0
121
0.0
131
0.0
112
0.0
122
1.0
132
0.0
 79
0
146
0.0
282
0
  0
VIEWPORT
  5
1CB
330
1B
100
AcDbEntity
 67
1
  8
M-GOST-VPORT
100
AcDbViewport
 10
164.0
 20
86.79000000000002
 30
0.0
 40
307.0
 41
111.22
 68
2
 69
4
 12
5849.0
 22
437.9000000000002
 13
0.0
 23
0.0
 14
10.0
 24
10.0
 15
10.0
 25
10.0
 16
0.0
 26
0.0
 36
1.0
 17
0.0
 27
0.0
 37
0.0
 42
50.0
 43
0.0
 44
0.0
 45
1112.2
 50
0.0
 51
0.0
 72
100
 90
0
  1

281
0
 71
0
 74
0
110
0.0
120
0.0
130
0.0
111
1.0
121
0.0
131
0.0
112
0.0
122
1.0
132
0.0
 79
0
146
0.0
282
0
  0
ENDSEC
  0
SECTION
  2
OBJECTS
  0
DICTIONARY
  5
A
330
0
100
AcDbDictionary
280
0
281
1
  3
ACAD_COLOR
350
B
  3
ACAD_GROUP
350
C
  3
ACAD_LAYOUT
350
D
  3
ACAD_MATERIAL
350
E
  3
ACAD_MLEADERSTYLE
350
F
  3
ACAD_MLINESTYLE
350
10
  3
ACAD_PLOTSETTINGS
350
11
  3
ACAD_PLOTSTYLENAME
350
12
  3
ACAD_SCALELIST
350
14
  3
ACAD_TABLESTYLE
350
15
  3
ACAD_VISUALSTYLE
350
16
  3
EZDXF_META
350
2D
  0
DICTIONARY
  5
B
330
A
100
AcDbDictionary
280
0
281
1
  0
DICTIONARY
  5
C
330
A
100
AcDbDictionary
280
0
281
1
  0
DICTIONARY
  5
D
330
A
100
AcDbDictionary
280
0
281
1
  3
Model
350
1A
  3
A-08 KUZEY VE GUNEY GORUNUSLERI
350
1E
  0
DICTIONARY
  5
E
330
A
100
AcDbDictionary
280
0
281
1
  3
ByBlock
350
1F
  3
ByLayer
350
20
  3
Global
350
21
  0
DICTIONARY
  5
F
330
A
100
AcDbDictionary
280
0
281
1
  3
Standard
350
2C
  0
DICTIONARY
  5
10
330
A
100
AcDbDictionary
280
0
281
1
  3
Standard
350
22
  0
DICTIONARY
  5
11
330
A
100
AcDbDictionary
280
0
281
1
  0
ACDBDICTIONARYWDFLT
  5
12
330
A
100
AcDbDictionary
280
0
281
1
  3
Normal
350
13
100
AcDbDictionaryWithDefault
340
13
  0
ACDBPLACEHOLDER
  5
13
330
12
  0
DICTIONARY
  5
14
330
A
100
AcDbDictionary
280
0
281
1
  0
DICTIONARY
  5
15
330
A
100
AcDbDictionary
280
0
281
1
  0
DICTIONARY
  5
16
330
A
100
AcDbDictionary
280
0
281
1
  0
LAYOUT
  5
1A
330
D
100
AcDbPlotSettings
  1

  2
Adobe PDF
  4
A3
  6

 40
7.5
 41
20.0
 42
7.5
 43
20.0
 44
420.0
 45
297.0
 46
0.0
 47
0.0
 48
0.0
 49
0.0
140
0.0
141
0.0
142
1.0
143
1.0
 70
1024
 72
1
 73
0
 74
5
  7

 75
16
 76
0
 77
2
 78
300
147
1.0
148
0.0
149
0.0
100
AcDbLayout
  1
Model
 70
1
 71
0
 10
0.0
 20
0.0
 11
420.0
 21
297.0
 12
0.0
 22
0.0
 32
0.0
 14
1e+20
 24
1e+20
 34
1e+20
 15
-1e+20
 25
-1e+20
 35
-1e+20
146
0.0
 13
0.0
 23
0.0
 33
0.0
 16
1.0
 26
0.0
 36
0.0
 17
0.0
 27
1.0
 37
0.0
 76
1
330
17
  0
LAYOUT
  5
1E
330
D
100
AcDbPlotSettings
  1

  2
DWG to PDF.pc3
  4
ezdxf_(420.00_x_297.00_MM)
  6

 40
0.0
 41
0.0
 42
0.0
 43
0.0
 44
420.0
 45
297.0
 46
0.0
 47
0.0
 48
0.0
 49
0.0
140
0.0
141
0.0
142
1.0
143
1.0
 70
672
 72
1
 73
0
 74
5
  7

 75
16
 76
0
 77
2
 78
300
147
1.0
148
0.0
149
0.0
100
AcDbLayout
  1
A-08 KUZEY VE GUNEY GORUNUSLERI
 70
1
 71
1
 10
-0.0
 20
-0.0
 11
420.0
 21
297.0
 12
0.0
 22
0.0
 32
0.0
 14
1e+20
 24
1e+20
 34
1e+20
 15
-1e+20
 25
-1e+20
 35
-1e+20
146
0.0
 13
0.0
 23
0.0
 33
0.0
 16
1.0
 26
0.0
 36
0.0
 17
0.0
 27
1.0
 37
0.0
 76
1
330
1B
331
4F
  0
MATERIAL
  5
1F
102
{ACAD_REACTORS
330
E
102
}
330
E
100
AcDbMaterial
  1
ByBlock
  2

 70
0
 40
1.0
 71
1
 41
1.0
 91
-1023410177
 42
1.0
 72
1
  3

 73
1
 74
1
 75
1
 44
0.5
 73
0
 45
1.0
 46
1.0
 77
1
  4

 78
1
 79
1
170
1
 48
1.0
171
1
  6

172
1
173
1
174
1
140
1.0
141
1.0
175
1
  7

176
1
177
1
178
1
143
1.0
179
1
  8

270
1
271
1
272
1
145
1.0
146
1.0
273
1
  9

274
1
275
1
276
1
 42
1.0
 72
1
  3

 73
1
 74
1
 75
1
 94
63
  0
MATERIAL
  5
20
102
{ACAD_REACTORS
330
E
102
}
330
E
100
AcDbMaterial
  1
ByLayer
  2

 70
0
 40
1.0
 71
1
 41
1.0
 91
-1023410177
 42
1.0
 72
1
  3

 73
1
 74
1
 75
1
 44
0.5
 73
0
 45
1.0
 46
1.0
 77
1
  4

 78
1
 79
1
170
1
 48
1.0
171
1
  6

172
1
173
1
174
1
140
1.0
141
1.0
175
1
  7

176
1
177
1
178
1
143
1.0
179
1
  8

270
1
271
1
272
1
145
1.0
146
1.0
273
1
  9

274
1
275
1
276
1
 42
1.0
 72
1
  3

 73
1
 74
1
 75
1
 94
63
  0
MATERIAL
  5
21
102
{ACAD_REACTORS
330
E
102
}
330
E
100
AcDbMaterial
  1
Global
  2

 70
0
 40
1.0
 71
1
 41
1.0
 91
-1023410177
 42
1.0
 72
1
  3

 73
1
 74
1
 75
1
 44
0.5
 73
0
 45
1.0
 46
1.0
 77
1
  4

 78
1
 79
1
170
1
 48
1.0
171
1
  6

172
1
173
1
174
1
140
1.0
141
1.0
175
1
  7

176
1
177
1
178
1
143
1.0
179
1
  8

270
1
271
1
272
1
145
1.0
146
1.0
273
1
  9

274
1
275
1
276
1
 42
1.0
 72
1
  3

 73
1
 74
1
 75
1
 94
63
  0
MLINESTYLE
  5
22
102
{ACAD_REACTORS
330
10
102
}
330
10
100
AcDbMlineStyle
  2
Standard
 70
0
  3

 62
256
 51
90.0
 52
90.0
 71
2
 49
0.5
 62
256
  6
BYLAYER
 49
-0.5
 62
256
  6
BYLAYER
  0
MLEADERSTYLE
  5
2C
102
{ACAD_REACTORS
330
F
102
}
330
F
100
AcDbMLeaderStyle
179
2
170
2
171
1
172
0
 90
2
 40
0.0
 41
0.0
173
1
 91
-1056964608
 92
-2
290
1
 42
2.0
291
1
 43
8.0
  3
Standard
 44
4.0
300

342
29
174
1
175
1
176
0
178
1
 93
-1056964608
 45
4.0
292
0
297
0
 46
4.0
 94
-1056964608
 47
1.0
 49
1.0
140
1.0
294
1
141
0.0
177
0
142
1.0
295
0
296
0
143
3.75
271
0
272
9
273
9
  0
DICTIONARY
  5
2D
330
A
100
AcDbDictionary
281
1
  3
CREATED_BY_EZDXF
350
2E
  3
WRITTEN_BY_EZDXF
350
1CE
  0
DICTIONARYVAR
  5
2E
330
2D
100
DictionaryVariables
280
0
  1
1.1.4 @ 2026-09-22T09:33:00.619882+00:00
  0
DICTIONARYVAR
  5
1CE
330
2D
100
DictionaryVariables
280
0
  1
1.1.4 @ 2026-09-22T09:33:00.671408+00:00
  0
ENDSEC
  0
EOF
